<svg width="331" height="242" viewBox="0 0 331 242" fill="none" xmlns="http://www.w3.org/2000/svg">
<g clip-path="url(#clip0_79:1504)">
<g opacity="0.2">
<path opacity="0.2" d="M185.683 87.5775L162.617 127.335L205.866 161.33L133.207 160.754L91.1115 194.749L69.7753 154.992L0 142.316L59.3955 118.116L58.2422 76.0537L116.484 101.406L185.683 87.5775Z" fill="black"/>
</g>
<path d="M202.982 68.5668L164.923 46.6716L217.975 24.7764L256.034 47.2478L202.982 68.5668Z" fill="#E0840B"/>
<path d="M132.054 222.409L93.9951 200.514L103.222 134.252L140.704 156.147L132.054 222.409Z" fill="#BF6F07"/>
<path d="M155.119 96.2217L117.637 74.3264L141.28 5.18359L178.762 27.0788L155.119 96.2217Z" fill="#BF6F07"/>
<path d="M102.068 135.402L64.585 113.507L117.637 74.3262L155.12 96.2214L102.068 135.402Z" fill="#E0840B"/>
<path d="M178.763 27.0781L202.982 68.5638L256.034 47.2448L217.398 111.778L226.625 167.669L179.339 165.94L132.053 222.407L140.703 156.145L102.067 135.402L155.12 96.221L178.763 27.0781Z" fill="#FFCE44"/>
<path d="M254.881 218.952C255.458 218.376 254.881 218.376 255.458 217.8C256.034 218.376 257.187 218.952 258.341 219.528C262.377 220.681 269.874 219.528 270.451 221.833C271.027 223.562 268.721 227.019 265.837 227.019C265.261 227.019 264.684 227.019 264.107 226.443C262.954 225.866 261.801 225.866 260.647 226.443C260.647 226.443 259.494 227.019 258.917 226.443C255.458 225.29 256.034 222.986 253.728 220.681C253.728 220.105 254.304 219.528 254.881 218.952Z" fill="#171716"/>
<path d="M257.764 208.003C258.341 208.003 257.764 207.427 258.341 206.851C258.917 207.427 260.071 208.003 260.647 209.155C264.684 211.46 271.604 211.46 272.181 213.765C272.181 215.493 269.297 218.374 266.991 217.798C266.414 217.798 265.837 217.222 265.261 217.222C264.107 216.646 263.531 216.07 261.801 216.646C261.224 216.646 260.647 216.646 260.071 216.646C256.611 214.917 257.764 212.612 256.034 210.308C256.611 209.155 257.187 208.579 257.764 208.003Z" fill="#171716"/>
<path d="M206.443 159.607C206.443 159.607 209.326 157.878 216.246 163.064C223.166 168.25 228.356 169.402 230.086 169.402C231.816 169.402 234.699 168.25 236.429 168.826C238.159 169.402 239.889 174.011 236.429 174.588C232.969 175.164 226.626 174.011 225.472 172.859C223.743 171.13 202.983 166.521 206.443 159.607Z" fill="#F1B287"/>
<path d="M211.056 142.32C211.056 142.32 215.092 163.639 209.326 165.367C209.326 165.367 204.712 165.367 204.712 152.115C204.712 152.115 202.406 140.015 205.289 138.287C208.172 136.558 211.056 140.015 211.056 142.32Z" fill="#F1B287"/>
<path d="M207.595 136.558C207.595 136.558 212.209 136.558 212.785 145.2C213.362 150.962 213.362 150.962 213.362 150.962C213.362 150.962 208.749 153.843 203.559 151.539C203.559 151.539 200.099 135.981 207.595 136.558Z" fill="#2983EC"/>
<path d="M198.946 180.925C198.946 180.925 205.865 177.467 208.172 173.434C208.172 173.434 230.662 172.858 237.582 175.163C244.501 177.467 261.224 209.158 261.224 209.158C261.224 209.158 259.494 212.039 255.458 212.039C255.458 212.039 238.735 201.667 235.852 188.415C235.852 188.415 213.362 188.991 204.712 186.11C196.639 182.653 198.946 180.925 198.946 180.925Z" fill="#606EEA"/>
<path d="M235.851 187.837C238.735 201.089 255.458 211.461 255.458 211.461C256.611 211.461 257.187 211.461 257.764 210.885C250.844 205.699 239.888 186.108 236.428 183.227C232.968 180.346 211.632 183.804 203.559 184.956C204.135 184.956 204.135 185.532 204.712 185.532C213.362 188.413 235.851 187.837 235.851 187.837Z" fill="#5D6BE0"/>
<path d="M184.529 182.65C184.529 182.65 182.222 195.903 197.215 198.784C207.595 201.089 222.012 201.665 222.588 202.241C223.165 202.817 227.778 210.884 237.581 214.917C247.384 219.527 253.728 222.984 253.728 222.984C253.728 222.984 258.341 220.679 258.341 218.374C258.341 218.374 239.311 199.936 231.815 194.75C224.318 190.141 205.289 182.65 198.945 180.922C198.945 180.922 190.872 182.074 184.529 182.65Z" fill="#606EEA"/>
<path d="M182.223 148.08C182.223 148.08 186.836 139.437 205.289 136.556C205.289 136.556 208.172 135.404 208.172 145.199C208.172 146.352 209.902 149.233 210.479 150.385C211.632 151.537 214.515 156.147 208.749 162.485C208.749 162.485 207.019 171.128 209.325 176.89C212.785 183.804 199.522 187.261 189.142 186.109C186.259 185.533 182.223 184.38 182.799 179.771C183.953 175.161 189.142 168.247 186.836 160.18C185.106 150.961 181.069 152.114 182.223 148.08Z" fill="#3492FF"/>
<path d="M182.222 148.079C181.069 152.113 185.106 151.536 187.412 159.603C189.719 167.67 184.529 174.584 183.376 179.194C182.222 183.803 186.259 185.532 189.719 185.532C190.872 185.532 191.449 185.532 192.602 185.532C192.602 183.803 192.026 181.498 192.026 179.194C192.026 172.855 194.909 160.755 194.909 153.265C194.909 148.655 190.872 144.622 187.989 141.741C183.376 145.198 182.222 148.079 182.222 148.079Z" fill="#2983EC"/>
<path d="M204.712 182.074V183.227L216.245 191.869V190.717L204.712 182.074Z" fill="#A895DF"/>
<path d="M216.245 190.718V191.871L238.735 181.499V180.347L216.245 190.718Z" fill="#7D8183"/>
<path d="M204.712 182.074L216.245 190.716L238.735 180.345L226.625 172.278L204.712 182.074Z" fill="#E3E5E5"/>
<path d="M220.281 176.886L219.128 175.733L215.668 190.714L216.245 191.867L220.281 176.886Z" fill="#A895DF"/>
<path d="M243.347 165.939L242.771 165.363L219.128 175.735L220.281 176.887L243.347 165.939Z" fill="#C9C1EA"/>
<path d="M220.282 176.885L216.245 191.866L239.888 180.918L243.348 165.938L220.282 176.885Z" fill="#D5DFE6"/>
<path d="M220.281 176.885L239.888 180.918L243.347 165.938L220.281 176.885Z" fill="#E9F0F4"/>
<path d="M184.529 168.249C184.529 168.249 187.412 166.521 194.332 171.706C201.252 176.892 206.442 178.044 208.172 178.044C209.902 178.044 212.785 176.892 214.515 177.468C216.245 178.044 217.975 182.654 214.515 183.23C211.055 183.806 204.712 182.654 203.558 181.502C201.828 179.773 181.069 175.164 184.529 168.249Z" fill="#F1B287"/>
<path d="M189.143 150.962C189.143 150.962 193.179 172.281 187.413 174.01C187.413 174.01 182.799 174.01 182.799 160.758C182.799 160.758 180.493 148.658 183.376 146.929C186.259 145.201 189.143 148.658 189.143 150.962Z" fill="#F1B287"/>
<path d="M185.682 145.2C185.682 145.2 190.296 145.2 190.872 153.843C191.449 159.605 191.449 159.605 191.449 159.605C191.449 159.605 186.836 162.486 181.646 160.181C181.646 160.181 178.186 144.624 185.682 145.2Z" fill="#3492FF"/>
<path d="M187.412 121.575C175.879 118.694 174.149 141.742 182.799 148.08C184.529 149.232 189.142 148.08 189.142 146.351C190.296 139.437 180.493 131.947 185.682 125.608C185.682 125.608 186.259 125.032 186.836 124.456C187.412 123.88 189.719 122.727 187.412 121.575Z" fill="#131C24"/>
<path d="M202.406 134.251C202.406 134.251 199.522 138.284 201.252 142.894C201.829 144.046 202.982 148.656 195.486 147.503C195.486 147.503 187.413 144.046 189.719 141.742C190.872 140.013 192.602 137.708 189.719 130.218L202.406 134.251Z" fill="#F1B287"/>
<path d="M189.719 141.742L189.143 142.318C196.062 142.894 200.676 137.708 200.676 137.708L190.873 130.218C190.873 130.218 190.296 130.794 189.719 131.37C192.026 137.708 190.873 140.013 189.719 141.742Z" fill="#E5A377"/>
<path d="M200.099 120.423C200.099 120.423 201.829 120.999 202.406 126.761C202.406 127.337 203.559 127.914 204.136 129.642C204.713 131.371 205.289 137.709 201.829 138.861C198.946 139.437 192.026 138.285 189.72 131.947C186.26 125.609 191.449 116.966 200.099 120.423Z" fill="#F1B287"/>
<path d="M187.412 121.572C186.258 120.996 184.528 121.572 183.375 121.572C182.222 124.453 183.375 126.182 184.528 128.487C184.528 127.334 185.105 126.758 185.682 125.606C185.682 125.606 186.258 125.03 186.835 124.453C187.412 123.877 189.718 122.725 187.412 121.572Z" fill="#EFF3FC"/>
<path d="M199.522 118.118C196.639 115.813 193.179 116.389 190.296 117.542C187.413 118.694 184.529 121.575 184.529 124.456C184.529 128.489 185.683 133.099 190.296 135.403C192.026 136.556 189.143 131.946 191.449 131.946C192.026 131.946 192.602 130.794 193.179 130.218C193.756 130.218 196.639 129.065 199.522 127.913C199.522 127.913 200.099 126.184 200.099 125.608C200.676 125.608 200.676 127.337 200.676 127.337C202.406 126.761 203.559 126.184 203.559 126.184C204.136 122.727 201.252 119.846 199.522 118.118Z" fill="#131C24"/>
<path d="M191.449 130.217C192.602 131.37 192.602 132.522 192.025 133.098C191.449 133.674 190.295 133.674 189.142 132.522C187.989 131.37 187.989 130.217 188.565 129.641C189.142 129.065 190.872 129.641 191.449 130.217Z" fill="#F1B287"/>
</g>
<defs>
<clipPath id="clip0_79:1504">
<rect width="331" height="242" fill="white"/>
</clipPath>
</defs>
</svg>
