<svg width="229" height="228" viewBox="0 0 229 228" fill="none" xmlns="http://www.w3.org/2000/svg">
<g clip-path="url(#clip0_442:1075)">
<path d="M219.259 67.1937C225.295 12.3239 171.987 -6.74143 134.194 7.30454C96.0984 21.4729 87.2655 -2.00775 33.6959 4.70101C-20.5526 11.4914 6.99288 96.4691 6.99288 96.4691C6.99288 96.4691 15.6213 170.355 25.8445 204.413C36.0186 238.292 133.368 226.033 157.045 225.021C180.591 224.017 201.054 225.96 221.533 188.76C241.996 151.633 213.24 121.884 219.259 67.1937Z" fill="#F4F7FA"/>
<path d="M154.765 13.091C151.96 10.1039 147.388 8.08803 143.397 7.2882C115.157 1.64043 103.388 60.5584 106.054 74.4003C108.72 88.2422 105.334 92.2413 82.0006 96.3384C58.6672 100.427 67.7209 115.183 69.4547 123.361C71.1886 131.539 75.7604 138.835 58.4055 144.532C41.0505 150.221 46.1131 155.771 46.1131 155.771C46.1131 155.771 72.3499 190.416 71.941 180.345C71.5321 170.274 76.4638 155.762 103.658 158.08C115.369 159.076 133.926 155.803 139.472 143.855C140.764 141.072 141.966 136.722 141.655 133.637C141.214 129.352 138.899 125.72 137.877 121.606C135.505 112.025 145.246 106.467 151.142 101.015C154.217 98.1666 157.309 95.2448 159.82 91.8659C165.03 84.8633 164.473 76.5712 160.744 69.03C158.953 65.4145 156.328 61.4806 155.87 57.3835C155.379 52.9763 157.031 47.2551 157.841 42.8969C158.479 39.4772 159.239 36.082 159.493 32.6052C159.959 26.1331 159.46 18.0859 154.765 13.091Z" fill="#D8DEE8"/>
<g opacity="0.8">
<g opacity="0.8">
<path opacity="0.8" d="M41.5328 172.755C41.3283 172.804 41.1157 172.689 41.0421 172.485C40.9603 172.265 41.0748 172.02 41.2956 171.939C41.4346 171.89 54.9865 166.838 70.5667 157.664C84.9201 149.209 103.976 135.416 113.234 117.746C120.971 102.99 129.493 78.0404 136.617 49.3118C143.004 23.5459 145.965 4.26844 145.131 0.514146C145.082 0.285623 145.221 0.0571008 145.45 0.00813169C145.679 -0.0408374 145.908 0.0979084 145.957 0.326431C146.93 4.71733 143.192 26.3209 137.443 49.5159C130.303 78.3097 121.748 103.325 113.987 118.138C104.63 135.995 85.4353 149.886 70.9838 158.399C55.3464 167.613 41.7291 172.681 41.59 172.73C41.5737 172.747 41.5573 172.747 41.5328 172.755Z" fill="white"/>
</g>
<g opacity="0.8">
<path opacity="0.8" d="M135.922 54.3801C135.693 54.4291 135.48 54.3393 135.431 54.1108C135.365 53.8088 128.389 23.9295 115.508 15.7435C115.312 15.6211 115.254 15.3681 115.377 15.1722C115.5 14.9763 115.77 14.9274 115.966 15.0498C129.133 23.4235 135.971 52.6743 136.249 53.9149C136.314 54.1516 136.159 54.323 135.922 54.3801C135.93 54.3801 135.93 54.3801 135.922 54.3801Z" fill="white"/>
</g>
<g opacity="0.8">
<path opacity="0.8" d="M126.506 86.7977C126.335 86.8385 126.155 86.765 126.057 86.6099C125.934 86.4141 125.991 86.1529 126.187 86.0223C126.277 85.9652 134.914 80.5623 145.252 76.4162C159.221 70.8174 169.477 70.0666 175.725 74.18C175.921 74.3105 175.979 74.5717 175.848 74.7676C175.717 74.9635 175.455 75.0206 175.259 74.89C160.873 65.4308 126.973 86.5283 126.637 86.7405C126.605 86.7732 126.556 86.7895 126.506 86.7977Z" fill="white"/>
</g>
<g opacity="0.8">
<path opacity="0.8" d="M83.7991 150.074C83.7583 150.082 83.7092 150.09 83.6601 150.082C83.4229 150.058 83.2594 149.845 83.2839 149.617C83.3003 149.494 84.6497 137.228 83.7337 124.006C82.8913 111.886 79.9307 96.4527 70.5744 91.7925C70.3618 91.6864 70.28 91.4334 70.3863 91.2212C70.4926 91.009 70.7462 90.9274 70.9588 91.0335C78.753 94.9184 83.3411 105.994 84.5843 123.957C85.5085 137.252 84.1508 149.584 84.1345 149.707C84.1099 149.894 83.9709 150.033 83.7991 150.074Z" fill="white"/>
</g>
<g opacity="0.8">
<path opacity="0.8" d="M103.747 132.518C103.567 132.559 103.379 132.478 103.281 132.314C103.166 132.11 103.24 131.849 103.444 131.735C104.933 130.911 139.945 111.503 152.148 115.33C152.368 115.404 152.499 115.64 152.426 115.861C152.352 116.081 152.115 116.212 151.894 116.138C140.043 112.417 104.221 132.274 103.861 132.469C103.829 132.494 103.788 132.51 103.747 132.518Z" fill="white"/>
</g>
</g>
<path d="M195.335 40.4729C193.241 36.9471 189.217 33.9927 185.496 32.3522C159.144 20.7384 134.879 75.7225 134.486 89.8092C134.085 103.896 129.914 107.079 106.245 106.026C82.5766 104.981 88.2198 121.337 88.138 129.695C88.0563 138.052 90.9351 146.164 72.7542 147.976C54.5732 149.796 58.319 156.301 58.319 156.301C58.319 156.301 76.4182 195.795 78.2093 185.87C80.0004 175.946 87.9581 162.847 114.007 170.984C125.228 174.485 144.055 175.301 152.062 164.83C153.926 162.39 156.045 158.407 156.413 155.322C156.912 151.045 155.439 146.997 155.333 142.761C155.096 132.894 165.81 129.572 172.745 125.524C176.368 123.41 180.016 121.215 183.198 118.464C189.806 112.751 191.057 104.541 189.053 96.3711C188.088 92.4536 186.379 88.0463 186.821 83.9493C187.295 79.542 190.149 74.3105 191.883 70.2298C193.249 67.0223 194.729 63.8801 195.727 60.5339C197.576 54.3311 198.835 46.3655 195.335 40.4729Z" fill="url(#paint0_linear_442:1075)"/>
<g opacity="0.8">
<g opacity="0.8">
<path opacity="0.8" d="M50.1557 171.89C49.943 171.89 49.7631 171.734 49.7385 171.522C49.7058 171.294 49.8694 171.073 50.0984 171.041C50.2374 171.024 64.5745 169.017 81.774 163.426C97.6241 158.268 119.215 148.923 132.089 133.669C142.843 120.929 156.575 98.4196 169.767 71.911C181.593 48.1366 188.66 29.9527 188.66 26.1086C188.66 25.872 188.848 25.6842 189.085 25.6842C189.322 25.6842 189.51 25.872 189.51 26.1086C189.51 30.6056 181.168 50.8951 170.528 72.2865C157.311 98.8522 143.539 121.427 132.743 134.216C119.739 149.625 97.9839 159.043 82.0275 164.234C64.7626 169.849 50.3683 171.857 50.2211 171.881C50.1965 171.889 50.1802 171.89 50.1557 171.89Z" fill="white"/>
</g>
<g opacity="0.8">
<path opacity="0.8" d="M167.983 76.7753C167.746 76.7753 167.558 76.6121 167.558 76.3754C167.558 76.0652 167.231 45.3698 156.435 34.5966C156.272 34.4334 156.272 34.1722 156.435 34.0008C156.599 33.8376 156.869 33.8376 157.032 34.0008C168.073 45.0188 168.401 75.0859 168.409 76.3591C168.409 76.6039 168.221 76.7753 167.983 76.7753Z" fill="white"/>
</g>
<g opacity="0.8">
<path opacity="0.8" d="M151.767 106.328C151.595 106.328 151.432 106.222 151.366 106.051C151.284 105.83 151.399 105.585 151.62 105.512C151.718 105.479 161.328 102.068 172.32 100.256C187.172 97.8075 197.346 99.2847 202.556 104.655C202.72 104.826 202.711 105.088 202.548 105.251C202.376 105.414 202.114 105.406 201.951 105.243C189.961 92.8943 152.29 106.173 151.906 106.312C151.857 106.32 151.808 106.328 151.767 106.328Z" fill="white"/>
</g>
<g opacity="0.8">
<path opacity="0.8" d="M96.3382 158.88C96.2891 158.88 96.2482 158.872 96.1991 158.856C95.9783 158.782 95.8557 158.537 95.9374 158.317C95.9783 158.203 99.9531 146.515 101.924 133.408C103.732 121.394 104.181 105.683 96.0683 99.1216C95.8884 98.9747 95.8557 98.7053 96.0029 98.5258C96.1501 98.3462 96.42 98.3136 96.5999 98.4605C103.372 103.937 105.441 115.747 102.758 133.547C100.771 146.728 96.7716 158.472 96.7308 158.594C96.6817 158.766 96.5181 158.88 96.3382 158.88Z" fill="white"/>
</g>
<g opacity="0.8">
<path opacity="0.8" d="M119.614 146.05C119.434 146.05 119.262 145.928 119.205 145.748C119.14 145.528 119.262 145.291 119.491 145.218C121.119 144.728 159.517 133.351 170.591 139.725C170.796 139.839 170.861 140.1 170.746 140.304C170.632 140.509 170.37 140.574 170.166 140.46C159.403 134.265 120.129 145.911 119.728 146.034C119.696 146.042 119.655 146.05 119.614 146.05Z" fill="white"/>
</g>
</g>
<path d="M135.25 61.7418L93.5884 14.4377C91.8546 12.585 88.3296 13.0094 85.8188 12.887C83.2998 12.7646 80.8707 13.646 79.0878 15.3355L30.4171 61.4399C26.9821 64.7045 24.9375 69.1198 24.9375 73.7311V203.14C24.9375 211.351 32.1019 217.243 40.6976 216.174L126.409 205.507C133.737 204.593 139.56 197.745 139.56 190.294V72.7762C139.56 68.6628 138.031 64.7126 135.25 61.7418ZM85.4507 67.61C79.1042 67.6263 73.9108 62.5417 73.9108 56.2491C73.9108 49.9566 79.1042 44.9454 85.4507 45.0515C91.7319 45.1576 96.7699 50.2423 96.7699 56.4042C96.7781 62.5825 91.7319 67.5936 85.4507 67.61Z" fill="url(#paint1_linear_442:1075)"/>
<path d="M139.29 61.75L122.279 43.5498L96.729 16.1516C95.0115 14.3153 92.6397 13.1972 90.1452 13.0747C87.6426 12.9523 85.2299 13.8256 83.4551 15.515L59.5328 38.2857L35.2915 61.4562C31.8811 64.7045 30 69.1117 30 73.7066V202.634C30 210.82 37.0581 216.664 45.5884 215.595L68.3411 212.754L108.007 207.8L130.498 205.009C137.777 204.103 143.649 197.256 143.649 189.829V72.7517C143.649 68.6465 142.046 64.7045 139.29 61.75ZM89.7772 45.1332C96.0092 45.2393 101.015 50.2994 101.015 56.445C101.015 62.5906 96.0092 67.5855 89.7772 67.6018C83.4797 67.6181 78.319 62.5498 78.319 56.2818C78.319 50.0219 83.4715 45.0271 89.7772 45.1332Z" fill="url(#paint2_linear_442:1075)"/>
<path d="M118.592 82.9699H86.1719L59.3708 139.962L72.7182 139.146L54.8398 197.672L117.291 118.889L98.0881 119.68L118.592 82.9699Z" fill="white"/>
<path opacity="0.1" d="M143.651 72.7517V189.829C143.651 197.256 137.779 204.103 130.5 205.009L108.058 207.8L68.3672 212.754C80.6923 198.7 84.8552 185.601 85.7057 174.836C87.595 151.225 73.4379 141.496 78.8276 120.121C85.4931 93.6452 111.28 92.2577 120.121 66.0838C122.059 60.3381 123.319 52.9192 122.223 43.5498L139.292 61.75C142.048 64.7045 143.651 68.6465 143.651 72.7517Z" fill="url(#paint3_linear_442:1075)"/>
<path d="M83.6711 219.21C83.6711 220.818 82.6815 222.124 81.4547 222.124C80.2279 222.124 79.2383 220.818 79.2383 219.21C79.2383 217.602 80.2279 216.296 81.4547 216.296C82.6815 216.296 83.6711 217.602 83.6711 219.21Z" fill="url(#paint4_linear_442:1075)"/>
<path d="M84.2922 219.235C84.2922 220.842 83.3025 222.148 82.0758 222.148C80.849 222.148 79.8594 220.842 79.8594 219.235C79.8594 217.627 80.849 216.321 82.0758 216.321C83.2944 216.321 84.2922 217.627 84.2922 219.235Z" fill="url(#paint5_linear_442:1075)"/>
<path d="M83.0014 219.292C83.0014 219.969 82.5843 220.516 82.0691 220.516C81.5538 220.516 81.1367 219.969 81.1367 219.292C81.1367 218.614 81.5538 218.067 82.0691 218.067C82.5843 218.076 83.0014 218.622 83.0014 219.292Z" fill="url(#paint6_linear_442:1075)"/>
<path d="M81.4531 215.684V218.884C81.4531 219.357 81.8375 219.732 82.3037 219.732C82.5736 219.732 82.8353 219.602 82.9907 219.381L85.8696 215.439L81.4531 215.684Z" fill="#C9CED6"/>
<path d="M107.421 216.656C107.421 218.263 106.431 219.569 105.205 219.569C103.978 219.569 102.988 218.263 102.988 216.656C102.988 215.048 103.978 213.742 105.205 213.742C106.431 213.742 107.421 215.048 107.421 216.656Z" fill="url(#paint7_linear_442:1075)"/>
<path d="M108.042 216.68C108.042 218.288 107.053 219.594 105.826 219.594C104.599 219.594 103.609 218.288 103.609 216.68C103.609 215.072 104.599 213.766 105.826 213.766C107.044 213.774 108.042 215.072 108.042 216.68Z" fill="url(#paint8_linear_442:1075)"/>
<path d="M106.751 216.745C106.751 217.423 106.334 217.97 105.819 217.97C105.304 217.97 104.887 217.423 104.887 216.745C104.887 216.068 105.304 215.521 105.819 215.521C106.334 215.521 106.751 216.068 106.751 216.745Z" fill="url(#paint9_linear_442:1075)"/>
<path d="M105.203 213.13V216.329C105.203 216.802 105.588 217.178 106.054 217.178C106.324 217.178 106.585 217.047 106.741 216.827L109.62 212.885L105.203 213.13Z" fill="#C9CED6"/>
<path d="M81.1189 216.182C80.8245 216.182 80.5792 215.962 80.5383 215.668C80.5056 215.35 80.7346 215.064 81.0535 215.023L109.18 211.856C110.709 211.595 111.985 210.436 112.402 208.902L123.427 160.904C124.056 158.57 126.093 156.897 128.506 156.734L137.06 156.228C137.379 156.203 137.657 156.456 137.674 156.774C137.69 157.093 137.445 157.37 137.126 157.387L128.579 157.893C126.665 158.023 125.046 159.353 124.547 161.206L113.522 209.204C112.991 211.171 111.355 212.664 109.343 213.007L81.1844 216.174C81.168 216.174 81.1435 216.182 81.1189 216.182Z" fill="#D8DEE8"/>
<path d="M99.9384 194.726C99.6848 194.726 99.4558 194.562 99.3822 194.301L92.7576 171.171C92.6676 170.861 92.8475 170.543 93.1583 170.453C93.4691 170.363 93.7881 170.543 93.878 170.853L100.503 193.983C100.593 194.293 100.413 194.611 100.102 194.701C100.045 194.717 99.9875 194.726 99.9384 194.726Z" fill="#C2C2C2"/>
<path d="M106.71 193.762C106.432 193.762 106.187 193.566 106.138 193.281L102.048 170.372C101.991 170.053 102.204 169.751 102.523 169.702C102.842 169.645 103.144 169.857 103.193 170.176L107.283 193.085C107.34 193.403 107.127 193.705 106.808 193.754C106.784 193.754 106.743 193.762 106.71 193.762Z" fill="#C2C2C2"/>
<path d="M110.921 193.012C110.913 193.012 110.905 193.012 110.897 193.012C110.578 192.995 110.324 192.726 110.341 192.408L111.281 169.743C111.297 169.425 111.551 169.172 111.886 169.188C112.205 169.204 112.459 169.474 112.442 169.792L111.502 192.457C111.494 192.767 111.232 193.012 110.921 193.012Z" fill="#C2C2C2"/>
<path d="M90.6941 195.574C90.4488 195.574 90.2279 195.419 90.1462 195.174L82.3683 172.036C82.2702 171.735 82.4337 171.4 82.7364 171.302C83.039 171.204 83.3743 171.367 83.4724 171.669L91.2503 194.807C91.3484 195.109 91.1848 195.444 90.8822 195.542C90.8168 195.566 90.7514 195.574 90.6941 195.574Z" fill="#D8DEE8"/>
<path d="M157.082 159.402C157.049 159.402 157.016 159.402 156.983 159.402L137.837 157.835C137.199 157.787 136.717 157.223 136.774 156.587C136.823 155.95 137.388 155.469 138.025 155.526L157.172 157.093C157.809 157.142 158.292 157.705 158.235 158.341C158.194 158.945 157.687 159.402 157.082 159.402Z" fill="url(#paint10_linear_442:1075)"/>
<path d="M103.757 222.932C103.757 224.54 102.767 225.845 101.541 225.845C100.314 225.845 99.3242 224.54 99.3242 222.932C99.3242 221.324 100.314 220.018 101.541 220.018C102.759 220.018 103.757 221.324 103.757 222.932Z" fill="url(#paint11_linear_442:1075)"/>
<path d="M104.37 222.964C104.37 224.572 103.381 225.878 102.154 225.878C100.927 225.878 99.9375 224.572 99.9375 222.964C99.9375 221.356 100.927 220.051 102.154 220.051C103.381 220.051 104.37 221.348 104.37 222.964Z" fill="url(#paint12_linear_442:1075)"/>
<path d="M103.087 223.021C103.087 223.699 102.67 224.246 102.155 224.246C101.64 224.246 101.223 223.699 101.223 223.021C101.223 222.344 101.64 221.797 102.155 221.797C102.67 221.797 103.087 222.344 103.087 223.021Z" fill="url(#paint13_linear_442:1075)"/>
<path d="M101.531 219.406V222.605C101.531 223.079 101.916 223.454 102.382 223.454C102.652 223.454 102.913 223.323 103.069 223.103L105.948 219.161L101.531 219.406Z" fill="#BFC8D6"/>
<path d="M124.319 220.875C124.319 222.483 123.33 223.789 122.103 223.789C120.876 223.789 119.887 222.483 119.887 220.875C119.887 219.267 120.876 217.961 122.103 217.961C123.33 217.969 124.319 219.267 124.319 220.875Z" fill="url(#paint14_linear_442:1075)"/>
<path d="M124.941 220.908C124.941 222.515 123.951 223.821 122.724 223.821C121.497 223.821 120.508 222.515 120.508 220.908C120.508 219.3 121.497 217.994 122.724 217.994C123.943 217.994 124.941 219.3 124.941 220.908Z" fill="url(#paint15_linear_442:1075)"/>
<path d="M123.65 220.965C123.65 221.642 123.233 222.189 122.717 222.189C122.202 222.189 121.785 221.642 121.785 220.965C121.785 220.287 122.202 219.741 122.717 219.741C123.233 219.741 123.65 220.287 123.65 220.965Z" fill="url(#paint16_linear_442:1075)"/>
<path d="M122.102 217.349V220.549C122.102 221.022 122.486 221.397 122.952 221.397C123.222 221.397 123.484 221.267 123.639 221.046L126.518 217.104L122.102 217.349Z" fill="#BFC8D6"/>
<path d="M71.6136 172.967C71.311 172.967 71.0575 172.73 71.0329 172.428C71.0084 172.11 71.2538 171.832 71.5727 171.808L121.667 168.209C121.716 168.209 121.756 168.209 121.806 168.217L142.546 171.743C142.865 171.8 143.078 172.094 143.021 172.412C142.964 172.73 142.669 172.942 142.35 172.885L121.683 169.376L71.6545 172.967C71.6463 172.967 71.63 172.967 71.6136 172.967Z" fill="#D8DEE8"/>
<path d="M135.971 196.366C135.939 196.366 135.914 196.366 135.881 196.358L115.476 193.232L84.43 196.211C84.111 196.244 83.8248 196.007 83.7921 195.689C83.7594 195.37 83.9965 195.085 84.3155 195.052L115.435 192.065C115.484 192.057 115.533 192.065 115.582 192.073L136.061 195.207C136.38 195.256 136.593 195.55 136.544 195.868C136.503 196.162 136.249 196.366 135.971 196.366Z" fill="#C9CED6"/>
<path d="M115.256 165.711C115.051 165.752 114.863 165.581 114.831 165.385C114.323 161.843 112.876 157.982 110.782 155.322C108.909 152.939 107.462 151.91 104.73 151.437H104.665C98.9314 150.825 98.6125 164.177 98.6616 166.021C98.7433 169.009 98.498 166.683 98.269 166.936C98.04 167.189 97.8682 168.062 97.8192 166.47C97.7047 162.251 98.1218 151.029 104.599 150.555H104.64C107.715 150.972 109.367 152.114 111.453 154.75C113.645 157.509 115.133 161.475 115.624 165.164C115.648 165.377 115.518 165.646 115.289 165.703C115.28 165.703 115.264 165.703 115.256 165.711Z" fill="url(#paint17_linear_442:1075)"/>
<path d="M88.748 196.488C91.8313 197.558 95.5853 198.088 98.7913 199.19C99.9118 194.326 101.858 189.625 103.412 184.891C100.411 178.354 97.8508 171.62 94.473 165.262C93.6797 165.491 92.9027 165.711 92.0931 165.932C91.7659 176.55 89.6313 184.858 87.5703 195.003C87.3904 195.884 87.8402 196.178 88.748 196.488Z" fill="url(#paint18_linear_442:1075)"/>
<path opacity="0.3" d="M103.413 184.891C100.411 178.354 97.8512 171.62 94.4735 165.262C94.0073 165.426 93.533 165.458 93.0832 165.711C93.0913 167.148 93.3858 171 93.533 172.085C94.13 176.648 95.9048 181.153 95.2505 185.226C94.7107 188.564 92.7887 189.494 92.7969 192.506C92.8051 195.754 95.5285 197.566 98.1457 198.994C98.391 199.059 98.5873 199.116 98.8081 199.19C99.9041 194.326 101.867 189.625 103.413 184.891Z" fill="url(#paint19_linear_442:1075)"/>
<path d="M94.4727 165.262C105.08 165.409 114.134 164.691 124.578 163.067C129.052 174.175 132.119 184.736 135.464 196.178C123.727 196.652 110.331 197.329 98.7991 199.19C96.1656 188.466 96.7627 176.28 94.4727 165.262Z" fill="url(#paint20_linear_442:1075)"/>
<g opacity="0.3">
<path opacity="0.3" d="M124.579 163.075C119.353 163.875 114.675 164.454 109.277 164.854C108.435 164.92 108.647 166.193 108.688 167.115C108.917 172.494 119.002 172.298 120.564 178.688C121.733 183.463 116.834 189.021 113.211 191.134C109.424 193.338 105.998 192.481 102.963 195.011C101.638 196.113 101.18 197.354 100.641 198.921C111.714 197.337 124.244 196.635 135.465 196.186C132.136 184.736 129.028 174.191 124.579 163.075Z" fill="url(#paint21_linear_442:1075)"/>
</g>
<path d="M104.216 167.621C103.782 166.797 104.248 168.87 103.717 167.034C102.711 163.565 101.132 157.517 103.185 153.502C103.782 152.335 105.156 151.274 106.448 150.931C113.106 149.192 117.686 160.186 119.158 164.512C119.657 165.973 119.231 165.32 118.896 165.075C118.561 164.83 119.313 167.491 118.225 164.406C117.473 162.267 112.402 149.511 106.694 151.853C105.655 152.277 104.551 153.216 103.978 153.951C101.786 156.75 104.003 165.107 104.346 166.283C105.23 169.368 104.191 166.307 104.314 167.605C104.33 167.801 104.289 167.76 104.216 167.621Z" fill="url(#paint22_linear_442:1075)"/>
<path d="M105.359 167.629C105.408 168.274 104.974 168.837 104.312 168.878C103.649 168.919 103.151 168.413 103.101 167.768C103.052 167.123 103.478 166.568 104.132 166.527C104.803 166.495 105.31 166.985 105.359 167.629Z" fill="url(#paint23_linear_442:1075)"/>
<path d="M120.178 165.385C120.211 166.038 119.794 166.666 119.148 166.83C118.51 166.993 118.011 166.511 117.978 165.875C117.946 165.238 118.379 164.601 119.025 164.479C119.679 164.357 120.146 164.732 120.178 165.385Z" fill="url(#paint24_linear_442:1075)"/>
<path d="M128.455 179.7C125.257 176.705 121.716 173.848 118.24 171.171C117.945 170.943 117.79 170.976 117.495 171.155C115.991 172.077 114.208 173.057 112.727 173.946C112.228 174.24 112.106 174.624 112.498 175.097C115.353 178.549 118.395 182.132 121.184 185.658C121.487 186.042 121.789 186.058 122.182 185.764C124.218 184.262 126.508 182.557 128.422 180.916C128.864 180.524 128.896 180.108 128.455 179.7ZM117.127 174.542C116.751 174.869 116.269 174.599 115.999 174.248C115.737 173.897 115.59 173.35 115.958 173.016C116.326 172.681 116.808 172.942 117.07 173.293C117.34 173.644 117.504 174.216 117.127 174.542Z" fill="#D8DEE8"/>
<path d="M128.447 179.57C125.249 176.574 121.708 173.726 118.224 171.041C117.93 170.812 117.774 170.845 117.48 171.024C115.975 171.947 114.192 172.926 112.712 173.816C112.213 174.11 112.09 174.493 112.483 174.958C115.345 178.411 118.379 182.002 121.177 185.519C121.479 185.903 121.782 185.919 122.174 185.625C124.211 184.116 126.501 182.41 128.415 180.769C128.864 180.394 128.889 179.978 128.447 179.57ZM117.12 174.42C116.744 174.746 116.261 174.477 115.991 174.134C115.73 173.783 115.582 173.236 115.95 172.902C116.318 172.567 116.801 172.828 117.063 173.179C117.324 173.53 117.488 174.093 117.12 174.42Z" fill="#F4F7FA"/>
<path d="M115.043 172.518C115.01 172.526 114.977 172.502 114.961 172.469C114.593 171.849 114.127 171.171 113.554 170.755C111.96 169.604 110.16 169.531 108.312 169.457C106.464 169.392 104.959 169.27 103.626 167.964C103.282 167.629 102.939 167.131 103.086 166.666C103.143 166.479 103.413 166.47 103.585 166.454C103.617 166.454 103.675 166.495 103.675 166.552C103.683 166.609 103.609 166.634 103.585 166.65C103.495 166.707 103.233 166.585 103.233 166.78C103.225 167.205 103.347 167.45 103.797 167.882C104.975 169.017 106.554 169.237 108.328 169.27C110.177 169.311 112.058 169.433 113.669 170.6C114.258 171.025 114.748 171.735 115.125 172.371C115.149 172.412 115.125 172.485 115.092 172.502C115.059 172.518 115.076 172.51 115.043 172.518Z" fill="#26264F"/>
<path d="M115.943 173.897C115.885 173.954 115.877 173.946 115.869 173.873C115.861 173.799 115.746 173.971 115.894 173.693C116.049 173.408 116.548 172.796 116.352 172.126C116.229 171.71 116.245 171.261 115.501 170.796C113.906 169.8 111.42 169.131 109.432 168.543C108.222 168.184 106.856 167.727 105.695 167.237C105.433 167.123 105.278 167.066 105.024 166.976C104.967 166.96 104.951 166.903 104.967 166.854C104.983 166.805 105.024 166.772 105.081 166.797C105.335 166.887 105.49 166.952 105.76 167.066C106.922 167.548 108.279 168.013 109.49 168.364C111.477 168.943 114.012 169.637 115.607 170.633C116.392 171.131 116.392 171.637 116.531 172.094C116.744 172.82 116.204 173.522 116.033 173.816C115.877 174.101 116 173.84 115.943 173.897Z" fill="#26264F"/>
<path d="M128.447 179.57C125.249 176.558 121.708 173.742 118.223 171.033C117.921 170.804 117.774 170.91 117.487 171.008C117.357 171.057 117.201 171.204 117.07 171.269C117.226 171.694 117.479 172.2 117.725 172.551C119 174.363 121.479 174.436 122.215 176.305C122.861 177.954 121.282 179.17 121.209 181.137C121.176 182.116 121.806 184.287 122.73 185.201C124.619 183.83 126.672 182.287 128.414 180.769C128.864 180.386 128.888 179.986 128.447 179.57Z" fill="white"/>
<path d="M88.6346 178.125C88.5774 178.125 88.5201 178.117 88.4629 178.101L71.4433 172.942C71.1325 172.853 70.9607 172.526 71.0589 172.216C71.1488 171.906 71.476 171.735 71.7868 171.832L88.7 176.958L142.401 171.743C142.728 171.71 143.006 171.947 143.038 172.265C143.071 172.583 142.834 172.869 142.515 172.902L88.7 178.133C88.6755 178.125 88.6591 178.125 88.6346 178.125Z" fill="#D8DEE8"/>
<path d="M98.9649 199.884C98.744 199.884 98.5396 199.753 98.4414 199.549L88.1119 177.79C87.9729 177.505 88.0955 177.154 88.39 177.015C88.6762 176.876 89.0279 176.999 89.1669 177.293L99.3247 198.684L135.924 195.215C136.251 195.183 136.529 195.419 136.562 195.738C136.594 196.056 136.357 196.342 136.038 196.374L99.0385 199.884C99.0058 199.875 98.9894 199.884 98.9649 199.884Z" fill="#D8DEE8"/>
<path d="M98.9713 199.884C98.9222 199.884 98.8731 199.875 98.8322 199.867L84.2335 196.211C84.0781 196.17 83.9391 196.072 83.8655 195.925L71.1069 172.665C70.9515 172.387 71.0578 172.028 71.3359 171.873C71.614 171.718 71.9738 171.824 72.1292 172.102L84.7651 195.134L99.1185 198.733C99.4293 198.814 99.6174 199.124 99.5438 199.435C99.462 199.704 99.2248 199.884 98.9713 199.884Z" fill="#D8DEE8"/>
<path d="M92.3991 186.033C92.3418 186.033 92.2846 186.025 92.2355 186.009L76.2055 181.316C75.8947 181.226 75.723 180.9 75.8129 180.598C75.9029 180.288 76.23 180.116 76.5326 180.206L92.4563 184.866L139.794 180.745C140.121 180.712 140.399 180.957 140.424 181.275C140.448 181.594 140.211 181.879 139.892 181.904L92.4481 186.033C92.4318 186.033 92.4154 186.033 92.3991 186.033Z" fill="#D8DEE8"/>
<path d="M96.3137 194.285C96.2646 194.285 96.2073 194.277 96.1583 194.26L80.7989 189.967C80.4881 189.878 80.3082 189.559 80.3982 189.249C80.4881 188.939 80.8071 188.759 81.1179 188.849L96.3709 193.118L137.476 189.527C137.795 189.494 138.082 189.739 138.106 190.057C138.131 190.375 137.893 190.661 137.575 190.686L96.3627 194.285C96.3464 194.285 96.33 194.285 96.3137 194.285Z" fill="#D8DEE8"/>
<path d="M106.52 199.165C106.266 199.165 106.037 199.002 105.963 198.749L99.3715 176.697C99.2815 176.387 99.4533 176.068 99.7641 175.978C100.075 175.889 100.394 176.06 100.484 176.37L107.076 198.423C107.166 198.733 106.994 199.051 106.683 199.141C106.634 199.157 106.577 199.165 106.52 199.165Z" fill="#D8DEE8"/>
<path d="M113.809 198.472C113.531 198.472 113.286 198.276 113.237 197.99L109.287 175.644C109.229 175.326 109.442 175.024 109.761 174.975C110.08 174.917 110.383 175.13 110.432 175.448L114.382 197.794C114.439 198.113 114.227 198.415 113.908 198.464C113.883 198.472 113.842 198.472 113.809 198.472Z" fill="#D8DEE8"/>
<path d="M122.028 197.541C121.725 197.541 121.463 197.305 121.447 196.994L120.204 174.803C120.188 174.485 120.433 174.207 120.752 174.191C121.071 174.175 121.349 174.42 121.365 174.738L122.608 196.929C122.625 197.247 122.379 197.525 122.06 197.541C122.052 197.541 122.044 197.541 122.028 197.541Z" fill="#D8DEE8"/>
<path d="M129.824 196.668C129.815 196.668 129.799 196.668 129.791 196.668C129.472 196.652 129.227 196.374 129.243 196.056L130.429 173.514C130.445 173.195 130.715 172.951 131.042 172.967C131.361 172.983 131.607 173.261 131.59 173.579L130.404 196.121C130.38 196.431 130.126 196.668 129.824 196.668Z" fill="#D8DEE8"/>
<path d="M94.5574 198.774C94.3448 198.774 94.1321 198.651 94.034 198.447L83.3855 176.362C83.2465 176.076 83.3692 175.725 83.6554 175.587C83.9417 175.448 84.2933 175.57 84.4324 175.856L95.0808 197.941C95.2199 198.227 95.0972 198.578 94.811 198.717C94.7292 198.757 94.6392 198.774 94.5574 198.774Z" fill="#D8DEE8"/>
<path d="M88.6349 197.288C88.4222 197.288 88.2178 197.174 88.1115 196.97L76.8087 174.379C76.6615 174.093 76.7841 173.742 77.0704 173.604C77.3566 173.457 77.7083 173.579 77.8473 173.865L89.1501 196.456C89.2973 196.741 89.1747 197.092 88.8884 197.231C88.8148 197.272 88.7248 197.288 88.6349 197.288Z" fill="#D8DEE8"/>
<path d="M101.426 220.304C101.352 220.304 101.279 220.287 101.213 220.263L80.9139 216.141C80.6113 216.019 80.4723 215.684 80.5868 215.39C80.7013 215.088 81.0448 214.95 81.3392 215.064L101.508 219.128L126.91 216.035C128.718 215.815 130.198 214.542 130.681 212.787L144.6 162.332C145.238 160.031 147.267 158.366 149.655 158.195L157.04 157.656C157.359 157.64 157.637 157.876 157.662 158.195C157.686 158.513 157.441 158.79 157.122 158.815L149.737 159.354C147.839 159.492 146.228 160.814 145.721 162.643L131.793 213.089C131.179 215.301 129.315 216.9 127.041 217.178L101.491 220.296C101.475 220.296 101.45 220.304 101.426 220.304Z" fill="#D8DEE8"/>
<path d="M62.2011 73.6217C76.3724 59.4799 76.3724 36.5515 62.2011 22.4097C48.0297 8.26796 25.0535 8.26797 10.8821 22.4097C-3.28921 36.5515 -3.28921 59.4799 10.8821 73.6217C25.0535 87.7634 48.0297 87.7634 62.2011 73.6217Z" fill="#D8DEE8"/>
<path d="M65.1464 73.6211C79.3177 59.4794 79.3177 36.551 65.1464 22.4092C50.9751 8.26747 27.9988 8.26747 13.8274 22.4092C-0.343892 36.551 -0.343892 59.4794 13.8274 73.6211C27.9988 87.7629 50.9751 87.7629 65.1464 73.6211Z" fill="white"/>
<path d="M39.4899 80.1869C57.2956 80.1869 71.7299 65.7827 71.7299 48.0142C71.7299 30.2457 57.2956 15.8415 39.4899 15.8415C21.6843 15.8415 7.25 30.2457 7.25 48.0142C7.25 65.7827 21.6843 80.1869 39.4899 80.1869Z" fill="url(#paint25_linear_442:1075)"/>
<g opacity="0.15">
<path opacity="0.15" d="M38.7357 39.1671C38.6212 46.6104 33.9595 50.4789 28.7661 50.4626C23.0983 50.4381 18.5674 46.1044 18.6737 38.9957C18.78 32.238 23.0411 27.4227 29.3876 27.8879C35.5379 28.3449 38.8257 33.0868 38.7357 39.1671ZM25.2984 39.0202C25.2411 42.9051 26.5088 45.7289 29.0032 45.7698C31.3996 45.8106 32.5936 43.3784 32.6509 39.3058C32.7081 35.625 31.7594 32.7195 29.1423 32.5563C26.5987 32.4094 25.3556 35.3067 25.2984 39.0202ZM30.549 62.9497L48.5746 30.3771C48.9181 29.7569 49.5969 29.3896 50.3084 29.4386C51.6334 29.5365 52.4103 30.9648 51.7724 32.1237L33.9431 64.6963C33.6405 65.2513 33.0598 65.6104 32.4219 65.643L32.2256 65.6512C30.8025 65.7165 29.862 64.1984 30.549 62.9497ZM61.3904 53.7762C61.2841 60.6727 57.2847 64.4433 52.8356 64.6392C48.0593 64.8514 44.199 61.0481 44.2481 54.4944C44.3462 48.259 47.9775 43.6314 53.3917 43.7783C58.6587 43.9171 61.4804 48.1448 61.3904 53.7762ZM49.9486 54.2251C49.8422 57.808 50.93 60.3625 53.0564 60.2972C55.1011 60.2401 56.1316 57.9386 56.1806 54.168C56.2297 50.7646 55.4691 48.1203 53.2364 48.0958C51.0118 48.0713 49.9976 50.7972 49.9486 54.2251Z" fill="url(#paint26_linear_442:1075)"/>
</g>
<path d="M39.6029 38.8161C39.4884 46.2594 34.8266 50.128 29.6333 50.1117C23.9737 50.0872 19.4346 45.7616 19.5409 38.6529C19.6472 31.8952 23.9083 27.0799 30.2548 27.5451C36.4051 28.0021 39.7011 32.744 39.6029 38.8161ZM26.1655 38.6774C26.1083 42.5623 27.376 45.3862 29.8704 45.427C32.2668 45.4678 33.4608 43.0356 33.5181 38.9631C33.5753 35.2822 32.6266 32.3767 30.0095 32.2135C27.4741 32.0666 26.2228 34.9639 26.1655 38.6774ZM31.4244 62.607L49.4499 30.0344C49.7934 29.4141 50.4723 29.0468 51.1838 29.0958C52.5087 29.1937 53.2857 30.622 52.6478 31.7809L34.8185 64.3372C34.5159 64.8922 33.9352 65.2513 33.2973 65.2839L33.101 65.2921C31.6779 65.3655 30.7292 63.8557 31.4244 62.607ZM62.2658 53.4253C62.1594 60.3217 58.1519 64.0924 53.711 64.2882C48.9347 64.5004 45.0744 60.6972 45.1235 54.1435C45.2216 47.9081 48.8529 43.2805 54.2671 43.4274C59.5341 43.5661 62.3475 47.802 62.2658 53.4253ZM50.8158 53.8823C50.7094 57.4652 51.7972 60.0198 53.9236 59.9545C55.9683 59.8973 56.9988 57.5958 57.0478 53.8252C57.0969 50.4218 56.3363 47.7775 54.1035 47.753C51.8871 47.7285 50.8648 50.4545 50.8158 53.8823Z" fill="white"/>
<path d="M154.527 126.332C154.037 125.957 153.538 125.581 153.047 125.206C152.614 125.328 145.523 127.458 144.116 133.677C143.92 134.534 143.208 137.693 144.942 139.717C147.846 143.12 156.269 141.782 160.228 137.024C163.336 133.286 163.72 127.393 161.929 126.291C159.754 124.953 153.276 129.956 152.785 130.331C151.796 131.098 150.896 131.906 150.741 131.768C150.471 131.523 152.597 128.74 154.527 126.332Z" fill="url(#paint27_linear_442:1075)"/>
<path d="M209.134 170.396C209.134 170.396 208.758 169.417 209.347 168.903C209.936 168.388 213.215 166.911 214.851 166.944C216.495 166.976 215.17 168.241 214.229 168.951C213.289 169.67 211.105 171.163 210.541 171.294C209.985 171.416 209.134 170.396 209.134 170.396Z" fill="url(#paint28_linear_442:1075)"/>
<path d="M206.238 172.126C207.195 171.384 208.021 170.804 208.651 170.388C210.041 169.466 210.663 169.18 211.285 168.984C211.824 168.813 213.051 168.503 213.166 168.756C213.28 169.017 212.143 169.621 209.354 171.734C208.945 172.045 207.661 173.024 207.661 173.024L206.238 172.126Z" fill="url(#paint29_linear_442:1075)"/>
<path d="M164.668 215.937C164.668 215.937 165.044 216.917 164.456 217.431C163.867 217.945 160.595 219.43 158.951 219.398C157.307 219.373 158.632 218.108 159.565 217.39C160.505 216.672 162.689 215.17 163.253 215.048C163.818 214.917 164.668 215.937 164.668 215.937Z" fill="url(#paint30_linear_442:1075)"/>
<path d="M164.43 211.612C164.495 212.86 164.372 213.872 164.233 214.574C164.037 215.578 163.923 216.15 163.44 216.656C162.598 217.545 161.117 217.725 160.905 217.366C160.659 216.958 162.23 216.166 162.745 214.256C162.974 213.424 162.917 212.665 162.827 212.134L164.43 211.612Z" fill="url(#paint31_linear_442:1075)"/>
<path d="M158.809 160.757C156.593 163.083 157.075 166.405 157.77 172.363C158.351 177.358 159.144 184.752 159.888 194.105C160.567 200.626 161.238 207.155 161.917 213.677C163.045 213.677 164.174 213.677 165.303 213.677C166.685 210.747 168.329 206.258 168.411 200.716C168.476 196.121 167.405 195.525 167.192 190.318C167.077 187.462 167.331 185.854 169.49 173.44C171.208 163.565 171.543 161.712 170.169 160.21C167.74 157.566 161.622 157.803 158.809 160.757Z" fill="url(#paint32_linear_442:1075)"/>
<path opacity="0.4" d="M165.575 206.225C164.995 204.405 163.449 202.544 163.342 198.937C163.22 194.677 165.264 193.616 164.962 189.625C164.676 185.789 162.688 185.511 162.124 181.724C161.461 177.333 163.915 176.183 164.766 170.992C165.543 166.258 164.414 161.639 163.244 158.554C165.87 158.072 168.699 158.619 170.172 160.227C171.546 161.729 171.21 163.581 169.493 173.457C167.334 185.87 167.08 187.47 167.195 190.335C167.399 195.534 168.479 196.137 168.413 200.732C168.331 206.274 166.688 210.763 165.305 213.693C164.929 213.693 164.561 213.693 164.185 213.693C165.992 210.396 166.14 208.004 165.575 206.225Z" fill="url(#paint33_linear_442:1075)"/>
<path d="M209.714 172.681C204.971 179.202 195.909 189.967 188.066 188.147C183.919 187.184 182.414 183.226 170.236 166.536C167.308 162.52 164.814 159.215 163.039 156.889C167.774 155.722 172.51 154.546 177.245 153.379C180.443 158.643 182.545 163.1 183.845 166.103C186.953 173.293 188.082 178.19 190.912 178.484C192.294 178.631 193.193 177.578 195.107 176.052C197.61 174.052 201.487 171.522 207.285 169.572C208.095 170.616 208.905 171.645 209.714 172.681Z" fill="url(#paint34_linear_442:1075)"/>
<path d="M226.505 109.805C223.962 101.162 211.105 97.073 204.554 100.452C199.835 102.884 200.448 108.124 195.361 109.634C190.83 110.972 189.105 107.177 183.674 108.638C179.43 109.781 178.767 112.564 174.252 112.776C172.429 112.857 171.415 112.457 168.887 112.898C166.941 113.241 165.191 113.576 163.808 115.037C163.571 115.29 161.617 117.403 162.156 119.991C162.762 122.937 165.935 124.12 166.834 124.455C169.812 125.565 172.281 124.7 173.901 124.545C182.709 123.68 185.703 138.313 198.355 142.712C205.372 145.153 214.131 144.026 216.855 139.839C217.149 139.391 218.965 136.599 218.212 133.694C217.632 131.441 215.963 130.894 216.151 129.433C216.429 127.377 219.496 126.74 221.925 124.871C226.105 121.647 227.978 114.792 226.505 109.805Z" fill="url(#paint35_linear_442:1075)"/>
<path d="M177.065 124.83C173.433 124.814 168.935 124.855 164.347 125.336C154.467 126.373 154.86 131.278 156.651 135.75C158.475 140.313 158.409 144.345 158.377 145.773C158.319 148.082 157.894 149.935 157.06 153.632C155.596 160.064 154.508 161.541 155.539 163.181C157.035 165.581 161.239 165.458 161.983 165.426C165.721 165.246 166.506 163.059 169.655 162.716C173.311 162.316 174.161 165.058 179.24 166.903C185.243 169.082 192.972 168.503 196.562 164.495C197.945 162.945 198.836 160.806 198.239 160.137C197.429 159.223 194.608 161.859 191.598 160.814C189.611 160.121 189.79 158.595 187.402 157.101C184.532 155.305 182.847 156.628 180.9 155.469C177.866 153.665 178.52 148.401 178.275 139.733C178.169 136.15 177.891 131.041 177.065 124.83Z" fill="url(#paint36_linear_442:1075)"/>
<path d="M177.065 124.83C182.332 125.083 184.213 130.56 189.718 131.637C193.046 132.29 198.019 131.392 205.159 124.479C206.173 124.945 207.179 125.41 208.193 125.883C207.154 132.094 204.267 135.579 202.844 137.048C194.747 145.43 179.38 145.177 171.062 137.987C168.453 135.734 166.981 133.18 166.18 131.498C168.805 128.234 172.633 124.618 177.065 124.83Z" fill="url(#paint37_linear_442:1075)"/>
<path d="M165.532 120.782C165.859 120.546 166.326 120.701 166.448 121.084C166.792 122.145 167.503 123.957 168.477 124.414C169.875 125.067 171.985 124.781 172.247 125.034C172.509 125.296 165.966 128.683 161.607 127.14C161.574 127.132 161.549 127.116 161.517 127.099L161.271 126.969C160.781 126.707 160.887 125.973 161.435 125.859C162.277 125.695 164.477 125.059 165.033 124.104C165.099 123.998 165.115 123.125 165.099 123.002L164.919 121.598C164.894 121.378 164.984 121.166 165.164 121.043L165.532 120.782Z" fill="url(#paint38_linear_442:1075)"/>
<path d="M166.903 121.329C167.663 120.407 167.197 119.24 166.968 118.97C166.641 118.595 166.052 118.35 165.692 118.375C164.596 118.432 162.854 121.411 163.958 122.243C165.185 123.182 166.453 122.243 166.453 122.243C166.575 122.259 166.845 122.276 167.115 122.137C167.197 122.096 167.541 121.909 167.516 121.688C167.491 121.5 167.246 121.337 166.903 121.329Z" fill="url(#paint39_linear_442:1075)"/>
<path d="M206.004 124.871L206.502 123.892C206.502 123.892 203.967 119.754 206.044 119.085C208.122 118.424 207.541 119.607 207.304 120.17C207.067 120.733 207.451 122.578 207.811 123.141C208.171 123.704 207.541 125.581 207.541 125.581L206.004 124.871Z" fill="url(#paint40_linear_442:1075)"/>
<path opacity="0.5" d="M188.024 164.169C186.716 163.279 187.615 161.533 186.127 160.121C184.769 158.831 183.281 159.598 180.852 158.905C177.932 158.072 175.666 155.705 174.628 153.64C173.883 152.163 173.949 151.2 174.628 143.651C175.274 136.46 175.462 134.706 176.386 134.469C178.071 134.045 179.576 139.325 182.88 139.325C184.745 139.325 184.998 137.644 187.345 136.762C191.328 135.269 194.183 138.787 198.435 138.656C199.523 138.623 200.848 138.338 202.353 137.497C196.211 143.406 186.323 144.695 178.308 142.018C178.414 149.323 178.128 153.836 180.884 155.469C182.831 156.628 184.516 155.305 187.386 157.101C189.766 158.594 189.586 160.121 191.582 160.814C194.583 161.859 197.405 159.223 198.223 160.137C198.763 160.749 198.076 162.561 196.914 164.046C196.227 163.761 195.475 163.557 194.649 163.491C191.516 163.255 189.578 165.222 188.024 164.169Z" fill="url(#paint41_linear_442:1075)"/>
<path d="M143.388 114.196L143.208 113.184L141.891 112.866C141.597 112.792 141.294 112.923 141.139 113.176C140.313 114.539 138.015 119.003 139.691 124.267C139.781 124.545 140.035 124.732 140.321 124.749C140.853 124.773 141.425 124.716 141.425 124.716L143.388 114.196Z" fill="url(#paint42_linear_442:1075)"/>
<path d="M153.496 121.729L154.625 124.724C154.625 124.724 155.066 125.524 155.124 125.899C155.672 126.12 156.563 125.85 156.563 125.85L156.269 121.884L153.578 121.672L153.496 121.729Z" fill="url(#paint43_linear_442:1075)"/>
<path d="M153.371 125.655L153.764 124.43C153.764 124.43 154.23 123.418 155.555 123.247C156.88 123.076 156.863 123.786 156.863 123.786L156.005 124.039C156.005 124.039 155.448 124.202 155.064 125.002C154.532 125.826 153.984 126.201 153.984 126.201L153.371 125.655Z" fill="url(#paint44_linear_442:1075)"/>
<path d="M158.306 119.591C158.306 119.591 147.478 117.134 143.217 113.184C139.136 117.452 141.434 124.716 141.434 124.716C141.434 124.716 153.203 122.031 157.938 122.602C158.936 121.656 158.306 119.591 158.306 119.591Z" fill="url(#paint45_linear_442:1075)"/>
<path d="M137.375 126.716C137.588 126.454 137.662 126.087 137.531 125.744C133.842 116.408 138.97 111.503 139.019 111.454C139.412 111.094 139.436 110.482 139.068 110.091C138.7 109.699 138.095 109.674 137.702 110.042C137.449 110.278 131.56 115.91 135.731 126.454C135.928 126.952 136.492 127.197 136.991 127.001C137.138 126.936 137.269 126.838 137.375 126.716Z" fill="white"/>
<path d="M133.941 107.83C133.516 107.373 132.804 107.348 132.354 107.773C132.06 108.042 125.223 114.588 130.064 126.838C130.293 127.417 130.948 127.695 131.52 127.466C131.7 127.393 131.855 127.279 131.978 127.14C132.232 126.838 132.313 126.405 132.158 126.014C127.872 115.175 133.835 109.47 133.892 109.421C134.334 108.997 134.358 108.287 133.941 107.83Z" fill="white"/>
</g>
<defs>
<linearGradient id="paint0_linear_442:1075" x1="57.9997" y1="109.114" x2="197.549" y2="109.114" gradientUnits="userSpaceOnUse">
<stop stop-color="#AA80F9"/>
<stop offset="0.9964" stop-color="#6165D7"/>
</linearGradient>
<linearGradient id="paint1_linear_442:1075" x1="72.3633" y1="392.327" x2="115.53" y2="-749.159" gradientUnits="userSpaceOnUse">
<stop offset="0.003597" stop-color="#F36F56"/>
<stop offset="1" stop-color="#FFC444"/>
</linearGradient>
<linearGradient id="paint2_linear_442:1075" x1="55.8018" y1="948.741" x2="98.7886" y2="-187.988" gradientUnits="userSpaceOnUse">
<stop offset="0.003597" stop-color="#F36F56"/>
<stop offset="1" stop-color="#FFC444"/>
</linearGradient>
<linearGradient id="paint3_linear_442:1075" x1="68.3685" y1="128.148" x2="143.651" y2="128.148" gradientUnits="userSpaceOnUse">
<stop offset="0.003597" stop-color="#F36F56"/>
<stop offset="1" stop-color="#FFC444"/>
</linearGradient>
<linearGradient id="paint4_linear_442:1075" x1="79.0572" y1="217.198" x2="80.2825" y2="218.231" gradientUnits="userSpaceOnUse">
<stop stop-color="#AA80F9"/>
<stop offset="0.9964" stop-color="#6165D7"/>
</linearGradient>
<linearGradient id="paint5_linear_442:1075" x1="79.8527" y1="219.237" x2="84.2896" y2="219.237" gradientUnits="userSpaceOnUse">
<stop stop-color="#AA80F9"/>
<stop offset="0.9964" stop-color="#6165D7"/>
</linearGradient>
<linearGradient id="paint6_linear_442:1075" x1="81.1429" y1="219.295" x2="83.002" y2="219.295" gradientUnits="userSpaceOnUse">
<stop stop-color="#40447E"/>
<stop offset="0.9964" stop-color="#3C3B6B"/>
</linearGradient>
<linearGradient id="paint7_linear_442:1075" x1="102.808" y1="214.645" x2="104.033" y2="215.677" gradientUnits="userSpaceOnUse">
<stop stop-color="#AA80F9"/>
<stop offset="0.9964" stop-color="#6165D7"/>
</linearGradient>
<linearGradient id="paint8_linear_442:1075" x1="103.604" y1="216.683" x2="108.041" y2="216.683" gradientUnits="userSpaceOnUse">
<stop stop-color="#AA80F9"/>
<stop offset="0.9964" stop-color="#6165D7"/>
</linearGradient>
<linearGradient id="paint9_linear_442:1075" x1="104.894" y1="216.742" x2="106.753" y2="216.742" gradientUnits="userSpaceOnUse">
<stop stop-color="#40447E"/>
<stop offset="0.9964" stop-color="#3C3B6B"/>
</linearGradient>
<linearGradient id="paint10_linear_442:1075" x1="136.778" y1="157.456" x2="158.248" y2="157.456" gradientUnits="userSpaceOnUse">
<stop stop-color="#40447E"/>
<stop offset="0.9964" stop-color="#3C3B6B"/>
</linearGradient>
<linearGradient id="paint11_linear_442:1075" x1="99.14" y1="220.922" x2="100.365" y2="221.955" gradientUnits="userSpaceOnUse">
<stop stop-color="#AA80F9"/>
<stop offset="0.9964" stop-color="#6165D7"/>
</linearGradient>
<linearGradient id="paint12_linear_442:1075" x1="99.9359" y1="222.961" x2="104.373" y2="222.961" gradientUnits="userSpaceOnUse">
<stop stop-color="#AA80F9"/>
<stop offset="0.9964" stop-color="#6165D7"/>
</linearGradient>
<linearGradient id="paint13_linear_442:1075" x1="101.226" y1="223.019" x2="103.085" y2="223.019" gradientUnits="userSpaceOnUse">
<stop stop-color="#40447E"/>
<stop offset="0.9964" stop-color="#3C3B6B"/>
</linearGradient>
<linearGradient id="paint14_linear_442:1075" x1="119.705" y1="218.868" x2="120.931" y2="219.9" gradientUnits="userSpaceOnUse">
<stop stop-color="#AA80F9"/>
<stop offset="0.9964" stop-color="#6165D7"/>
</linearGradient>
<linearGradient id="paint15_linear_442:1075" x1="120.501" y1="220.906" x2="124.938" y2="220.906" gradientUnits="userSpaceOnUse">
<stop stop-color="#AA80F9"/>
<stop offset="0.9964" stop-color="#6165D7"/>
</linearGradient>
<linearGradient id="paint16_linear_442:1075" x1="121.791" y1="220.965" x2="123.65" y2="220.965" gradientUnits="userSpaceOnUse">
<stop stop-color="#40447E"/>
<stop offset="0.9964" stop-color="#3C3B6B"/>
</linearGradient>
<linearGradient id="paint17_linear_442:1075" x1="90.6294" y1="159.534" x2="105.276" y2="158.895" gradientUnits="userSpaceOnUse">
<stop stop-color="#311944"/>
<stop offset="1" stop-color="#893976"/>
</linearGradient>
<linearGradient id="paint18_linear_442:1075" x1="87.5316" y1="182.229" x2="103.416" y2="182.229" gradientUnits="userSpaceOnUse">
<stop stop-color="#AA80F9"/>
<stop offset="0.9964" stop-color="#6165D7"/>
</linearGradient>
<linearGradient id="paint19_linear_442:1075" x1="92.7925" y1="182.228" x2="103.416" y2="182.228" gradientUnits="userSpaceOnUse">
<stop stop-color="#AA80F9"/>
<stop offset="0.9964" stop-color="#6165D7"/>
</linearGradient>
<linearGradient id="paint20_linear_442:1075" x1="110.788" y1="179.618" x2="133.611" y2="218.152" gradientUnits="userSpaceOnUse">
<stop stop-color="#AA80F9"/>
<stop offset="0.9964" stop-color="#6165D7"/>
</linearGradient>
<linearGradient id="paint21_linear_442:1075" x1="110.467" y1="175.975" x2="129.055" y2="219.72" gradientUnits="userSpaceOnUse">
<stop stop-color="#AA80F9"/>
<stop offset="0.9964" stop-color="#6165D7"/>
</linearGradient>
<linearGradient id="paint22_linear_442:1075" x1="112.575" y1="146.165" x2="106.154" y2="201.082" gradientUnits="userSpaceOnUse">
<stop stop-color="#311944"/>
<stop offset="1" stop-color="#893976"/>
</linearGradient>
<linearGradient id="paint23_linear_442:1075" x1="116.005" y1="145.353" x2="98.5428" y2="178.642" gradientUnits="userSpaceOnUse">
<stop stop-color="#311944"/>
<stop offset="1" stop-color="#893976"/>
</linearGradient>
<linearGradient id="paint24_linear_442:1075" x1="128.162" y1="148.399" x2="109.355" y2="184.252" gradientUnits="userSpaceOnUse">
<stop stop-color="#311944"/>
<stop offset="1" stop-color="#893976"/>
</linearGradient>
<linearGradient id="paint25_linear_442:1075" x1="46.5818" y1="9.09525" x2="2.07516" y2="254.395" gradientUnits="userSpaceOnUse">
<stop offset="0.00359712" stop-color="#E38DDD"/>
<stop offset="1" stop-color="#9571F6"/>
</linearGradient>
<linearGradient id="paint26_linear_442:1075" x1="18.5573" y1="46.5779" x2="61.4926" y2="47.2276" gradientUnits="userSpaceOnUse">
<stop stop-color="#FF9085"/>
<stop offset="1" stop-color="#FB6FBB"/>
</linearGradient>
<linearGradient id="paint27_linear_442:1075" x1="155.516" y1="125.406" x2="147.477" y2="153.682" gradientUnits="userSpaceOnUse">
<stop stop-color="#FF9085"/>
<stop offset="1" stop-color="#FB6FBB"/>
</linearGradient>
<linearGradient id="paint28_linear_442:1075" x1="205.829" y1="177.497" x2="220.205" y2="157.339" gradientUnits="userSpaceOnUse">
<stop stop-color="#AB316D"/>
<stop offset="1" stop-color="#792D3D"/>
</linearGradient>
<linearGradient id="paint29_linear_442:1075" x1="212.524" y1="166.25" x2="194.066" y2="194.067" gradientUnits="userSpaceOnUse">
<stop stop-color="#FFC444"/>
<stop offset="0.9964" stop-color="#F36F56"/>
</linearGradient>
<linearGradient id="paint30_linear_442:1075" x1="167.963" y1="208.833" x2="153.617" y2="229.012" gradientUnits="userSpaceOnUse">
<stop stop-color="#AB316D"/>
<stop offset="1" stop-color="#792D3D"/>
</linearGradient>
<linearGradient id="paint31_linear_442:1075" x1="163.803" y1="218.249" x2="156.706" y2="194.669" gradientUnits="userSpaceOnUse">
<stop stop-color="#FFC444"/>
<stop offset="0.9964" stop-color="#F36F56"/>
</linearGradient>
<linearGradient id="paint32_linear_442:1075" x1="154.746" y1="212.51" x2="165.863" y2="173.416" gradientUnits="userSpaceOnUse">
<stop stop-color="#444B8C"/>
<stop offset="0.9964" stop-color="#26264F"/>
</linearGradient>
<linearGradient id="paint33_linear_442:1075" x1="156.806" y1="213.095" x2="167.923" y2="174.001" gradientUnits="userSpaceOnUse">
<stop stop-color="#444B8C"/>
<stop offset="0.9964" stop-color="#26264F"/>
</linearGradient>
<linearGradient id="paint34_linear_442:1075" x1="175.637" y1="184.389" x2="190.849" y2="156.515" gradientUnits="userSpaceOnUse">
<stop stop-color="#444B8C"/>
<stop offset="0.9964" stop-color="#26264F"/>
</linearGradient>
<linearGradient id="paint35_linear_442:1075" x1="230.903" y1="105.843" x2="173.261" y2="137.067" gradientUnits="userSpaceOnUse">
<stop stop-color="#444B8C"/>
<stop offset="0.9964" stop-color="#26264F"/>
</linearGradient>
<linearGradient id="paint36_linear_442:1075" x1="181.968" y1="128.596" x2="162.835" y2="195.9" gradientUnits="userSpaceOnUse">
<stop stop-color="#FF9085"/>
<stop offset="1" stop-color="#FB6FBB"/>
</linearGradient>
<linearGradient id="paint37_linear_442:1075" x1="186.891" y1="129.995" x2="167.757" y2="197.299" gradientUnits="userSpaceOnUse">
<stop stop-color="#FF9085"/>
<stop offset="1" stop-color="#FB6FBB"/>
</linearGradient>
<linearGradient id="paint38_linear_442:1075" x1="170.577" y1="135.502" x2="163.115" y2="117.233" gradientUnits="userSpaceOnUse">
<stop stop-color="#FFC444"/>
<stop offset="0.9964" stop-color="#F36F56"/>
</linearGradient>
<linearGradient id="paint39_linear_442:1075" x1="169.499" y1="117.579" x2="149.906" y2="133.918" gradientUnits="userSpaceOnUse">
<stop stop-color="#FFC444"/>
<stop offset="0.9964" stop-color="#F36F56"/>
</linearGradient>
<linearGradient id="paint40_linear_442:1075" x1="206.198" y1="115.212" x2="207.586" y2="140.679" gradientUnits="userSpaceOnUse">
<stop stop-color="#FFC444"/>
<stop offset="0.9964" stop-color="#F36F56"/>
</linearGradient>
<linearGradient id="paint41_linear_442:1075" x1="202.361" y1="149.465" x2="174.102" y2="149.465" gradientUnits="userSpaceOnUse">
<stop stop-color="#FF9085"/>
<stop offset="1" stop-color="#FB6FBB"/>
</linearGradient>
<linearGradient id="paint42_linear_442:1075" x1="137.217" y1="117.756" x2="147.142" y2="120.418" gradientUnits="userSpaceOnUse">
<stop stop-color="#AB316D"/>
<stop offset="1" stop-color="#792D3D"/>
</linearGradient>
<linearGradient id="paint43_linear_442:1075" x1="151.012" y1="122.641" x2="161.489" y2="125.451" gradientUnits="userSpaceOnUse">
<stop stop-color="#AB316D"/>
<stop offset="1" stop-color="#792D3D"/>
</linearGradient>
<linearGradient id="paint44_linear_442:1075" x1="155.91" y1="123.194" x2="154.064" y2="125.962" gradientUnits="userSpaceOnUse">
<stop stop-color="#FFC444"/>
<stop offset="0.9964" stop-color="#F36F56"/>
</linearGradient>
<linearGradient id="paint45_linear_442:1075" x1="143.959" y1="113.502" x2="161.547" y2="139.352" gradientUnits="userSpaceOnUse">
<stop stop-color="#444B8C"/>
<stop offset="0.9964" stop-color="#26264F"/>
</linearGradient>
<clipPath id="clip0_442:1075">
<rect width="229" height="228" fill="white"/>
</clipPath>
</defs>
</svg>
