<svg width="26" height="26" viewBox="0 0 26 26" fill="none" xmlns="http://www.w3.org/2000/svg">
<path d="M3.25 13.0008C3.25 13.6736 3.796 14.2196 4.46875 14.2196H18.7476L13.4062 18.9987C13.2859 19.1051 13.1878 19.2342 13.1175 19.3787C13.0472 19.5232 13.0062 19.6801 12.9968 19.8405C12.9874 20.0008 13.0098 20.1615 13.0627 20.3132C13.1156 20.4648 13.198 20.6046 13.3051 20.7243C13.4122 20.844 13.5419 20.9414 13.6868 21.0108C13.8316 21.0803 13.9888 21.1204 14.1492 21.1288C14.3096 21.1373 14.4701 21.114 14.6215 21.0602C14.7729 21.0064 14.9121 20.9232 15.0312 20.8154L22.75 13.9092C22.8778 13.7949 22.98 13.6549 23.05 13.4983C23.12 13.3418 23.1562 13.1723 23.1562 13.0008C23.1562 12.8293 23.12 12.6598 23.05 12.5033C22.98 12.3468 22.8778 12.2068 22.75 12.0924L15.0312 5.18619C14.9121 5.0784 14.7729 4.99522 14.6215 4.94143C14.4701 4.88765 14.3096 4.86432 14.1492 4.87279C13.9888 4.88126 13.8316 4.92136 13.6868 4.99079C13.5419 5.06021 13.4122 5.15759 13.3051 5.27733C13.198 5.39707 13.1156 5.53679 13.0627 5.68848C13.0098 5.84016 12.9874 6.00081 12.9968 6.16117C13.0062 6.32154 13.0472 6.47847 13.1175 6.62293C13.1878 6.7674 13.2859 6.89654 13.4062 7.00294L18.7476 11.7821H4.46875C4.3087 11.7821 4.15022 11.8136 4.00235 11.8748C3.85449 11.9361 3.72013 12.0259 3.60696 12.139C3.49379 12.2522 3.40402 12.3866 3.34277 12.5344C3.28152 12.6823 3.25 12.8408 3.25 13.0008Z" fill="white"/>
</svg>
