<svg width="20" height="20" viewBox="0 0 20 20" fill="none" xmlns="http://www.w3.org/2000/svg">
<path d="M16.4844 8.24219V7.07031H1.17188V10C1.17188 12.7149 2.60426 15.1352 4.74836 16.4844H12.8688C13.3954 16.153 13.9168 15.758 14.3468 15.3125H15.8984C18.1598 15.3125 20 13.4723 20 11.2109V8.24219H16.4844ZM18.8281 11.2109C18.8281 12.8263 17.5138 14.1406 15.8984 14.1406H15.2607C16.0268 12.9552 16.4844 11.5142 16.4844 10V9.41406H18.8281V11.2109Z" fill="#606EEA"/>
<path d="M6.25293 0L5.60289 0.975039C5.83578 1.13012 5.9691 1.37957 5.9691 1.65941C5.9691 1.93926 5.83578 2.18871 5.60289 2.34379C5.04672 2.71457 4.71484 3.33484 4.71484 4.00316C4.71484 4.67148 5.04672 5.29176 5.60289 5.66254L6.25289 4.6875C6.02 4.53242 5.88668 4.28297 5.88668 4.00313C5.88668 3.72328 6.02 3.47383 6.25289 3.31875C6.8091 2.94801 7.14097 2.32773 7.14097 1.65937C7.14097 0.991055 6.8091 0.370781 6.25293 0Z" fill="#606EEA"/>
<path d="M9.18262 0L8.53258 0.975039C8.76547 1.13012 8.89879 1.37957 8.89879 1.65941C8.89879 1.93926 8.76547 2.18871 8.53258 2.34379C7.97641 2.71457 7.64453 3.33484 7.64453 4.00316C7.64453 4.67148 7.97641 5.29176 8.53258 5.66254L9.18258 4.6875C8.94969 4.53242 8.81637 4.28297 8.81637 4.00313C8.81637 3.72328 8.94969 3.47383 9.18258 3.31875C9.73879 2.94801 10.0707 2.32773 10.0707 1.65937C10.0707 0.991055 9.73879 0.370781 9.18262 0Z" fill="#606EEA"/>
<path d="M12.1123 0L11.4623 0.975039C11.6952 1.13012 11.8285 1.37957 11.8285 1.65941C11.8285 1.93926 11.6952 2.18871 11.4623 2.34379C10.9061 2.71457 10.5742 3.33484 10.5742 4.00316C10.5742 4.67148 10.9061 5.29176 11.4623 5.66254L12.1123 4.6875C11.8794 4.53242 11.7461 4.28297 11.7461 4.00313C11.7461 3.72328 11.8794 3.47383 12.1123 3.31875C12.6685 2.94801 13.0004 2.32773 13.0004 1.65937C13.0004 0.991055 12.6685 0.370781 12.1123 0Z" fill="#606EEA"/>
<path d="M0 17.6562C0 18.9507 1.04934 20 2.34375 20H15.3125C16.6069 20 17.6562 18.9507 17.6562 17.6562H0Z" fill="#606EEA"/>
</svg>
