<svg width="17" height="17" viewBox="0 0 17 17" fill="none" xmlns="http://www.w3.org/2000/svg">
<path d="M9.32171 8.4995L11.8276 5.99906C11.9374 5.88931 11.999 5.74045 11.999 5.58524C11.999 5.43002 11.9374 5.28117 11.8276 5.17141C11.7179 5.06166 11.569 5 11.4139 5C11.2587 5 11.1098 5.06166 11.0001 5.17141L8.5 7.67768L5.99992 5.17141C5.89018 5.06166 5.74134 5 5.58615 5C5.43096 5 5.28212 5.06166 5.17238 5.17141C5.06264 5.28117 5.00099 5.43002 5.00099 5.58524C5.00099 5.74045 5.06264 5.88931 5.17238 5.99906L7.67829 8.4995L5.17238 10.9999C5.11776 11.0541 5.07441 11.1186 5.04482 11.1896C5.01523 11.2606 5 11.3368 5 11.4138C5 11.4907 5.01523 11.5669 5.04482 11.6379C5.07441 11.7089 5.11776 11.7734 5.17238 11.8276C5.22656 11.8822 5.29101 11.9256 5.36203 11.9552C5.43305 11.9848 5.50922 12 5.58615 12C5.66308 12 5.73925 11.9848 5.81027 11.9552C5.88129 11.9256 5.94574 11.8822 5.99992 11.8276L8.5 9.32133L11.0001 11.8276C11.0543 11.8822 11.1187 11.9256 11.1897 11.9552C11.2607 11.9848 11.3369 12 11.4139 12C11.4908 12 11.567 11.9848 11.638 11.9552C11.709 11.9256 11.7734 11.8822 11.8276 11.8276C11.8822 11.7734 11.9256 11.7089 11.9552 11.6379C11.9848 11.5669 12 11.4907 12 11.4138C12 11.3368 11.9848 11.2606 11.9552 11.1896C11.9256 11.1186 11.8822 11.0541 11.8276 10.9999L9.32171 8.4995Z" fill="#1890FF"/>
</svg>
