<svg width="18" height="16" viewBox="0 0 18 16" fill="none" xmlns="http://www.w3.org/2000/svg">
<path d="M0 2C0 1.46957 0.189646 0.960859 0.527218 0.585786C0.86479 0.210714 1.32264 0 1.80004 0H9.90019C10.3776 0 10.8354 0.210714 11.173 0.585786C11.5106 0.960859 11.7002 1.46957 11.7002 2V4C11.7002 4.26522 11.6054 4.51957 11.4366 4.70711C11.2678 4.89464 11.0389 5 10.8002 5C10.5615 5 10.3326 4.89464 10.1638 4.70711C9.99502 4.51957 9.90019 4.26522 9.90019 4V2H1.80004V14H9.90019V12C9.90019 11.7348 9.99502 11.4804 10.1638 11.2929C10.3326 11.1054 10.5615 11 10.8002 11C11.0389 11 11.2678 11.1054 11.4366 11.2929C11.6054 11.4804 11.7002 11.7348 11.7002 12V14C11.7002 14.5304 11.5106 15.0391 11.173 15.4142C10.8354 15.7893 10.3776 16 9.90019 16H1.80004C1.32264 16 0.86479 15.7893 0.527218 15.4142C0.189646 15.0391 0 14.5304 0 14V2ZM13.764 4.293C13.9327 4.10553 14.1616 4.00021 14.4003 4.00021C14.6389 4.00021 14.8678 4.10553 15.0366 4.293L17.7366 7.293C17.9054 7.48053 18.0002 7.73484 18.0002 8C18.0002 8.26516 17.9054 8.51947 17.7366 8.707L15.0366 11.707C14.8668 11.8892 14.6395 11.99 14.4035 11.9877C14.1675 11.9854 13.9418 11.8802 13.7749 11.6948C13.6081 11.5094 13.5134 11.2586 13.5114 10.9964C13.5093 10.7342 13.6 10.4816 13.764 10.293L14.9277 9H6.30012C6.06142 9 5.8325 8.89464 5.66371 8.70711C5.49493 8.51957 5.40011 8.26522 5.40011 8C5.40011 7.73478 5.49493 7.48043 5.66371 7.29289C5.8325 7.10536 6.06142 7 6.30012 7H14.9277L13.764 5.707C13.5952 5.51947 13.5005 5.26516 13.5005 5C13.5005 4.73484 13.5952 4.48053 13.764 4.293Z" fill="#606EEA"/>
</svg>
