<svg width="25" height="25" viewBox="0 0 25 25" fill="none" xmlns="http://www.w3.org/2000/svg">
<g clip-path="url(#clip0)">
<path d="M12.5044 6.08105C8.95963 6.08105 6.08984 8.95397 6.08984 12.4956C6.08984 16.0404 8.96276 18.9102 12.5044 18.9102C16.0492 18.9102 18.919 16.0373 18.919 12.4956C18.919 8.95085 16.0461 6.08105 12.5044 6.08105ZM12.5044 16.6592C10.2034 16.6592 8.34089 14.7956 8.34089 12.4956C8.34089 10.1956 10.2044 8.3321 12.5044 8.3321C14.8044 8.3321 16.668 10.1956 16.668 12.4956C16.669 14.7956 14.8055 16.6592 12.5044 16.6592Z" fill="white"/>
<path d="M17.6544 0.0804809C15.3544 -0.0268108 9.65753 -0.0216024 7.35544 0.0804809C5.33253 0.175273 3.54815 0.663814 2.10961 2.10236C-0.294555 4.50652 0.0127367 7.74611 0.0127367 12.4971C0.0127367 17.3596 -0.258097 20.5242 2.10961 22.8919C4.52315 25.3044 7.80961 24.9888 12.5044 24.9888C17.3211 24.9888 18.9836 24.9919 20.6867 24.3326C23.0023 23.4336 24.7502 21.3638 24.9211 17.6461C25.0294 15.3451 25.0232 9.64923 24.9211 7.34715C24.7148 2.95861 22.3596 0.297148 17.6544 0.0804809ZM21.295 21.3013C19.719 22.8774 17.5325 22.7367 12.4742 22.7367C7.26586 22.7367 5.17732 22.8138 3.65336 21.2857C1.89815 19.5388 2.21586 16.7336 2.21586 12.4805C2.21586 6.72527 1.62524 2.58048 7.40128 2.28465C8.72836 2.23777 9.11899 2.22215 12.4596 2.22215L12.5065 2.2534C18.0575 2.2534 22.4127 1.67215 22.6742 7.44715C22.7336 8.76485 22.7471 9.16069 22.7471 12.4961C22.7461 17.644 22.844 19.7451 21.295 21.3013Z" fill="white"/>
<path d="M19.1747 7.32702C20.0026 7.32702 20.6737 6.65591 20.6737 5.82806C20.6737 5.00021 20.0026 4.3291 19.1747 4.3291C18.3469 4.3291 17.6758 5.00021 17.6758 5.82806C17.6758 6.65591 18.3469 7.32702 19.1747 7.32702Z" fill="white"/>
</g>
<defs>
<clipPath id="clip0">
<rect width="25" height="25" fill="white"/>
</clipPath>
</defs>
</svg>
