<svg width="24" height="24" viewBox="0 0 24 24" fill="none" xmlns="http://www.w3.org/2000/svg">
<path d="M20 0H4C2.93913 0 1.92172 0.421427 1.17157 1.17157C0.421427 1.92172 0 2.93913 0 4V20C0 21.0609 0.421427 22.0783 1.17157 22.8284C1.92172 23.5786 2.93913 24 4 24H20C21.0609 24 22.0783 23.5786 22.8284 22.8284C23.5786 22.0783 24 21.0609 24 20V4C24 2.93913 23.5786 1.92172 22.8284 1.17157C22.0783 0.421427 21.0609 0 20 0ZM6.66667 5.33333C7.06223 5.33333 7.44891 5.45063 7.77781 5.67039C8.1067 5.89016 8.36305 6.20251 8.51443 6.56797C8.6658 6.93342 8.70541 7.33555 8.62824 7.72351C8.55107 8.11148 8.36059 8.46784 8.08088 8.74755C7.80118 9.02725 7.44481 9.21773 7.05685 9.2949C6.66889 9.37208 6.26675 9.33247 5.9013 9.18109C5.53585 9.02972 5.22349 8.77337 5.00373 8.44447C4.78397 8.11557 4.66667 7.7289 4.66667 7.33333C4.66667 6.8029 4.87738 6.29419 5.25245 5.91912C5.62753 5.54405 6.13623 5.33333 6.66667 5.33333ZM21.3333 19.7733C21.3628 20.1569 21.239 20.5365 20.9891 20.8289C20.7391 21.1213 20.3835 21.3027 20 21.3333H4L14.0933 12.24C14.2628 12.0854 14.4839 11.9997 14.7133 11.9997C14.9427 11.9997 15.1639 12.0854 15.3333 12.24L21.3333 18.2133V19.7733Z" fill="#606EEA"/>
</svg>
