<svg width="24" height="24" viewBox="0 0 24 24" fill="none" xmlns="http://www.w3.org/2000/svg">
<path d="M9.42969 3L12.0012 1.5L14.5728 3" stroke="#606EEA" stroke-width="1.5" stroke-linecap="round" stroke-linejoin="round"/>
<path d="M12 1.5V5.25" stroke="#606EEA" stroke-width="1.5" stroke-miterlimit="10" stroke-linecap="round"/>
<path d="M14.5728 21L12.0012 22.5L9.42969 21" stroke="#606EEA" stroke-width="1.5" stroke-linecap="round" stroke-linejoin="round"/>
<path d="M12 22.5V18.75" stroke="#606EEA" stroke-width="1.5" stroke-miterlimit="10" stroke-linecap="round"/>
<path d="M3 9.72652V6.74949L5.49141 5.27246" stroke="#606EEA" stroke-width="1.5" stroke-linecap="round" stroke-linejoin="round"/>
<path d="M3 6.75L6.15422 8.625" stroke="#606EEA" stroke-width="1.5" stroke-miterlimit="10" stroke-linecap="round"/>
<path d="M20.9992 14.2725V17.2495L18.5078 18.7265" stroke="#606EEA" stroke-width="1.5" stroke-linecap="round" stroke-linejoin="round"/>
<path d="M20.998 17.25L17.8438 15.375" stroke="#606EEA" stroke-width="1.5" stroke-miterlimit="10" stroke-linecap="round"/>
<path d="M5.49141 18.7495L3 17.2495V14.2725" stroke="#606EEA" stroke-width="1.5" stroke-linecap="round" stroke-linejoin="round"/>
<path d="M3 17.25L6.12375 15.375" stroke="#606EEA" stroke-width="1.5" stroke-miterlimit="10" stroke-linecap="round"/>
<path d="M18.5078 5.27246L20.9992 6.74949V9.72652" stroke="#606EEA" stroke-width="1.5" stroke-linecap="round" stroke-linejoin="round"/>
<path d="M20.998 6.75L17.8438 8.625" stroke="#606EEA" stroke-width="1.5" stroke-miterlimit="10" stroke-linecap="round"/>
<path d="M12 15V12L14.5716 10.5" stroke="#606EEA" stroke-width="1.5" stroke-miterlimit="10" stroke-linecap="round"/>
<path d="M12.0013 12L9.42969 10.5" stroke="#606EEA" stroke-width="1.5" stroke-miterlimit="10" stroke-linecap="round"/>
</svg>
