<svg width="30" height="30" viewBox="0 0 30 30" fill="none" xmlns="http://www.w3.org/2000/svg">
<path d="M22.5 3.75H7.5C6.50544 3.75 5.55161 4.14509 4.84835 4.84835C4.14509 5.55161 3.75 6.50544 3.75 7.5V22.5C3.75 23.4946 4.14509 24.4484 4.84835 25.1517C5.55161 25.8549 6.50544 26.25 7.5 26.25H22.5C23.4946 26.25 24.4484 25.8549 25.1517 25.1517C25.8549 24.4484 26.25 23.4946 26.25 22.5V7.5C26.25 6.50544 25.8549 5.55161 25.1517 4.84835C24.4484 4.14509 23.4946 3.75 22.5 3.75ZM18.75 16.25H16.25V18.75C16.25 19.0815 16.1183 19.3995 15.8839 19.6339C15.6495 19.8683 15.3315 20 15 20C14.6685 20 14.3505 19.8683 14.1161 19.6339C13.8817 19.3995 13.75 19.0815 13.75 18.75V16.25H11.25C10.9185 16.25 10.6005 16.1183 10.3661 15.8839C10.1317 15.6495 10 15.3315 10 15C10 14.6685 10.1317 14.3505 10.3661 14.1161C10.6005 13.8817 10.9185 13.75 11.25 13.75H13.75V11.25C13.75 10.9185 13.8817 10.6005 14.1161 10.3661C14.3505 10.1317 14.6685 10 15 10C15.3315 10 15.6495 10.1317 15.8839 10.3661C16.1183 10.6005 16.25 10.9185 16.25 11.25V13.75H18.75C19.0815 13.75 19.3995 13.8817 19.6339 14.1161C19.8683 14.3505 20 14.6685 20 15C20 15.3315 19.8683 15.6495 19.6339 15.8839C19.3995 16.1183 19.0815 16.25 18.75 16.25Z" fill="#606EEA"/>
</svg>
