<svg width="35" height="35" viewBox="0 0 35 35" fill="none" xmlns="http://www.w3.org/2000/svg">
<path d="M17.5 5.28613C18.5842 5.28609 19.6263 5.70607 20.4075 6.45791C21.1887 7.20975 21.6483 8.23499 21.6898 9.31842L21.6927 9.47884H26.9792C27.2123 9.47959 27.4363 9.56965 27.605 9.73049C27.7738 9.89134 27.8745 10.1107 27.8865 10.3436C27.8984 10.5764 27.8207 10.8049 27.6693 10.9822C27.5179 11.1595 27.3043 11.272 27.0725 11.2967L26.9792 11.3018H26.1836L24.9419 27.759C24.883 28.5383 24.5319 29.2666 23.9589 29.798C23.3858 30.3294 22.6332 30.6247 21.8517 30.6247H13.1483C12.3668 30.6247 11.6142 30.3294 11.0411 29.798C10.4681 29.2666 10.117 28.5383 10.0581 27.759L8.81563 11.3018H8.02083C7.79519 11.3019 7.57752 11.2183 7.40996 11.0671C7.2424 10.916 7.13686 10.7081 7.11375 10.4836L7.10938 10.3903C7.10938 9.91853 7.46812 9.52988 7.9275 9.48394L8.02083 9.47884H13.3073C13.3073 8.36687 13.749 7.30043 14.5353 6.51415C15.3216 5.72786 16.388 5.28613 17.5 5.28613ZM24.3556 11.3018H10.6444L11.8767 27.622C11.9009 27.9427 12.0454 28.2424 12.2812 28.4612C12.517 28.6799 12.8267 28.8016 13.1483 28.8018H21.8517C22.1734 28.8018 22.4833 28.6802 22.7193 28.4614C22.9552 28.2426 23.0998 27.9428 23.1241 27.622L24.3564 11.3018H24.3556ZM19.8698 15.1299C20.3416 15.1299 20.7302 15.4886 20.7769 15.948L20.7812 16.0413V24.0622C20.7823 24.2965 20.6931 24.5223 20.5321 24.6926C20.371 24.8629 20.1506 24.9647 19.9165 24.9767C19.6824 24.9887 19.4527 24.9101 19.2751 24.7571C19.0975 24.6042 18.9856 24.3888 18.9627 24.1555L18.9583 24.0622V16.0413C18.9583 15.5382 19.3667 15.1299 19.8698 15.1299ZM15.1302 15.1299C15.602 15.1299 15.9906 15.4886 16.0373 15.948L16.0417 16.0413V24.0622C16.0428 24.2965 15.9535 24.5223 15.7925 24.6926C15.6315 24.8629 15.411 24.9647 15.1769 24.9767C14.9429 24.9887 14.7132 24.9101 14.5355 24.7571C14.3579 24.6042 14.246 24.3888 14.2231 24.1555L14.2187 24.0622V16.0413C14.2187 15.5382 14.6271 15.1299 15.1302 15.1299ZM17.5 7.10905C16.8947 7.10901 16.3123 7.3406 15.8723 7.75631C15.4324 8.17202 15.1681 8.74034 15.1339 9.34467L15.1302 9.47884H19.8698C19.8698 8.85033 19.6201 8.24757 19.1757 7.80315C18.7313 7.35872 18.1285 7.10905 17.5 7.10905Z" fill="white"/>
</svg>
