<svg width="25" height="25" viewBox="0 0 25 25" fill="none" xmlns="http://www.w3.org/2000/svg">
<g clip-path="url(#clip0)">
<path d="M24.12 14.472C24.8658 8.19384 23.7617 4.2303 21.77 2.43759L21.771 2.43655C18.5565 -0.624913 7.70021 -1.07804 3.85437 2.57405C2.12729 4.3605 1.51895 6.98238 1.45229 10.2282C1.38562 13.4751 1.30645 19.5574 6.97416 21.2074H6.97937L6.97416 23.7272C6.97416 23.7272 6.93562 24.748 7.58771 24.9532C8.33354 25.1949 8.67104 24.7209 10.9908 21.9501C14.87 22.2865 17.8492 21.5157 18.1877 21.4032C18.971 21.1407 23.4033 20.5543 24.12 14.472ZM11.3731 20.1772C11.3731 20.1772 8.91791 23.2386 8.15437 24.0334C7.90437 24.2918 7.63041 24.2678 7.63458 23.7553C7.63458 23.4188 7.65333 19.572 7.65333 19.572C2.84812 18.1949 3.13146 13.0157 3.18354 10.3063C3.23562 7.59592 3.73146 5.37613 5.19396 3.88134C8.56791 0.717795 18.0856 1.42509 20.5106 3.70425C23.4752 6.33238 22.42 13.7574 22.4263 14.0105C21.8169 19.0876 18.2252 19.4095 17.5648 19.6293C17.2825 19.723 14.6627 20.397 11.3731 20.1772Z" fill="white"/>
<path d="M12.7305 4.47559C12.3294 4.47559 12.3294 5.10059 12.7305 5.10579C15.8419 5.12975 18.4044 7.2985 18.4326 11.2766C18.4326 11.6964 19.0471 11.6912 19.0419 11.2714H19.0409C19.0076 6.98496 16.2096 4.49954 12.7305 4.47559Z" fill="white"/>
<path d="M16.8228 10.6173C16.8135 11.0318 17.427 11.0516 17.4322 10.6318C17.4833 8.2683 16.026 6.32142 13.2874 6.11622C12.8864 6.08705 12.8447 6.71726 13.2447 6.74642C15.6197 6.92663 16.8708 8.54747 16.8228 10.6173Z" fill="white"/>
<path d="M16.1672 13.3064C15.6526 13.0085 15.1286 13.1939 14.9119 13.4866L14.4588 14.0731C14.2286 14.371 13.7984 14.3314 13.7984 14.3314C10.6588 13.5012 9.81924 10.2158 9.81924 10.2158C9.81924 10.2158 9.7807 9.77102 10.0682 9.53248L10.6349 9.06373C10.9182 8.83873 11.0974 8.29707 10.8088 7.76477C10.038 6.37206 9.52028 5.89186 9.25674 5.52311C8.97966 5.17623 8.56299 5.09811 8.12966 5.33248H8.12028C7.21924 5.85956 6.23278 6.84602 6.54841 7.86165C7.08695 8.93248 8.07653 12.346 11.2307 14.9252C12.713 16.145 15.0588 17.395 16.0547 17.6835L16.064 17.6981C17.0453 18.0252 17.9994 17.0002 18.5088 16.0721V16.0648C18.7349 15.6158 18.6599 15.1908 18.3297 14.9127C17.7442 14.3419 16.8609 13.7116 16.1672 13.3064Z" fill="white"/>
<path d="M13.7199 8.44142C14.7209 8.49976 15.2063 9.02267 15.2584 10.0966C15.2772 10.5164 15.8865 10.4873 15.8678 10.0675C15.8011 8.66538 15.0699 7.88413 13.7532 7.81121C13.3521 7.78725 13.3146 8.41746 13.7199 8.44142Z" fill="white"/>
</g>
<defs>
<clipPath id="clip0">
<rect width="25" height="25" fill="white"/>
</clipPath>
</defs>
</svg>
