<svg width="25" height="25" viewBox="0 0 25 25" fill="none" xmlns="http://www.w3.org/2000/svg">
<g clip-path="url(#clip0)">
<path d="M20.7448 13.5705C20.3406 13.0601 20.4562 12.833 20.7448 12.3768C20.75 12.3716 24.0865 7.76113 24.4302 6.19759L24.4323 6.19655C24.6031 5.62676 24.4323 5.20801 23.6062 5.20801H20.8729C20.1771 5.20801 19.8562 5.56738 19.6844 5.96947C19.6844 5.96947 18.2927 9.30072 16.324 11.4601C15.6885 12.084 15.3948 12.2841 15.0479 12.2841C14.8771 12.2841 14.6115 12.084 14.6115 11.5143V6.19655C14.6115 5.51322 14.4167 5.20801 13.8406 5.20801H9.54271C9.10625 5.20801 8.84687 5.52676 8.84687 5.82363C8.84687 6.47155 9.83125 6.62051 9.93333 8.44342V12.3986C9.93333 13.2653 9.77604 13.4247 9.42708 13.4247C8.49792 13.4247 6.24271 10.0799 4.90625 6.25176C4.63646 5.50905 4.37292 5.20905 3.67188 5.20905H0.9375C0.157292 5.20905 0 5.56842 0 5.97051C0 6.68092 0.929166 10.2132 4.32083 14.8799C6.58125 18.0653 9.76458 19.7913 12.6604 19.7913C14.401 19.7913 14.6135 19.408 14.6135 18.7486C14.6135 15.7049 14.4562 15.4174 15.3281 15.4174C15.7323 15.4174 16.4281 15.6174 18.0531 17.1538C19.9104 18.9757 20.2156 19.7913 21.2552 19.7913H23.9885C24.7677 19.7913 25.1625 19.408 24.9354 18.6518C24.4156 17.0611 20.9031 13.7893 20.7448 13.5705Z" fill="white"/>
</g>
<defs>
<clipPath id="clip0">
<rect width="25" height="25" fill="white"/>
</clipPath>
</defs>
</svg>
