<svg width="25" height="25" viewBox="0 0 25 25" fill="none" xmlns="http://www.w3.org/2000/svg">
<g clip-path="url(#clip0)">
<path d="M18.2376 14.9033L18.2282 14.9814C15.9376 13.8397 15.698 13.6876 15.4022 14.1314C15.197 14.4387 14.599 15.1356 14.4188 15.3418C14.2365 15.5449 14.0553 15.5606 13.7459 15.4199C13.4334 15.2637 12.4303 14.9356 11.2428 13.8731C10.3178 13.0449 9.69695 12.0293 9.51362 11.7168C9.20841 11.1897 9.84695 11.1147 10.4282 10.0147C10.5324 9.79597 10.4792 9.62409 10.4022 9.46889C10.324 9.31264 9.70216 7.78139 9.44174 7.17097C9.19174 6.56264 8.93445 6.63972 8.74174 6.63972C8.14174 6.58764 7.7032 6.59597 7.31674 6.99805C5.63549 8.84597 6.05945 10.7522 7.49799 12.7793C10.3251 16.4793 11.8313 17.1606 14.5855 18.1064C15.3292 18.3428 16.0074 18.3095 16.5438 18.2324C17.1417 18.1376 18.3844 17.4814 18.6438 16.747C18.9095 16.0126 18.9095 15.4033 18.8313 15.2626C18.7542 15.122 18.5501 15.0439 18.2376 14.9033Z" fill="white"/>
<path d="M21.375 3.59121C13.3656 -4.1515 0.110417 1.46412 0.105208 12.387C0.105208 14.5704 0.677083 16.6995 1.76667 18.5797L0 24.9985L6.59896 23.2777C14.8333 27.7256 24.9958 21.8193 25 12.3933C25 9.08496 23.7083 5.97141 21.3594 3.63183L21.375 3.59121ZM22.9188 12.3589C22.9125 20.31 14.1844 25.2756 7.28125 21.2172L6.90625 20.9943L3 22.01L4.04688 18.2131L3.79792 17.8225C-0.497917 10.9839 4.4375 2.04641 12.575 2.04641C15.3396 2.04641 17.9344 3.12454 19.8885 5.07766C21.8417 7.01412 22.9188 9.60891 22.9188 12.3589Z" fill="white"/>
</g>
<defs>
<clipPath id="clip0">
<rect width="25" height="25" fill="white"/>
</clipPath>
</defs>
</svg>
