<svg width="35" height="35" viewBox="0 0 35 35" fill="none" xmlns="http://www.w3.org/2000/svg">
<path d="M12.3964 34.6229C14.7393 34.6229 16.6385 32.7236 16.6385 30.3808C16.6385 28.0379 14.7393 26.1387 12.3964 26.1387C10.0536 26.1387 8.1543 28.0379 8.1543 30.3808C8.1543 32.7236 10.0536 34.6229 12.3964 34.6229Z" fill="#C4C4C4"/>
<path d="M25.9883 26.0971C23.634 25.8654 21.5377 27.586 21.3061 29.9403C21.0744 32.2945 22.795 34.3908 25.1493 34.6225C25.4282 34.6499 25.7093 34.6499 25.9883 34.6225C28.3425 34.3908 30.0631 32.2945 29.8315 29.9403C29.6313 27.9063 28.0221 26.2972 25.9883 26.0971Z" fill="#C4C4C4"/>
<path d="M34.7194 9.95235C34.5087 9.63678 34.1516 9.45048 33.7722 9.45813H29.077V9.37575C29.0773 4.39431 25.0394 0.355791 20.0579 0.355469C15.0766 0.355147 11.0381 4.3931 11.0377 9.37455C11.0377 9.37495 11.0377 9.37535 11.0377 9.37575V9.45813H7.53696L6.34258 4.02163C6.20993 3.4686 5.71691 3.07758 5.14819 3.07436H0V5.5455H4.15974L7.99 23.1317C8.09111 23.7099 8.59748 24.129 9.18438 24.1202H30.7244C31.2931 24.1169 31.7861 23.726 31.9188 23.1729L34.9665 10.982C35.0559 10.619 34.9638 10.2352 34.7194 9.95235ZM20.0574 15.9243C16.4408 15.9243 13.5089 12.9924 13.5089 9.37575C13.5089 5.75915 16.4408 2.82725 20.0574 2.82725C23.674 2.82725 26.6059 5.75915 26.6059 9.37575C26.5834 12.983 23.6646 15.9017 20.0574 15.9243Z" fill="#C4C4C4"/>
<path d="M19.0694 9.49924L16.8042 7.19285L15.0332 8.92264L18.1633 12.0939C18.3914 12.3267 18.7023 12.4599 19.0282 12.4646C19.3499 12.4804 19.6634 12.3609 19.8931 12.1351L25.0825 7.23404L23.3939 5.42188L19.0694 9.49924Z" fill="#C4C4C4"/>
</svg>
