<svg width="35" height="35" viewBox="0 0 35 35" fill="none" xmlns="http://www.w3.org/2000/svg">
<g clip-path="url(#clip0_1761:5809)">
<path d="M3.55469 35H1.02539C0.459102 35 0 34.5409 0 33.9746V21.6699C0 21.1036 0.459102 20.6445 1.02539 20.6445H3.55469C4.12098 20.6445 4.58008 21.1036 4.58008 21.6699V33.9746C4.58008 34.5409 4.12098 35 3.55469 35Z" fill="#C4C4C4"/>
<path d="M33.7184 23.8446C32.9279 23.4094 31.9631 23.4391 31.2009 23.922L27.4493 26.2979C27.3359 27.2659 26.9097 28.1641 26.2154 28.8751C25.3716 29.739 24.2429 30.2148 23.0371 30.2148H17.9391C17.387 30.2148 16.9119 29.7905 16.8859 29.239C16.8582 28.6502 17.3274 28.1641 17.9102 28.1641H23.0371C24.3755 28.1641 25.4609 27.0592 25.429 25.7137C25.3981 24.4076 24.2987 23.3789 22.9922 23.3789H17.2266L16.5577 22.8773C15.2258 21.8783 13.5753 21.3281 11.9103 21.3281C10.5067 21.3281 9.12864 21.7098 7.92504 22.4319L6.63086 23.2085V33.6328H23.866C24.8626 33.6328 25.8377 33.3424 26.6718 32.797L33.8795 28.0842C34.5811 27.6254 35 26.851 35 26.0127C35 25.1104 34.5089 24.2796 33.7184 23.8446Z" fill="#C4C4C4"/>
<path d="M14.4922 0C9.78052 0 5.94727 3.83325 5.94727 8.54492C5.94727 13.2566 9.78052 17.0898 14.4922 17.0898C19.2039 17.0898 23.0371 13.2566 23.0371 8.54492C23.0371 3.83325 19.2039 0 14.4922 0ZM15.5176 12.7881V12.9883C15.5176 13.5546 15.0585 14.0137 14.4922 14.0137C13.9259 14.0137 13.4668 13.5546 13.4668 12.9883V12.7872C12.6381 12.4497 11.9987 11.7156 11.8128 10.7998C11.7001 10.2448 12.0586 9.70354 12.6136 9.59075C13.1685 9.47823 13.7099 9.83664 13.8226 10.3916C13.8868 10.7079 14.1685 10.9374 14.4923 10.9374C14.8692 10.9374 15.1758 10.6308 15.1758 10.2538C15.1758 9.8769 14.8692 9.57024 14.4923 9.57024C12.9845 9.57024 11.7579 8.3436 11.7579 6.83587C11.7579 5.69071 12.4659 4.70825 13.4669 4.30172V4.10156C13.4669 3.53527 13.926 3.07617 14.4923 3.07617C15.0585 3.07617 15.5176 3.53527 15.5176 4.10156V4.30268C16.3463 4.6401 16.9857 5.37428 17.1717 6.29009C17.2843 6.84503 16.9258 7.3863 16.3708 7.49909C15.816 7.61175 15.2746 7.2532 15.1618 6.69826C15.0976 6.38189 14.8159 6.15234 14.4922 6.15234C14.1153 6.15234 13.8086 6.459 13.8086 6.83594C13.8086 7.21287 14.1153 7.51953 14.4922 7.51953C15.9999 7.51953 17.2266 8.74617 17.2266 10.2539C17.2266 11.3991 16.5186 12.3815 15.5176 12.7881Z" fill="#C4C4C4"/>
<path d="M34.9033 13.7945C34.7345 13.4342 34.3725 13.204 33.9747 13.204H32.4821C31.5759 9.62473 29.5327 6.38559 26.6676 4.01291C25.3349 2.90918 23.8501 2.01784 22.2705 1.35742C24.0181 3.24742 25.0879 5.77302 25.0879 8.54411C25.0879 9.39641 24.9861 10.2252 24.7952 11.0197C25.2713 11.7021 25.6739 12.4347 25.9905 13.204H25.0879C24.6901 13.204 24.3281 13.4342 24.1593 13.7945C23.9906 14.1548 24.0455 14.5802 24.3002 14.8859L28.7436 20.2179C28.9384 20.4517 29.227 20.5868 29.5313 20.5868C29.8356 20.5868 30.1243 20.4516 30.319 20.2179L34.7624 14.8859C35.0171 14.5802 35.072 14.1548 34.9033 13.7945Z" fill="#C4C4C4"/>
</g>
<defs>
<clipPath id="clip0_1761:5809">
<rect width="35" height="35" fill="white"/>
</clipPath>
</defs>
</svg>
