<svg width="35" height="35" viewBox="0 0 35 35" fill="none" xmlns="http://www.w3.org/2000/svg">
<path d="M0.477095 17.5455C0.100859 17.684 -0.09307 18.1011 0.0439857 18.4787L0.501909 19.7387L3.98859 16.252L0.477095 17.5455Z" fill="#C4C4C4"/>
<path d="M3.77734 28.7441L5.87727 34.5189C5.94289 34.7012 6.07995 34.85 6.25494 34.9302C6.35262 34.9754 6.45762 34.9987 6.56262 34.9987C6.64868 34.9987 6.73324 34.9842 6.81492 34.9536L9.13215 34.099L3.77734 28.7441Z" fill="#C4C4C4"/>
<path d="M34.9552 23.8145L32.552 17.207L26.7845 22.9745L29.6427 21.9216C30.0175 21.7787 30.4404 21.9741 30.5789 22.3533C30.7189 22.731 30.525 23.1509 30.1472 23.2895L26.5161 24.6282C26.433 24.6588 26.3484 24.6734 26.2638 24.6734C25.9678 24.6734 25.6878 24.4911 25.5799 24.1965C25.5785 24.1922 25.5799 24.1878 25.5785 24.1834L19.4668 30.2951L34.5221 24.7478C34.8998 24.6093 35.0937 24.1922 34.9552 23.8145Z" fill="#C4C4C4"/>
<path d="M34.7858 11.8796L23.1195 0.213274C22.8352 -0.0710912 22.3729 -0.0710912 22.0885 0.213274L0.214251 22.0875C-0.0701148 22.3719 -0.0701148 22.8342 0.214251 23.1185L11.8805 34.7848C12.022 34.9277 12.2087 34.9992 12.3953 34.9992C12.582 34.9992 12.7686 34.9277 12.9116 34.7863L34.7858 12.912C35.0702 12.6262 35.0702 12.1654 34.7858 11.8796ZM8.53672 20.2034L5.62013 23.12C5.4772 23.2614 5.29058 23.3329 5.1039 23.3329C4.91721 23.3329 4.7306 23.2615 4.58767 23.12C4.3033 22.8356 4.3033 22.3733 4.58767 22.0889L7.50426 19.1724C7.78862 18.888 8.25092 18.888 8.53528 19.1724C8.81965 19.4568 8.82108 19.9176 8.53672 20.2034ZM21.129 21.1294C20.6127 21.6456 19.9113 21.8936 19.1311 21.8936C17.842 21.8936 16.3356 21.2184 15.0756 19.957C14.154 19.0353 13.5065 17.9328 13.2542 16.8538C12.9743 15.6507 13.2047 14.6036 13.9032 13.9037C14.6017 13.2037 15.6487 12.9733 16.8532 13.2548C17.9324 13.5071 19.0349 14.153 19.9564 15.0761C21.9821 17.1002 22.4983 19.7601 21.129 21.1294ZM30.411 12.912L27.4944 15.8286C27.3514 15.97 27.1648 16.0415 26.9781 16.0415C26.7915 16.0415 26.6049 15.9701 26.4619 15.8286C26.1776 15.5442 26.1776 15.0819 26.4619 14.7976L29.3785 11.881C29.6629 11.5966 30.1252 11.5966 30.4095 11.881C30.6939 12.1654 30.6953 12.6262 30.411 12.912Z" fill="#C4C4C4"/>
</svg>
