<svg width="44" height="44" viewBox="0 0 44 44" fill="none" xmlns="http://www.w3.org/2000/svg">
<path d="M40.5625 35.75H31.5068C31.3642 36.1518 31.1008 36.4997 30.7527 36.7458C30.4046 36.992 29.9888 37.1245 29.5625 37.125C29.5172 37.125 29.4721 37.1205 29.4277 37.1117L22.5527 35.7367C22.4802 35.7222 22.4106 35.696 22.3464 35.6593L17.5339 32.9093C17.4554 32.8646 17.3865 32.8048 17.3311 32.7335C17.2757 32.6621 17.2349 32.5805 17.211 32.4933C17.1872 32.4061 17.1808 32.3151 17.1921 32.2255C17.2035 32.1358 17.2324 32.0493 17.2772 31.9709C17.3221 31.8924 17.3819 31.8235 17.4534 31.7682C17.5249 31.7129 17.6065 31.6723 17.6937 31.6485C17.7809 31.6248 17.8719 31.6185 17.9616 31.63C18.0512 31.6415 18.1377 31.6706 18.2161 31.7155L22.9317 34.4101L29.619 35.7476C29.7909 35.7332 29.9511 35.6548 30.068 35.5279C30.1848 35.4011 30.2498 35.235 30.25 35.0625V33.7086C30.185 33.5387 29.7333 33.1787 29.3047 32.9528L22.4898 30.9085C22.3926 30.8793 22.3031 30.829 22.2276 30.7611C20.3692 29.0892 14.9764 24.75 12.375 24.75H6.875V35.75H8.9375C9.13095 35.75 10.0072 35.9133 16.2105 37.138C19.3118 37.7503 22.8203 38.4429 23.2492 38.5H40.5625C40.7448 38.4998 40.9195 38.4273 41.0484 38.2984C41.1773 38.1695 41.2498 37.9948 41.25 37.8125V36.4375C41.2498 36.2552 41.1773 36.0805 41.0484 35.9516C40.9195 35.8227 40.7448 35.7502 40.5625 35.75Z" fill="#C4C4C4"/>
<path d="M2.75 23.375H5.5V37.125H2.75V23.375Z" fill="#C4C4C4"/>
<path d="M39.1359 22.7156L37.1335 22.4096C37.0219 22.3926 36.9162 22.3483 36.8258 22.2807C36.7353 22.2131 36.6629 22.1243 36.6149 22.0221L35.7499 20.1797L34.8852 22.0221C34.8373 22.1243 34.7648 22.2131 34.6744 22.2807C34.5839 22.3483 34.4782 22.3926 34.3666 22.4096L32.3643 22.7156L33.8361 24.2242C33.9113 24.3012 33.9673 24.3948 33.9997 24.4974C34.0321 24.6 34.0399 24.7088 34.0226 24.815L33.6825 26.9L35.4177 25.9409C35.5195 25.8846 35.634 25.8551 35.7503 25.8551C35.8666 25.8551 35.981 25.8846 36.0829 25.9409L37.8181 26.9L37.4773 24.815C37.46 24.7088 37.4678 24.6 37.5002 24.4974C37.5326 24.3948 37.5886 24.3012 37.6638 24.2242L39.1359 22.7156Z" fill="#C4C4C4"/>
<path d="M28.1359 16.5281L26.1335 16.2221C26.0219 16.2051 25.9162 16.1608 25.8258 16.0932C25.7353 16.0256 25.6629 15.9368 25.6149 15.8346L24.7499 13.9922L23.8852 15.8347C23.8372 15.9369 23.7648 16.0257 23.6743 16.0932C23.5839 16.1608 23.4782 16.2051 23.3666 16.2221L21.3643 16.5281L22.8361 18.0367C22.9113 18.1137 22.9673 18.2073 22.9997 18.3099C23.0321 18.4125 23.0399 18.5213 23.0226 18.6275L22.6825 20.7125L24.4177 19.7534C24.5195 19.6971 24.6339 19.6676 24.7503 19.6676C24.8666 19.6676 24.981 19.6971 25.0829 19.7534L26.8181 20.7125L26.4773 18.6275C26.46 18.5213 26.4678 18.4125 26.5002 18.3099C26.5326 18.2073 26.5886 18.1137 26.6638 18.0367L28.1359 16.5281Z" fill="#C4C4C4"/>
<path d="M17.1359 10.3406L15.1335 10.0346C15.0219 10.0176 14.9163 9.9733 14.8258 9.90573C14.7354 9.83817 14.663 9.74937 14.615 9.64719L13.7499 7.80469L12.8851 9.64719C12.8372 9.74937 12.7648 9.83817 12.6743 9.90573C12.5839 9.9733 12.4782 10.0176 12.3666 10.0346L10.3643 10.3406L11.8361 11.8492C11.9113 11.9262 11.9673 12.0198 11.9997 12.1224C12.0321 12.225 12.0399 12.3338 12.0226 12.44L11.6825 14.525L13.4177 13.5659C13.5195 13.5096 13.6339 13.4801 13.7503 13.4801C13.8666 13.4801 13.981 13.5096 14.0829 13.5659L15.8181 14.525L15.4773 12.44C15.46 12.3338 15.4678 12.225 15.5002 12.1224C15.5326 12.0198 15.5886 11.9262 15.6638 11.8492L17.1359 10.3406Z" fill="#C4C4C4"/>
</svg>
