<svg width="64" height="25" viewBox="0 0 64 25" fill="none" xmlns="http://www.w3.org/2000/svg">
<path d="M16.8265 24L15.3792 18.9584H7.87249L6.40932 24H0.461217L8.17467 1.0505H15.3156L23.029 24H16.8265ZM11.5622 5.91713L9.00167 14.7598H14.2341L11.6895 5.91713H11.5622ZM44.9925 14.2985C44.9925 17.4369 44.07 19.9074 42.2252 21.7098C40.3803 23.5017 37.8304 24.3976 34.5753 24.3976C31.0234 24.3976 28.2455 23.3532 26.2416 21.2645C24.2377 19.1652 23.2358 16.2388 23.2358 12.4855C23.2358 8.77455 24.2324 5.87472 26.2257 3.78599C28.219 1.69726 30.9545 0.652901 34.4322 0.652901C37.1995 0.652901 39.5374 1.39509 41.4459 2.87946C43.3544 4.36384 44.457 6.27762 44.7539 8.62081H38.9807C38.6945 7.60296 38.1484 6.80245 37.3426 6.21931C36.5368 5.63616 35.572 5.34459 34.4481 5.34459C32.7941 5.34459 31.5006 5.96484 30.5675 7.20536C29.6451 8.44587 29.1839 10.1794 29.1839 12.406C29.1839 14.6643 29.6822 16.4456 30.6789 17.7497C31.6755 19.0539 33.0167 19.7059 34.7026 19.7059C36.0173 19.7059 37.0988 19.3507 37.947 18.6403C38.7952 17.93 39.2617 16.9969 39.3465 15.8412L39.3624 15.4914H35.1638V11.4835H44.9925V14.2985ZM63.6161 19.2924V24H47.887V1.0505H63.6161V5.75809H53.7238V10.3225H63.0276V14.6166H53.7238V19.2924H63.6161Z" fill="#C4C4C4"/>
</svg>
