<svg width="11" height="36" viewBox="0 0 11 36" fill="none" xmlns="http://www.w3.org/2000/svg">
<path d="M7.68066 10L7.05859 7.83301H3.83203L3.20312 10H0.646484L3.96191 0.135742H7.03125L10.3467 10H7.68066ZM5.41797 2.22754L4.31738 6.02832H6.56641L5.47266 2.22754H5.41797ZM10.1621 18.8301C10.1621 20.179 9.76562 21.2409 8.97266 22.0156C8.17969 22.7858 7.08366 23.1709 5.68457 23.1709C4.15788 23.1709 2.96387 22.722 2.10254 21.8242C1.24121 20.9219 0.810547 19.6641 0.810547 18.0508C0.810547 16.4557 1.23893 15.2093 2.0957 14.3115C2.95247 13.4137 4.12826 12.9648 5.62305 12.9648C6.8125 12.9648 7.81738 13.2839 8.6377 13.9219C9.45801 14.5599 9.93197 15.3825 10.0596 16.3896H7.57812C7.45508 15.9521 7.22038 15.6081 6.87402 15.3574C6.52767 15.1068 6.11296 14.9814 5.62988 14.9814C4.91895 14.9814 4.36296 15.248 3.96191 15.7812C3.56543 16.3145 3.36719 17.0596 3.36719 18.0166C3.36719 18.9873 3.58138 19.7529 4.00977 20.3135C4.43815 20.874 5.01465 21.1543 5.73926 21.1543C6.30436 21.1543 6.76921 21.0016 7.13379 20.6963C7.49837 20.391 7.69889 19.9899 7.73535 19.4932L7.74219 19.3428H5.9375V17.6201H10.1621V18.8301ZM8.91797 33.9766V36H2.15723V26.1357H8.91797V28.1592H4.66602V30.1211H8.66504V31.9668H4.66602V33.9766H8.91797Z" fill="#C4C4C4"/>
</svg>
