<svg width="35" height="35" viewBox="0 0 35 35" fill="none" xmlns="http://www.w3.org/2000/svg">
<path d="M0 31.229C0 33.3084 1.69163 35 3.77125 35H31.2288C33.3081 35 34.9997 33.3084 34.9997 31.229L35 10.8371L0 10.8374V31.229ZM23.713 29.1315C22.855 29.9895 21.464 29.9895 20.6063 29.1315C19.7486 28.2738 19.7484 26.8829 20.6063 26.0252C21.4643 25.1675 22.855 25.1675 23.7127 26.0252C24.5707 26.8831 24.5707 28.2738 23.713 29.1315ZM22.9362 17.4824C23.7939 18.3403 23.7939 19.731 22.9362 20.5887L15.1696 28.3553C14.3122 29.213 12.9213 29.2127 12.0636 28.355C11.2056 27.4973 11.2053 26.1063 12.0633 25.2484L19.8296 17.4824C20.6873 16.6244 22.0785 16.6244 22.9362 17.4824ZM11.287 16.7056C12.1447 15.8479 13.5354 15.8479 14.3934 16.7056C15.2514 17.5636 15.2511 18.9542 14.3931 19.8119C13.5354 20.6699 12.1447 20.6699 11.287 19.8119C10.4291 18.9542 10.4291 17.5636 11.287 16.7056Z" fill="#C4C4C4"/>
<path d="M31.2288 2.19658H30.4608V4.32026C30.4608 4.88663 30.0018 5.34565 29.4354 5.34565C28.8693 5.34565 28.41 4.88663 28.41 4.32026V1.02539C28.41 0.459023 27.951 0 27.3846 0C26.8185 0 26.3592 0.459023 26.3592 1.02539V2.19658H23.871V4.32053C23.871 4.88663 23.412 5.34592 22.8456 5.34592C22.2793 5.34592 21.8203 4.88663 21.8203 4.32053V1.02539C21.8203 0.459023 21.3612 0 20.7949 0C20.2285 0 19.7695 0.459023 19.7695 1.02539V2.19658H17.281V4.32053C17.281 4.88663 16.822 5.34592 16.2556 5.34592C15.6895 5.34592 15.2303 4.88663 15.2303 4.32053V1.02539C15.2303 0.459023 14.7712 0 14.2049 0C13.6388 0 13.1795 0.459023 13.1795 1.02539V2.19658H10.6913V4.32053C10.6913 4.88663 10.2323 5.34592 9.66591 5.34592C9.09981 5.34592 8.64052 4.88663 8.64052 4.32053V1.02539C8.64052 0.459023 8.1815 0 7.61513 0C7.04876 0 6.58974 0.459023 6.58974 1.02539V2.19658H3.77125C2.76695 2.19658 1.8206 2.58965 1.10683 3.30341C0.392799 4.01718 0 4.96353 0 5.96783V8.78658L35 8.78632V5.96783C34.9997 3.88847 33.3081 2.19685 31.2288 2.19658Z" fill="#C4C4C4"/>
</svg>
