<svg width="28" height="28" viewBox="0 0 28 28" fill="none" xmlns="http://www.w3.org/2000/svg">
<path d="M22.1673 5.83359H21.0007V3.50025C21.0007 3.19084 20.8777 2.89409 20.6589 2.6753C20.4401 2.4565 20.1434 2.33359 19.834 2.33359C19.5246 2.33359 19.2278 2.4565 19.009 2.6753C18.7902 2.89409 18.6673 3.19084 18.6673 3.50025V5.83359H9.33398V3.50025C9.33398 3.19084 9.21107 2.89409 8.99228 2.6753C8.77348 2.4565 8.47674 2.33359 8.16732 2.33359C7.8579 2.33359 7.56115 2.4565 7.34236 2.6753C7.12357 2.89409 7.00065 3.19084 7.00065 3.50025V5.83359H5.83398C4.90573 5.83359 4.01549 6.20234 3.35911 6.85871C2.70273 7.51509 2.33398 8.40533 2.33398 9.33359V10.5003H25.6673V9.33359C25.6673 8.40533 25.2986 7.51509 24.6422 6.85871C23.9858 6.20234 23.0956 5.83359 22.1673 5.83359Z" fill="#606EEA"/>
<path d="M2.33398 22.1669C2.33398 23.0952 2.70273 23.9854 3.35911 24.6418C4.01549 25.2982 4.90573 25.6669 5.83398 25.6669H22.1673C23.0956 25.6669 23.9858 25.2982 24.6422 24.6418C25.2986 23.9854 25.6673 23.0952 25.6673 22.1669V12.8336H2.33398V22.1669Z" fill="#606EEA"/>
</svg>
