<svg width="35" height="35" viewBox="0 0 35 35" fill="none" xmlns="http://www.w3.org/2000/svg">
<path d="M12.3964 34.6232C14.7393 34.6232 16.6385 32.724 16.6385 30.3811C16.6385 28.0383 14.7393 26.139 12.3964 26.139C10.0536 26.139 8.1543 28.0383 8.1543 30.3811C8.1543 32.724 10.0536 34.6232 12.3964 34.6232Z" fill="#C4C4C4"/>
<path d="M25.9883 26.0978C23.634 25.8661 21.5377 27.5868 21.3061 29.941C21.0744 32.2953 22.795 34.3915 25.1493 34.6232C25.4282 34.6506 25.7093 34.6506 25.9883 34.6232C28.3425 34.3915 30.0631 32.2953 29.8315 29.941C29.6313 27.9071 28.0221 26.2979 25.9883 26.0978Z" fill="#C4C4C4"/>
<path d="M34.7194 9.95308C34.5087 9.63752 34.1516 9.45122 33.7722 9.45886H29.077V9.37649C29.0773 4.39504 25.0394 0.356523 20.0579 0.356201C15.0766 0.355879 11.0381 4.39384 11.0377 9.37528C11.0377 9.37568 11.0377 9.37609 11.0377 9.37649V9.45886H7.53696L6.34258 4.02236C6.20993 3.46933 5.71691 3.07831 5.14819 3.07509H0V5.54623H4.15974L7.99 23.1325C8.09111 23.7107 8.59748 24.1297 9.18438 24.1209H30.7244C31.2931 24.1176 31.7861 23.7267 31.9188 23.1737L34.9665 10.9827C35.0559 10.6197 34.9638 10.2359 34.7194 9.95308ZM20.0574 15.925C16.4408 15.925 13.5089 12.9931 13.5089 9.37649C13.5089 5.75988 16.4408 2.82798 20.0574 2.82798C23.674 2.82798 26.6059 5.75988 26.6059 9.37649C26.5834 12.9838 23.6646 15.9025 20.0574 15.925Z" fill="#C4C4C4"/>
<path d="M19.0694 9.50003L16.8042 7.19365L15.0332 8.92344L18.1633 12.0947C18.3914 12.3275 18.7023 12.4607 19.0282 12.4654C19.3499 12.4812 19.6634 12.3617 19.8931 12.1359L25.0825 7.23483L23.3939 5.42267L19.0694 9.50003Z" fill="#C4C4C4"/>
</svg>
