<svg width="35" height="35" viewBox="0 0 35 35" fill="none" xmlns="http://www.w3.org/2000/svg">
<path d="M25.667 0.000488281V9.33339H34.9999L25.667 0.000488281Z" fill="#C4C4C4"/>
<path d="M11.6351 33.55L9.84781 26.3799C10.9631 25.3183 11.6677 23.8251 11.6677 22.1661C11.6677 18.9509 9.04985 16.3331 5.83466 16.3331C2.61947 16.3331 0.00159271 18.9509 0.00159271 22.1661C0.00159271 23.8251 0.706227 25.3183 1.82151 26.3799L0.0342579 33.55C-0.0754038 33.9909 0.0832557 34.4576 0.437906 34.7446C0.792556 35.0292 1.28253 35.0782 1.68852 34.8776L5.83466 32.8033L9.97847 34.8776C10.1441 34.9569 10.3238 34.9989 10.5011 34.9989C10.7601 34.9989 11.0191 34.9126 11.2314 34.7446C11.5861 34.4576 11.7447 33.9933 11.6351 33.55ZM5.83466 25.666C3.90508 25.666 2.33482 24.0957 2.33482 22.1661C2.33482 20.2366 3.90508 18.6663 5.83466 18.6663C7.76424 18.6663 9.3345 20.2366 9.3345 22.1661C9.3345 24.0957 7.76424 25.666 5.83466 25.666Z" fill="#C4C4C4"/>
<path d="M25.6668 11.6666C24.3812 11.6666 23.3336 10.619 23.3336 9.33339V0.000488281H9.3342C8.0486 0.000488281 7.00098 1.04811 7.00098 2.33371V14.1188C10.9488 14.6905 14.0007 18.062 14.0007 22.1661C14.0007 23.93 13.4407 25.6053 12.4047 26.9982L13.8187 32.6656H32.6665C33.9544 32.6656 34.9997 31.6204 34.9997 30.3324V11.6666H25.6668ZM12.834 9.33339C12.1901 9.33339 11.6674 8.81075 11.6674 8.16678C11.6674 7.52281 12.1901 7.00016 12.834 7.00016H19.8337C20.4777 7.00016 21.0003 7.52281 21.0003 8.16678C21.0003 8.81075 20.4777 9.33339 19.8337 9.33339H12.834ZM29.1666 23.3327H17.5005C16.8565 23.3327 16.3339 22.8101 16.3339 22.1661C16.3339 21.5222 16.8565 20.9995 17.5005 20.9995H29.1666C29.8106 20.9995 30.3332 21.5222 30.3332 22.1661C30.3332 22.8101 29.8106 23.3327 29.1666 23.3327ZM29.1666 16.3331H15.1673C14.5233 16.3331 14.0007 15.8104 14.0007 15.1665C14.0007 14.5225 14.5233 13.9998 15.1673 13.9998H29.1666C29.8106 13.9998 30.3332 14.5225 30.3332 15.1665C30.3332 15.8104 29.8106 16.3331 29.1666 16.3331Z" fill="#C4C4C4"/>
</svg>
