<svg width="33" height="35" viewBox="0 0 33 35" fill="none" xmlns="http://www.w3.org/2000/svg">
<path d="M2.72559 5.8906V28.0822H19.8993V31.9856C19.8993 33.612 21.1877 34.9416 22.7926 34.9982L22.8651 34.9998C22.8764 34.9999 22.8878 35 22.8991 35C24.5531 35 25.8987 33.6478 25.8987 31.9856V2.43373C25.8987 1.53713 26.1635 0.701846 26.6173 0.000341797L8.57947 0C5.35161 0 2.72559 2.6425 2.72559 5.8906ZM15.4237 12.7969C14.0743 12.2965 12.8761 11.7603 12.8258 11.7378C12.7763 11.7156 12.7287 11.6895 12.6834 11.6598C11.7861 11.0717 11.3246 10.0412 11.4788 8.9706C11.6431 7.82961 12.4763 6.89931 13.6532 6.54288C13.6994 6.52887 13.7452 6.51731 13.7911 6.50508V4.66724H15.8419V6.46748C17.1009 6.74208 17.9658 7.45855 18.0194 7.50395L16.6958 9.07033L16.7012 9.07491C16.6895 9.06534 15.5182 8.12089 14.2476 8.50562C13.6532 8.68567 13.5328 9.09521 13.5086 9.2629C13.4905 9.38855 13.4812 9.69158 13.7534 9.90575C14.0508 10.0367 15.0561 10.4734 16.1368 10.8742C18.2994 11.6761 18.8409 13.238 18.6266 14.4322C18.3861 15.7724 17.2688 16.8022 15.8418 17.0906V18.8615H13.7911V17.0235C12.7956 16.7847 11.8845 16.2653 11.2257 15.5345L10.5392 14.7728L12.0625 13.3997L12.749 14.1614C13.2563 14.7242 14.0345 15.0746 14.8564 15.1167H15.1375C15.9504 15.0726 16.5195 14.5638 16.6081 14.07C16.7347 13.3643 15.822 12.9447 15.4237 12.7969ZM9.08376 21.3976H20.5491V23.4484H9.08376V21.3976Z" fill="#C4C4C4"/>
<path d="M18.8415 34.9981C18.218 34.1556 17.8488 33.1131 17.8488 31.9856V30.1329H0.208008V32.9523C0.208008 34.0804 1.12074 34.9981 2.24266 34.9981H18.8415Z" fill="#C4C4C4"/>
<path d="M32.7921 2.43373C32.7921 1.09177 31.7061 0 30.3711 0C30.3681 0 30.3652 0.000205078 30.3622 0.000205078V0.000341797H30.3554C29.0277 0.00888672 27.9502 1.09696 27.9502 2.43366V15.565H32.7921V2.43373Z" fill="#C4C4C4"/>
</svg>
