<svg width="35" height="35" viewBox="0 0 35 35" fill="none" xmlns="http://www.w3.org/2000/svg">
<g clip-path="url(#clip0)">
<path d="M32.6667 5.97916H11.2288C10.9067 5.97916 10.6455 6.24034 10.6455 6.56249V8.36054C10.6455 8.67124 10.411 8.94249 10.101 8.96262C9.76128 8.98464 9.4788 8.71557 9.4788 8.38052V6.56249C9.4788 6.24034 9.21761 5.97916 8.89547 5.97916H2.33333C1.04468 5.97916 0 7.02383 0 8.31249V11.5252C0 12.3885 0.465937 13.1731 1.21698 13.5742C4.35466 15.2477 4.35407 19.7526 1.21698 21.4258C0.465937 21.8269 0 22.6115 0 23.4748V26.6875C0 27.9762 1.04468 29.0208 2.33333 29.0208H8.89561C9.21776 29.0208 9.47895 28.7597 9.47895 28.4375V26.6392C9.47895 26.3285 9.71338 26.0572 10.0234 26.0371C10.3631 26.0151 10.6456 26.2841 10.6456 26.6192V28.4375C10.6456 28.7597 10.9068 29.0208 11.2289 29.0208H32.6667C33.9553 29.0208 35 27.9762 35 26.6875V8.31249C35 7.02383 33.9553 5.97916 32.6667 5.97916ZM10.6458 22.2115C10.6458 22.5337 10.3846 22.7948 10.0625 22.7948C9.74035 22.7948 9.47917 22.5337 9.47917 22.2115V19.928C9.47917 19.6058 9.74035 19.3446 10.0625 19.3446C10.3846 19.3446 10.6458 19.6058 10.6458 19.928V22.2115ZM10.6458 15.072C10.6458 15.3942 10.3846 15.6554 10.0625 15.6554C9.74035 15.6554 9.47917 15.3942 9.47917 15.072V12.7885C9.47917 12.4663 9.74035 12.2052 10.0625 12.2052C10.3846 12.2052 10.6458 12.4663 10.6458 12.7885V15.072ZM17.2812 14.6441C17.2812 14.0075 17.7992 13.4896 18.4357 13.4896C19.0723 13.4896 19.5903 14.0075 19.5903 14.6441C19.5903 15.2806 19.0723 15.7986 18.4357 15.7986C17.7992 15.7986 17.2812 15.2806 17.2812 14.6441ZM17.8329 20.9588C17.6051 20.7309 17.6051 20.3617 17.8329 20.1338L23.5446 14.422C23.7725 14.1943 24.1418 14.1943 24.3696 14.422C24.5974 14.6499 24.5974 15.0192 24.3696 15.247L18.6578 20.9588C18.43 21.1866 18.0608 21.1865 17.8329 20.9588ZM24.1476 21.5104C23.511 21.5104 22.993 20.9925 22.993 20.3559C22.993 19.7194 23.511 19.2014 24.1476 19.2014C24.7842 19.2014 25.3021 19.7194 25.3021 20.3559C25.3021 20.9925 24.7842 21.5104 24.1476 21.5104Z" fill="#C4C4C4"/>
</g>
<defs>
<clipPath id="clip0">
<rect width="35" height="35" fill="white"/>
</clipPath>
</defs>
</svg>
