<svg width="24" height="24" viewBox="0 0 24 24" fill="none" xmlns="http://www.w3.org/2000/svg">
<path d="M19.1151 0H4.18485C1.87724 0 0 1.87724 0 4.18485V19.1151C0 21.4228 1.87724 23.3 4.18485 23.3H19.1151C21.4228 23.3 23.3 21.4228 23.3 19.1151V4.18485C23.3 1.87724 21.4228 0 19.1151 0ZM19.6908 18.1831H12.2234C11.567 20.1259 8.80999 20.1288 8.15272 18.1831H3.60922C2.70262 18.1831 2.70239 16.8125 3.60922 16.8125H8.15272C8.80899 14.8698 11.5661 14.8669 12.2234 16.8125H19.6908C20.5974 16.8125 20.5977 18.1831 19.6908 18.1831ZM19.6908 12.3353H18.0712C17.4149 14.278 14.6578 14.281 14.0005 12.3353H3.60922C2.70262 12.3353 2.70239 10.9647 3.60922 10.9647H14.0006C14.6568 9.02197 17.4139 9.01901 18.0712 10.9647H19.6908C20.5974 10.9647 20.5977 12.3353 19.6908 12.3353ZM19.6908 6.48746H9.29943C8.64312 8.43019 5.88607 8.43314 5.2288 6.48746H3.60922C2.70262 6.48746 2.70239 5.11685 3.60922 5.11685H5.2288C5.88507 3.17412 8.64216 3.17117 9.29943 5.11685H19.6908C20.5974 5.11685 20.5977 6.48746 19.6908 6.48746Z" fill="#606EEA"/>
<path d="M10.1885 20.7212C9.16086 20.7212 9.16141 22.2745 10.1885 22.2745C11.216 22.2746 11.2155 20.7212 10.1885 20.7212Z" fill="#606EEA"/>
<path d="M7.26367 9.02551C6.23606 9.02551 6.2366 10.5788 7.26367 10.5788C8.29123 10.5789 8.29069 9.02551 7.26367 9.02551Z" fill="#606EEA"/>
<path d="M16.0361 14.8733C15.0085 14.8733 15.0091 16.4266 16.0361 16.4266C17.0637 16.4267 17.0632 14.8733 16.0361 14.8733Z" fill="#606EEA"/>
</svg>
