<svg width="35" height="35" viewBox="0 0 35 35" fill="none" xmlns="http://www.w3.org/2000/svg">
<path d="M32.9492 24.6777H22.9189L21.8351 26.8453C21.6614 27.1927 21.3064 27.4121 20.918 27.4121H14.082C13.6936 27.4121 13.3386 27.1927 13.1649 26.8453L12.0811 24.6777H2.05078C0.918135 24.6777 0 25.5959 0 26.7285V29.4629C0 30.5955 0.918135 31.5137 2.05078 31.5137H32.9492C34.0819 31.5137 35 30.5955 35 29.4629V26.7285C35 25.5959 34.0819 24.6777 32.9492 24.6777Z" fill="#C4C4C4"/>
<path d="M16.5781 10.7747C16.1272 11.0071 15.8898 11.4631 15.8172 11.8485C15.7308 12.3068 15.8472 12.7379 16.1136 12.9469C16.2488 13.0529 16.4061 13.1556 16.5781 13.2554V10.7747Z" fill="#C4C4C4"/>
<path d="M19.4959 17.7761C19.552 17.4424 19.6327 16.3174 18.3155 15.8518C18.3059 15.8484 18.2967 15.8451 18.2871 15.8417V19.3566C18.9816 19.0496 19.3919 18.3948 19.4959 17.7761Z" fill="#C4C4C4"/>
<path d="M13.632 23.1938L14.7158 25.3613H20.2843L21.368 23.1938C21.5417 22.8464 21.8967 22.627 22.2852 22.627H32.9492V6.5625C32.9492 4.8663 31.5692 3.48633 29.873 3.48633H5.12695C3.43075 3.48633 2.05078 4.8663 2.05078 6.5625V22.627H12.7148C13.1033 22.627 13.4583 22.8464 13.632 23.1938ZM22.9393 11.978L25.0584 9.92722C25.4607 9.53791 26.1008 9.54317 26.4966 9.93897L28.5474 11.9898C28.9478 12.3902 28.9478 13.0394 28.5474 13.4399C28.147 13.8403 27.4977 13.8403 27.0972 13.4399L26.7969 13.1396V18.8672C26.7969 19.4335 26.3378 19.8926 25.7715 19.8926C25.2052 19.8926 24.7461 19.4335 24.7461 18.8672V13.0833C24.4613 13.3703 24.0874 13.7764 23.6524 13.7402C23.3843 13.7402 23.1166 13.6358 22.9155 13.4279C22.5217 13.021 22.5323 12.3718 22.9393 11.978ZM13.9069 19.1654C14.1652 18.7705 14.6948 18.6598 15.0897 18.9181C15.6859 19.3081 16.0485 19.4571 16.578 19.5097V15.17C15.9275 14.8766 15.4481 14.5969 15.0587 14.2915C14.2843 13.684 13.9314 12.6267 14.1377 11.532C14.3633 10.3349 15.1953 9.38287 16.309 9.04743C16.4001 9.02002 16.4894 8.99644 16.578 8.97463V8.27148C16.578 7.7996 16.9606 7.41699 17.4325 7.41699C17.9044 7.41699 18.287 7.7996 18.287 8.27148V8.87558C19.2556 9.01667 19.9365 9.48466 20.2598 9.85585C20.5698 10.2117 20.5327 10.7514 20.1768 11.0614C19.8222 11.3704 19.2849 11.3345 18.9744 10.982C18.9585 10.9658 18.7319 10.7417 18.287 10.6202V14.0234C18.4876 14.0986 18.6883 14.171 18.885 14.2406C20.5697 14.8361 21.4711 16.3351 21.1812 18.0595C21.0397 18.9007 20.6165 19.6812 19.9894 20.2573C19.5026 20.7047 18.9241 21.0055 18.287 21.1483V21.9434C18.287 22.4152 17.9044 22.7979 17.4325 22.7979C16.9606 22.7979 16.578 22.4152 16.578 21.9434V21.2244C15.7572 21.1674 15.1009 20.9676 14.1542 20.3483C13.7593 20.0899 13.6486 19.5604 13.9069 19.1654ZM11.2793 13.7402H7.17773C6.61145 13.7402 6.15234 13.2811 6.15234 12.7148C6.15234 12.1486 6.61145 11.6895 7.17773 11.6895H11.2793C11.8456 11.6895 12.3047 12.1486 12.3047 12.7148C12.3047 13.2811 11.8456 13.7402 11.2793 13.7402ZM11.2793 9.63867H7.17773C6.61145 9.63867 6.15234 9.17957 6.15234 8.61328C6.15234 8.04699 6.61145 7.58789 7.17773 7.58789H11.2793C11.8456 7.58789 12.3047 8.04699 12.3047 8.61328C12.3047 9.17957 11.8456 9.63867 11.2793 9.63867Z" fill="#C4C4C4"/>
</svg>
