<svg width="15" height="40" viewBox="0 0 15 40" fill="none" xmlns="http://www.w3.org/2000/svg">
<path d="M7.49908 10.0001C10.2605 10.0001 12.4991 7.76151 12.4991 5.00005C12.4991 2.2386 10.2605 0 7.49908 0C4.73762 0 2.49902 2.2386 2.49902 5.00005C2.49902 7.76151 4.73762 10.0001 7.49908 10.0001Z" fill="#C4C4C4"/>
<path d="M14.9938 26.1253L13.8538 14.7527C13.7263 13.4676 12.6563 12.5001 11.3663 12.5001H9.99878C9.66627 12.5001 9.34877 12.6326 9.11377 12.8651L7.49875 14.4802L5.88373 12.8651C5.64873 12.6326 5.33123 12.5001 4.99872 12.5001H3.63121C2.34119 12.5001 1.27118 13.4676 1.14368 14.7502L0.00616945 26.1253C-0.0288309 26.4778 0.0861702 26.8253 0.323673 27.0903C0.558675 27.3503 0.896179 27.5003 1.24868 27.5003H2.6162L3.64121 37.7504C3.76871 39.0304 4.84122 40.0004 6.13124 40.0004H8.86876C10.1588 40.0004 11.2288 39.0304 11.3563 37.7504L12.3813 27.5003H13.7488C14.1013 27.5003 14.4388 27.3503 14.6763 27.0903C14.9138 26.8278 15.0288 26.4778 14.9938 26.1253Z" fill="#C4C4C4"/>
</svg>
