<svg width="40" height="40" viewBox="0 0 40 40" fill="none" xmlns="http://www.w3.org/2000/svg">
<rect width="40" height="40" rx="14" fill="#C4BEF4"/>
<path d="M26.9492 17.2382C26.8622 17.0339 26.6773 16.9036 26.4744 16.9036H21.2026L24.3935 10.884C24.4895 10.7029 24.491 10.4782 24.3974 10.2955C24.3039 10.1128 24.1296 9.99992 23.9409 10L19.4369 10.0005C19.25 10.0006 19.0772 10.1113 18.983 10.2912L13.0716 21.5875C12.9768 21.7687 12.9761 21.9926 13.0698 22.1745C13.1636 22.3564 13.3374 22.4686 13.5256 22.4686H18.7638L17.2381 29.2719C17.1784 29.5381 17.2925 29.8149 17.5125 29.9379C17.5876 29.9798 17.6681 30 17.7478 30C17.9018 30 18.0528 29.9245 18.1553 29.7844L26.8817 17.8599C27.01 17.6846 27.0362 17.4425 26.9492 17.2382Z" fill="#7169AD"/>
</svg>
