<svg width="31" height="35" viewBox="0 0 31 35" fill="none" xmlns="http://www.w3.org/2000/svg">
<path d="M17.3334 7.61546C19.9959 5.37881 21.775 0.339969 20.6801 0.119582C19.2254 -0.173361 16.0664 1.11116 14.5395 1.33748C12.3738 1.59896 10.0151 -1.01093 8.69114 0.443821C7.61466 1.62663 9.46291 5.92813 12.3545 7.80208C3.7275 12.0421 -8.39838 33.3276 12.7559 34.872C42.0264 37.0091 27.3696 11.7473 17.3334 7.61546ZM19.8472 24.4022C19.7572 25.232 19.3174 25.9824 18.66 26.4919C17.9659 27.0299 17.0953 27.2801 16.2303 27.3501V28.267C16.2303 28.5124 16.1232 28.7496 15.9395 28.912C15.6871 29.1354 15.3162 29.1905 15.0098 29.0493C14.7073 28.9102 14.5086 28.5999 14.5086 28.267V27.2649C14.3603 27.2367 14.213 27.2032 14.0675 27.1633C13.2591 26.9412 12.5092 26.5082 11.9614 25.8676C11.6886 25.5483 11.4662 25.1861 11.3123 24.7949C11.2721 24.6927 11.2363 24.5886 11.2049 24.4834C11.1765 24.3881 11.1472 24.2912 11.1371 24.1919C11.12 24.0253 11.153 23.8553 11.2307 23.7069C11.3903 23.4016 11.7266 23.2172 12.0701 23.2479C12.4081 23.2778 12.7043 23.5124 12.8107 23.8346C12.8435 23.9338 12.8657 24.0355 12.9025 24.1337C12.939 24.2312 12.9831 24.326 13.0349 24.4163C13.1372 24.594 13.2653 24.7579 13.4129 24.9001C13.7171 25.1932 14.1046 25.3837 14.5086 25.497V22.0906C13.7187 21.8861 12.9034 21.622 12.2511 21.1148C11.9341 20.8682 11.6651 20.5619 11.489 20.1993C11.3031 19.8165 11.2261 19.3902 11.223 18.9667C11.2197 18.5367 11.3014 18.1105 11.4808 17.7188C11.6488 17.3519 11.8907 17.0226 12.1873 16.7496C12.8214 16.1659 13.6638 15.8404 14.5087 15.7208V15.6458V14.769C14.5087 14.5237 14.6158 14.2864 14.7995 14.124C15.052 13.9007 15.4227 13.8455 15.7292 13.9867C16.0316 14.1259 16.2304 14.4361 16.2304 14.769V15.6458V15.7156C16.343 15.7298 16.4552 15.7467 16.5669 15.767C17.3966 15.9171 18.208 16.2597 18.8148 16.8579C19.1022 17.1412 19.3375 17.4788 19.5029 17.8469C19.5491 17.9496 19.5896 18.0547 19.6246 18.1618C19.6572 18.2617 19.69 18.3646 19.7055 18.4689C19.7304 18.6353 19.705 18.8073 19.6338 18.9595C19.4879 19.2715 19.1606 19.4702 18.8162 19.4554C18.4779 19.4407 18.1714 19.2204 18.0502 18.9041C18.0142 18.8101 17.9961 18.7105 17.9593 18.6167C17.9222 18.5217 17.8741 18.4311 17.8187 18.3456C17.7109 18.1792 17.5713 18.0366 17.412 17.919C17.0669 17.6642 16.6484 17.5315 16.2302 17.4573V20.7171C16.7272 20.8361 17.2246 20.9659 17.7008 21.1537C18.4205 21.4375 19.1025 21.8727 19.4954 22.5589C19.4344 22.452 19.3751 22.3478 19.4974 22.5624C19.6175 22.7732 19.5602 22.6728 19.4999 22.5671C19.8124 23.1179 19.9151 23.7765 19.8472 24.4022Z" fill="#C4C4C4"/>
</svg>
