<svg width="27" height="41" viewBox="0 0 27 41" fill="none" xmlns="http://www.w3.org/2000/svg">
<path d="M9.21429 27.6518C9.21429 25.0446 9.50893 22.9911 10.0982 21.4911C10.6875 19.9732 11.6429 18.6607 12.9643 17.5536C14.2857 16.4464 15.2857 15.4375 15.9643 14.5268C16.6607 13.5982 17.0089 12.5804 17.0089 11.4732C17.0089 8.77678 15.8482 7.42857 13.5268 7.42857C12.4554 7.42857 11.5893 7.82143 10.9286 8.60714C10.2679 9.39285 9.91964 10.4554 9.88393 11.7946H0.830357C0.866071 8.22321 1.99107 5.44643 4.20536 3.46428C6.41964 1.46428 9.52679 0.464283 13.5268 0.464283C17.5089 0.464283 20.5893 1.38393 22.7679 3.22321C24.9643 5.0625 26.0625 7.67857 26.0625 11.0714C26.0625 12.5536 25.7679 13.9018 25.1786 15.1161C24.5893 16.3304 23.6429 17.5714 22.3393 18.8393L19.2589 21.7054C18.3839 22.5446 17.7768 23.4107 17.4375 24.3036C17.0982 25.1786 16.9107 26.2946 16.875 27.6518H9.21429ZM8.11607 35.7946C8.11607 34.4732 8.58929 33.3929 9.53572 32.5536C10.5 31.6964 11.6964 31.2679 13.125 31.2679C14.5536 31.2679 15.7411 31.6964 16.6875 32.5536C17.6518 33.3929 18.1339 34.4732 18.1339 35.7946C18.1339 37.1161 17.6518 38.2054 16.6875 39.0625C15.7411 39.9018 14.5536 40.3214 13.125 40.3214C11.6964 40.3214 10.5 39.9018 9.53572 39.0625C8.58929 38.2054 8.11607 37.1161 8.11607 35.7946Z" fill="#C4C4C4"/>
</svg>
