<svg width="44" height="44" viewBox="0 0 44 44" fill="none" xmlns="http://www.w3.org/2000/svg">
<path d="M40.5625 35.75H31.5068C31.3642 36.1518 31.1008 36.4997 30.7527 36.7458C30.4046 36.992 29.9888 37.1245 29.5625 37.125C29.5172 37.125 29.4721 37.1205 29.4277 37.1117L22.5527 35.7367C22.4802 35.7222 22.4106 35.696 22.3464 35.6593L17.5339 32.9093C17.4554 32.8646 17.3865 32.8048 17.3311 32.7335C17.2757 32.6621 17.2349 32.5805 17.211 32.4933C17.1872 32.4061 17.1808 32.3151 17.1921 32.2255C17.2035 32.1358 17.2324 32.0493 17.2772 31.9709C17.3221 31.8924 17.3819 31.8235 17.4534 31.7682C17.5249 31.7129 17.6065 31.6723 17.6937 31.6485C17.7809 31.6248 17.8719 31.6185 17.9616 31.63C18.0512 31.6415 18.1377 31.6706 18.2161 31.7155L22.9317 34.4101L29.619 35.7476C29.7909 35.7332 29.9511 35.6548 30.068 35.5279C30.1848 35.4011 30.2498 35.235 30.25 35.0625V33.7086C30.185 33.5387 29.7333 33.1787 29.3047 32.9528L22.4898 30.9085C22.3926 30.8793 22.3031 30.829 22.2276 30.7611C20.3692 29.0892 14.9764 24.75 12.375 24.75H6.875V35.75H8.9375C9.13095 35.75 10.0072 35.9133 16.2105 37.138C19.3118 37.7503 22.8203 38.4429 23.2492 38.5H40.5625C40.7448 38.4998 40.9195 38.4273 41.0484 38.2984C41.1773 38.1695 41.2498 37.9948 41.25 37.8125V36.4375C41.2498 36.2552 41.1773 36.0805 41.0484 35.9516C40.9195 35.8227 40.7448 35.7502 40.5625 35.75Z" fill="#C4C4C4"/>
<path d="M2.75 23.375H5.5V37.125H2.75V23.375Z" fill="#C4C4C4"/>
<path d="M39.1359 22.7165L37.1335 22.4104C37.0219 22.3934 36.9162 22.3491 36.8258 22.2816C36.7353 22.214 36.6629 22.1252 36.6149 22.0229L35.7499 20.1805L34.8852 22.0229C34.8373 22.1252 34.7648 22.214 34.6744 22.2816C34.5839 22.3491 34.4782 22.3934 34.3666 22.4104L32.3643 22.7165L33.8361 24.225C33.9113 24.302 33.9673 24.3956 33.9997 24.4982C34.0321 24.6008 34.0399 24.7096 34.0226 24.8158L33.6825 26.9008L35.4177 25.9417C35.5195 25.8854 35.634 25.8559 35.7503 25.8559C35.8666 25.8559 35.981 25.8854 36.0829 25.9417L37.8181 26.9008L37.4773 24.8158C37.46 24.7096 37.4678 24.6008 37.5002 24.4982C37.5326 24.3956 37.5886 24.302 37.6638 24.225L39.1359 22.7165Z" fill="#C4C4C4"/>
<path d="M28.1359 16.529L26.1335 16.2229C26.0219 16.2059 25.9162 16.1616 25.8258 16.0941C25.7353 16.0265 25.6629 15.9377 25.6149 15.8354L24.7499 13.993L23.8852 15.8355C23.8372 15.9377 23.7648 16.0265 23.6743 16.0941C23.5839 16.1616 23.4782 16.2059 23.3666 16.2229L21.3643 16.529L22.8361 18.0375C22.9113 18.1145 22.9673 18.2081 22.9997 18.3107C23.0321 18.4133 23.0399 18.5221 23.0226 18.6283L22.6825 20.7133L24.4177 19.7542C24.5195 19.6979 24.6339 19.6684 24.7503 19.6684C24.8666 19.6684 24.981 19.6979 25.0829 19.7542L26.8181 20.7133L26.4773 18.6283C26.46 18.5221 26.4678 18.4133 26.5002 18.3107C26.5326 18.2081 26.5886 18.1145 26.6638 18.0375L28.1359 16.529Z" fill="#C4C4C4"/>
<path d="M17.1359 10.3415L15.1335 10.0354C15.0219 10.0184 14.9163 9.97414 14.8258 9.90657C14.7354 9.83901 14.663 9.75021 14.615 9.64803L13.7499 7.80553L12.8851 9.64803C12.8372 9.75021 12.7648 9.83901 12.6743 9.90657C12.5839 9.97414 12.4782 10.0184 12.3666 10.0354L10.3643 10.3415L11.8361 11.85C11.9113 11.927 11.9673 12.0206 11.9997 12.1232C12.0321 12.2258 12.0399 12.3346 12.0226 12.4408L11.6825 14.5258L13.4177 13.5667C13.5195 13.5104 13.6339 13.4809 13.7503 13.4809C13.8666 13.4809 13.981 13.5104 14.0829 13.5667L15.8181 14.5258L15.4773 12.4408C15.46 12.3346 15.4678 12.2258 15.5002 12.1232C15.5326 12.0206 15.5886 11.927 15.6638 11.85L17.1359 10.3415Z" fill="#C4C4C4"/>
</svg>
