<svg width="20" height="18" viewBox="0 0 20 18" fill="none" xmlns="http://www.w3.org/2000/svg">
<path d="M19.5664 9.73881L16.2336 13.0721C15.9561 13.3497 15.5788 13.5062 15.1857 13.5062C14.7926 13.5062 14.4153 13.3502 14.1383 13.0721L10.8049 9.73881C10.2267 9.16053 10.2267 8.22226 10.8049 7.64399C11.3832 7.06523 12.3215 7.06523 12.8998 7.64399L13.8044 8.54868C13.5733 5.76399 11.2385 3.56794 8.39506 3.56794C5.40049 3.56794 2.96296 6.00498 2.96296 9.00004C2.96296 11.9946 5.40049 14.4321 8.39506 14.4321C9.21333 14.4321 9.87654 15.0953 9.87654 15.9136C9.87654 16.7319 9.21333 17.3951 8.39506 17.3951C3.76642 17.3951 0 13.6292 0 9.00004C0 4.37091 3.76642 0.60498 8.39506 0.60498C12.8079 0.60498 16.4277 4.02868 16.7585 8.35708L17.4706 7.64399C18.0494 7.06523 18.9877 7.06523 19.5654 7.64399C20.1442 8.22177 20.1442 9.16004 19.5664 9.73881Z" fill="#606EEA"/>
</svg>
