<svg width="35" height="30" viewBox="0 0 35 30" fill="none" xmlns="http://www.w3.org/2000/svg">
<path d="M20.5078 21.6016H16.1328C15.4804 21.6023 14.8548 21.8618 14.3935 22.3232C13.9321 22.7845 13.6726 23.41 13.6719 24.0625V28.9844C13.6719 29.2019 13.7583 29.4106 13.9121 29.5644C14.066 29.7183 14.2746 29.8047 14.4922 29.8047H22.1484C22.366 29.8047 22.5746 29.7183 22.7285 29.5644C22.8823 29.4106 22.9688 29.2019 22.9688 28.9844V24.0625C22.968 23.41 22.7085 22.7845 22.2472 22.3232C21.7858 21.8618 21.1603 21.6023 20.5078 21.6016Z" fill="#C4C4C4"/>
<path d="M18.3199 21.4649C18.8129 21.4652 19.2989 21.3489 19.7383 21.1254C19.5588 20.9485 19.4461 20.7148 19.4195 20.4642L19.023 18.5972L15.5895 18.6148C15.473 18.6151 15.3571 18.599 15.2451 18.567C15.2246 18.5626 15.2048 18.5577 15.1846 18.5533C15.2442 19.3444 15.6002 20.0838 16.1816 20.6236C16.7629 21.1634 17.5266 21.4639 18.3199 21.4649Z" fill="#C4C4C4"/>
<path d="M32.2656 0.820312H2.73438C2.08192 0.821036 1.45639 1.08055 0.995029 1.5419C0.53367 2.00326 0.274161 2.62879 0.273438 3.28125V20.2344C0.274161 20.8868 0.53367 21.5124 0.995029 21.9737C1.45639 22.4351 2.08192 22.6946 2.73438 22.6953H5.49384L10.2091 25.8388C10.3326 25.9212 10.4762 25.9685 10.6245 25.9756C10.7728 25.9828 10.9202 25.9496 11.0512 25.8795C11.1821 25.8094 11.2915 25.7052 11.3678 25.5778C11.4441 25.4504 11.4844 25.3047 11.4844 25.1562V22.6953H13.1507C13.3543 22.2534 13.6532 21.8621 14.0259 21.5494C14.3986 21.2367 14.836 21.0104 15.3066 20.8868C14.7588 20.2487 14.4296 19.452 14.3672 18.6133L14.3413 18.2601C13.3065 17.7509 12.7133 16.7983 12.7148 15.5809C12.7166 15.255 12.8474 14.9431 13.0786 14.7134C13.3098 14.4838 13.6226 14.355 13.9485 14.3555H18.3203C19.9131 14.3555 21.1533 15.0826 21.8135 16.4029C22.1063 17.0009 22.2671 17.6548 22.2852 18.3203C22.2852 19.4513 21.839 20.3472 21.445 20.9184C21.8922 21.0529 22.3058 21.2808 22.6582 21.5872C23.0107 21.8935 23.2941 22.2712 23.4896 22.6953H32.2656C32.9181 22.6946 33.5436 22.4351 34.005 21.9737C34.4663 21.5124 34.7258 20.8868 34.7266 20.2344V3.28125C34.7258 2.62879 34.4663 2.00326 34.005 1.5419C33.5436 1.08055 32.9181 0.821036 32.2656 0.820312ZM12.7471 11.6699L10.8828 13.2802L11.4458 15.6801C11.4726 15.7934 11.4653 15.9122 11.4248 16.0214C11.3843 16.1307 11.3124 16.2255 11.2181 16.2939C11.1238 16.3624 11.0114 16.4015 10.895 16.4062C10.7786 16.411 10.6634 16.3812 10.5639 16.3206L8.45845 15.0433L6.35298 16.3206C6.25345 16.381 6.13829 16.4106 6.02198 16.4058C5.90566 16.401 5.79335 16.3619 5.69915 16.2935C5.60496 16.2251 5.53306 16.1304 5.4925 16.0213C5.45194 15.9121 5.44451 15.7935 5.47114 15.6801L6.03408 13.2802L4.16992 11.6699C4.08186 11.5938 4.0182 11.4935 3.98694 11.3814C3.95567 11.2693 3.95818 11.1505 3.99415 11.0398C4.03012 10.9291 4.09795 10.8315 4.18914 10.7592C4.28034 10.687 4.39084 10.6432 4.5068 10.6334L6.96022 10.4278L7.91383 8.15534C7.95885 8.04799 8.03458 7.95632 8.13152 7.89186C8.22845 7.8274 8.34227 7.79301 8.45869 7.79301C8.5751 7.79301 8.68892 7.8274 8.78586 7.89186C8.88279 7.95632 8.95852 8.04799 9.00354 8.15534L9.95716 10.4279L12.4106 10.6335C12.5265 10.6433 12.637 10.687 12.7282 10.7593C12.8194 10.8316 12.8873 10.9292 12.9232 11.0399C12.9592 11.1505 12.9617 11.2694 12.9304 11.3814C12.8992 11.4935 12.8355 11.5939 12.7475 11.67L12.7471 11.6699ZM21.7887 8.25193L19.9242 9.86221L20.4872 12.2621C20.5139 12.3754 20.5065 12.4941 20.466 12.6033C20.4254 12.7124 20.3535 12.8072 20.2593 12.8756C20.1651 12.944 20.0528 12.9831 19.9364 12.9879C19.8201 12.9928 19.7049 12.9631 19.6054 12.9027L17.5 11.6253L15.3945 12.9026C15.295 12.963 15.1798 12.9927 15.0635 12.9878C14.9472 12.983 14.8349 12.944 14.7407 12.8755C14.6465 12.8071 14.5746 12.7124 14.5341 12.6033C14.4935 12.4942 14.4861 12.3755 14.5127 12.2622L15.0757 9.86221L13.2112 8.25193C13.1231 8.17587 13.0595 8.07551 13.0282 7.96342C12.9969 7.85134 12.9994 7.73252 13.0354 7.62185C13.0714 7.51118 13.1392 7.41359 13.2304 7.3413C13.3216 7.26901 13.4321 7.22524 13.548 7.21547L16.0015 7.00984L16.9551 4.7373C17.0002 4.62997 17.0759 4.53834 17.1728 4.4739C17.2698 4.40946 17.3836 4.37508 17.5 4.37508C17.6164 4.37508 17.7302 4.40946 17.8271 4.4739C17.924 4.53834 17.9998 4.62997 18.0448 4.7373L18.9984 7.01005L21.4519 7.21567C21.5679 7.22544 21.6784 7.26922 21.7696 7.34152C21.8608 7.41382 21.9286 7.51142 21.9645 7.6221C22.0005 7.73278 22.003 7.85161 21.9717 7.9637C21.9404 8.07579 21.8767 8.17615 21.7887 8.25221V8.25193ZM30.8305 11.6699L28.9659 13.2802L29.5289 15.6801C29.5557 15.7934 29.5483 15.9122 29.5078 16.0213C29.4673 16.1305 29.3954 16.2253 29.3011 16.2937C29.2069 16.3622 29.0945 16.4013 28.9782 16.4061C28.8618 16.4108 28.7466 16.3811 28.6471 16.3207L26.5416 15.0433L24.4362 16.3206C24.3366 16.3809 24.2215 16.4106 24.1052 16.4057C23.9889 16.4009 23.8766 16.3618 23.7824 16.2934C23.6882 16.225 23.6163 16.1303 23.5757 16.0212C23.5352 15.9121 23.5277 15.7935 23.5543 15.6801L24.1172 13.2802L22.2527 11.6699C22.1646 11.5938 22.101 11.4935 22.0697 11.3814C22.0384 11.2693 22.0409 11.1505 22.0769 11.0398C22.1129 10.9291 22.1807 10.8315 22.2719 10.7592C22.3631 10.687 22.4736 10.6432 22.5896 10.6334L25.043 10.4278L25.9971 8.15527C26.0421 8.04795 26.1179 7.95633 26.2148 7.89192C26.3118 7.8275 26.4256 7.79315 26.542 7.79319C26.6584 7.79323 26.7722 7.82764 26.8691 7.89212C26.966 7.9566 27.0417 8.04827 27.0867 8.15562L28.0403 10.428L30.4937 10.6336C30.6097 10.6434 30.7202 10.6872 30.8114 10.7594C30.9026 10.8317 30.9704 10.9293 31.0064 11.04C31.0424 11.1506 31.0449 11.2694 31.0136 11.3815C30.9824 11.4936 30.9187 11.594 30.8307 11.67L30.8305 11.6699Z" fill="#C4C4C4"/>
<path d="M15.5859 17.7945L19.6875 17.7734L20.2344 20.3506C20.2343 20.4086 20.2527 20.4652 20.287 20.5121C20.3212 20.559 20.3695 20.5937 20.4248 20.6114C20.4801 20.629 20.5395 20.6286 20.5946 20.6102C20.6496 20.5917 20.6974 20.5563 20.7309 20.5089C21.0727 20.0293 21.4649 19.2629 21.4649 18.3203C21.4471 17.7821 21.3159 17.2537 21.0797 16.7697C20.7162 16.0426 19.9424 15.1758 18.3203 15.1758H13.9485C13.8399 15.1752 13.7355 15.2175 13.6581 15.2937C13.5806 15.3698 13.5364 15.4735 13.5352 15.582C13.5326 17.5 15.3777 17.7473 15.4561 17.7734C15.4979 17.7874 15.5418 17.7945 15.5859 17.7945Z" fill="#C4C4C4"/>
</svg>
