<svg width="28" height="33" viewBox="0 0 28 33" fill="none" xmlns="http://www.w3.org/2000/svg">
<path d="M18.6668 11.6666C17.3812 11.6666 16.3336 10.619 16.3336 9.33339V0.000488281H2.3342C1.0486 0.000488281 0.000976562 1.04811 0.000976562 2.33371V14.1188C3.9488 14.6905 7.00066 18.062 7.00066 22.1661C7.00066 23.93 6.44068 25.6053 5.40473 26.9982L6.81866 32.6656H25.6665C26.9544 32.6656 27.9997 31.6204 27.9997 30.3324V11.6666H18.6668ZM5.83404 9.33339C5.19007 9.33339 4.66743 8.81075 4.66743 8.16678C4.66743 7.52281 5.19007 7.00016 5.83404 7.00016H12.8337C13.4777 7.00016 14.0003 7.52281 14.0003 8.16678C14.0003 8.81075 13.4777 9.33339 12.8337 9.33339H5.83404ZM22.1666 23.3327H10.5005C9.85653 23.3327 9.33388 22.8101 9.33388 22.1661C9.33388 21.5222 9.85653 20.9995 10.5005 20.9995H22.1666C22.8106 20.9995 23.3332 21.5222 23.3332 22.1661C23.3332 22.8101 22.8106 23.3327 22.1666 23.3327ZM22.1666 16.3331H8.16727C7.5233 16.3331 7.00066 15.8104 7.00066 15.1665C7.00066 14.5225 7.5233 13.9998 8.16727 13.9998H22.1666C22.8106 13.9998 23.3332 14.5225 23.3332 15.1665C23.3332 15.8104 22.8106 16.3331 22.1666 16.3331Z" fill="#C4C4C4"/>
</svg>
