<svg width="35" height="31" viewBox="0 0 35 31" fill="none" xmlns="http://www.w3.org/2000/svg">
<path d="M17.5 12.1252C20.7846 12.1252 23.4473 9.46247 23.4473 6.17789C23.4473 2.8933 20.7846 0.230621 17.5 0.230621C14.2154 0.230621 11.5527 2.8933 11.5527 6.17789C11.5527 9.46247 14.2154 12.1252 17.5 12.1252Z" fill="#C4C4C4"/>
<path d="M29.5312 12.1251C31.6077 12.1251 33.291 10.4418 33.291 8.36532C33.291 6.28886 31.6077 4.60555 29.5312 4.60555C27.4548 4.60555 25.7715 6.28886 25.7715 8.36532C25.7715 10.4418 27.4548 12.1251 29.5312 12.1251Z" fill="#C4C4C4"/>
<path d="M5.46875 12.1251C7.54521 12.1251 9.22852 10.4418 9.22852 8.36532C9.22852 6.28886 7.54521 4.60555 5.46875 4.60555C3.39229 4.60555 1.70898 6.28886 1.70898 8.36532C1.70898 10.4418 3.39229 12.1251 5.46875 12.1251Z" fill="#C4C4C4"/>
<path d="M9.17314 15.5014C7.69316 14.2889 6.35284 14.4494 4.6416 14.4494C2.08223 14.4494 0 16.5193 0 19.0629V26.5285C0 27.6332 0.90166 28.5314 2.01045 28.5314C6.79738 28.5314 6.2207 28.618 6.2207 28.325C6.2207 23.0349 5.59412 19.1554 9.17314 15.5014Z" fill="#C4C4C4"/>
<path d="M19.1277 14.4767C16.1388 14.2273 13.5408 14.4795 11.2999 16.3292C7.54989 19.3329 8.27156 23.3772 8.27156 28.3249C8.27156 29.6339 9.3366 30.7188 10.6655 30.7188C25.0949 30.7188 25.6692 31.1843 26.5249 29.2894C26.8055 28.6486 26.7286 28.8523 26.7286 22.7222C26.7286 17.8532 22.5127 14.4767 19.1277 14.4767Z" fill="#C4C4C4"/>
<path d="M30.3587 14.4493C28.6381 14.4493 27.3051 14.2904 25.8271 15.5013C29.3794 19.1282 28.7796 22.743 28.7796 28.3249C28.7796 28.6198 28.3009 28.5313 32.9181 28.5313C34.0665 28.5313 35.0003 27.601 35.0003 26.4573V19.0629C35.0003 16.5192 32.9181 14.4493 30.3587 14.4493Z" fill="#C4C4C4"/>
</svg>
