<svg width="15" height="40" viewBox="0 0 15 40" fill="none" xmlns="http://www.w3.org/2000/svg">
<path d="M7.50008 10C10.2615 10 12.5002 7.76142 12.5002 5C12.5002 2.23858 10.2615 0 7.50008 0C4.73861 0 2.5 2.23858 2.5 5C2.5 7.76142 4.73861 10 7.50008 10Z" fill="#C4C4C4"/>
<path d="M12.9826 25H13.7501C14.1101 25 14.4501 24.845 14.6876 24.575C14.9251 24.3075 15.0351 23.9475 14.9901 23.5925L13.8676 14.73C13.7176 13.46 12.6476 12.5 11.3751 12.5H3.62494C2.34992 12.5 1.2799 13.46 1.1349 14.7175L0.00988428 23.5925C-0.0351164 23.9475 0.074886 24.3075 0.31239 24.575C0.549893 24.845 0.889899 25 1.2499 25H2.01492L0.0648859 30.855C-0.062616 31.235 0.00238454 31.655 0.234888 31.98C0.469892 32.3075 0.847398 32.5 1.2499 32.5H2.68993L3.59244 37.91C3.79494 39.12 4.83246 40 6.05998 40H8.94002C10.1675 40 11.2051 39.12 11.4051 37.91L12.3101 32.5H13.7501C14.1526 32.5 14.5301 32.3075 14.7626 31.98C15.0001 31.655 15.0626 31.235 14.9351 30.855L12.9826 25Z" fill="#C4C4C4"/>
</svg>
