<svg width="28" height="28" viewBox="0 0 28 28" fill="none" xmlns="http://www.w3.org/2000/svg">
<path d="M25.4723 19.1868L23.335 15.9808V11.6673C23.335 9.19196 22.3516 6.81799 20.6013 5.06765C18.851 3.31732 16.477 2.33398 14.0016 2.33398C11.5263 2.33398 9.15231 3.31732 7.40197 5.06765C5.65163 6.81799 4.6683 9.19196 4.6683 11.6673V15.9808L2.53097 19.1868C2.41421 19.3626 2.34727 19.5667 2.33725 19.7775C2.32724 19.9883 2.37453 20.1979 2.47409 20.3839C2.57366 20.57 2.72178 20.7256 2.90271 20.8342C3.08364 20.9427 3.29062 21.0003 3.50164 21.0007H24.5016C24.7127 21.0003 24.9196 20.9427 25.1006 20.8342C25.2815 20.7256 25.4296 20.57 25.5292 20.3839C25.6287 20.1979 25.676 19.9883 25.666 19.7775C25.656 19.5667 25.5891 19.3626 25.4723 19.1868Z" fill="#A5A5A5"/>
<path d="M13.9994 25.666C15.0338 25.6669 16.0391 25.3234 16.8566 24.6897C17.6741 24.0559 18.2574 23.168 18.5144 22.166H9.48438C9.74135 23.168 10.3246 24.0559 11.1421 24.6897C11.9597 25.3234 12.965 25.6669 13.9994 25.666Z" fill="#A5A5A5"/>
</svg>
