<svg width="29" height="29" viewBox="0 0 29 29" fill="none" xmlns="http://www.w3.org/2000/svg">
<path d="M21.0703 7.92969C21.0703 4.301 18.1287 1.35938 14.5 1.35938C10.8713 1.35938 7.92969 4.301 7.92969 7.92969V12.31C7.92969 15.9387 10.8713 18.8804 14.5 18.8804C18.1287 18.8804 21.0703 15.9387 21.0703 12.31V7.92969Z" fill="#606EEA"/>
<path d="M20.9262 19.0013C20.4261 19.4804 19.8743 19.9023 19.2809 20.2592C20.6532 20.7562 21.8603 21.6249 22.7673 22.7684C23.6743 23.9119 24.2455 25.285 24.4171 26.7344H4.58291C4.80754 24.822 5.72588 23.0585 7.16391 21.7779C8.60194 20.4974 10.4597 19.7889 12.3853 19.7866H14.5C16.4822 19.7843 18.3826 18.9959 19.7842 17.5943C21.1858 16.1926 21.9743 14.2923 21.9766 12.31V7.92969C21.9766 5.94678 21.1889 4.04509 19.7867 2.64296C18.3846 1.24083 16.4829 0.453125 14.5 0.453125C12.5171 0.453125 10.6154 1.24083 9.21327 2.64296C7.81114 4.04509 7.02344 5.94678 7.02344 7.92969V12.31C7.02414 13.941 7.56137 15.5264 8.55228 16.8218C9.18564 16.5969 9.83766 16.4284 10.5007 16.3184C9.97256 15.7931 9.55355 15.1685 9.26784 14.4806C8.98212 13.7926 8.83533 13.055 8.83594 12.31V7.92969C8.83594 6.42748 9.43269 4.98681 10.4949 3.92459C11.5571 2.86237 12.9978 2.26562 14.5 2.26562C16.0022 2.26562 17.4429 2.86237 18.5051 3.92459C19.5673 4.98681 20.1641 6.42748 20.1641 7.92969V12.31C20.1624 13.8117 19.5651 15.2514 18.5032 16.3133C17.4414 17.3751 16.0017 17.9724 14.5 17.9741H12.3853C9.82427 17.9829 7.37068 19.0042 5.55977 20.8151C3.74886 22.626 2.72759 25.0796 2.71875 27.6406V28.5469H26.2812V27.6406C26.2786 25.8454 25.7762 24.0865 24.8304 22.5606C23.8846 21.0348 22.5328 19.8024 20.9262 19.0013Z" fill="#223367"/>
</svg>
