<svg width="29" height="29" viewBox="0 0 29 29" fill="none" xmlns="http://www.w3.org/2000/svg">
<path d="M8.83594 21.9766C12.9651 21.9766 16.3125 18.6292 16.3125 14.5C16.3125 10.3708 12.9651 7.02344 8.83594 7.02344C4.70675 7.02344 1.35938 10.3708 1.35938 14.5C1.35938 18.6292 4.70675 21.9766 8.83594 21.9766Z" fill="#606EEA"/>
<path d="M9.74135 19.1927V18.1772C10.3102 18.0728 10.8192 17.7589 11.1678 17.2975C11.5165 16.8361 11.6795 16.2607 11.6246 15.685C11.5698 15.1093 11.301 14.5751 10.8715 14.1879C10.442 13.8006 9.88283 13.5885 9.30454 13.5934H8.36566C8.23263 13.5934 8.10504 13.5406 8.01097 13.4465C7.9169 13.3524 7.86405 13.2248 7.86405 13.0918C7.86405 12.9588 7.9169 12.8312 8.01097 12.7371C8.10504 12.643 8.23263 12.5902 8.36566 12.5902H10.7124V10.7777H9.74135V9.80664H7.92885V10.8221C7.36003 10.9265 6.85104 11.2404 6.50238 11.7018C6.15371 12.1632 5.99072 12.7386 6.04558 13.3143C6.10045 13.89 6.36917 14.4242 6.79871 14.8114C7.22824 15.1987 7.78736 15.4108 8.36566 15.4059H9.30454C9.43757 15.4059 9.56516 15.4588 9.65923 15.5528C9.7533 15.6469 9.80614 15.7745 9.80614 15.9075C9.80614 16.0405 9.7533 16.1681 9.65923 16.2622C9.56516 16.3563 9.43757 16.4091 9.30454 16.4091H6.95735V18.2216H7.92885V19.1927H9.74135Z" fill="#223367"/>
<path d="M20.0996 9.96875H28.5472V11.7812H20.0996V9.96875Z" fill="#223367"/>
<path d="M20.0996 17.2188H28.5472V19.0312H20.0996V17.2188Z" fill="#223367"/>
<path d="M20.0996 13.5938H28.5472V15.4062H20.0996V13.5938Z" fill="#223367"/>
<path d="M15.3361 13.5938H17.1677C16.9358 11.4616 15.8956 9.49946 14.261 8.11099C12.6264 6.72253 10.5218 6.01339 8.38019 6.12949C6.23864 6.24559 4.22303 7.1781 2.74812 8.73514C1.2732 10.2922 0.451172 12.3553 0.451172 14.5C0.451172 16.6447 1.2732 18.7078 2.74812 20.2649C4.22303 21.8219 6.23864 22.7544 8.38019 22.8705C10.5218 22.9866 12.6264 22.2775 14.261 20.889C15.8956 19.5006 16.9358 17.5384 17.1677 15.4063H15.3361C15.1066 17.0543 14.2604 18.5539 12.9683 19.6022C11.6761 20.6506 10.0344 21.1696 8.37441 21.0546C6.71446 20.9396 5.15998 20.199 4.02481 18.9825C2.88963 17.7659 2.25831 16.1639 2.25831 14.5C2.25831 12.8361 2.88963 11.2341 4.02481 10.0176C5.15998 8.801 6.71446 8.06045 8.37441 7.94542C10.0344 7.83039 11.6761 8.34945 12.9683 9.39781C14.2604 10.4462 15.1066 11.9457 15.3361 13.5938Z" fill="#223367"/>
</svg>
