<svg width="28" height="28" viewBox="0 0 28 28" fill="none" xmlns="http://www.w3.org/2000/svg">
<g clip-path="url(#clip0)">
<path d="M18.3416 14.1074C17.9486 14.1074 17.6289 14.4272 17.6289 14.8202V17.2025C17.6289 17.5956 17.9487 17.9153 18.3416 17.9153H28.0013V14.1075H18.3416V14.1074ZM19.5437 17.1101C18.9368 17.1101 18.4448 16.6182 18.4448 16.0113C18.4448 15.4044 18.9368 14.9124 19.5437 14.9124C20.1506 14.9124 20.6426 15.4043 20.6426 16.0113C20.6425 16.6182 20.1505 17.1101 19.5437 17.1101Z" fill="#C4C4C4"/>
<path d="M18.3404 12.4433H28V8.36445C28 7.0542 26.934 5.98828 25.6238 5.98828H25.2911H7.31188H2.37617C1.06597 5.98828 0 7.0542 0 8.36445V25.3201C0 26.6304 1.06597 27.6964 2.37617 27.6964H25.6238C26.934 27.6964 27.9999 26.6304 27.9999 25.3201V19.578H18.3404C17.0301 19.578 15.9642 18.512 15.9642 17.2018V14.8195C15.9642 13.5092 17.0302 12.4433 18.3404 12.4433Z" fill="#C4C4C4"/>
<path d="M23.2657 0.302734L11.9805 4.32391H24.6985L23.2657 0.302734Z" fill="#C4C4C4"/>
</g>
<defs>
<clipPath id="clip0">
<rect width="28" height="28" fill="white"/>
</clipPath>
</defs>
</svg>
