<svg width="24" height="24" viewBox="0 0 24 24" fill="none" xmlns="http://www.w3.org/2000/svg">
<path d="M23.9262 9.07472C23.9262 9.12198 23.9385 9.15743 23.9631 9.18106C23.9877 9.20469 23.9877 9.24014 23.9631 9.2874V9.99632C23.9631 10.2326 23.8769 10.4335 23.7046 10.5989C23.5323 10.7643 23.3231 10.847 23.0769 10.847H21.3785V22.3316C21.3785 22.5679 21.3046 22.7569 21.1569 22.8987C21.0092 23.0405 20.8 23.1232 20.5292 23.1468H3.43385C3.18769 23.1468 2.97846 23.0641 2.80615 22.8987C2.63385 22.7333 2.54769 22.5443 2.54769 22.3316V10.847H0.849231C0.603077 10.847 0.406154 10.7643 0.258462 10.5989C0.110769 10.4335 0.0246154 10.2326 0 9.99632V9.2874C0 9.19287 0.0123077 9.12198 0.0369231 9.07472L2.21538 1.3829C2.33846 1.00481 2.54769 0.709427 2.84308 0.49675C3.13846 0.284073 3.48308 0.177734 3.87692 0.177734H20.0862C20.48 0.177734 20.8246 0.284073 21.12 0.49675C21.4154 0.709427 21.6123 1.00481 21.7108 1.3829L23.9262 9.07472ZM18.8308 10.847H5.13231V15.3487C5.13231 15.4668 5.18154 15.5614 5.28 15.6323C5.37846 15.7032 5.47692 15.7504 5.57538 15.774H18.3877C18.5108 15.774 18.6215 15.7268 18.72 15.6323C18.8185 15.5377 18.8554 15.4432 18.8308 15.3487V10.847Z" fill="#606EEA"/>
</svg>
