<svg width="29" height="29" viewBox="0 0 29 29" fill="none" xmlns="http://www.w3.org/2000/svg">
<path d="M14.5 6.79688C16.0015 6.79688 17.2188 5.57965 17.2188 4.07812C17.2188 2.5766 16.0015 1.35938 14.5 1.35938C12.9985 1.35938 11.7812 2.5766 11.7812 4.07812C11.7812 5.57965 12.9985 6.79688 14.5 6.79688Z" fill="#606EEA"/>
<path d="M17.2188 24.0156V10.4219H8.83594V15.8594H11.7812V24.0156H8.83594V27.6406H20.1641V24.0156H17.2188Z" fill="#606EEA"/>
<path d="M18.125 23.1094V9.51562H7.92969V16.7656H10.875V23.1094H7.92969V24.9219H12.6875V14.9531H9.74219V11.3281H16.3125V24.9219H19.2578V26.7344H7.92969V28.5469H21.0703V23.1094H18.125Z" fill="#223367"/>
<path d="M16.0607 4.98438C15.8612 5.32992 15.5533 5.59998 15.1847 5.75267C14.816 5.90535 14.4073 5.93214 14.0219 5.82887C13.6365 5.72561 13.296 5.49806 13.0531 5.18151C12.8102 4.86497 12.6786 4.47713 12.6786 4.07813C12.6786 3.67914 12.8102 3.2913 13.0531 2.97475C13.296 2.65821 13.6365 2.43066 14.0219 2.32739C14.4073 2.22413 14.816 2.25091 15.1847 2.4036C15.5533 2.55629 15.8612 2.82635 16.0607 3.17188H18.006C17.7854 2.3176 17.2609 1.57309 16.5306 1.0779C15.8004 0.582715 14.9146 0.370852 14.0393 0.482026C13.1641 0.5932 12.3594 1.01978 11.7761 1.6818C11.1929 2.34382 10.8711 3.19583 10.8711 4.07813C10.8711 4.96043 11.1929 5.81245 11.7761 6.47447C12.3594 7.13649 13.1641 7.56307 14.0393 7.67424C14.9146 7.78541 15.8004 7.57355 16.5306 7.07837C17.2609 6.58318 17.7854 5.83867 18.006 4.98438H16.0607Z" fill="#223367"/>
</svg>
