<svg width="24" height="24" viewBox="0 0 24 24" fill="none" xmlns="http://www.w3.org/2000/svg">
<g clip-path="url(#clip0)">
<path d="M14.9998 13.0018C14.4469 13.0018 13.9999 13.4498 13.9999 14.0017V18.0018C13.9999 18.5527 13.5519 19.0017 12.9998 19.0017H9.99983V4.00186C9.99983 3.14786 9.45583 2.38487 8.63791 2.10087L8.34183 2.00181H12.9998C13.5519 2.00181 13.9999 2.45078 13.9999 3.00193V6.0019C13.9999 6.55377 14.4469 7.00183 14.9998 7.00183C15.5528 7.00183 15.9998 6.55377 15.9998 6.0019V3.00193C15.9998 1.34795 14.6538 0.00195312 12.9998 0.00195312H2.24998C2.21189 0.00195312 2.18003 0.0189818 2.14304 0.0239256C2.09489 0.0198973 2.04893 0.00195312 2.00004 0.00195312C0.897024 0.00195312 0 0.898795 0 2.00181V20.0016C0 20.8556 0.544001 21.6186 1.36192 21.9026L7.37999 23.9087C7.58397 23.9717 7.78684 24.0017 7.99998 24.0017C9.10299 24.0017 9.99983 23.1047 9.99983 22.0017V21.0018H12.9998C14.6538 21.0018 15.9998 19.6558 15.9998 18.0018V14.0017C15.9998 13.4498 15.5528 13.0018 14.9998 13.0018Z" fill="#223367"/>
<path d="M23.707 9.29317L19.7069 5.29327C19.4211 5.00726 18.991 4.9212 18.6171 5.07611C18.2441 5.2312 18 5.59612 18 6.00023V9.0002H14.0001C13.4481 9.0002 13 9.44807 13 10.0001C13 10.5522 13.4481 11.0001 14.0001 11.0001H18V14C18 14.4041 18.2441 14.7691 18.6171 14.9241C18.991 15.0791 19.4211 14.993 19.7069 14.7072L23.707 10.7071C24.0979 10.3162 24.0979 9.68409 23.707 9.29317Z" fill="#223367"/>
</g>
<defs>
<clipPath id="clip0">
<rect width="24" height="24" fill="white"/>
</clipPath>
</defs>
</svg>
