<svg width="34" height="34" viewBox="0 0 34 34" fill="none" xmlns="http://www.w3.org/2000/svg">
<path d="M5.76858 27.3863L5.77926 27.3887C5.78163 27.3892 5.7844 27.3899 5.7875 27.3906C5.79287 27.3918 5.79923 27.3932 5.80612 27.3946C5.85155 27.4042 5.92264 27.4167 6.01042 27.4167H28.3229C28.4552 27.4167 28.5712 27.3883 28.6668 27.3453C28.7137 27.3241 28.7567 27.299 28.7948 27.2711C28.8226 27.2507 28.8786 27.2069 28.9266 27.1382L29.0171 27.0089L29.017 26.8511L29 7.09424L28.3234 7.04407L28.3229 7.04404L28.0055 7.0205C28.0204 6.92133 28.0736 6.791 28.2021 6.69773C28.2437 6.66751 28.2852 6.64725 28.3229 6.63363C28.3248 6.63294 28.3267 6.63227 28.3286 6.63161C28.3883 6.61092 28.438 6.60676 28.463 6.60559C28.5074 6.60351 28.5405 6.60862 28.5472 6.60965L28.5476 6.60971C28.5522 6.61043 28.5558 6.61109 28.557 6.61132C28.558 6.6115 28.5572 6.61137 28.5538 6.61067C28.552 6.61029 28.5498 6.60982 28.5473 6.60929C28.5159 6.60257 28.4323 6.58468 28.3292 6.58337V6.58333H28.3229H6.01042C5.87808 6.58333 5.76214 6.61167 5.66655 6.65474C5.61959 6.67589 5.57667 6.701 5.53856 6.72889C5.51072 6.74927 5.45477 6.79312 5.40672 6.86177L5.3162 6.99108L5.31633 7.14893L5.33333 26.9058L5.85033 26.9483L6.01042 26.9615L6.32653 26.9875C6.3092 27.0915 6.24821 27.2301 6.10368 27.3205C6.07156 27.3405 6.03994 27.3551 6.01042 27.3657C5.93328 27.3935 5.87043 27.394 5.85033 27.394C5.81723 27.394 5.79252 27.3904 5.78375 27.389C5.77561 27.3877 5.76985 27.3865 5.76858 27.3863ZM5.76858 27.3863L5.76848 27.3862L5.76858 27.3863ZM6.01042 4.75H28.3229C29.7361 4.75 30.8333 5.82501 30.8333 7.08333V26.9167C30.8333 28.175 29.7361 29.25 28.3229 29.25H6.01042C4.59725 29.25 3.5 28.175 3.5 26.9167V7.08333C3.5 5.82501 4.59725 4.75 6.01042 4.75Z" fill="#223367" stroke="#223367"/>
<rect x="5" y="6" width="24.3" height="22" rx="1" fill="white"/>
<path d="M8.5 9.91602H17V18.416H8.5V9.91602ZM18.4167 21.2493H8.5V24.0827H25.5V21.2493H19.8333H18.4167ZM19.8333 15.5827H25.5V18.416H19.8333V15.5827ZM19.8333 9.91602H25.5V12.7493H19.8333V9.91602Z" fill="#606EEA"/>
<path d="M18.4167 21.2493H8.5V24.0827H25.5V21.2493H19.8333H18.4167ZM19.8333 9.91602H25.5V12.7493H19.8333V9.91602Z" fill="#223367"/>
</svg>
