<svg width="35" height="33" viewBox="0 0 35 33" fill="none" xmlns="http://www.w3.org/2000/svg">
<path d="M22.0566 31.4531H12.9419V18.0613H22.0566V31.4531Z" fill="#606EEA"/>
<path d="M17.5001 0.972656L19.7084 5.1915L24.6467 5.868L21.0734 9.15201L21.9167 13.7895L17.5001 11.5997L13.0835 13.7895L13.9268 9.15201L10.3535 5.868L15.2918 5.1915L17.5001 0.972656Z" fill="#606EEA"/>
<path d="M12.0048 13.6125L13.5908 14.7L17.4998 12.7643L21.4078 14.7015L22.9938 13.614L22.2473 9.51122L25.4093 6.60619L24.8034 4.84688L20.4344 4.24875L18.4809 0.515625H16.5193L14.5653 4.24823L10.1963 4.84688L9.58984 6.6067L12.7513 9.51174L12.0048 13.6125ZM12.7038 6.58711L15.4491 6.21173L16.2694 5.64455L17.4998 3.3L18.727 5.64506L19.5512 6.21225L22.2965 6.58763L20.3097 8.41294L19.9947 9.32611L20.4639 11.9042L18.009 10.6874H16.9907L14.5358 11.9042L15.0045 9.32611L14.69 8.41294L12.7038 6.58711Z" fill="#223367"/>
<path d="M25.3384 23.4375V25.5H30.0781V30.4211H23.1509V17.0293H11.8491V30.4211H4.92188V23.3637H9.66164V21.3012H2.73438V32.4836H14.0366V19.0918H20.9634V30.4211H16.2241V32.4836H32.2656V23.4375H25.3384Z" fill="#223367"/>
</svg>
