<svg width="23" height="22" viewBox="0 0 23 22" fill="none" xmlns="http://www.w3.org/2000/svg">
<path d="M12.603 18.9544C7.36891 18.9544 3.12579 14.7113 3.12579 9.47717C3.12579 4.24302 7.36886 0 12.603 0C17.8372 0 22.0802 4.24307 22.0802 9.47722C22.0802 14.7114 17.8371 18.9544 12.603 18.9544ZM12.603 2.70779C8.86434 2.70779 5.83358 5.73855 5.83358 9.47722C5.83358 13.2159 8.86434 16.2466 12.603 16.2466C16.3417 16.2466 19.3724 13.2159 19.3724 9.47722C19.3724 5.73855 16.3416 2.70779 12.603 2.70779Z" fill="#606EEA"/>
<path d="M1.7719 21.6622C1.41202 21.6643 1.06613 21.523 0.810642 21.2695C0.279733 20.743 0.276233 19.8858 0.802802 19.3549C0.805416 19.3523 0.808029 19.3497 0.810642 19.347L5.90125 14.2564C6.45082 13.7255 7.32673 13.7407 7.85764 14.2903C8.38855 14.8399 8.37338 15.7158 7.82381 16.2467L2.73315 21.2695C2.47766 21.523 2.13178 21.6643 1.7719 21.6622Z" fill="#606EEA"/>
</svg>
