<svg width="29" height="29" viewBox="0 0 29 29" fill="none" xmlns="http://www.w3.org/2000/svg">
<path d="M23.8385 18.3516C23.5976 17.095 23.1043 15.9003 22.3885 14.8398L25.0746 12.1537L22.5112 9.59039L19.8242 12.2765C18.7638 11.5606 17.5691 11.0674 16.3125 10.8265V7.02344H12.6875V10.8256C11.4309 11.0665 10.2362 11.5597 9.17578 12.2756L6.48966 9.58948L3.92633 12.1537L6.61245 14.8398C5.89658 15.9003 5.40329 17.095 5.16245 18.3516H1.35938V21.9766H10.851C10.5407 21.3548 10.3945 20.6641 10.4261 19.9699C10.4577 19.2758 10.6662 18.6012 11.0318 18.0103C11.3973 17.4193 11.9078 16.9316 12.5148 16.5933C13.1218 16.2551 13.8051 16.0775 14.5 16.0775C15.1949 16.0775 15.8782 16.2551 16.4852 16.5933C17.0922 16.9316 17.6027 17.4193 17.9682 18.0103C18.3338 18.6012 18.5423 19.2758 18.5739 19.9699C18.6055 20.6641 18.4593 21.3548 18.149 21.9766H27.6406V18.3516H23.8385Z" fill="#606EEA"/>
<path d="M24.5594 17.4453C24.3281 16.5796 23.9845 15.7479 23.5376 14.9713L26.3551 12.1537L22.5103 8.30895L19.6928 11.1265C18.9162 10.6794 18.0845 10.3359 17.2188 10.1047V6.11719H11.7812V10.1047C10.9155 10.3359 10.0838 10.6794 9.30719 11.1265L6.48966 8.30895L2.64489 12.1537L5.46242 14.9713C5.01546 15.7479 4.67195 16.5796 4.44063 17.4453H0.453125V19.2578H5.90966L6.05148 18.5233C6.33666 17.1441 6.92805 15.8466 7.78197 14.7266L5.20822 12.1524L6.48966 10.8709L9.0625 13.4465L9.68237 13.0273C10.8614 12.257 12.1978 11.7603 13.5938 11.5737V7.92969H15.4062V11.5737L16.1408 11.7155C17.5201 12.0006 18.8177 12.5921 19.9375 13.4465L22.5117 10.8723L23.7931 12.1537L21.218 14.7266L21.6367 15.3464C22.4067 16.5256 22.9034 17.862 23.0903 19.2578H26.7344V21.0703H19.401C19.5342 20.3511 19.5075 19.6113 19.3228 18.9036C19.138 18.1958 18.7998 17.5374 18.332 16.9751C17.8643 16.4127 17.2785 15.9602 16.6162 15.6496C15.954 15.3391 15.2315 15.1781 14.5 15.1781C13.7685 15.1781 13.046 15.3391 12.3838 15.6496C11.7215 15.9602 11.1357 16.4127 10.668 16.9751C10.2002 17.5374 9.86196 18.1958 9.67722 18.9036C9.49247 19.6113 9.46577 20.3511 9.599 21.0703H0.453125V22.8828H28.5469V17.4453H24.5594ZM17.5323 21.0703H11.4677C11.3766 20.7768 11.3296 20.4714 11.3281 20.1641C11.3281 19.3228 11.6623 18.516 12.2571 17.9212C12.852 17.3264 13.6588 16.9922 14.5 16.9922C15.3412 16.9922 16.148 17.3264 16.7429 17.9212C17.3377 18.516 17.6719 19.3228 17.6719 20.1641C17.6704 20.4714 17.6234 20.7768 17.5323 21.0703Z" fill="#223367"/>
</svg>
