<svg width="29" height="29" viewBox="0 0 29 29" fill="none" xmlns="http://www.w3.org/2000/svg">
<path d="M26.1114 13.2588L26.1018 4.83333C26.1018 4.42733 25.8466 4.06387 25.4657 3.92467L14.8324 0.058C14.6197 -0.0193333 14.3857 -0.0193333 14.1712 0.058L3.53782 3.92467C3.15502 4.06387 2.90175 4.42733 2.90175 4.83333L2.89208 13.2588C2.82828 20.1589 2.77995 25.143 14.1963 28.9497C14.2949 28.9826 14.3993 29 14.5017 29C14.6042 29 14.7086 28.9826 14.8072 28.9517C26.2216 25.1449 26.1772 20.1608 26.1114 13.2588ZM15.4684 19.2135V20.3C15.4684 20.8336 15.0353 21.2667 14.5017 21.2667C13.9682 21.2667 13.5351 20.8336 13.5351 20.3V19.2115C12.9299 19.0743 12.3654 18.8191 11.8995 18.4401C11.4838 18.1018 11.422 17.4928 11.7603 17.0791C12.0986 16.6615 12.7057 16.6035 13.1194 16.9399C13.4848 17.2376 13.9759 17.4 14.5017 17.4C15.5496 17.4 16.4351 16.7369 16.4351 15.95C16.4351 15.1631 15.5496 14.5 14.5017 14.5C12.3693 14.5 10.6351 12.9823 10.6351 11.1167C10.6351 9.54487 11.8724 8.23213 13.5351 7.8532V6.76667C13.5351 6.23307 13.9682 5.8 14.5017 5.8C15.0353 5.8 15.4684 6.23307 15.4684 6.76667V7.85513C16.0736 7.9924 16.6381 8.2476 17.104 8.62653C17.5197 8.96293 17.5815 9.57193 17.2432 9.98567C16.9049 10.4013 16.2959 10.4613 15.8841 10.1249C15.5187 9.82907 15.0276 9.66667 14.5017 9.66667C13.4539 9.66667 12.5684 10.3298 12.5684 11.1167C12.5684 11.9035 13.4539 12.5667 14.5017 12.5667C16.6342 12.5667 18.3684 14.0843 18.3684 15.95C18.3684 17.5218 17.1311 18.8345 15.4684 19.2135Z" fill="#C4C4C4"/>
</svg>
