<svg width="33" height="30" viewBox="0 0 33 30" fill="none" xmlns="http://www.w3.org/2000/svg">
<path fill-rule="evenodd" clip-rule="evenodd" d="M11.6382 2.57125C13.5432 -0.857083 18.4732 -0.857083 20.3798 2.57125L31.3798 22.3746C33.2315 25.7079 30.8215 29.8029 27.0098 29.8029H5.0065C1.19483 29.8029 -1.21517 25.7079 0.636499 22.3746L11.6365 2.57125H11.6382ZM16.0082 8.13625C16.4502 8.13625 16.8741 8.31185 17.1867 8.62441C17.4992 8.93697 17.6748 9.36089 17.6748 9.80292V16.4696C17.6748 16.9116 17.4992 17.3355 17.1867 17.6481C16.8741 17.9607 16.4502 18.1363 16.0082 18.1363C15.5661 18.1363 15.1422 17.9607 14.8297 17.6481C14.5171 17.3355 14.3415 16.9116 14.3415 16.4696V9.80292C14.3415 9.36089 14.5171 8.93697 14.8297 8.62441C15.1422 8.31185 15.5661 8.13625 16.0082 8.13625ZM17.6748 23.1363C17.6748 23.5783 17.4992 24.0022 17.1867 24.3148C16.8741 24.6273 16.4502 24.8029 16.0082 24.8029C15.5661 24.8029 15.1422 24.6273 14.8297 24.3148C14.5171 24.0022 14.3415 23.5783 14.3415 23.1363C14.3415 22.6942 14.5171 22.2703 14.8297 21.9577C15.1422 21.6452 15.5661 21.4696 16.0082 21.4696C16.4502 21.4696 16.8741 21.6452 17.1867 21.9577C17.4992 22.2703 17.6748 22.6942 17.6748 23.1363Z" fill="#606EEA"/>
</svg>
