<svg width="37" height="29" viewBox="0 0 37 29" fill="none" xmlns="http://www.w3.org/2000/svg">
<path d="M35.0435 18.6594C34.8831 18.4769 34.7947 18.2423 34.7947 17.9994C34.7947 17.7565 34.8831 17.5219 35.0435 17.3394L36.3235 15.8994C36.4645 15.7421 36.5521 15.5441 36.5736 15.3339C36.5952 15.1237 36.5496 14.9121 36.4435 14.7294L34.4435 11.2694C34.3384 11.0869 34.1783 10.9423 33.9862 10.8561C33.7941 10.7699 33.5796 10.7466 33.3735 10.7894L31.4935 11.1694C31.2542 11.2188 31.0052 11.179 30.7933 11.0574C30.5815 10.9358 30.4214 10.7409 30.3435 10.5094L29.7335 8.67941C29.6664 8.48079 29.5386 8.30827 29.3681 8.18625C29.1976 8.06423 28.9931 7.99887 28.7835 7.99941H24.7835C24.5654 7.98802 24.3496 8.04833 24.169 8.17112C23.9884 8.29391 23.853 8.47243 23.7835 8.67941L23.2235 10.5094C23.1455 10.7409 22.9854 10.9358 22.7736 11.0574C22.5617 11.179 22.3127 11.2188 22.0735 11.1694L20.1435 10.7894C19.948 10.7618 19.7488 10.7926 19.5708 10.878C19.3928 10.9635 19.2442 11.0996 19.1435 11.2694L17.1435 14.7294C17.0346 14.9101 16.9857 15.1205 17.0036 15.3306C17.0216 15.5408 17.1055 15.7398 17.2435 15.8994L18.5135 17.3394C18.6738 17.5219 18.7622 17.7565 18.7622 17.9994C18.7622 18.2423 18.6738 18.4769 18.5135 18.6594L17.2435 20.0994C17.1055 20.259 17.0216 20.458 17.0036 20.6682C16.9857 20.8783 17.0346 21.0888 17.1435 21.2694L19.1435 24.7294C19.2485 24.9119 19.4086 25.0565 19.6007 25.1427C19.7928 25.2289 20.0073 25.2522 20.2135 25.2094L22.0935 24.8294C22.3327 24.78 22.5817 24.8198 22.7936 24.9414C23.0054 25.063 23.1655 25.2579 23.2435 25.4894L23.8535 27.3194C23.923 27.5264 24.0584 27.7049 24.239 27.8277C24.4196 27.9505 24.6354 28.0108 24.8535 27.9994H28.8535C29.0631 27.9999 29.2676 27.9346 29.4381 27.8126C29.6086 27.6905 29.7364 27.518 29.8035 27.3194L30.4135 25.4894C30.4915 25.2579 30.6515 25.063 30.8633 24.9414C31.0752 24.8198 31.3242 24.78 31.5635 24.8294L33.4435 25.2094C33.6496 25.2522 33.8641 25.2289 34.0562 25.1427C34.2483 25.0565 34.4084 24.9119 34.5135 24.7294L36.5135 21.2694C36.6196 21.0867 36.6652 20.8751 36.6436 20.6649C36.6221 20.4547 36.5345 20.2567 36.3935 20.0994L35.0435 18.6594ZM33.5535 19.9994L34.3535 20.8994L33.0735 23.1194L31.8935 22.8794C31.1732 22.7322 30.424 22.8545 29.788 23.2232C29.1521 23.5919 28.6736 24.1812 28.4435 24.8794L28.0635 25.9994H25.5035L25.1435 24.8594C24.9133 24.1612 24.4348 23.5719 23.7989 23.2032C23.1629 22.8345 22.4137 22.7122 21.6935 22.8594L20.5135 23.0994L19.2135 20.8894L20.0135 19.9894C20.5054 19.4394 20.7774 18.7273 20.7774 17.9894C20.7774 17.2515 20.5054 16.5394 20.0135 15.9894L19.2135 15.0894L20.4935 12.8894L21.6735 13.1294C22.3937 13.2766 23.1429 13.1543 23.7789 12.7856C24.4148 12.4169 24.8933 11.8276 25.1235 11.1294L25.5035 9.99941H28.0635L28.4435 11.1394C28.6736 11.8376 29.1521 12.4269 29.788 12.7956C30.424 13.1643 31.1732 13.2866 31.8935 13.1394L33.0735 12.8994L34.3535 15.1194L33.5535 16.0194C33.067 16.5682 32.7984 17.2761 32.7984 18.0094C32.7984 18.7427 33.067 19.4506 33.5535 19.9994ZM26.7835 13.9994C25.9923 13.9994 25.219 14.234 24.5612 14.6735C23.9034 15.1131 23.3907 15.7378 23.0879 16.4687C22.7852 17.1996 22.706 18.0038 22.8603 18.7798C23.0147 19.5557 23.3956 20.2684 23.955 20.8278C24.5144 21.3872 25.2272 21.7682 26.0031 21.9225C26.779 22.0769 27.5833 21.9977 28.3142 21.6949C29.0451 21.3922 29.6698 20.8795 30.1093 20.2217C30.5489 19.5639 30.7835 18.7905 30.7835 17.9994C30.7835 16.9385 30.362 15.9211 29.6119 15.171C28.8617 14.4208 27.8443 13.9994 26.7835 13.9994ZM26.7835 19.9994C26.3879 19.9994 26.0012 19.8821 25.6723 19.6623C25.3434 19.4426 25.0871 19.1302 24.9357 18.7648C24.7843 18.3993 24.7447 17.9972 24.8219 17.6092C24.8991 17.2213 25.0895 16.8649 25.3692 16.5852C25.6489 16.3055 26.0053 16.115 26.3933 16.0378C26.7812 15.9607 27.1834 16.0003 27.5488 16.1516C27.9143 16.303 28.2266 16.5594 28.4464 16.8883C28.6662 17.2172 28.7835 17.6038 28.7835 17.9994C28.7835 18.5298 28.5727 19.0385 28.1977 19.4136C27.8226 19.7887 27.3139 19.9994 26.7835 19.9994Z" fill="#223367"/>
<path d="M15 14.5L20 10L22.5 17.5L25 27H17L15 14.5Z" fill="white"/>
<path d="M23 22.375C23 20.511 18.9706 19 14 19C9.02944 19 5 20.511 5 22.375L4 26.5C4 28.3639 9.02944 28 14 28C18.9706 28 25 28.3639 25 26.5L23 22.375Z" fill="#606EEA"/>
<path d="M20.9262 19.0013C20.4261 19.4804 19.8743 19.9023 19.2809 20.2592C20.6532 20.7562 21.8603 21.6249 22.7673 22.7684C23.6743 23.9119 24.2455 25.285 24.4171 26.7344H4.58291C4.80754 24.822 5.72588 23.0585 7.16391 21.7779C8.60194 20.4974 10.4597 19.7889 12.3853 19.7866H14.5C16.4822 19.7843 18.3826 18.9959 19.7842 17.5943C21.1858 16.1926 21.9743 14.2923 21.9766 12.31V7.92969C21.9766 5.94678 21.1889 4.04509 19.7867 2.64296C18.3846 1.24083 16.4829 0.453125 14.5 0.453125C12.5171 0.453125 10.6154 1.24083 9.21327 2.64296C7.81114 4.04509 7.02344 5.94678 7.02344 7.92969V12.31C7.02414 13.941 7.56137 15.5264 8.55228 16.8218C9.18564 16.5969 9.83766 16.4284 10.5007 16.3184C9.97256 15.7931 9.55355 15.1685 9.26784 14.4806C8.98212 13.7926 8.83533 13.055 8.83594 12.31V7.92969C8.83594 6.42748 9.43269 4.98681 10.4949 3.92459C11.5571 2.86237 12.9978 2.26562 14.5 2.26562C16.0022 2.26562 17.4429 2.86237 18.5051 3.92459C19.5673 4.98681 20.1641 6.42748 20.1641 7.92969V12.31C20.1624 13.8117 19.5651 15.2514 18.5032 16.3133C17.4414 17.3751 16.0017 17.9724 14.5 17.9741H12.3853C9.82427 17.9829 7.37068 19.0042 5.55977 20.8151C3.74886 22.626 2.72759 25.0796 2.71875 27.6406V28.5469H26.2812V27.6406C26.2786 25.8454 25.7762 24.0865 24.8304 22.5606C23.8846 21.0348 22.5328 19.8024 20.9262 19.0013Z" fill="#223367"/>
</svg>
