<svg width="18" height="18" viewBox="0 0 18 18" fill="none" xmlns="http://www.w3.org/2000/svg">
<path fill-rule="evenodd" clip-rule="evenodd" d="M3 0H15C15.7956 0 16.5587 0.316071 17.1213 0.87868C17.6839 1.44129 18 2.20435 18 3V15C18 15.7956 17.6839 16.5587 17.1213 17.1213C16.5587 17.6839 15.7956 18 15 18H3C2.20435 18 1.44129 17.6839 0.87868 17.1213C0.316071 16.5587 0 15.7956 0 15V3C0 2.20435 0.316071 1.44129 0.87868 0.87868C1.44129 0.316071 2.20435 0 3 0ZM10.0714 8.10714H13.1071C13.6002 8.10714 14 8.50692 14 9C14 9.49308 13.6002 9.89286 13.1071 9.89286H10.0714C9.97281 9.89286 9.89286 9.97281 9.89286 10.0714V13.1071C9.89286 13.6002 9.49308 14 9 14C8.50692 14 8.10714 13.6002 8.10714 13.1071V10.0714C8.10714 9.97281 8.02719 9.89286 7.92857 9.89286H4.89286C4.39978 9.89286 4 9.49308 4 9C4 8.50692 4.39978 8.10714 4.89286 8.10714H7.92857C8.02719 8.10714 8.10714 8.02719 8.10714 7.92857V4.89286C8.10714 4.39978 8.50692 4 9 4C9.49308 4 9.89286 4.39978 9.89286 4.89286V7.92857C9.89286 8.02719 9.97281 8.10714 10.0714 8.10714Z" fill="#606EEA"/>
</svg>
