<svg width="24" height="24" viewBox="0 0 24 24" fill="none" xmlns="http://www.w3.org/2000/svg">
<g clip-path="url(#clip0_1761:7685)">
<path d="M12.0007 9.472C14.6121 9.472 16.7367 7.34748 16.7367 4.736C16.7367 2.12453 14.6121 0 12.0007 0C9.38917 0 7.26465 2.12453 7.26465 4.736C7.26465 7.34748 9.38917 9.472 12.0007 9.472Z" fill="white"/>
<path d="M18.356 11.7682C18.354 11.7675 18.3501 11.7661 18.3481 11.7656C17.7314 11.6149 15.8431 11.3508 15.8431 11.3508C15.6299 11.2852 15.4021 11.3981 15.3254 11.6084L12.4831 19.4071C12.3191 19.857 11.6829 19.857 11.5189 19.4071L8.67655 11.6084C8.61465 11.4385 8.45433 11.332 8.28253 11.332C8.2418 11.332 6.30022 11.6043 5.65384 11.765C3.88754 12.2042 2.77344 13.9411 2.77344 15.7512V22.2402C2.77344 23.2127 3.5618 24.001 4.53425 24.001H19.4661C20.4386 24.001 21.2269 23.2127 21.2269 22.2402V15.7296C21.2269 13.9273 20.0691 12.3279 18.356 11.7682Z" fill="white"/>
<path d="M13.0719 11.2014C12.9585 11.0778 12.7926 11.0156 12.6249 11.0156H11.3736C11.2058 11.0156 11.0399 11.0778 10.9265 11.2014C10.7509 11.3928 10.7254 11.6692 10.8501 11.8852L11.519 12.8936L11.2059 15.5352L11.8225 17.1756C11.8827 17.3406 12.116 17.3406 12.1761 17.1756L12.7927 15.5352L12.4796 12.8936L13.1485 11.8852C13.273 11.6692 13.2475 11.3928 13.0719 11.2014Z" fill="white"/>
</g>
<defs>
<clipPath id="clip0_1761:7685">
<rect width="24" height="24" fill="white"/>
</clipPath>
</defs>
</svg>
