<svg width="24" height="24" viewBox="0 0 24 24" fill="none" xmlns="http://www.w3.org/2000/svg">
<g clip-path="url(#clip0_1761:5622)">
<path d="M7.4812 5.92493C9.11469 5.92493 10.4437 4.59613 10.4437 2.96246C10.4437 1.32898 9.11469 0 7.4812 0C5.84753 0 4.51855 1.32898 4.51855 2.96246C4.51855 4.59595 5.84753 5.92493 7.4812 5.92493Z" fill="white"/>
<path d="M21.0375 12.8023H20.9874V11.2461C20.9874 10.2355 20.1652 9.41321 19.1545 9.41321H16.4685V8.56012H18.0249C18.4135 8.56012 18.728 8.24573 18.728 7.85699V5.59766C18.728 5.20947 18.4135 4.89453 18.0249 4.89453H14.2593C13.8713 4.89453 13.5562 5.20947 13.5562 5.59766V7.85699C13.5562 8.24573 13.8713 8.56012 14.2593 8.56012H15.0623V9.44324C14.2073 9.5976 13.5562 10.347 13.5562 11.2461V12.8023H11.1971V9.71515C11.1971 7.6662 9.53009 5.92432 7.48132 5.92432C5.43237 5.92432 3.76538 7.6662 3.76538 9.71515V12.8023H2.96246C1.32898 12.8023 0 14.1313 0 15.7648V21.0369C0 22.6704 1.32898 23.9994 2.96246 23.9994H21.0375C22.671 23.9994 24 22.6704 24 21.0369V15.7648C24 14.1313 22.671 12.8023 21.0375 12.8023ZM15.7657 20.234H8.23425C7.84625 20.234 7.53113 19.9189 7.53113 19.5309C7.53113 19.1422 7.84625 18.8278 8.23425 18.8278H15.7657C16.1537 18.8278 16.4689 19.1422 16.4689 19.5309C16.4689 19.9189 16.1537 20.234 15.7657 20.234ZM19.1548 17.2212H4.84515C4.45715 17.2212 4.14203 16.9062 4.14203 16.5181C4.14203 16.1301 4.45715 15.8149 4.84515 15.8149H19.1548C19.5428 15.8149 19.858 16.1301 19.858 16.5181C19.858 16.9062 19.5428 17.2212 19.1548 17.2212Z" fill="white"/>
</g>
<defs>
<clipPath id="clip0_1761:5622">
<rect width="24" height="24" fill="white"/>
</clipPath>
</defs>
</svg>
