<svg width="16" height="16" viewBox="0 0 16 16" fill="none" xmlns="http://www.w3.org/2000/svg">
<path fill-rule="evenodd" clip-rule="evenodd" d="M4 8.00063C4 7.86802 4.05268 7.74085 4.14645 7.64708C4.24021 7.55331 4.36739 7.50063 4.5 7.50063H10.293L8.146 5.35463C8.05211 5.26075 7.99937 5.13341 7.99937 5.00063C7.99937 4.86786 8.05211 4.74052 8.146 4.64663C8.23989 4.55275 8.36722 4.5 8.5 4.5C8.63278 4.5 8.76011 4.55275 8.854 4.64663L11.854 7.64663C11.9006 7.69308 11.9375 7.74825 11.9627 7.809C11.9879 7.86974 12.0009 7.93486 12.0009 8.00063C12.0009 8.0664 11.9879 8.13152 11.9627 8.19227C11.9375 8.25301 11.9006 8.30819 11.854 8.35463L8.854 11.3546C8.76011 11.4485 8.63278 11.5013 8.5 11.5013C8.36722 11.5013 8.23989 11.4485 8.146 11.3546C8.05211 11.2607 7.99937 11.1334 7.99937 11.0006C7.99937 10.8679 8.05211 10.7405 8.146 10.6466L10.293 8.50063H4.5C4.36739 8.50063 4.24021 8.44795 4.14645 8.35419C4.05268 8.26042 4 8.13324 4 8.00063Z" fill="#C2C2C2"/>
</svg>
