<svg width="10" height="15" viewBox="0 0 10 15" fill="none" xmlns="http://www.w3.org/2000/svg">
<path d="M0.243842 6.9147L7.04667 0.239632C7.20402 0.0851213 7.41405 0 7.63801 0C7.86197 0 8.072 0.0851213 8.22934 0.239632L9.74945 1.73109C10.0754 2.05133 10.0754 2.57182 9.74945 2.89157L5.05606 7.49689L9.75579 12.1084C9.91313 12.2629 10 12.4689 10 12.6885C10 12.9084 9.91313 13.1144 9.75579 13.269L8.23568 14.7604C8.07822 14.9149 7.8683 15 7.64435 15C7.42039 15 7.21035 14.9149 7.05301 14.7604L0.243842 8.0792C0.0861282 7.9242 -0.000495911 7.71725 9.53674e-07 7.49726C-0.000495911 7.2764 0.0861282 7.06958 0.243842 6.9147Z" fill="#A5A5A5"/>
</svg>
