<svg width="20" height="18" viewBox="0 0 20 18" fill="none" xmlns="http://www.w3.org/2000/svg">
<path d="M19.8867 9.00082C19.8867 9.67357 19.3413 10.2196 18.6692 10.2196H4.4046L9.74063 14.9987C9.86086 15.1051 9.9589 15.2342 10.0291 15.3787C10.0993 15.5232 10.1403 15.6801 10.1497 15.8405C10.1591 16.0008 10.1367 16.1615 10.0838 16.3132C10.031 16.4648 9.94869 16.6046 9.8417 16.7243C9.73471 16.844 9.60512 16.9414 9.4604 17.0108C9.31568 17.0803 9.15867 17.1204 8.99841 17.1288C8.83815 17.1373 8.6778 17.114 8.52658 17.0602C8.37535 17.0064 8.23625 16.9232 8.11726 16.8154L0.406227 9.90919C0.278555 9.79488 0.176416 9.65488 0.106489 9.49835C0.0365601 9.34182 0.000413895 9.17228 0.000413895 9.00082C0.000413895 8.82935 0.0365601 8.65981 0.106489 8.50328C0.176416 8.34675 0.278555 8.20676 0.406227 8.09244L8.11726 1.18619C8.23625 1.0784 8.37535 0.995218 8.52658 0.941433C8.6778 0.887647 8.83815 0.864319 8.99841 0.872789C9.15867 0.881259 9.31568 0.92136 9.4604 0.990787C9.60512 1.06021 9.73471 1.15759 9.8417 1.27733C9.94869 1.39707 10.031 1.53679 10.0838 1.68848C10.1367 1.84016 10.1591 2.00081 10.1497 2.16117C10.1403 2.32154 10.0993 2.47847 10.0291 2.62293C9.9589 2.7674 9.86086 2.89654 9.74063 3.00294L4.4046 7.78207H18.6692C18.8291 7.78207 18.9874 7.81359 19.1351 7.87484C19.2828 7.93609 19.4171 8.02586 19.5301 8.13903C19.6432 8.2522 19.7329 8.38656 19.794 8.53442C19.8552 8.68229 19.8867 8.84077 19.8867 9.00082Z" fill="#223367"/>
</svg>
