<svg width="62" height="62" viewBox="0 0 62 62" fill="none" xmlns="http://www.w3.org/2000/svg">
<rect width="62" height="62" rx="14" fill="#C4BEF4"/>
<path d="M41.7716 26.7192C41.6367 26.4025 41.3502 26.2005 41.0357 26.2005H32.8644L37.8103 16.8702C37.9591 16.5895 37.9614 16.2412 37.8164 15.958C37.6714 15.6749 37.4013 15.4999 37.1088 15.5L30.1276 15.5008C29.8379 15.501 29.57 15.6724 29.4241 15.9514L20.2614 33.4606C20.1144 33.7414 20.1133 34.0885 20.2586 34.3705C20.4039 34.6524 20.6734 34.8264 20.9651 34.8264H29.0843L26.7195 45.3715C26.6269 45.784 26.8037 46.2131 27.1448 46.4037C27.2611 46.4686 27.3859 46.5 27.5095 46.5C27.7482 46.5 27.9822 46.383 28.1411 46.1658L41.667 27.6828C41.8658 27.4111 41.9066 27.0359 41.7716 26.7192Z" fill="#7169AD"/>
</svg>
