<svg width="28" height="28" viewBox="0 0 28 28" fill="none" xmlns="http://www.w3.org/2000/svg">
<path d="M22.1673 5.83362H21.0007V3.50028C21.0007 3.19087 20.8777 2.89412 20.6589 2.67533C20.4401 2.45653 20.1434 2.33362 19.834 2.33362C19.5246 2.33362 19.2278 2.45653 19.009 2.67533C18.7902 2.89412 18.6673 3.19087 18.6673 3.50028V5.83362H9.33398V3.50028C9.33398 3.19087 9.21107 2.89412 8.99228 2.67533C8.77348 2.45653 8.47674 2.33362 8.16732 2.33362C7.8579 2.33362 7.56115 2.45653 7.34236 2.67533C7.12357 2.89412 7.00065 3.19087 7.00065 3.50028V5.83362H5.83398C4.90573 5.83362 4.01549 6.20237 3.35911 6.85874C2.70273 7.51512 2.33398 8.40536 2.33398 9.33362V10.5003H25.6673V9.33362C25.6673 8.40536 25.2986 7.51512 24.6422 6.85874C23.9858 6.20237 23.0956 5.83362 22.1673 5.83362Z" fill="#606EEA"/>
<path d="M2.33398 22.1669C2.33398 23.0952 2.70273 23.9854 3.35911 24.6418C4.01549 25.2982 4.90573 25.6669 5.83398 25.6669H22.1673C23.0956 25.6669 23.9858 25.2982 24.6422 24.6418C25.2986 23.9854 25.6673 23.0952 25.6673 22.1669V12.8336H2.33398V22.1669Z" fill="#606EEA"/>
</svg>
