<svg width="40" height="40" viewBox="0 0 40 40" fill="none" xmlns="http://www.w3.org/2000/svg">
<g clip-path="url(#clip0_66:106)">
<rect width="40" height="40" rx="14" fill="url(#paint0_linear_66:106)"/>
<path d="M31.4369 25.8796C30.3182 22.9152 29.4308 17.8194 29.2391 15.1663C28.8746 10.1177 25.0697 6.00195 19.9266 6.00195C14.7834 6.00195 10.9787 10.1177 10.614 15.1663C10.4224 17.8194 9.53496 22.9152 8.41624 25.8796C8.16969 26.533 8.45432 27.2537 9.09773 27.5454C10.2966 28.0887 12.8526 29.153 15.9354 29.5677H23.9176C26.9859 29.1521 29.5599 28.0871 30.7553 27.5454C31.3988 27.2537 31.6834 26.533 31.4369 25.8796Z" fill="#5A4146"/>
<path d="M30.7561 27.5454C31.3995 27.2537 31.6842 26.5332 31.4376 25.8796C30.3188 22.9152 29.4314 17.8194 29.2398 15.1663C28.8753 10.1177 25.0704 6.00195 19.9272 6.00195C19.9143 6.00195 19.9013 6.00195 19.8883 6.00209C15.942 6.01812 14.5473 11.4002 17.9446 13.4085C18.1487 13.5291 18.2793 13.5871 18.2793 13.5871L21.2549 29.5677H23.9183C26.9867 29.1521 29.5606 28.0872 30.7561 27.5454Z" fill="#694B4B"/>
<path d="M29.3964 32.1958L25.1596 30.0775C24.2725 29.634 23.7122 28.7272 23.7122 27.7354L23.7124 23.8076H15.8572V27.7354C15.8572 28.7272 15.2969 29.6337 14.4099 30.0774L10.1731 32.1959C8.84247 32.8611 8.00195 34.221 8.00195 35.7087V42.4214H31.5677V35.7088C31.5677 34.221 30.727 32.8611 29.3964 32.1958Z" fill="#E6AF78"/>
<path d="M19.7854 29.0444C21.1951 29.0444 22.5453 28.7539 23.7832 28.2365C23.7507 28.0715 23.7128 27.9074 23.7128 27.7353L23.713 23.8076H15.8578V27.7354C15.8578 27.9084 15.82 28.0733 15.7871 28.2389C17.0257 28.7537 18.3753 29.0444 19.7854 29.0444Z" fill="#D29B6E"/>
<path d="M29.3964 32.1958L26.3782 30.6868C24.9787 32.8479 22.5512 34.2812 19.7849 34.2812C17.0184 34.2812 14.591 32.8478 13.1913 30.6865L10.1731 32.1957C8.84247 32.8612 8.00195 34.2211 8.00195 35.7088V42.4215H31.5677V35.7089C31.5677 34.2212 30.727 32.8612 29.3964 32.1958Z" fill="#FF507D"/>
<path d="M19.7851 26.4263C15.7912 26.4263 12.4936 23.4458 11.995 19.5878C11.9227 19.0288 12.1915 18.4807 12.6946 18.2268C13.2973 17.9227 14.1731 17.4101 15.0119 16.6617C15.9458 15.8285 16.4937 14.9497 16.8032 14.3046C17.0696 13.749 17.6822 13.4349 18.2792 13.5871C22.8889 14.7629 26.0272 17.1611 27.1657 18.1402C27.4714 18.403 27.6475 18.7907 27.616 19.1928C27.2992 23.2405 23.9143 26.4263 19.7851 26.4263Z" fill="#F0C087"/>
<path d="M27.1659 18.1402C26.0273 17.1611 22.889 14.7629 18.2793 13.5871C17.6823 13.4349 17.0697 13.7491 16.8031 14.3046C16.5688 14.7931 16.1816 15.4155 15.6068 16.0509C15.6065 16.0524 15.6062 16.0539 15.606 16.0553C15.4276 16.2575 15.2377 16.4601 15.0119 16.6617C14.1732 17.4102 13.2973 17.9226 12.6945 18.2268C12.1914 18.4807 11.9228 19.0288 11.995 19.5878C12.4426 23.0527 15.1542 25.7898 18.5941 26.3157C17.0266 25.2494 15.8573 23.8038 15.8573 21.1894V19.3225C16.1548 19.1031 16.4542 18.884 16.7553 18.6155C17.483 17.9662 18.1182 17.2151 18.6277 16.4065C25.141 17.7849 27.2391 20.9626 27.2391 20.9626C27.4235 20.395 27.5678 19.8096 27.6162 19.1928C27.6476 18.7908 27.4715 18.4032 27.1659 18.1402Z" fill="#E6AF78"/>
<path d="M30.7698 33.3486C31.2742 34.0178 31.5679 34.8391 31.5679 35.7087V42.4213H27.2832V37.7754C27.2832 37.2141 27.5036 36.675 27.897 36.2745L30.7698 33.3486Z" fill="#D23C69"/>
<path d="M8.80011 33.3486C8.29566 34.0177 8.00195 34.839 8.00195 35.7086V42.4213H12.2867V37.7754C12.2867 37.2141 12.0663 36.675 11.6729 36.2745L8.80011 33.3486Z" fill="#D23C69"/>
<path d="M30.2398 32.0679L26.2487 30.0723C28.918 29.3113 30.5977 28.325 31.4347 27.7384C32.2395 27.1742 32.5411 26.1522 32.1682 25.2532C31.3755 23.3427 30.4444 19.7063 30.428 15.7453C30.4051 10.24 26.171 5.54019 20.7885 5.0459C20.1216 4.9847 19.448 4.9847 18.7815 5.0459C13.399 5.54019 9.16475 10.24 9.1419 15.7453C9.12547 19.7063 8.19422 23.3427 7.40168 25.2532C7.02873 26.1524 7.33046 27.1742 8.13529 27.7384C8.97233 28.325 10.6517 29.3113 13.3213 30.0723L9.33032 32.0679C7.89303 32.7867 7 34.2314 7 35.8386V42.4218C7 42.9753 7.44858 43.424 8.0022 43.424C8.55582 43.424 9.0044 42.9753 9.0044 42.4218V35.8386C9.0044 34.9955 9.47276 34.2377 10.2268 33.8606L13.3906 32.2788C14.7176 34.5158 17.1523 35.9258 19.7851 35.9258C22.4414 35.9258 24.8557 34.5219 26.1801 32.279L29.3433 33.8606C30.0974 34.2377 30.5656 34.9955 30.5656 35.8386V42.4218C30.5656 42.9753 31.0142 43.424 31.5678 43.424C32.1214 43.424 32.57 42.9753 32.57 42.4218V35.8386C32.57 34.2316 31.6772 32.7867 30.2398 32.0679ZM9.25321 26.0214C10.1155 23.9426 11.1288 20.0063 11.1464 15.7538C11.165 11.2697 14.5992 7.44303 18.9649 7.04215C19.5101 6.99204 20.0597 6.99204 20.6052 7.04215C24.9708 7.44303 28.405 11.2697 28.4236 15.7538C28.4412 20.0063 29.4545 23.9427 30.3168 26.0214C30.3316 26.0571 30.3029 26.0842 30.2845 26.097C29.3998 26.7168 27.4216 27.8501 24.0426 28.55C24.0155 28.452 24.0008 28.3492 24.0008 28.2438V26.2333C25.3054 25.4877 26.4137 24.3992 27.1802 23.0504C28.5859 20.5767 28.0779 17.3835 25.9722 15.4577C24.4959 14.1075 21.8525 12.4981 17.6428 12.4981C17.377 12.4981 17.1222 12.6037 16.9341 12.7917L14.7918 14.9339C14.4004 15.3253 14.4004 15.9599 14.7918 16.3511C15.1833 16.7425 15.8178 16.7425 16.2092 16.3511L18.0523 14.508C20.7303 14.583 22.9381 15.399 24.6195 16.9367C26.0414 18.2371 26.3855 20.3919 25.4375 22.0599C24.2835 24.0905 22.1176 25.3519 19.7851 25.3519C16.2031 25.3519 13.2891 22.4378 13.2891 18.856C13.2891 18.3025 12.8406 17.8538 12.2869 17.8538C11.7333 17.8538 11.2847 18.3025 11.2847 18.856C11.2847 22.0095 13.0123 24.7655 15.5693 26.2327V28.2436C15.5693 28.3491 15.5545 28.4518 15.5275 28.5499C12.1482 27.85 10.1703 26.7167 9.28595 26.097C9.26738 26.0841 9.23838 26.057 9.25321 26.0214ZM19.7851 33.9214C17.9106 33.9214 16.1752 32.9415 15.1912 31.3785L15.8355 31.0563C16.9076 30.5202 17.5737 29.4425 17.5737 28.2438V27.063C18.2793 27.2533 19.0203 27.3566 19.7851 27.3566C20.5412 27.3566 21.2839 27.2551 21.9964 27.0622V28.2438C21.9964 29.4424 22.6624 30.5201 23.7346 31.0563L24.3816 31.3798C23.4 32.9468 21.6765 33.9214 19.7851 33.9214Z" fill="black"/>
<path d="M12.2864 37.1348C11.7328 37.1348 11.2842 37.5835 11.2842 38.137V42.4216C11.2842 42.9751 11.7328 43.4238 12.2864 43.4238C12.84 43.4238 13.2886 42.9751 13.2886 42.4216V38.137C13.2886 37.5834 12.84 37.1348 12.2864 37.1348Z" fill="black"/>
<path d="M27.2835 37.1348C26.7298 37.1348 26.2812 37.5835 26.2812 38.137V42.4216C26.2812 42.9751 26.7298 43.4238 27.2835 43.4238C27.8371 43.4238 28.2857 42.9751 28.2857 42.4216V38.137C28.2857 37.5834 27.8371 37.1348 27.2835 37.1348Z" fill="black"/>
</g>
<defs>
<linearGradient id="paint0_linear_66:106" x1="40" y1="-8.25397" x2="3.49206" y2="43.4921" gradientUnits="userSpaceOnUse">
<stop stop-color="#8BDD59"/>
<stop offset="1" stop-color="#DCF089"/>
</linearGradient>
<clipPath id="clip0_66:106">
<rect width="40" height="40" rx="14" fill="white"/>
</clipPath>
</defs>
</svg>
