<svg width="40" height="40" viewBox="0 0 40 40" fill="none" xmlns="http://www.w3.org/2000/svg">
<g clip-path="url(#clip0_66:74)">
<rect width="40" height="40" rx="14" fill="url(#paint0_linear_66:74)"/>
<path d="M12.042 12.372V13.1524C12.042 14.1085 12.1961 15.0584 12.4985 15.9654L14.2659 21.2676H17.6016V9.03613H15.3778C13.5355 9.03626 12.042 10.5298 12.042 12.372Z" fill="#5A4146"/>
<path d="M27.2666 14.6824L25.385 21.2681L16.4895 13.4845C15.2613 13.4845 14.2656 12.4888 14.2656 11.2606C14.2656 9.41823 15.7592 7.9248 17.6014 7.9248H27.6089V12.2386C27.6088 13.0652 27.4936 13.8876 27.2666 14.6824Z" fill="#694B4B"/>
<path d="M23.384 24.7275H16.2676V30.9655H23.384V24.7275Z" fill="#E6AF78"/>
<path d="M16.2676 27.8947C17.3677 28.3416 18.5671 28.5933 19.8258 28.5933C21.0845 28.5933 22.2839 28.3416 23.384 27.8947V24.7275H16.2676V27.8947Z" fill="#D29B6E"/>
<path d="M29.1056 30.2286L23.3834 28.5939L19.8255 30.955L16.2673 28.5938L10.5455 30.2286C9.01796 30.6651 7.96484 32.0612 7.96484 33.65V40.5424H31.6864V33.65C31.6864 32.0612 30.6331 30.665 29.1056 30.2286Z" fill="#00AAF0"/>
<path d="M19.826 25.7159C16.1413 25.7159 13.1543 22.7289 13.1543 19.0442V17.7415C13.1543 17.1516 13.3886 16.586 13.8057 16.1689L15.822 14.1526C16.249 13.7256 16.8329 13.4801 17.4364 13.4991C20.9909 13.6112 24.1371 14.3727 25.857 16.0524C26.278 16.4636 26.4978 17.0388 26.4978 17.6273V19.0442C26.4976 22.7289 23.5106 25.7159 19.826 25.7159Z" fill="#F0C087"/>
<path d="M16.4903 18.7971C16.4903 17.5144 17.5649 16.5764 18.8476 16.5764C20.8145 16.5764 24.7682 16.8203 26.4669 18.0777C26.4002 17.6086 26.1986 16.386 25.857 16.0524C24.1372 14.3727 20.9909 13.6112 17.4364 13.4991L17.4363 13.4992L17.4362 13.4991C16.8327 13.4801 16.2489 13.7257 15.822 14.1526L13.1543 16.8203V19.0442C13.1543 22.0867 15.193 24.6484 17.9773 25.4506C17.0505 24.3072 16.4901 22.8558 16.4901 21.268V18.7971H16.4903Z" fill="#E6AF78"/>
<path d="M12.7092 37.1835C12.7092 36.2398 12.3344 35.3347 11.6671 34.6674L8.6139 31.6143C8.20577 32.1975 7.96484 32.8997 7.96484 33.6492V40.5419H12.7091V37.1835H12.7092Z" fill="#0096DC"/>
<path d="M26.9424 37.1835C26.9424 36.2398 27.3172 35.3347 27.9845 34.6674L31.0377 31.6143C31.4458 32.1975 31.6868 32.8997 31.6868 33.6492V40.5419H26.9425V37.1835H26.9424Z" fill="#0096DC"/>
<path d="M16.7968 14.8437V14.6346C18.7779 14.3516 20.3451 14.5838 21.3514 14.8485C22.5638 15.1675 23.2474 15.6011 23.27 15.6157C23.4267 15.7191 23.6035 15.7686 23.7783 15.7686C24.0772 15.7686 24.3704 15.6239 24.5486 15.3566C24.8319 14.9317 24.717 14.3575 24.2921 14.0743C24.158 13.9849 20.9477 11.8972 15.6906 12.9486C15.2584 13.035 14.9473 13.4145 14.9473 13.8553V14.8437C14.9473 15.3544 15.3612 15.7685 15.872 15.7685C16.3829 15.7685 16.7968 15.3544 16.7968 14.8437Z" fill="black"/>
<path d="M30.0871 30.059L25.3866 28.2963C24.9782 28.1432 24.704 27.7474 24.704 27.3113V24.9401C24.9054 24.7795 25.1002 24.6084 25.2875 24.4265C26.8233 22.9362 27.669 20.9368 27.669 18.7972V17.0387L27.9337 16.5093C28.4071 15.5625 28.6574 14.5025 28.6574 13.4436V7.92476C28.6574 7.41404 28.2435 7 27.7327 7H17.4336C13.8825 7 10.9937 9.88895 10.9937 13.4436C10.9937 14.5023 11.2439 15.5624 11.7173 16.5092L11.9819 17.0386V18.5069C11.9819 21.0505 13.1455 23.3506 14.9472 24.851V27.3111C14.9472 27.7473 14.6729 28.1431 14.2645 28.2962L9.56426 30.0589C8.05444 30.625 7.04004 32.0887 7.04004 33.7012V40.542C7.04004 41.0527 7.45396 41.4667 7.9648 41.4667C8.47563 41.4667 8.88956 41.0527 8.88956 40.542V33.7013C8.88956 32.8555 9.4216 32.0878 10.2136 31.7908L14.9139 30.0281C15.1683 29.9326 15.4026 29.8016 15.6148 29.6444L18.9007 32.1088V40.542C18.9007 41.0527 19.3147 41.4667 19.8255 41.4667C20.3363 41.4667 20.7503 41.0527 20.7503 40.542V32.1088L24.0361 29.6444C24.2483 29.8017 24.4826 29.9328 24.7369 30.0281L29.4376 31.7908C30.2294 32.0877 30.7614 32.8555 30.7614 33.7013V40.542C30.7614 41.0527 31.1754 41.4667 31.6862 41.4667C32.197 41.4667 32.611 41.0527 32.611 40.542V33.7013C32.6112 32.0888 31.5968 30.6251 30.0871 30.059ZM13.8316 18.5071V16.8203C13.8316 16.6767 13.7982 16.5351 13.7339 16.4068L13.3717 15.6821C13.0259 14.9908 12.8433 14.2167 12.8433 13.44C12.8433 10.9088 14.9026 8.84952 17.4337 8.84952H26.808V13.4436C26.808 14.2167 26.6253 14.9908 26.2796 15.6821L25.9173 16.4068C25.8531 16.5352 25.8197 16.6767 25.8197 16.8203V18.7971C25.8197 20.4323 25.1733 21.9601 23.9995 23.0992C22.8264 24.2376 21.2793 24.8376 19.6404 24.7884C16.4374 24.6923 13.8316 21.8745 13.8316 18.5071ZM19.5851 26.6372C19.6664 26.6396 19.7474 26.6409 19.8286 26.6409C20.8847 26.6409 21.9079 26.4324 22.8545 26.0361V27.3114C22.8545 27.5924 22.8973 27.8667 22.975 28.1285L19.8256 30.4905L16.6763 28.1285C16.7539 27.8667 16.7967 27.5923 16.7967 27.3114V26.0007C17.6609 26.3819 18.601 26.6076 19.5851 26.6372Z" fill="black"/>
<path d="M12.9072 34.6748C12.3963 34.6748 11.9824 35.0888 11.9824 35.5996V40.5416C11.9824 41.0523 12.3963 41.4664 12.9072 41.4664C13.418 41.4664 13.8319 41.0523 13.8319 40.5416V35.5996C13.8319 35.0888 13.418 34.6748 12.9072 34.6748Z" fill="black"/>
<path d="M26.7441 34.6748C26.2333 34.6748 25.8193 35.0888 25.8193 35.5996V40.5416C25.8193 41.0523 26.2333 41.4664 26.7441 41.4664C27.2549 41.4664 27.6689 41.0523 27.6689 40.5416V35.5996C27.6689 35.0888 27.2549 34.6748 26.7441 34.6748Z" fill="black"/>
</g>
<defs>
<linearGradient id="paint0_linear_66:74" x1="6" y1="-4.75347e-07" x2="34.5" y2="40" gradientUnits="userSpaceOnUse">
<stop stop-color="#FF7C84"/>
<stop offset="1" stop-color="#FF535E"/>
</linearGradient>
<clipPath id="clip0_66:74">
<rect width="40" height="40" rx="14" fill="white"/>
</clipPath>
</defs>
</svg>
