<svg width="18" height="18" viewBox="0 0 18 18" fill="none" xmlns="http://www.w3.org/2000/svg">
<path d="M11.4545 4H15.1364C15.2991 4 15.4552 4.06585 15.5703 4.18306C15.6853 4.30027 15.75 4.45924 15.75 4.625C15.75 4.79076 15.6853 4.94973 15.5703 5.06694C15.4552 5.18415 15.2991 5.25 15.1364 5.25H14.4577L13.5348 13.72C13.4514 14.4844 13.0942 15.1907 12.5315 15.7036C11.9688 16.2165 11.2401 16.5001 10.485 16.5H7.515C6.75986 16.5001 6.03121 16.2165 5.46851 15.7036C4.90581 15.1907 4.54859 14.4844 4.46523 13.72L3.54109 5.25H2.86364C2.70089 5.25 2.54481 5.18415 2.42973 5.06694C2.31465 4.94973 2.25 4.79076 2.25 4.625C2.25 4.45924 2.31465 4.30027 2.42973 4.18306C2.54481 4.06585 2.70089 4 2.86364 4H6.54545C6.54545 3.33696 6.80406 2.70107 7.26437 2.23223C7.72469 1.76339 8.34901 1.5 9 1.5C9.65099 1.5 10.2753 1.76339 10.7356 2.23223C11.1959 2.70107 11.4545 3.33696 11.4545 4ZM9 2.75C8.67451 2.75 8.36235 2.8817 8.13219 3.11612C7.90203 3.35054 7.77273 3.66848 7.77273 4H10.2273C10.2273 3.66848 10.098 3.35054 9.86781 3.11612C9.63765 2.8817 9.32549 2.75 9 2.75ZM7.15909 7.75V12.75C7.15909 12.9158 7.22374 13.0747 7.33882 13.1919C7.4539 13.3092 7.60998 13.375 7.77273 13.375C7.93547 13.375 8.09155 13.3092 8.20663 13.1919C8.32171 13.0747 8.38636 12.9158 8.38636 12.75V7.75C8.38636 7.58424 8.32171 7.42527 8.20663 7.30806C8.09155 7.19085 7.93547 7.125 7.77273 7.125C7.60998 7.125 7.4539 7.19085 7.33882 7.30806C7.22374 7.42527 7.15909 7.58424 7.15909 7.75ZM10.2273 7.125C10.0645 7.125 9.90844 7.19085 9.79337 7.30806C9.67829 7.42527 9.61364 7.58424 9.61364 7.75V12.75C9.61364 12.9158 9.67829 13.0747 9.79337 13.1919C9.90844 13.3092 10.0645 13.375 10.2273 13.375C10.39 13.375 10.5461 13.3092 10.6612 13.1919C10.7763 13.0747 10.8409 12.9158 10.8409 12.75V7.75C10.8409 7.58424 10.7763 7.42527 10.6612 7.30806C10.5461 7.19085 10.39 7.125 10.2273 7.125Z" fill="white"/>
</svg>
