<svg width="22" height="24" viewBox="0 0 22 24" fill="none" xmlns="http://www.w3.org/2000/svg">
<path d="M15 4H21C21.2652 4 21.5196 4.10536 21.7071 4.29289C21.8946 4.48043 22 4.73478 22 5C22 5.26522 21.8946 5.51957 21.7071 5.70711C21.5196 5.89464 21.2652 6 21 6H19.894L18.39 19.552C18.2541 20.7751 17.672 21.9051 16.755 22.7258C15.838 23.5465 14.6506 24.0001 13.42 24H8.58C7.3494 24.0001 6.16197 23.5465 5.24498 22.7258C4.32799 21.9051 3.74586 20.7751 3.61 19.552L2.104 6H1C0.734784 6 0.48043 5.89464 0.292893 5.70711C0.105357 5.51957 0 5.26522 0 5C0 4.73478 0.105357 4.48043 0.292893 4.29289C0.48043 4.10536 0.734784 4 1 4H7C7 2.93913 7.42143 1.92172 8.17157 1.17157C8.92172 0.421427 9.93913 0 11 0C12.0609 0 13.0783 0.421427 13.8284 1.17157C14.5786 1.92172 15 2.93913 15 4ZM11 2C10.4696 2 9.96086 2.21071 9.58579 2.58579C9.21071 2.96086 9 3.46957 9 4H13C13 3.46957 12.7893 2.96086 12.4142 2.58579C12.0391 2.21071 11.5304 2 11 2ZM8 10V18C8 18.2652 8.10536 18.5196 8.29289 18.7071C8.48043 18.8946 8.73478 19 9 19C9.26522 19 9.51957 18.8946 9.70711 18.7071C9.89464 18.5196 10 18.2652 10 18V10C10 9.73478 9.89464 9.48043 9.70711 9.29289C9.51957 9.10536 9.26522 9 9 9C8.73478 9 8.48043 9.10536 8.29289 9.29289C8.10536 9.48043 8 9.73478 8 10ZM13 9C12.7348 9 12.4804 9.10536 12.2929 9.29289C12.1054 9.48043 12 9.73478 12 10V18C12 18.2652 12.1054 18.5196 12.2929 18.7071C12.4804 18.8946 12.7348 19 13 19C13.2652 19 13.5196 18.8946 13.7071 18.7071C13.8946 18.5196 14 18.2652 14 18V10C14 9.73478 13.8946 9.48043 13.7071 9.29289C13.5196 9.10536 13.2652 9 13 9Z" fill="#FF5E68"/>
</svg>
