<svg width="28" height="28" viewBox="0 0 28 28" fill="none" xmlns="http://www.w3.org/2000/svg">
<path d="M22.1654 5.83398H20.9987V3.50065C20.9987 3.19123 20.8758 2.89449 20.657 2.67569C20.4382 2.4569 20.1414 2.33398 19.832 2.33398C19.5226 2.33398 19.2259 2.4569 19.0071 2.67569C18.7883 2.89449 18.6654 3.19123 18.6654 3.50065V5.83398H9.33203V3.50065C9.33203 3.19123 9.20911 2.89449 8.99032 2.67569C8.77153 2.4569 8.47478 2.33398 8.16536 2.33398C7.85595 2.33398 7.5592 2.4569 7.34041 2.67569C7.12161 2.89449 6.9987 3.19123 6.9987 3.50065V5.83398H5.83203C4.90377 5.83398 4.01353 6.20273 3.35716 6.85911C2.70078 7.51549 2.33203 8.40573 2.33203 9.33398V10.5007H25.6654V9.33398C25.6654 8.40573 25.2966 7.51549 24.6402 6.85911C23.9839 6.20273 23.0936 5.83398 22.1654 5.83398Z" fill="#AAAAAA"/>
<path d="M2.33203 22.1673C2.33203 23.0956 2.70078 23.9858 3.35716 24.6422C4.01353 25.2986 4.90377 25.6673 5.83203 25.6673H22.1654C23.0936 25.6673 23.9839 25.2986 24.6402 24.6422C25.2966 23.9858 25.6654 23.0956 25.6654 22.1673V12.834H2.33203V22.1673Z" fill="#AAAAAA"/>
</svg>
