<svg width="19" height="19" viewBox="0 0 19 19" fill="none" xmlns="http://www.w3.org/2000/svg">
<path d="M2.50051 4.83641C2.50051 4.26052 2.72921 3.7082 3.13633 3.30088C3.54344 2.89356 4.09565 2.66459 4.67154 2.66431H5.65964C6.23275 2.66418 6.78256 2.43744 7.18916 2.03356L7.87911 1.34253C8.28524 0.934535 8.83678 0.704544 9.41245 0.703132C9.98812 0.701719 10.5408 0.928999 10.9489 1.33499L10.9575 1.34253L11.6485 2.03356C12.0549 2.43774 12.6049 2.66453 13.1781 2.66431H14.1651C14.741 2.66459 15.2932 2.89356 15.7003 3.30088C16.1074 3.7082 16.3361 4.26052 16.3361 4.83641V5.82236C16.3358 6.39586 16.5626 6.94615 16.9669 7.35295L17.6579 8.04398C18.066 8.44996 18.2962 9.00142 18.2978 9.57709C18.2994 10.1528 18.0724 10.7055 17.6665 11.1138L17.6579 11.1224L16.9669 11.8134C16.5627 12.2194 16.3359 12.769 16.3361 13.3418V14.33C16.3361 14.9057 16.1074 15.458 15.7002 15.8651C15.2931 16.2722 14.7409 16.501 14.1651 16.501H13.1781C12.6047 16.5012 12.0548 16.7283 11.6485 17.1328L10.9575 17.8174C10.7566 18.0196 10.5177 18.1802 10.2547 18.2901C9.99162 18.4 9.70948 18.457 9.4244 18.4578C9.13932 18.4586 8.85687 18.4032 8.5932 18.2948C8.32953 18.1864 8.0898 18.0271 7.88772 17.826L7.87911 17.8174L7.18916 17.1274C6.78267 16.7232 6.23288 16.4961 5.65964 16.4956H4.67154C4.09668 16.4956 3.54528 16.2676 3.13829 15.8616C2.7313 15.4556 2.50194 14.9048 2.50051 14.33V13.3418C2.50028 12.7689 2.2731 12.2193 1.86869 11.8134L1.18412 11.1224C0.981545 10.9218 0.820485 10.6832 0.710143 10.4204C0.5998 10.1575 0.542338 9.87547 0.541038 9.59039C0.539739 9.3053 0.594628 9.02276 0.70257 8.75889C0.810511 8.49503 0.969389 8.25502 1.17012 8.05259L1.18412 8.04398L1.87407 7.35295C2.27861 6.94626 2.50576 6.39599 2.50589 5.82236V4.83641" fill="#4695F1"/>
<path d="M2.50051 4.83641C2.50051 4.26052 2.72921 3.7082 3.13633 3.30088C3.54344 2.89356 4.09565 2.66459 4.67154 2.66431H5.65964C6.23275 2.66418 6.78256 2.43744 7.18916 2.03356L7.87911 1.34253C8.28524 0.934535 8.83678 0.704544 9.41245 0.703132C9.98812 0.701719 10.5408 0.928999 10.9489 1.33499L10.9575 1.34253L11.6485 2.03356C12.0549 2.43774 12.6049 2.66453 13.1781 2.66431H14.1651C14.741 2.66459 15.2932 2.89356 15.7003 3.30088C16.1074 3.7082 16.3361 4.26052 16.3361 4.83641V5.82236C16.3358 6.39586 16.5626 6.94615 16.9669 7.35295L17.6579 8.04398C18.066 8.44996 18.2962 9.00142 18.2978 9.57709C18.2994 10.1528 18.0724 10.7055 17.6665 11.1138L17.6579 11.1224L16.9669 11.8134C16.5627 12.2194 16.3359 12.769 16.3361 13.3418V14.33C16.3361 14.9057 16.1074 15.458 15.7002 15.8651C15.2931 16.2722 14.7409 16.501 14.1651 16.501H13.1781C12.6047 16.5012 12.0548 16.7283 11.6485 17.1328L10.9575 17.8174C10.7566 18.0196 10.5177 18.1802 10.2547 18.2901C9.99162 18.4 9.70948 18.457 9.4244 18.4578C9.13932 18.4586 8.85687 18.4032 8.5932 18.2948C8.32953 18.1864 8.0898 18.0271 7.88772 17.826L7.87911 17.8174L7.18916 17.1274C6.78267 16.7232 6.23288 16.4961 5.65964 16.4956H4.67154C4.09668 16.4956 3.54528 16.2676 3.13829 15.8616C2.7313 15.4556 2.50194 14.9048 2.50051 14.33V13.3418C2.50028 12.7689 2.2731 12.2193 1.86869 11.8134L1.18412 11.1224C0.981545 10.9218 0.820485 10.6832 0.710143 10.4204C0.5998 10.1575 0.542338 9.87547 0.541038 9.59039C0.539739 9.3053 0.594628 9.02276 0.70257 8.75889C0.810511 8.49503 0.969389 8.25503 1.17012 8.05259L1.18412 8.04398L1.87407 7.35295C2.27861 6.94626 2.50576 6.39599 2.50589 5.82236V4.83641" stroke="#4695F1" stroke-miterlimit="10" stroke-linecap="round" stroke-linejoin="round"/>
<path d="M6.95117 12.0493L11.8852 7.11523" stroke="white" stroke-miterlimit="10" stroke-linecap="round" stroke-linejoin="round"/>
<path d="M11.8822 12.7725C11.7873 12.7719 11.6935 12.7527 11.6061 12.7157C11.5188 12.6788 11.4395 12.6249 11.3731 12.5572C11.3084 12.4884 11.2567 12.4086 11.2202 12.3215C11.1817 12.237 11.1619 12.1452 11.1621 12.0524C11.1617 11.9561 11.1815 11.8607 11.2202 11.7725C11.2578 11.6869 11.3111 11.6091 11.3774 11.5433C11.5151 11.4138 11.697 11.3418 11.886 11.3418C12.075 11.3418 12.2568 11.4138 12.3946 11.5433C12.4611 11.6094 12.5151 11.6871 12.5539 11.7725C12.5848 11.8626 12.6012 11.9571 12.6023 12.0524C12.6012 12.1441 12.5848 12.2351 12.5539 12.3215C12.5141 12.4106 12.4587 12.4919 12.3902 12.5615C12.3238 12.6292 12.2446 12.6831 12.1572 12.72C12.0698 12.757 11.976 12.7762 11.8811 12.7768" fill="white"/>
<path d="M6.94764 7.83772C6.85481 7.83791 6.76303 7.81809 6.67855 7.7796C6.59135 7.7429 6.5115 7.69076 6.44283 7.62568C6.37827 7.55433 6.32525 7.47335 6.28568 7.38565C6.24734 7.3015 6.22752 7.2101 6.22755 7.11763C6.2269 7.02094 6.24671 6.9252 6.28568 6.8367C6.32094 6.75017 6.37455 6.67231 6.44283 6.60851C6.58031 6.47862 6.76227 6.40625 6.95141 6.40625C7.14055 6.40625 7.32252 6.47862 7.45999 6.60851C7.52774 6.67494 7.58164 6.75414 7.61859 6.84152C7.65554 6.92891 7.67481 7.02276 7.67527 7.11763C7.67871 7.20977 7.66219 7.30157 7.62683 7.38672C7.58467 7.4745 7.52951 7.55542 7.46322 7.62675C7.3967 7.69169 7.31856 7.74354 7.23288 7.7796C7.14501 7.81815 7.05006 7.83794 6.9541 7.83772" fill="white"/>
</svg>
