<svg width="7" height="7" viewBox="0 0 7 7" fill="none" xmlns="http://www.w3.org/2000/svg">
<path d="M4.32171 3.4995L6.82762 0.999063C6.93736 0.88931 6.99901 0.740453 6.99901 0.585238C6.99901 0.430023 6.93736 0.281166 6.82762 0.171412C6.71788 0.0616588 6.56904 0 6.41385 0C6.25866 0 6.10982 0.0616588 6.00008 0.171412L3.5 2.67768L0.999916 0.171412C0.890178 0.0616588 0.741342 -1.15644e-09 0.586149 0C0.430957 1.15644e-09 0.28212 0.0616588 0.172382 0.171412C0.0626446 0.281166 0.000994557 0.430023 0.000994556 0.585238C0.000994554 0.740453 0.0626446 0.88931 0.172382 0.999063L2.67829 3.4995L0.172382 5.99994C0.11776 6.05413 0.0744057 6.11859 0.0448192 6.18962C0.0152327 6.26064 0 6.33682 0 6.41377C0 6.49071 0.0152327 6.56689 0.0448192 6.63792C0.0744057 6.70894 0.11776 6.77341 0.172382 6.82759C0.226558 6.88222 0.291013 6.92558 0.362029 6.95517C0.433045 6.98477 0.509217 7 0.586149 7C0.663082 7 0.739253 6.98477 0.810269 6.95517C0.881285 6.92558 0.94574 6.88222 0.999916 6.82759L3.5 4.32133L6.00008 6.82759C6.05426 6.88222 6.11872 6.92558 6.18973 6.95517C6.26075 6.98477 6.33692 7 6.41385 7C6.49078 7 6.56696 6.98477 6.63797 6.95517C6.70899 6.92558 6.77344 6.88222 6.82762 6.82759C6.88224 6.77341 6.9256 6.70894 6.95518 6.63792C6.98477 6.56689 7 6.49071 7 6.41377C7 6.33682 6.98477 6.26064 6.95518 6.18962C6.9256 6.11859 6.88224 6.05413 6.82762 5.99994L4.32171 3.4995Z" fill="#3492FF"/>
</svg>
