    <svg width="35" height="35" viewBox="0 0 35 35" fill="none" xmlns="http://www.w3.org/2000/svg">
                <g clip-path="url(#clip0)">
                    <path d="M32.6726 17.9533C32.5318 17.6652 32.5318 17.3348 32.6726 17.0467L33.978 14.3762C34.7048 12.8894 34.1289 11.1172 32.667 10.3415L30.0413 8.94834C29.758 8.79808 29.5638 8.53066 29.5084 8.21491L28.9949 5.28717C28.7089 3.65708 27.2011 2.56169 25.5627 2.7935L22.6197 3.2098C22.302 3.25465 21.9879 3.15252 21.7574 2.9296L19.6212 0.86297C18.4316 -0.287785 16.5682 -0.287854 15.3787 0.86297L13.2424 2.9298C13.0119 3.15279 12.6978 3.25471 12.3802 3.21001L9.43711 2.7937C7.7982 2.56176 6.29088 3.65728 6.00494 5.28737L5.49143 8.21498C5.43599 8.5308 5.24178 8.79815 4.95857 8.94847L2.3329 10.3416C0.870976 11.1172 0.29512 12.8896 1.02191 14.3765L2.32723 17.0468C2.46805 17.335 2.46805 17.6654 2.32723 17.9535L1.02184 20.6238C0.295052 22.1107 0.870908 23.8829 2.33283 24.6586L4.9585 26.0518C5.24178 26.202 5.43599 26.4694 5.49143 26.7852L6.00494 29.7129C6.26525 31.1969 7.53768 32.2376 9.00009 32.2374C9.14412 32.2374 9.29027 32.2273 9.43717 32.2065L12.3802 31.7902C12.6976 31.7452 13.0119 31.8475 13.2424 32.0704L15.3787 34.1371C15.9736 34.7125 16.7366 35.0002 17.4999 35.0001C18.263 35 19.0265 34.7124 19.6211 34.1371L21.7574 32.0704C21.9879 31.8475 22.3021 31.7457 22.6197 31.7902L25.5627 32.2065C27.2018 32.4384 28.7089 31.3429 28.9949 29.7129L29.5085 26.7852C29.5639 26.4694 29.7581 26.2021 30.0413 26.0518L32.667 24.6586C34.1289 23.883 34.7048 22.1107 33.978 20.6238L32.6726 17.9533ZM13.4626 8.41609C15.5032 8.41609 17.1634 10.0763 17.1634 12.117C17.1634 14.1576 15.5032 15.8179 13.4626 15.8179C11.4219 15.8179 9.76167 14.1576 9.76167 12.117C9.76167 10.0763 11.4219 8.41609 13.4626 8.41609ZM11.5523 24.8749C11.3553 25.072 11.0969 25.1705 10.8387 25.1705C10.5804 25.1705 10.322 25.072 10.125 24.8749C9.73085 24.4807 9.73085 23.8416 10.125 23.4475L23.4474 10.1251C23.8415 9.73091 24.4807 9.73091 24.8748 10.1251C25.269 10.5192 25.269 11.1583 24.8748 11.5525L11.5523 24.8749ZM21.5371 26.584C19.4965 26.584 17.8362 24.9238 17.8362 22.8831C17.8362 20.8425 19.4965 19.1822 21.5371 19.1822C23.5778 19.1822 25.238 20.8425 25.238 22.8831C25.238 24.9238 23.5778 26.584 21.5371 26.584Z" fill="#C4C4C4" />
                    <path d="M21.5372 21.2009C20.6097 21.2009 19.855 21.9555 19.855 22.8831C19.855 23.8107 20.6096 24.5653 21.5372 24.5653C22.4648 24.5653 23.2194 23.8107 23.2194 22.8831C23.2194 21.9555 22.4648 21.2009 21.5372 21.2009Z" fill="#C4C4C4" />
                    <path d="M13.4627 10.4347C12.5351 10.4347 11.7805 11.1893 11.7805 12.1169C11.7805 13.0445 12.5351 13.7991 13.4627 13.7991C14.3903 13.7991 15.1449 13.0445 15.1449 12.1169C15.1449 11.1894 14.3903 10.4347 13.4627 10.4347Z" fill="#C4C4C4" />
                </g>
                <defs>
                    <clipPath id="clip0">
                        <rect width="35" height="35" fill="white" />
                    </clipPath>
                </defs>
            </svg>