<svg width="34" height="34" viewBox="0 0 34 34" fill="none" xmlns="http://www.w3.org/2000/svg">
<path d="M10.3888 15.9375L9.44434 18.8653H11.3332L10.3888 15.9375Z" fill="#606EEA"/>
<path d="M28.6173 3.1875H13.5062V7.90972H17.284V9.79861H5.00619C3.40063 9.79861 2.17285 11.0264 2.17285 12.6319V23.0208C2.17285 24.6264 3.40063 25.8542 5.00619 25.8542H5.95063V30.6708L11.9006 25.8542H18.2284V19.2431H28.6173C30.2229 19.2431 31.4506 18.0153 31.4506 16.4097V6.02083C31.4506 4.41528 30.2229 3.1875 28.6173 3.1875ZM12.3729 21.9819L11.9006 20.4708H8.97285L8.40618 21.9819H6.13952L9.25618 13.5764H11.5229L14.6395 21.9819H12.3729ZM26.7284 14.5208V16.4097C25.5006 16.4097 24.1784 16.0319 23.0451 15.4653C21.9117 16.0319 20.5895 16.3153 19.2673 16.4097L19.1729 14.5208C19.834 14.5208 20.4951 14.4264 21.1562 14.2375C20.3062 13.3875 19.7395 12.3486 19.4562 11.2153H21.4395C21.7229 12.0653 22.2895 12.7264 22.9506 13.2931C23.9895 12.4431 24.6506 11.2153 24.7451 9.79861H19.0784V7.90972H21.9117V6.02083H23.8006V7.90972H26.9173L27.0117 8.85417C27.1062 10.8375 26.3506 12.8208 24.934 14.2375C25.5951 14.4264 26.1617 14.5208 26.7284 14.5208Z" fill="#606EEA"/>
</svg>
