<svg width="20" height="20" viewBox="0 0 20 20" fill="none" xmlns="http://www.w3.org/2000/svg">
<path d="M14 1.66663H11.8333C9.16667 1.66663 7.5 3.33329 7.5 5.99996V9.37496H12.7083C13.05 9.37496 13.3333 9.65829 13.3333 9.99996C13.3333 10.3416 13.05 10.625 12.7083 10.625H7.5V14C7.5 16.6666 9.16667 18.3333 11.8333 18.3333H13.9917C16.6583 18.3333 18.325 16.6666 18.325 14V5.99996C18.3333 3.33329 16.6667 1.66663 14 1.66663Z" fill="white"/>
<path d="M3.79922 9.37503L5.52422 7.65003C5.64922 7.52503 5.70755 7.3667 5.70755 7.20837C5.70755 7.05003 5.64922 6.88337 5.52422 6.7667C5.28255 6.52503 4.88255 6.52503 4.64089 6.7667L1.84922 9.55837C1.60755 9.80003 1.60755 10.2 1.84922 10.4417L4.64089 13.2334C4.88255 13.475 5.28255 13.475 5.52422 13.2334C5.76589 12.9917 5.76589 12.5917 5.52422 12.35L3.79922 10.625H7.49922V9.37503H3.79922Z" fill="white"/>
</svg>
