<svg width="121" height="19" viewBox="0 0 121 19" fill="none" xmlns="http://www.w3.org/2000/svg">
<path d="M0.809593 12.5456C0.558624 13.203 0.888138 13.9394 1.54558 14.1904L12.2593 18.2802C12.9167 18.5311 13.6531 18.2016 13.9041 17.5442C14.1551 16.8867 13.8255 16.1503 13.1681 15.8994L3.64483 12.264L7.28017 2.74074C7.53114 2.0833 7.20163 1.34688 6.54418 1.09591C5.88674 0.844944 5.15033 1.17446 4.89936 1.8319L0.809593 12.5456ZM120 13C120.557 11.8541 120.557 11.8539 120.556 11.8537C120.556 11.8535 120.555 11.8533 120.555 11.853C120.554 11.8524 120.552 11.8517 120.55 11.8508C120.547 11.849 120.542 11.8466 120.535 11.8435C120.522 11.8373 120.504 11.8285 120.48 11.8172C120.433 11.7946 120.363 11.7619 120.272 11.7199C120.09 11.6357 119.822 11.5139 119.47 11.36C118.766 11.052 117.727 10.6151 116.372 10.0924C113.662 9.0471 109.687 7.65815 104.602 6.27074C94.4327 3.49613 79.8149 0.725806 61.9833 0.725806V3.27419C79.5518 3.27419 93.9423 6.00387 103.931 8.72926C108.925 10.0918 112.818 11.4529 115.454 12.4701C116.773 12.9786 117.777 13.4011 118.448 13.6947C118.784 13.8415 119.036 13.9561 119.203 14.0331C119.286 14.0716 119.348 14.1006 119.388 14.1197C119.408 14.1292 119.423 14.1362 119.432 14.1406C119.436 14.1428 119.439 14.1443 119.441 14.1452C119.442 14.1456 119.443 14.1459 119.443 14.146C119.443 14.1461 119.443 14.146 119.443 14.1461C119.443 14.146 119.443 14.1459 120 13ZM61.9833 0.725806C44.1533 0.725806 29.0481 3.49569 18.3959 6.26685C13.0688 7.65269 8.85225 9.03967 5.96178 10.0827C4.51643 10.6043 3.40234 11.0399 2.64641 11.3466C2.26843 11.5 1.97997 11.6211 1.78439 11.7046C1.68659 11.7464 1.61201 11.7787 1.56107 11.801C1.53561 11.8121 1.51604 11.8208 1.50244 11.8268C1.49564 11.8298 1.49033 11.8321 1.48652 11.8338C1.48461 11.8347 1.48308 11.8354 1.48193 11.8359C1.48135 11.8361 1.48076 11.8364 1.48047 11.8365C1.47997 11.8368 1.47958 11.8369 2 13C2.52042 14.1631 2.52021 14.1632 2.5201 14.1632C2.52018 14.1632 2.52016 14.1632 2.52032 14.1631C2.52067 14.163 2.52139 14.1626 2.52247 14.1622C2.52464 14.1612 2.52831 14.1596 2.53346 14.1573C2.54376 14.1527 2.56001 14.1456 2.58213 14.1359C2.62637 14.1165 2.69416 14.0871 2.78506 14.0483C2.96687 13.9707 3.24113 13.8555 3.6045 13.7081C4.33125 13.4132 5.4143 12.9895 6.82677 12.4798C9.65192 11.4603 13.7937 10.0973 19.0375 8.73315C29.5269 6.00431 44.4134 3.27419 61.9833 3.27419V0.725806Z" fill="#223367"/>
</svg>
