<svg width="308" height="345" viewBox="0 0 308 345" fill="none" xmlns="http://www.w3.org/2000/svg">
<path d="M154.858 179.684H160.285V232.523H213.064V237.951H154.858V179.684Z" fill="url(#paint0_linear_1761:7691)"/>
<g filter="url(#filter0_d_1761:7691)">
<path d="M292 4H16V273.161H292V4Z" fill="white"/>
</g>
<path d="M202.721 32.4382H179.763C178.975 32.4382 178.372 31.7888 178.372 31.0465V26.0363C178.372 25.2476 179.021 24.6445 179.763 24.6445H202.721C203.509 24.6445 204.112 25.294 204.112 26.0363V31.0001C204.159 31.7888 203.509 32.4382 202.721 32.4382Z" fill="#72ACFB"/>
<path d="M202.721 51.0422H179.763C178.975 51.0422 178.372 50.3928 178.372 49.6505V44.6867C178.372 43.898 179.021 43.2949 179.763 43.2949H202.721C203.509 43.2949 204.112 43.9444 204.112 44.6867V49.6505C204.159 50.4391 203.509 51.0422 202.721 51.0422Z" fill="#DEDEDE"/>
<path d="M202.721 69.6907H179.763C178.975 69.6907 178.372 69.0412 178.372 68.2989V63.3351C178.372 62.5464 179.021 61.9434 179.763 61.9434H202.721C203.509 61.9434 204.112 62.5928 204.112 63.3351V68.2989C204.159 69.0412 203.509 69.6907 202.721 69.6907Z" fill="#DEDEDE"/>
<path d="M202.721 88.2922H179.763C178.975 88.2922 178.372 87.6427 178.372 86.9005V81.9367C178.372 81.148 179.021 80.5449 179.763 80.5449H202.721C203.509 80.5449 204.112 81.1944 204.112 81.9367V86.9005C204.159 87.6891 203.509 88.2922 202.721 88.2922Z" fill="#DEDEDE"/>
<path d="M202.721 106.943H179.763C178.975 106.943 178.372 106.293 178.372 105.551V100.587C178.372 99.7984 179.021 99.1953 179.763 99.1953H202.721C203.509 99.1953 204.112 99.8448 204.112 100.587V105.551C204.159 106.293 203.509 106.943 202.721 106.943Z" fill="#DEDEDE"/>
<path d="M202.721 125.591H179.763C178.975 125.591 178.372 124.942 178.372 124.199V119.235C178.372 118.447 179.021 117.844 179.763 117.844H202.721C203.509 117.844 204.112 118.493 204.112 119.235V124.153C204.159 124.942 203.509 125.591 202.721 125.591Z" fill="#DEDEDE"/>
<path d="M261.158 32.4382H216.032C215.336 32.4382 214.779 31.8815 214.779 31.1857V25.8971C214.779 25.2012 215.336 24.6445 216.032 24.6445H261.158C261.854 24.6445 262.41 25.2012 262.41 25.8971V31.1393C262.41 31.8351 261.854 32.4382 261.158 32.4382Z" fill="#72ACFB"/>
<path d="M261.158 51.0422H216.032C215.336 51.0422 214.779 50.4855 214.779 49.7897V44.5475C214.779 43.8516 215.336 43.2949 216.032 43.2949H261.158C261.854 43.2949 262.41 43.8516 262.41 44.5475V49.7897C262.41 50.4855 261.854 51.0422 261.158 51.0422Z" fill="#DEDEDE"/>
<path d="M261.158 69.6907H216.032C215.336 69.6907 214.779 69.134 214.779 68.4381V63.1959C214.779 62.5 215.336 61.9434 216.032 61.9434H261.158C261.854 61.9434 262.41 62.5 262.41 63.1959V68.4381C262.41 69.134 261.854 69.6907 261.158 69.6907Z" fill="#DEDEDE"/>
<path d="M261.158 88.2922H216.032C215.336 88.2922 214.779 87.7355 214.779 87.0397V81.7975C214.779 81.1016 215.336 80.5449 216.032 80.5449H261.158C261.854 80.5449 262.41 81.1016 262.41 81.7975V87.0397C262.41 87.7355 261.854 88.2922 261.158 88.2922Z" fill="#DEDEDE"/>
<path d="M261.158 106.943H216.032C215.336 106.943 214.779 106.386 214.779 105.69V100.448C214.779 99.752 215.336 99.1953 216.032 99.1953H261.158C261.854 99.1953 262.41 99.752 262.41 100.448V105.69C262.41 106.386 261.854 106.943 261.158 106.943Z" fill="#DEDEDE"/>
<path d="M261.158 125.591H216.032C215.336 125.591 214.779 125.034 214.779 124.338V119.049C214.779 118.354 215.336 117.797 216.032 117.797H261.158C261.854 117.797 262.41 118.354 262.41 119.049V124.292C262.41 124.987 261.854 125.591 261.158 125.591Z" fill="#DEDEDE"/>
<path d="M29.3567 254.325L27.8262 252.701L67.6655 215.078L108.015 223.8L146.556 179.867L180.134 181.769L206.338 145.631L208.147 146.976L181.247 184.089L147.53 182.141L108.85 226.305L68.3612 217.491L29.3567 254.325Z" fill="#72ACFB"/>
<path d="M114.277 223.8C114.972 227.048 112.932 230.202 109.685 230.945C106.439 231.64 103.285 229.599 102.589 226.352C101.893 223.104 103.934 219.95 107.181 219.254C110.381 218.512 113.581 220.553 114.277 223.8Z" fill="white"/>
<path d="M109.916 232.01C106.067 232.845 102.31 230.387 101.475 226.583C100.641 222.732 103.099 218.975 106.902 218.14C110.751 217.305 114.508 219.763 115.343 223.567C116.178 227.371 113.766 231.175 109.916 232.01ZM107.412 220.274C104.768 220.83 103.099 223.428 103.702 226.072C104.258 228.717 106.855 230.387 109.499 229.784C112.143 229.227 113.812 226.629 113.209 223.985C112.606 221.387 110.009 219.717 107.412 220.274Z" fill="#72ACFB"/>
<path d="M152.863 180.098C153.559 183.346 151.518 186.5 148.272 187.243C145.025 187.939 141.872 185.897 141.176 182.65C140.48 179.403 142.521 176.248 145.768 175.552C148.968 174.856 152.168 176.897 152.863 180.098Z" fill="white"/>
<path d="M148.503 188.356C144.654 189.191 140.897 186.733 140.062 182.928C139.228 179.078 141.686 175.32 145.489 174.485C149.338 173.65 153.095 176.109 153.93 179.913C154.811 183.717 152.353 187.521 148.503 188.356ZM145.999 176.619C143.355 177.176 141.686 179.774 142.289 182.418C142.845 185.016 145.442 186.732 148.086 186.129C150.729 185.573 152.399 182.975 151.796 180.331C151.193 177.733 148.596 176.063 145.999 176.619Z" fill="#72ACFB"/>
<path d="M186.21 181.445C186.905 184.693 184.865 187.847 181.618 188.543C178.372 189.239 175.218 187.198 174.476 183.95C173.78 180.703 175.821 177.549 179.067 176.853C182.36 176.157 185.514 178.244 186.21 181.445Z" fill="white"/>
<path d="M181.897 189.655C178.047 190.49 174.291 188.031 173.456 184.227C172.621 180.377 175.079 176.619 178.882 175.784C182.732 174.949 186.488 177.408 187.323 181.212C188.158 185.062 185.7 188.866 181.897 189.655ZM179.346 177.964C176.702 178.521 175.033 181.119 175.636 183.763C176.192 186.361 178.789 188.078 181.433 187.475C184.077 186.918 185.746 184.32 185.143 181.676C184.54 179.078 181.943 177.408 179.346 177.964Z" fill="#72ACFB"/>
<path d="M73.8337 215.588C74.5293 218.835 72.4887 221.99 69.2422 222.732C65.9957 223.428 62.8419 221.387 62.0998 218.14C61.4042 214.892 63.4448 211.738 66.6913 210.995C69.9379 210.3 73.138 212.341 73.8337 215.588Z" fill="white"/>
<path d="M69.474 223.8C65.6246 224.635 61.8679 222.176 61.0331 218.372C60.1982 214.521 62.6563 210.764 66.4594 209.929C70.3088 209.094 74.0655 211.552 74.9003 215.356C75.7815 219.16 73.3234 222.965 69.474 223.8ZM66.9695 212.109C64.326 212.666 62.6563 215.264 63.2592 217.908C63.8158 220.552 66.413 222.222 69.0566 221.619C71.7002 221.062 73.3698 218.465 72.7669 215.82C72.164 213.176 69.5668 211.506 66.9695 212.109Z" fill="#72ACFB"/>
<path d="M86.5422 239.109H62.0078V243.841H86.5422V239.109Z" fill="#DEDEDE"/>
<path d="M103.563 190.631H79.0283V195.363H103.563V190.631Z" fill="#DEDEDE"/>
<path d="M154.441 224.402H129.906V229.134H154.441V224.402Z" fill="#DEDEDE"/>
<path d="M176.424 158.109H151.89V162.841H176.424V158.109Z" fill="#DEDEDE"/>
<path d="M211.996 197.635H187.462V202.367H211.996V197.635Z" fill="#DEDEDE"/>
<path d="M217.701 225.75H211.022V252.703H217.701V225.75Z" fill="#ECB85C"/>
<path d="M229.435 217.027H222.757V252.702H229.435V217.027Z" fill="#90C0FC"/>
<path d="M241.169 207.471H234.49V252.656H241.169V207.471Z" fill="#ECB85C"/>
<path d="M253.506 212.436H246.827V252.657H253.506V212.436Z" fill="#90C0FC"/>
<path d="M266.167 200.883H259.488V252.702H266.167V200.883Z" fill="#ECB85C"/>
<path d="M162.696 24.6445H162.047V129.024H162.696V24.6445Z" fill="#DEDEDE"/>
<path d="M143.913 24.6445H143.264V129.024H143.913V24.6445Z" fill="#DEDEDE"/>
<path d="M125.13 24.6445H124.48V129.024H125.13V24.6445Z" fill="#DEDEDE"/>
<path d="M106.346 24.6445H105.696V129.024H106.346V24.6445Z" fill="#DEDEDE"/>
<path d="M87.5624 24.6445H86.9131V129.024H87.5624V24.6445Z" fill="#DEDEDE"/>
<path d="M68.7333 24.6445H68.084V129.024H68.7333V24.6445Z" fill="#DEDEDE"/>
<path d="M49.9491 24.6445H49.2998V129.024H49.9491V24.6445Z" fill="#DEDEDE"/>
<path d="M31.1659 24.6445H30.5166V129.024H31.1659V24.6445Z" fill="#DEDEDE"/>
<path d="M30.8418 129.024V105.503H35.9435L43.7815 95.6685L49.6716 103.091L63.7707 85.3233L68.0839 90.7975L82.415 72.7978L90.6704 83.1894H101.013L116.132 64.2154H129.118L138.719 52.1074H150.499L162.372 37.123V129.024H30.8418Z" fill="#90C0FC"/>
<path d="M30.8418 129.024L46.2859 112.463H55.7936L77.0814 89.6383L90.2994 103.834H100.224L105.512 109.494L121.42 92.4681H129.304L162.372 57.0254V129.024H30.8418Z" fill="#4E85DE"/>
<path d="M138.857 140.854L163.716 154.539L188.668 115.246L158.476 104.762L138.857 140.854Z" fill="#2E3048"/>
<path d="M140.435 139.695L163.67 152.452L187.045 115.71L158.801 105.922L140.435 139.695Z" fill="#DCD0C8"/>
<path d="M131.9 132.828C131.9 132.828 136.214 130.74 138.115 129.673C140.017 128.606 144.886 127.121 145.304 126.75C145.721 126.379 159.774 125.544 160.655 124.802C161.49 124.06 162.325 126.518 158.707 127.353C155.043 128.142 149.988 130.09 149.71 131.529C149.432 132.967 153.466 133.291 153.884 134.451C154.301 135.611 153.791 135.379 153.188 135.611C152.632 135.843 148.411 133.523 146.556 134.173C144.701 134.822 141.872 133.941 140.434 134.405C138.996 134.869 132.086 137.235 132.086 137.235L131.9 132.828Z" fill="#DBA585"/>
<path d="M164.922 149.622C164.922 149.622 168.54 146.329 170.302 144.983C172.064 143.638 175.357 139.602 175.868 139.37C176.331 139.138 182.639 126.195 183.706 125.685C184.726 125.174 182.732 123.412 180.552 126.566C178.372 129.674 174.569 133.71 173.085 133.432C171.647 133.154 172.899 129.21 171.925 128.375C170.998 127.54 171.044 128.143 170.58 128.561C170.117 129.025 170.673 133.896 169.328 135.38C167.983 136.865 167.751 139.88 166.731 141.04C165.711 142.2 160.841 147.813 160.841 147.813L164.922 149.622Z" fill="#DBA585"/>
<path d="M86.6344 324.517C86.6344 324.517 85.846 329.991 85.7532 330.78C85.6605 331.615 76.9877 330.316 76.9877 330.316L76.292 323.821C76.292 323.821 85.5677 323.774 86.6344 324.517Z" fill="#454971"/>
<path d="M85.8464 330.129C85.8464 330.129 88.5828 333.423 91.2264 334.861C93.8699 336.299 98.044 336.856 99.6209 338.341C100.734 339.408 103.749 344.047 92.7105 343.954C81.7187 343.861 76.3852 344.604 75.2257 342.841C74.0662 341.078 76.9417 329.805 76.9417 329.805C76.9417 329.805 79.5389 330.686 85.8464 330.129Z" fill="#2E3048"/>
<path d="M148.597 324.517C148.597 324.517 147.809 329.991 147.716 330.78C147.623 331.615 138.951 330.316 138.951 330.316L138.255 323.821C138.255 323.821 147.531 323.774 148.597 324.517Z" fill="#454971"/>
<path d="M147.808 330.129C147.808 330.129 150.545 333.423 153.188 334.861C155.832 336.299 165.571 337.459 167.148 338.943C168.261 340.01 170.163 344.325 154.672 343.907C143.681 343.629 138.347 344.557 137.188 342.794C136.028 341.031 138.904 329.758 138.904 329.758C138.904 329.758 141.362 330.732 147.808 330.129Z" fill="#2E3048"/>
<path d="M93.7772 184.229C93.7772 184.229 85.6609 197.125 86.2639 208.816C86.8668 220.506 83.2956 233.217 82.0898 245.418C80.7448 259.011 75.1793 291.206 74.9474 298.49C74.7619 305.773 75.8286 328.969 75.8286 328.969L86.9595 329.247C86.9595 329.247 96.3281 272.975 98.7398 267.222C101.151 261.47 113.21 220.553 113.581 215.96C114.045 211.367 93.7772 184.229 93.7772 184.229Z" fill="#2E3048"/>
<path d="M136.584 185.992C136.584 185.992 142.706 218.002 143.541 225.146C144.33 232.29 144.886 259.707 145.304 264.207C145.721 268.661 147.994 322.66 150.173 329.294H135.935C135.935 329.294 124.99 290.047 124.99 271.491C124.99 252.934 116.549 231.13 111.076 218.883C105.603 206.636 93.1275 206.358 89.7882 183.626C89.6955 183.58 132.039 178.801 136.584 185.992Z" fill="#2E3048"/>
<path d="M107.366 75.6284C107.366 75.6284 118.265 71.546 123.32 79.85C128.329 88.154 127.865 104.808 122.346 106.85C116.827 108.891 108.572 107.824 105.789 102.628C103.006 97.4322 100.456 89.9169 100.548 84.9066C100.641 79.8964 104.491 77.1129 107.366 75.6284Z" fill="#DBA585"/>
<path d="M121.14 107.219C121.14 107.219 120.676 110.142 121.418 111.626C122.161 113.064 107.273 113.111 107.273 113.111C107.273 113.111 106.067 105.224 103.795 98.5438C101.522 91.9099 121.14 107.219 121.14 107.219Z" fill="#DBA585"/>
<path d="M103.841 98.5448C103.841 98.5448 104.861 100.215 109.082 99.5654C113.256 98.916 118.404 93.349 120.12 92.6996C121.882 92.0965 121.882 91.0759 121.882 91.0759L122.995 92.6996L124.851 92.8387C124.851 92.8387 123.135 87.8285 125.732 85.7873C128.283 83.7461 123.088 69.6432 109.638 74.3287C109.638 74.3287 99.2959 77.1586 99.667 83.0502C99.9916 88.9419 101.522 95.6222 103.841 98.5448Z" fill="#3E4148"/>
<path d="M122.346 111.442C122.346 111.442 122.3 108.659 121.048 108.427C119.795 108.149 107.18 106.943 105.65 107.546V110.793C105.604 110.793 108.572 112.602 122.346 111.442Z" fill="#DCD0C8"/>
<path d="M121.605 88.9887C121.373 88.0145 118.869 85.1846 117.895 88.2C116.921 91.2154 119.332 95.2515 120.677 94.9267C122.022 94.5556 122.208 91.4474 121.605 88.9887Z" fill="#DBA585"/>
<path d="M84.6402 214.987C84.6402 214.987 91.3187 216.936 102.728 218.235C114.137 219.487 142.66 217.771 142.799 216.425C142.985 215.08 136.677 166.23 137.048 163.725C137.419 161.22 137.605 152.267 137.605 152.267C137.744 154.725 140.248 164.746 143.263 170.22C144.376 172.215 147.994 178.385 149.756 176.993C158.29 170.174 171.508 144.473 172.342 144.241C171.647 143.916 166.081 141.365 165.293 141.133C164.597 140.901 158.429 147.442 154.718 151.478C153.049 153.287 151.889 154.586 151.889 154.586C150.823 152.174 146.88 136.865 145.675 131.576C142.938 119.654 143.356 119.143 143.356 119.143C135.008 116.638 122.346 111.489 122.346 111.489L105.65 110.793C105.65 110.793 90.2984 114.18 84.2692 116.917C83.7126 117.195 83.7126 130.602 82.1357 134.128L87.1446 144.705C87.1446 144.705 90.0201 165.627 90.623 174.952C90.8549 179.173 84.6402 214.987 84.6402 214.987Z" fill="#363957"/>
<path d="M81.3945 151.523C81.8119 152.914 83.8062 154.121 85.1048 154.631C85.9396 154.956 86.8672 155.095 87.7948 154.909L88.4441 154.77L99.8996 152.636C99.8996 152.636 102.404 123.781 84.27 116.822C83.7598 117.054 77.4059 138.626 81.3945 151.523Z" fill="#363957"/>
<path d="M85.1045 154.633C85.9393 154.957 86.8669 155.097 87.7945 154.911L88.4437 154.772L87.3307 140.02L85.1045 154.633Z" fill="#2A2C41"/>
<path d="M151.89 154.54L153.281 160.478C153.281 160.478 154.812 154.54 154.719 151.432C153.095 153.241 151.89 154.54 151.89 154.54Z" fill="#2A2C41"/>
<path d="M104.259 76.6482C104.259 76.6482 89.9742 74.9781 104.027 98.8695L104.259 76.6482Z" fill="#3E4148"/>
<path d="M177.166 113.11L178.65 110.605L167.195 106.662L165.757 109.167L177.166 113.11Z" fill="#2E3048"/>
<defs>
<filter id="filter0_d_1761:7691" x="0" y="0" width="308" height="301.16" filterUnits="userSpaceOnUse" color-interpolation-filters="sRGB">
<feFlood flood-opacity="0" result="BackgroundImageFix"/>
<feColorMatrix in="SourceAlpha" type="matrix" values="0 0 0 0 0 0 0 0 0 0 0 0 0 0 0 0 0 0 127 0" result="hardAlpha"/>
<feOffset dy="12"/>
<feGaussianBlur stdDeviation="8"/>
<feColorMatrix type="matrix" values="0 0 0 0 0 0 0 0 0 0 0 0 0 0 0 0 0 0 0.12 0"/>
<feBlend mode="normal" in2="BackgroundImageFix" result="effect1_dropShadow_1761:7691"/>
<feBlend mode="normal" in="SourceGraphic" in2="effect1_dropShadow_1761:7691" result="shape"/>
</filter>
<linearGradient id="paint0_linear_1761:7691" x1="183.959" y1="179.705" x2="183.959" y2="237.942" gradientUnits="userSpaceOnUse">
<stop stop-color="#E79D5A"/>
<stop offset="1" stop-color="#F2D05F"/>
</linearGradient>
</defs>
</svg>
