<svg width="13" height="14" viewBox="0 0 13 14" fill="none" xmlns="http://www.w3.org/2000/svg">
<path d="M0.791016 2.66406C0.791016 1.87305 1.04883 1.23437 1.56445 0.748047C2.08008 0.261719 2.77148 0.0185547 3.63867 0.0185547C4.51758 0.0185547 5.21191 0.261719 5.72168 0.748047C6.23145 1.22852 6.48633 1.88184 6.48633 2.70801V3.34082C6.48633 4.13184 6.23145 4.76758 5.72168 5.24805C5.21191 5.72852 4.52344 5.96875 3.65625 5.96875C2.79492 5.96875 2.10059 5.73145 1.57324 5.25684C1.05176 4.77637 0.791016 4.12012 0.791016 3.28809V2.66406ZM2.69824 3.34082C2.69824 3.64551 2.7832 3.89453 2.95312 4.08789C3.12305 4.27539 3.35742 4.36914 3.65625 4.36914C4.27148 4.36914 4.5791 3.97656 4.5791 3.19141V2.66406C4.5791 2.35937 4.49707 2.11035 4.33301 1.91699C4.16895 1.71777 3.9375 1.61816 3.63867 1.61816C3.35156 1.61816 3.12305 1.71484 2.95312 1.9082C2.7832 2.0957 2.69824 2.35352 2.69824 2.68164V3.34082ZM6.87305 9.8623C6.87305 9.06543 7.13086 8.42676 7.64648 7.94629C8.16797 7.46582 8.85938 7.22559 9.7207 7.22559C10.5938 7.22559 11.2881 7.46289 11.8037 7.9375C12.3193 8.41211 12.5771 9.07422 12.5771 9.92383V10.5391C12.5771 11.3359 12.3223 11.9746 11.8125 12.4551C11.3027 12.9355 10.6113 13.1758 9.73828 13.1758C8.87695 13.1758 8.18262 12.9385 7.65527 12.4639C7.13379 11.9834 6.87305 11.3271 6.87305 10.4951V9.8623ZM8.77148 10.5391C8.77148 10.8145 8.86523 11.0576 9.05273 11.2686C9.24023 11.4736 9.46875 11.5762 9.73828 11.5762C10.3066 11.5762 10.6143 11.3066 10.6611 10.7676L10.6699 9.8623C10.6699 9.55176 10.585 9.30273 10.415 9.11523C10.2451 8.92188 10.0137 8.8252 9.7207 8.8252C9.43945 8.8252 9.21387 8.91602 9.04395 9.09766C8.87402 9.27344 8.7832 9.51367 8.77148 9.81836V10.5391ZM4.21875 12.042L2.83887 11.3477L9.08789 1.3457L10.4678 2.04004L4.21875 12.042Z" fill="#C7C7C7"/>
</svg>
