<svg width="11" height="11" viewBox="0 0 11 11" fill="none" xmlns="http://www.w3.org/2000/svg">
<path d="M6.08121 4.91861L6.08508 1.37859C6.08507 1.22339 6.0234 1.07453 5.91365 0.964782C5.8039 0.855028 5.65505 0.793363 5.49984 0.793352C5.34464 0.793341 5.1958 0.854985 5.08606 0.964723C4.97632 1.07446 4.91468 1.2233 4.91469 1.37851L4.91906 4.91853L1.37904 4.91416C1.22383 4.91415 1.07499 4.97579 0.965251 5.08553C0.855514 5.19527 0.79387 5.34411 0.793881 5.49931C0.793892 5.65452 0.855557 5.80337 0.96531 5.91312C1.07506 6.02288 1.22391 6.08454 1.37912 6.08455L4.91914 6.08068L4.91527 9.62071C4.91496 9.69764 4.92989 9.77388 4.95919 9.84503C4.98849 9.91617 5.03159 9.98081 5.086 10.0352C5.14041 10.0896 5.20505 10.1327 5.27619 10.162C5.34733 10.1913 5.42357 10.2063 5.50051 10.2059C5.57745 10.2063 5.65369 10.1913 5.72483 10.1621C5.79597 10.1328 5.8606 10.0897 5.915 10.0353C5.9694 9.98088 6.01249 9.91624 6.04178 9.8451C6.07107 9.77396 6.08599 9.69773 6.08567 9.62079L6.08129 6.08076L9.62132 6.08514C9.69826 6.08546 9.77449 6.07054 9.84563 6.04125C9.91677 6.01196 9.98141 5.96887 10.0358 5.91447C10.0902 5.86007 10.1333 5.79544 10.1626 5.7243C10.1919 5.65316 10.2068 5.57692 10.2065 5.49998C10.2068 5.42304 10.1919 5.3468 10.1626 5.27566C10.1333 5.20452 10.0902 5.13988 10.0357 5.08547C9.98134 5.03106 9.9167 4.98797 9.84556 4.95866C9.77441 4.92936 9.69817 4.91444 9.62124 4.91475L6.08121 4.91861Z" fill="#606EEA"/>
</svg>
