<svg width="19" height="19" viewBox="0 0 19 19" fill="none" xmlns="http://www.w3.org/2000/svg">
<path d="M9.49079 1.0057e-05C7.61226 0.00183166 5.77644 0.560544 4.21539 1.60552C2.65433 2.6505 1.43813 4.13484 0.720507 5.87089C0.0028875 7.60695 -0.183931 9.51679 0.183669 11.359C0.551268 13.2012 1.45678 14.8931 2.78575 16.2208C4.11471 17.5484 5.80746 18.4523 7.65003 18.8181C9.4926 19.1839 11.4023 18.9953 13.1376 18.276C14.873 17.5567 16.3561 16.339 17.3996 14.777C18.4431 13.2149 19 11.3785 19 9.50001C19.0006 8.2515 18.755 7.01513 18.2772 5.86167C17.7994 4.7082 17.0989 3.66028 16.2156 2.77788C15.3324 1.89548 14.2838 1.19594 13.1298 0.719273C11.9759 0.24261 10.7393 -0.00180698 9.49079 1.0057e-05ZM13.5211 15.2L9.50231 12.7818L5.48122 15.2L6.54522 10.6308L3.002 7.56201L7.676 7.16243L9.5 2.85001L11.324 7.15322L15.998 7.55164L12.4548 10.6204L13.5188 15.2H13.5211Z" fill="#FFDD00"/>
</svg>
