<svg width="15" height="15" viewBox="0 0 15 15" fill="none" xmlns="http://www.w3.org/2000/svg">
<path d="M7.5 15C11.6421 15 15 11.6421 15 7.5C15 3.35786 11.6421 0 7.5 0C3.35786 0 0 3.35786 0 7.5C0 11.6421 3.35786 15 7.5 15Z" fill="white"/>
<path d="M7.50042 14.4637C11.3467 14.4637 14.4647 11.3457 14.4647 7.49944C14.4647 3.65317 11.3467 0.535156 7.50042 0.535156C3.65415 0.535156 0.536133 3.65317 0.536133 7.49944C0.536133 11.3457 3.65415 14.4637 7.50042 14.4637Z" stroke="#929292"/>
<path d="M7.40753 4.24083C7.08688 4.22207 6.76569 4.26714 6.46259 4.37345C6.15949 4.47976 5.88051 4.64518 5.64182 4.86012C5.32924 5.1885 5.13443 5.61129 5.08789 6.06226L6.02646 6.1844C6.05301 5.94464 6.15506 5.71952 6.31789 5.54154C6.46334 5.4072 6.63576 5.30541 6.82366 5.24296C7.01155 5.18052 7.2106 5.15885 7.40753 5.1794C7.81595 5.14102 8.22408 5.25556 8.55289 5.50083C8.63978 5.57817 8.7084 5.67385 8.75379 5.78095C8.79919 5.88805 8.82023 6.00389 8.81539 6.12012C8.81539 6.89904 8.49396 7.11547 8.02682 7.52904C7.69516 7.7736 7.42439 8.09137 7.23559 8.45764C7.04678 8.82392 6.94503 9.22881 6.93825 9.64083V9.87547H7.8736V9.64083C7.86148 9.3592 7.9258 9.07954 8.05972 8.83149C8.19365 8.58345 8.3922 8.37626 8.63432 8.2319C8.97128 7.98987 9.24775 7.67325 9.44215 7.30674C9.63655 6.94023 9.74363 6.53376 9.75503 6.11904C9.75823 5.87215 9.71072 5.62723 9.61544 5.39944C9.52015 5.17166 9.37914 4.96585 9.2011 4.79476C8.69332 4.39277 8.05357 4.19519 7.40753 4.24083ZM6.93825 10.814V11.7526H7.8736V10.814H6.93825Z" fill="#929292"/>
</svg>
