<svg width="43" height="44" viewBox="0 0 43 44" fill="none" xmlns="http://www.w3.org/2000/svg">
<path d="M29.2009 16.4657C29.2009 18.5778 28.3618 20.6034 26.8683 22.0969C25.3749 23.5903 23.3493 24.4294 21.2371 24.4294C19.125 24.4294 17.0994 23.5903 15.606 22.0969C14.1125 20.6034 13.2734 18.5778 13.2734 16.4657C13.2734 14.3536 14.1125 12.328 15.606 10.8345C17.0994 9.34098 19.125 8.50195 21.2371 8.50195C23.3493 8.50195 25.3749 9.34098 26.8683 10.8345C28.3618 12.328 29.2009 14.3536 29.2009 16.4657Z" fill="#606EEA"/>
<path fill-rule="evenodd" clip-rule="evenodd" d="M0 21.7756C0 16.1433 2.23742 10.7417 6.22004 6.75911C10.2027 2.77648 15.6043 0.539063 21.2366 0.539062C26.8688 0.539063 32.2704 2.77648 36.2531 6.75911C40.2357 10.7417 42.4731 16.1433 42.4731 21.7756C42.4731 27.4079 40.2357 32.8095 36.2531 36.7921C32.2704 40.7748 26.8688 43.0122 21.2366 43.0122C15.6043 43.0122 10.2027 40.7748 6.22004 36.7921C2.23742 32.8095 0 27.4079 0 21.7756ZM21.2366 3.19363C17.7372 3.19382 14.3091 4.1821 11.3467 6.04471C8.3843 7.90733 6.00804 10.5686 4.49144 13.7222C2.97483 16.8758 2.37952 20.3935 2.77402 23.8705C3.16852 27.3475 4.5368 30.6424 6.72137 33.3761C8.60612 30.3393 12.7552 27.0848 21.2366 27.0848C29.7179 27.0848 33.8643 30.3366 35.7517 33.3761C37.9363 30.6424 39.3046 27.3475 39.6991 23.8705C40.0936 20.3935 39.4983 16.8758 37.9817 13.7222C36.4651 10.5686 34.0888 7.90733 31.1264 6.04471C28.164 4.1821 24.7359 3.19382 21.2366 3.19363Z" fill="#606EEA"/>
</svg>
