<svg width="18" height="18" viewBox="0 0 18 18" fill="none" xmlns="http://www.w3.org/2000/svg">
<g clip-path="url(#clip0_2314_26046)">
<path d="M17.7776 0.972552C17.6293 0.824293 17.4535 0.749917 17.2503 0.749917C17.0472 0.749917 16.8716 0.824293 16.723 0.972552L15.1996 2.4845C14.3637 1.69534 13.4065 1.08387 12.3285 0.650379C11.2505 0.216847 10.1408 0.00012207 9.00016 0.00012207C6.85163 0.00012207 4.97671 0.65042 3.37508 1.9513C1.77341 3.25202 0.718764 4.94913 0.210938 7.04303V7.125C0.210938 7.22655 0.248002 7.31451 0.322255 7.38864C0.396508 7.46289 0.484348 7.49996 0.585896 7.49996H2.91791C3.08985 7.49996 3.20696 7.41007 3.26951 7.23049C3.59759 6.44929 3.80455 5.99228 3.89058 5.85941C4.4374 4.96879 5.16397 4.26952 6.07027 3.7617C6.97666 3.25391 7.95319 2.99992 9 2.99992C10.5705 2.99992 11.9337 3.53512 13.0901 4.60545L11.4726 6.22255C11.3245 6.37102 11.2501 6.5469 11.2501 6.75004C11.2501 6.95314 11.3245 7.12894 11.4726 7.27736C11.6212 7.42583 11.7971 7.5 12.0002 7.5H17.2503C17.4534 7.5 17.6293 7.42583 17.7776 7.27736C17.926 7.12894 18.0001 6.95318 18.0001 6.75004V1.49992C18.0001 1.29678 17.9264 1.12106 17.7776 0.972552Z" fill="#606EEA"/>
<path d="M17.332 10.5001H15.082C14.9101 10.5001 14.7929 10.5899 14.7305 10.7696C14.4026 11.5509 14.1954 12.0077 14.1095 12.1406C13.5626 13.031 12.8359 13.7305 11.9299 14.2383C11.0235 14.7462 10.0469 15 9.00008 15C8.24232 15 7.51178 14.8595 6.80874 14.5783C6.10561 14.2968 5.47662 13.8983 4.922 13.3826L6.52753 11.7772C6.67591 11.6289 6.75016 11.4529 6.75016 11.2499C6.75016 11.0468 6.67591 10.8708 6.52753 10.7226C6.37906 10.574 6.20334 10.4996 6.0002 10.4996H0.750082C0.54682 10.4996 0.371018 10.574 0.222595 10.7226C0.0741709 10.8708 0 11.0468 0 11.2499V16.5C0 16.703 0.0741708 16.879 0.222636 17.0274C0.371183 17.1755 0.546984 17.2502 0.750123 17.2502C0.953221 17.2502 1.12894 17.1756 1.27745 17.0274L2.78914 15.5155C3.62514 16.3122 4.57639 16.9256 5.64281 17.3553C6.70924 17.7852 7.81277 17.9998 8.95333 17.9998C11.0941 17.9998 12.9612 17.3494 14.555 16.0487C16.1487 14.748 17.1956 13.0506 17.6958 10.9569C17.7037 10.9413 17.7074 10.9139 17.7074 10.875C17.7074 10.7733 17.6701 10.6857 17.5959 10.6112C17.5216 10.5374 17.4337 10.5001 17.332 10.5001Z" fill="#606EEA"/>
</g>
<defs>
<clipPath id="clip0_2314_26046">
<rect width="18" height="18" fill="white"/>
</clipPath>
</defs>
</svg>
