<svg width="19" height="18" viewBox="0 0 19 18" fill="none" xmlns="http://www.w3.org/2000/svg">
<g clip-path="url(#clip0_3613_6981)">
<path d="M12.3119 2.81335L17.9365 8.43804L12.3119 14.0627V10.6879H8.85831C5.75696 10.6895 2.87495 12.2877 1.23124 14.9177L1.0625 15.1877C1.0625 10.2174 5.09171 6.18816 10.062 6.18816H12.3119V2.81335Z" fill="#606EEA"/>
<path d="M1.06247 15.75C1.00988 15.7503 0.957568 15.7427 0.907227 15.7275C0.66635 15.6583 0.500281 15.4381 0.5 15.1875C0.506187 9.9092 4.78362 5.63177 10.062 5.62559H11.7494V2.81324C11.7488 2.50259 12.0002 2.25032 12.3108 2.24976C12.4606 2.24948 12.6043 2.30896 12.7101 2.41502L18.3347 8.0397C18.5547 8.25906 18.5551 8.61521 18.3358 8.83513C18.3354 8.83549 18.3351 8.8358 18.3347 8.83615L12.7101 14.4608C12.4907 14.6808 12.1345 14.6812 11.9146 14.4619C11.8086 14.3561 11.7491 14.2124 11.7494 14.0626V11.2503H8.85828C5.9538 11.262 3.2568 12.7573 1.70818 15.2145L1.53944 15.4857C1.43665 15.6501 1.25641 15.75 1.06247 15.75ZM10.062 6.75052C6.18086 6.75555 2.80201 9.40323 1.86905 13.1705C3.68104 11.2377 6.20895 10.1363 8.85828 10.1253H12.3118C12.6225 10.1253 12.8743 10.3771 12.8743 10.6878V12.7048L17.1412 8.43793L12.8743 4.17104V6.18805C12.8743 6.49871 12.6225 6.75052 12.3118 6.75052H10.062Z" fill="#606EEA"/>
</g>
<defs>
<clipPath id="clip0_3613_6981">
<rect width="18" height="18" fill="white" transform="translate(0.5)"/>
</clipPath>
</defs>
</svg>
