<svg width="18" height="22" viewBox="0 0 18 22" fill="none" xmlns="http://www.w3.org/2000/svg">
<path d="M10.9688 0H7.03125C6.40863 1.83927e-05 5.80786 0.224408 5.3438 0.630269C4.87973 1.03613 4.58493 1.59499 4.51575 2.2H2.53125C1.85992 2.2 1.21609 2.46076 0.741386 2.92491C0.266685 3.38906 0 4.01859 0 4.675V19.525C0 20.1814 0.266685 20.8109 0.741386 21.2751C1.21609 21.7392 1.85992 22 2.53125 22H15.4688C15.8012 22 16.1303 21.936 16.4374 21.8116C16.7445 21.6872 17.0236 21.5049 17.2586 21.2751C17.4937 21.0453 17.6801 20.7724 17.8073 20.4721C17.9345 20.1719 18 19.85 18 19.525V4.675C18 4.34998 17.9345 4.02814 17.8073 3.72786C17.6801 3.42758 17.4937 3.15474 17.2586 2.92491C17.0236 2.69509 16.7445 2.51278 16.4374 2.3884C16.1303 2.26402 15.8012 2.2 15.4688 2.2H13.4843C13.4151 1.59499 13.1203 1.03613 12.6562 0.630269C12.1921 0.224408 11.5914 1.83927e-05 10.9688 0ZM7.03125 1.65H10.9688C11.1925 1.65 11.4071 1.73692 11.5654 1.89164C11.7236 2.04635 11.8125 2.2562 11.8125 2.475C11.8125 2.6938 11.7236 2.90365 11.5654 3.05836C11.4071 3.21308 11.1925 3.3 10.9688 3.3H7.03125C6.80747 3.3 6.59286 3.21308 6.43463 3.05836C6.2764 2.90365 6.1875 2.6938 6.1875 2.475C6.1875 2.2562 6.2764 2.04635 6.43463 1.89164C6.59286 1.73692 6.80747 1.65 7.03125 1.65ZM14.94 7.392C15.098 7.54669 15.1868 7.75637 15.1868 7.975C15.1868 8.19363 15.098 8.40331 14.94 8.558L12.69 10.758C12.5318 10.9125 12.3173 10.9993 12.0938 10.9993C11.8702 10.9993 11.6557 10.9125 11.4975 10.758L10.3725 9.658C10.2896 9.58247 10.2231 9.49139 10.177 9.39019C10.1309 9.28899 10.1061 9.17975 10.1041 9.06897C10.1021 8.9582 10.1229 8.84817 10.1654 8.74544C10.2078 8.64272 10.271 8.5494 10.3511 8.47106C10.4312 8.39272 10.5266 8.33096 10.6317 8.28946C10.7368 8.24797 10.8493 8.22759 10.9626 8.22955C11.0759 8.2315 11.1876 8.25575 11.2911 8.30084C11.3946 8.34593 11.4878 8.41094 11.565 8.492L12.0938 9.009L13.7475 7.392C13.9057 7.2375 14.1202 7.15073 14.3438 7.15073C14.5673 7.15073 14.7818 7.2375 14.94 7.392ZM14.94 14.608L12.69 16.808C12.5318 16.9625 12.3173 17.0493 12.0938 17.0493C11.8702 17.0493 11.6557 16.9625 11.4975 16.808L10.3725 15.708C10.2896 15.6325 10.2231 15.5414 10.177 15.4402C10.1309 15.339 10.1061 15.2297 10.1041 15.119C10.1021 15.0082 10.1229 14.8982 10.1654 14.7954C10.2078 14.6927 10.271 14.5994 10.3511 14.5211C10.4312 14.4427 10.5266 14.381 10.6317 14.3395C10.7368 14.298 10.8493 14.2776 10.9626 14.2795C11.0759 14.2815 11.1876 14.3057 11.2911 14.3508C11.3946 14.3959 11.4878 14.4609 11.565 14.542L12.0938 15.059L13.7475 13.442C13.8247 13.3609 13.9179 13.2959 14.0214 13.2508C14.1249 13.2057 14.2366 13.1815 14.3499 13.1795C14.4632 13.1776 14.5757 13.198 14.6808 13.2395C14.7859 13.281 14.8813 13.3427 14.9614 13.4211C15.0415 13.4994 15.1047 13.5927 15.1471 13.6954C15.1896 13.7982 15.2104 13.9082 15.2084 14.019C15.2064 14.1297 15.1816 14.239 15.1355 14.3402C15.0894 14.4414 15.0229 14.5325 14.94 14.608ZM3.375 9.075C3.375 8.8562 3.46389 8.64635 3.62213 8.49164C3.78036 8.33692 3.99497 8.25 4.21875 8.25H8.15625C8.38003 8.25 8.59464 8.33692 8.75287 8.49164C8.91111 8.64635 9 8.8562 9 9.075C9 9.2938 8.91111 9.50364 8.75287 9.65836C8.59464 9.81308 8.38003 9.9 8.15625 9.9H4.21875C3.99497 9.9 3.78036 9.81308 3.62213 9.65836C3.46389 9.50364 3.375 9.2938 3.375 9.075ZM4.21875 14.3H8.15625C8.38003 14.3 8.59464 14.3869 8.75287 14.5416C8.91111 14.6964 9 14.9062 9 15.125C9 15.3438 8.91111 15.5536 8.75287 15.7084C8.59464 15.8631 8.38003 15.95 8.15625 15.95H4.21875C3.99497 15.95 3.78036 15.8631 3.62213 15.7084C3.46389 15.5536 3.375 15.3438 3.375 15.125C3.375 14.9062 3.46389 14.6964 3.62213 14.5416C3.78036 14.3869 3.99497 14.3 4.21875 14.3Z" fill="#606EEA"/>
</svg>
