<svg width="44" height="40" viewBox="0 0 44 40" fill="none" xmlns="http://www.w3.org/2000/svg">
<g clip-path="url(#clip0)">
<path d="M26.2761 15.4212C26.2761 17.3221 25.521 19.1452 24.1768 20.4893C22.8327 21.8335 21.0096 22.5886 19.1087 22.5886C17.2078 22.5886 15.3848 21.8335 14.0407 20.4893C12.6965 19.1452 11.9414 17.3221 11.9414 15.4212C11.9414 13.5203 12.6965 11.6973 14.0407 10.3532C15.3848 9.00903 17.2078 8.25391 19.1087 8.25391C21.0096 8.25391 22.8327 9.00903 24.1768 10.3532C25.521 11.6973 26.2761 13.5203 26.2761 15.4212Z" fill="#223367"/>
<path fill-rule="evenodd" clip-rule="evenodd" d="M0 20.1988C0 15.1298 2.01368 10.2683 5.59804 6.68398C9.1824 3.09961 14.0438 1.08594 19.1129 1.08594C24.182 1.08594 29.0434 3.09961 32.6278 6.68398C36.2121 10.2683 38.2258 15.1298 38.2258 20.1988C38.2258 25.2679 36.2121 30.1293 32.6278 33.7137C29.0434 37.2981 24.182 39.3117 19.1129 39.3117C14.0438 39.3117 9.1824 37.2981 5.59804 33.7137C2.01368 30.1293 0 25.2679 0 20.1988ZM19.1129 3.47505C15.9635 3.47522 12.8782 4.36467 10.212 6.04102C7.54587 7.71738 5.40724 10.1125 4.04229 12.9507C2.67735 15.789 2.14157 18.9549 2.49662 22.0842C2.85167 25.2135 4.08312 28.179 6.04923 30.6393C7.7455 27.9061 11.4797 24.9771 19.1129 24.9771C26.7461 24.9771 30.4779 27.9037 32.1766 30.6393C34.1427 28.179 35.3741 25.2135 35.7292 22.0842C36.0842 18.9549 35.5485 15.789 34.1835 12.9507C32.8186 10.1125 30.6799 7.71738 28.0138 6.04102C25.3476 4.36467 22.2623 3.47522 19.1129 3.47505Z" fill="#223367"/>
<path d="M42.8944 8.30607C42.8944 10.559 41.9995 12.7196 40.4064 14.3127C38.8134 15.9057 36.6527 16.8007 34.3998 16.8007C32.1469 16.8007 29.9863 15.9057 28.3932 14.3127C26.8002 12.7196 25.9052 10.559 25.9052 8.30607C25.9052 6.05316 26.8002 3.89252 28.3932 2.29947C29.9863 0.706417 32.1469 -0.18855 34.3998 -0.18855C36.6527 -0.18855 38.8134 0.706417 40.4064 2.29947C41.9995 3.89252 42.8944 6.05316 42.8944 8.30607Z" fill="#223367" stroke="white" stroke-width="0.849462"/>
<path d="M30.3609 4.98072C30.3609 4.38787 30.5534 3.90783 30.9383 3.54062C31.3232 3.16898 31.8276 2.98316 32.4514 2.98316C33.0841 2.98316 33.5929 3.16677 33.9778 3.53398C34.3627 3.89677 34.5551 4.39008 34.5551 5.0139V5.49173C34.5551 6.089 34.3627 6.56904 33.9778 6.93183C33.5929 7.29462 33.0885 7.47602 32.4647 7.47602C31.8364 7.47602 31.3276 7.29462 30.9383 6.93183C30.5534 6.56461 30.3609 6.07131 30.3609 5.45191V4.98072ZM31.6351 5.49173C31.6351 5.75718 31.7103 5.97176 31.8608 6.13546C32.0156 6.29473 32.2169 6.37437 32.4647 6.37437C32.7124 6.37437 32.9093 6.29252 33.0553 6.12882C33.2013 5.96512 33.2743 5.74612 33.2743 5.47182V4.98072C33.2743 4.71526 33.2013 4.50069 33.0553 4.33699C32.9093 4.17329 32.708 4.09144 32.4514 4.09144C32.2081 4.09144 32.0112 4.17329 31.8608 4.33699C31.7103 4.49626 31.6351 4.71969 31.6351 5.00727V5.49173ZM34.9799 10.416C34.9799 9.81867 35.1745 9.33864 35.5639 8.97585C35.9532 8.60863 36.4576 8.42503 37.077 8.42503C37.7052 8.42503 38.2118 8.60642 38.5967 8.96921C38.9861 9.32758 39.1807 9.8231 39.1807 10.4558V10.9336C39.1807 11.5264 38.9905 12.0065 38.61 12.3737C38.2295 12.7365 37.7229 12.9179 37.0903 12.9179C36.4532 12.9179 35.9422 12.7343 35.5572 12.3671C35.1723 11.9998 34.9799 11.5132 34.9799 10.907V10.416ZM36.2541 10.9336C36.2541 11.1769 36.3337 11.3849 36.493 11.5574C36.6523 11.73 36.8514 11.8162 37.0903 11.8162C37.63 11.8162 37.8999 11.5176 37.8999 10.9203V10.416C37.8999 10.1505 37.8247 9.93813 37.6743 9.77886C37.5238 9.61516 37.3248 9.53331 37.077 9.53331C36.8292 9.53331 36.6301 9.61516 36.4797 9.77886C36.3293 9.93813 36.2541 10.1571 36.2541 10.4359V10.9336ZM32.843 12.0618L31.9072 11.5574L36.6257 4.00517L37.5614 4.50953L32.843 12.0618Z" fill="white"/>
</g>
<defs>
<clipPath id="clip0">
<rect width="43.3226" height="39.0753" fill="white" transform="translate(0 0.236328)"/>
</clipPath>
</defs>
</svg>
