<svg xmlns="http://www.w3.org/2000/svg" xmlns:xlink="http://www.w3.org/1999/xlink" width="43.322" height="39.075" viewBox="0 0 43.322 39.075"><defs><clipPath id="a"><rect width="43.323" height="39.075" transform="translate(0 0.236)" fill="#fff"/></clipPath></defs><g transform="translate(0 -0.236)" clip-path="url(#a)"><path d="M26.276,15.421a7.167,7.167,0,1,1-2.1-5.068A7.167,7.167,0,0,1,26.276,15.421Z" fill="#223367"/><path d="M0,20.2A19.113,19.113,0,1,1,5.6,33.714,19.113,19.113,0,0,1,0,20.2ZM19.113,3.475A16.724,16.724,0,0,0,6.049,30.639c1.7-2.733,5.43-5.662,13.064-5.662S30.478,27.9,32.177,30.639A16.724,16.724,0,0,0,19.113,3.475Z" fill="#223367" fill-rule="evenodd"/><path d="M42.894,8.306A8.495,8.495,0,1,1,40.406,2.3,8.495,8.495,0,0,1,42.894,8.306Z" fill="#223367"/><path d="M34.4-.613a8.919,8.919,0,0,1,6.307,15.226A8.919,8.919,0,0,1,28.093,2,8.861,8.861,0,0,1,34.4-.613Zm0,16.989A8.07,8.07,0,0,0,40.106,2.6,8.07,8.07,0,0,0,28.694,14.012,8.017,8.017,0,0,0,34.4,16.376Z" fill="#fff"/><path d="M30.361,4.981a1.9,1.9,0,0,1,.577-1.44,2.087,2.087,0,0,1,1.513-.557,2.119,2.119,0,0,1,1.526.551,1.936,1.936,0,0,1,.577,1.48v.478a1.886,1.886,0,0,1-.577,1.44,2.116,2.116,0,0,1-1.513.544,2.149,2.149,0,0,1-1.526-.544,1.949,1.949,0,0,1-.577-1.48Zm1.274.511a.914.914,0,0,0,.226.644.8.8,0,0,0,.6.239.752.752,0,0,0,.591-.246.951.951,0,0,0,.219-.657V4.981a.931.931,0,0,0-.219-.644.849.849,0,0,0-1.195,0,.938.938,0,0,0-.226.67Zm3.345,4.924a1.875,1.875,0,0,1,.584-1.44A2.374,2.374,0,0,1,38.6,8.969a1.92,1.92,0,0,1,.584,1.487v.478a1.911,1.911,0,0,1-.571,1.44,2.4,2.4,0,0,1-3.053-.007,1.924,1.924,0,0,1-.577-1.46Zm1.274.518a.887.887,0,0,0,.239.624.779.779,0,0,0,.6.259q.81,0,.81-.9v-.5a.89.89,0,0,0-.226-.637.849.849,0,0,0-1.195,0,.918.918,0,0,0-.226.657Zm-3.411,1.128-.936-.5,4.719-7.552.936.5Z" fill="#fff"/></g></svg>