<svg width="18" height="18" viewBox="0 0 18 18" fill="none" xmlns="http://www.w3.org/2000/svg">
<path d="M9.5625 1.6875C9.5625 1.23995 9.74029 0.810725 10.0568 0.494257C10.3732 0.17779 10.8024 0 11.25 0L15.75 0C16.3467 0 16.919 0.237053 17.341 0.65901C17.7629 1.08097 18 1.65326 18 2.25V15.75C18 16.3467 17.7629 16.919 17.341 17.341C16.919 17.7629 16.3467 18 15.75 18H2.25C1.65326 18 1.08097 17.7629 0.65901 17.341C0.237053 16.919 0 16.3467 0 15.75V2.25C0 1.65326 0.237053 1.08097 0.65901 0.65901C1.08097 0.237053 1.65326 0 2.25 0L9 0C8.64675 0.47025 8.4375 1.05412 8.4375 1.6875V10.4546L5.46075 7.47675C5.40845 7.42445 5.34636 7.38297 5.27803 7.35466C5.2097 7.32636 5.13646 7.31179 5.0625 7.31179C4.98854 7.31179 4.9153 7.32636 4.84697 7.35466C4.77864 7.38297 4.71655 7.42445 4.66425 7.47675C4.61195 7.52905 4.57047 7.59114 4.54216 7.65947C4.51386 7.7278 4.49929 7.80104 4.49929 7.875C4.49929 7.94896 4.51386 8.0222 4.54216 8.09053C4.57047 8.15886 4.61195 8.22095 4.66425 8.27325L8.60175 12.2108C8.654 12.2631 8.71607 12.3047 8.78441 12.3331C8.85275 12.3614 8.92601 12.376 9 12.376C9.07399 12.376 9.14725 12.3614 9.21559 12.3331C9.28393 12.3047 9.346 12.2631 9.39825 12.2108L13.3358 8.27325C13.4414 8.16763 13.5007 8.02437 13.5007 7.875C13.5007 7.72563 13.4414 7.58237 13.3358 7.47675C13.2301 7.37113 13.0869 7.31179 12.9375 7.31179C12.7881 7.31179 12.6449 7.37113 12.5392 7.47675L9.5625 10.4546V1.6875Z" fill="white"/>
</svg>
