<svg width="24" height="24" viewBox="0 0 24 24" fill="none" xmlns="http://www.w3.org/2000/svg">
<path d="M10 20H14V24H10V20Z" fill="white"/>
<path d="M22.8267 7.61333L16.3867 1.17333C15.6372 0.422974 14.6205 0.000933611 13.56 0H9.33333V8H16C16.3536 8 16.6928 8.14048 16.9428 8.39052C17.1929 8.64057 17.3333 8.97971 17.3333 9.33333C17.3333 9.68696 17.1929 10.0261 16.9428 10.2761C16.6928 10.5262 16.3536 10.6667 16 10.6667H8C7.64638 10.6667 7.30724 10.5262 7.05719 10.2761C6.80714 10.0261 6.66667 9.68696 6.66667 9.33333V0H4C2.93913 0 1.92172 0.421427 1.17157 1.17157C0.421427 1.92172 0 2.93913 0 4V20C0 21.0609 0.421427 22.0783 1.17157 22.8284C1.92172 23.5786 2.93913 24 4 24H6.66667V18.6667C6.66667 17.9594 6.94762 17.2811 7.44772 16.781C7.94781 16.281 8.62609 16 9.33333 16H14.6667C15.3739 16 16.0522 16.281 16.5523 16.781C17.0524 17.2811 17.3333 17.9594 17.3333 18.6667V24H20C21.0609 24 22.0783 23.5786 22.8284 22.8284C23.5786 22.0783 24 21.0609 24 20V10.44C23.9991 9.37949 23.577 8.36276 22.8267 7.61333Z" fill="white"/>
</svg>
