<svg width="24" height="24" viewBox="0 0 24 24" fill="none" xmlns="http://www.w3.org/2000/svg">
<path d="M13.5443 10.4565C12.7252 9.63768 11.6144 9.17773 10.4563 9.17773C9.29815 9.17773 8.18741 9.63768 7.3683 10.4565L4.2793 13.5444C3.46018 14.3636 3 15.4745 3 16.6329C3 17.7914 3.46018 18.9023 4.2793 19.7215C5.09842 20.5406 6.20939 21.0007 7.3678 21.0007C8.52621 21.0007 9.63718 20.5406 10.4563 19.7215L12.0003 18.1775" stroke="#606EEA" stroke-width="2" stroke-linecap="round" stroke-linejoin="round"/>
<path d="M10.457 13.5443C11.2761 14.3631 12.3869 14.823 13.545 14.823C14.7032 14.823 15.8139 14.3631 16.633 13.5443L19.722 10.4563C20.5412 9.63718 21.0013 8.52621 21.0013 7.3678C21.0013 6.20939 20.5412 5.09842 19.722 4.2793C18.9029 3.46018 17.7919 3 16.6335 3C15.4751 3 14.3642 3.46018 13.545 4.2793L12.001 5.8233" stroke="#606EEA" stroke-width="2" stroke-linecap="round" stroke-linejoin="round"/>
</svg>
