<svg width="26" height="26" viewBox="0 0 26 26" fill="none" xmlns="http://www.w3.org/2000/svg">
<g clip-path="url(#clip0_3840_8072)">
<path d="M5.41667 0H1.08333C0.485333 0 0 0.485333 0 1.08333V5.41667C0 6.01467 0.485333 6.5 1.08333 6.5H5.41667C6.01467 6.5 6.5 6.01467 6.5 5.41667V1.08333C6.5 0.485333 6.01467 0 5.41667 0Z" fill="#606EEA"/>
<path d="M5.41667 9.75H1.08333C0.485333 9.75 0 10.2353 0 10.8333V15.1667C0 15.7647 0.485333 16.25 1.08333 16.25H5.41667C6.01467 16.25 6.5 15.7647 6.5 15.1667V10.8333C6.5 10.2353 6.01467 9.75 5.41667 9.75Z" fill="#606EEA"/>
<path d="M5.41667 19.5H1.08333C0.485333 19.5 0 19.9853 0 20.5833V24.9167C0 25.5147 0.485333 26 1.08333 26H5.41667C6.01467 26 6.5 25.5147 6.5 24.9167V20.5833C6.5 19.9853 6.01467 19.5 5.41667 19.5Z" fill="#606EEA"/>
<path d="M15.1667 0H10.8333C10.2353 0 9.75 0.485333 9.75 1.08333V5.41667C9.75 6.01467 10.2353 6.5 10.8333 6.5H15.1667C15.7647 6.5 16.25 6.01467 16.25 5.41667V1.08333C16.25 0.485333 15.7647 0 15.1667 0Z" fill="#606EEA"/>
<path d="M15.1667 9.75H10.8333C10.2353 9.75 9.75 10.2353 9.75 10.8333V15.1667C9.75 15.7647 10.2353 16.25 10.8333 16.25H15.1667C15.7647 16.25 16.25 15.7647 16.25 15.1667V10.8333C16.25 10.2353 15.7647 9.75 15.1667 9.75Z" fill="#606EEA"/>
<path d="M15.1667 19.5H10.8333C10.2353 19.5 9.75 19.9853 9.75 20.5833V24.9167C9.75 25.5147 10.2353 26 10.8333 26H15.1667C15.7647 26 16.25 25.5147 16.25 24.9167V20.5833C16.25 19.9853 15.7647 19.5 15.1667 19.5Z" fill="#606EEA"/>
<path d="M24.9167 0H20.5833C19.9853 0 19.5 0.485333 19.5 1.08333V5.41667C19.5 6.01467 19.9853 6.5 20.5833 6.5H24.9167C25.5147 6.5 26 6.01467 26 5.41667V1.08333C26 0.485333 25.5147 0 24.9167 0Z" fill="#606EEA"/>
<path d="M24.9167 9.75H20.5833C19.9853 9.75 19.5 10.2353 19.5 10.8333V15.1667C19.5 15.7647 19.9853 16.25 20.5833 16.25H24.9167C25.5147 16.25 26 15.7647 26 15.1667V10.8333C26 10.2353 25.5147 9.75 24.9167 9.75Z" fill="#606EEA"/>
<path d="M24.9167 19.5H20.5833C19.9853 19.5 19.5 19.9853 19.5 20.5833V24.9167C19.5 25.5147 19.9853 26 20.5833 26H24.9167C25.5147 26 26 25.5147 26 24.9167V20.5833C26 19.9853 25.5147 19.5 24.9167 19.5Z" fill="#606EEA"/>
</g>
<defs>
<clipPath id="clip0_3840_8072">
<rect width="26" height="26" fill="white"/>
</clipPath>
</defs>
</svg>
