<svg width="26" height="26" viewBox="0 0 26 26" fill="none" xmlns="http://www.w3.org/2000/svg">
<g clip-path="url(#clip0_3840_8062)">
<path d="M24.1038 0H15.9788C14.9334 0 14.083 0.850417 14.083 1.89583V4.60417C14.083 5.64958 14.9334 6.5 15.9788 6.5H24.1038C25.1492 6.5 25.9997 5.64958 25.9997 4.60417V1.89583C25.9997 0.850417 25.1492 0 24.1038 0Z" fill="#606EEA"/>
<path d="M24.1038 9.75H15.9788C14.9334 9.75 14.083 10.6004 14.083 11.6458V14.3542C14.083 15.3996 14.9334 16.25 15.9788 16.25H24.1038C25.1492 16.25 25.9997 15.3996 25.9997 14.3542V11.6458C25.9997 10.6004 25.1492 9.75 24.1038 9.75Z" fill="#606EEA"/>
<path d="M24.1038 19.5H15.9788C14.9334 19.5 14.083 20.3504 14.083 21.3958V24.1042C14.083 25.1496 14.9334 26 15.9788 26H24.1038C25.1492 26 25.9997 25.1496 25.9997 24.1042V21.3958C25.9997 20.3504 25.1492 19.5 24.1038 19.5Z" fill="#606EEA"/>
<path d="M1.89583 26H10.0208C11.0663 26 11.9167 25.1496 11.9167 24.1042V1.89583C11.9167 0.850417 11.0663 0 10.0208 0H1.89583C0.850417 0 0 0.850417 0 1.89583V24.1042C0 25.1496 0.850417 26 1.89583 26Z" fill="#606EEA"/>
</g>
<defs>
<clipPath id="clip0_3840_8062">
<rect width="26" height="26" fill="white"/>
</clipPath>
</defs>
</svg>
