<svg width="23" height="23" viewBox="0 0 23 23" fill="none" xmlns="http://www.w3.org/2000/svg">
<path d="M22.8783 9.56344L21.9698 6.66682C21.8717 6.33205 21.7072 6.02045 21.486 5.75062C21.2648 5.48078 20.9915 5.25824 20.6824 5.09626C20.3733 4.93428 20.0348 4.83618 19.6869 4.80781C19.3391 4.77944 18.9891 4.82139 18.6578 4.93115L18.2668 5.05759C17.9605 5.15879 17.6343 5.18447 17.3159 5.13243C16.9975 5.0804 16.6964 4.95219 16.4383 4.75873L16.3118 4.66678C16.0599 4.4741 15.8569 4.22495 15.7191 3.93944C15.5812 3.65392 15.5125 3.34002 15.5183 3.02306V2.70121C15.5239 1.97939 15.2427 1.28485 14.7363 0.770133C14.4955 0.526969 14.2089 0.333757 13.8932 0.201595C13.5774 0.0694318 13.2386 0.000922081 12.8963 0H9.96381C9.26022 0.00908788 8.5887 0.29563 8.09546 0.79724C7.60223 1.29885 7.32722 1.97491 7.33031 2.67822V2.95409C7.32921 3.28775 7.25321 3.6169 7.10792 3.91729C6.96262 4.21769 6.75174 4.48166 6.49081 4.68977L6.34131 4.80471C6.05306 5.02267 5.71591 5.16697 5.35916 5.22506C5.00242 5.28316 4.63688 5.25329 4.29431 5.13805C3.97969 5.02923 3.64625 4.98534 3.31417 5.00905C2.98208 5.03276 2.65827 5.12357 2.36231 5.27599C2.05417 5.42885 1.78081 5.64346 1.55922 5.90647C1.33764 6.16947 1.17258 6.47524 1.07431 6.80476L0.131313 9.79333C-0.0873685 10.4671 -0.0312873 11.2 0.287378 11.8327C0.606044 12.4654 1.16157 12.9469 1.83331 13.1727H2.01731C2.32719 13.2888 2.60531 13.4763 2.82911 13.7199C3.0529 13.9636 3.21605 14.2566 3.30531 14.5751L3.37431 14.759C3.50251 15.1109 3.54538 15.4881 3.4994 15.8598C3.45342 16.2314 3.3199 16.5869 3.10981 16.8969C2.68456 17.4758 2.50519 18.1991 2.61072 18.9094C2.71625 19.6198 3.09814 20.2598 3.67331 20.6901L6.05381 22.4948C6.50456 22.8223 7.04906 22.9957 7.60631 22.989C7.75546 23.0037 7.90567 23.0037 8.05481 22.989C8.39993 22.9223 8.72782 22.7859 9.01847 22.5883C9.30912 22.3907 9.55643 22.1359 9.74531 21.8396L10.0098 21.4603C10.1954 21.1943 10.4409 20.9756 10.7265 20.8218C11.0122 20.6681 11.33 20.5836 11.6543 20.5752C11.9942 20.5668 12.3307 20.6447 12.6323 20.8015C12.934 20.9582 13.191 21.1889 13.3793 21.4718L13.5173 21.6672C13.7134 21.9588 13.9671 22.2073 14.2629 22.3973C14.5587 22.5872 14.8902 22.7147 15.2371 22.7717C15.584 22.8288 15.9389 22.8143 16.28 22.7291C16.621 22.6439 16.9411 22.4898 17.2203 22.2764L19.5548 20.5292C20.1068 20.1007 20.4738 19.4774 20.5808 18.7871C20.6877 18.0968 20.5263 17.3917 20.1298 16.8165L19.8308 16.3797C19.651 16.102 19.5333 15.7888 19.4856 15.4615C19.438 15.1342 19.4616 14.8005 19.5548 14.4831C19.6498 14.1434 19.8262 13.8319 20.0686 13.5755C20.311 13.3192 20.6123 13.1257 20.9463 13.0118L21.1763 12.9313C21.8418 12.7005 22.3915 12.2201 22.7091 11.5916C23.0267 10.9631 23.0874 10.2358 22.8783 9.56344ZM11.5048 15.5176C10.7087 15.5176 9.93055 15.2817 9.26864 14.8396C8.60674 14.3975 8.09084 13.7692 7.7862 13.0341C7.48155 12.299 7.40185 11.4901 7.55715 10.7097C7.71246 9.92926 8.0958 9.21241 8.65871 8.64977C9.22161 8.08714 9.9388 7.70397 10.7196 7.54874C11.5003 7.39351 12.3096 7.47318 13.0451 7.77768C13.7806 8.08218 14.4092 8.59783 14.8515 9.25942C15.2938 9.92101 15.5298 10.6988 15.5298 11.4945C15.5298 12.5615 15.1058 13.5848 14.3509 14.3393C13.5961 15.0937 12.5723 15.5176 11.5048 15.5176Z" fill="#606EEA"/>
</svg>
