<svg width="18" height="18" viewBox="0 0 18 18" fill="none" xmlns="http://www.w3.org/2000/svg">
<path d="M8.99949 10.9564C10.08 10.9564 10.956 10.0804 10.956 8.99986C10.956 7.9193 10.08 7.04333 8.99949 7.04333C7.91893 7.04333 7.04297 7.9193 7.04297 8.99986C7.04297 10.0804 7.91893 10.9564 8.99949 10.9564Z" fill="#606EEA"/>
<path d="M17.9048 7.48443L17.1938 5.21751C17.117 4.95552 16.9882 4.71166 16.8151 4.50049C16.642 4.28931 16.4281 4.11514 16.1863 3.98838C15.9444 3.86161 15.6794 3.78483 15.4072 3.76263C15.1349 3.74043 14.861 3.77326 14.6018 3.85916L14.2958 3.95811C14.056 4.03732 13.8007 4.05741 13.5516 4.01669C13.3024 3.97596 13.0668 3.87562 12.8648 3.72423L12.7658 3.65226C12.5687 3.50147 12.4098 3.30649 12.3019 3.08304C12.194 2.85959 12.1402 2.61393 12.1448 2.36587V2.11399C12.1491 1.54908 11.929 1.00553 11.5328 0.602713C11.3443 0.412411 11.12 0.261201 10.8729 0.15777C10.6258 0.0543379 10.3607 0.000721629 10.0928 0H7.79777C7.24712 0.00711226 6.72159 0.231363 6.33558 0.623927C5.94957 1.01649 5.73435 1.54558 5.73677 2.096V2.3119C5.7359 2.57302 5.67642 2.83062 5.56272 3.06571C5.44901 3.3008 5.28397 3.50739 5.07977 3.67025L4.96277 3.76021C4.73717 3.93079 4.47332 4.04372 4.19413 4.08918C3.91494 4.13464 3.62886 4.11127 3.36077 4.02108C3.11454 3.93592 2.85359 3.90157 2.59369 3.92013C2.3338 3.93868 2.08038 4.00975 1.84877 4.12903C1.60761 4.24866 1.39368 4.41662 1.22026 4.62245C1.04685 4.82828 0.91767 5.06758 0.840767 5.32546L0.102767 7.66435C-0.0683754 8.19168 -0.0244857 8.76519 0.224905 9.26037C0.474295 9.75554 0.909051 10.1324 1.43477 10.3091H1.57877C1.82128 10.3999 2.03894 10.5466 2.21408 10.7373C2.38923 10.928 2.51691 11.1573 2.58677 11.4066L2.64077 11.5505C2.7411 11.8259 2.77465 12.1211 2.73866 12.412C2.70268 12.7029 2.59819 12.981 2.43377 13.2237C2.10096 13.6767 1.96058 14.2428 2.04317 14.7987C2.12576 15.3546 2.42463 15.8555 2.87477 16.1923L4.73777 17.6046C5.09052 17.861 5.51666 17.9966 5.95277 17.9914C6.06949 18.0029 6.18705 18.0029 6.30377 17.9914C6.57386 17.9392 6.83047 17.8325 7.05793 17.6778C7.28539 17.5231 7.47894 17.3238 7.62677 17.0919L7.83377 16.795C7.97897 16.5868 8.17111 16.4157 8.39466 16.2953C8.61822 16.175 8.86694 16.1089 9.12077 16.1023C9.38677 16.0958 9.65009 16.1567 9.88616 16.2794C10.1222 16.4021 10.3234 16.5826 10.4708 16.804L10.5788 16.9569C10.7322 17.1852 10.9308 17.3796 11.1623 17.5283C11.3937 17.677 11.6532 17.7767 11.9247 17.8214C12.1962 17.866 12.4739 17.8547 12.7408 17.788C13.0078 17.7213 13.2582 17.6008 13.4768 17.4337L15.3038 16.0663C15.7357 15.731 16.023 15.2432 16.1067 14.703C16.1904 14.1627 16.0641 13.6109 15.7538 13.1607L15.5198 12.8189C15.3791 12.6016 15.2869 12.3565 15.2496 12.1003C15.2124 11.8442 15.2308 11.583 15.3038 11.3346C15.3781 11.0687 15.5161 10.8249 15.7059 10.6243C15.8956 10.4237 16.1314 10.2723 16.3928 10.1831L16.5728 10.1202C17.0936 9.93953 17.5238 9.56355 17.7723 9.07169C18.0209 8.57984 18.0684 8.01065 17.9048 7.48443ZM9.00377 12.1442C8.38076 12.1442 7.77173 11.9596 7.25372 11.6136C6.7357 11.2676 6.33196 10.7759 6.09355 10.2006C5.85513 9.62528 5.79275 8.99222 5.91429 8.38147C6.03584 7.77072 6.33584 7.20971 6.77638 6.76939C7.21692 6.32906 7.77819 6.0292 8.38923 5.90771C9.00027 5.78623 9.63363 5.84858 10.2092 6.08688C10.7848 6.32518 11.2768 6.72873 11.6229 7.2465C11.969 7.76427 12.1538 8.373 12.1538 8.99571C12.1538 9.83075 11.8219 10.6316 11.2312 11.222C10.6404 11.8125 9.8392 12.1442 9.00377 12.1442Z" fill="#606EEA"/>
</svg>
