<svg width="24" height="24" viewBox="0 0 24 24" fill="none" xmlns="http://www.w3.org/2000/svg">
<path d="M15.7492 3.75L23.2487 11.2496L15.7492 18.7492V14.2494H11.1444C7.00929 14.2515 3.1666 16.3825 0.974987 19.8891L0.75 20.2491C0.75 13.622 6.12227 8.24975 12.7493 8.24975H15.7492V3.75Z" fill="#606EEA"/>
<path d="M0.749958 21.0003C0.679837 21.0007 0.61009 20.9906 0.542969 20.9703C0.2218 20.8781 0.000374979 20.5845 0 20.2504C0.00824953 13.2126 5.71149 7.50936 12.7493 7.50111H14.9992V3.75132C14.9984 3.33711 15.3336 3.00075 15.7478 3C15.9474 2.99963 16.139 3.07893 16.2801 3.22035L23.7797 10.7199C24.0729 11.0124 24.0735 11.4873 23.781 11.7805C23.7805 11.781 23.7801 11.7814 23.7797 11.7819L16.2801 19.2814C15.9876 19.5747 15.5127 19.5753 15.2195 19.2828C15.0781 19.1418 14.9988 18.9502 14.9992 18.7505V15.0007H11.1444C7.27173 15.0163 3.67573 17.0101 1.61091 20.2864L1.38592 20.6479C1.24887 20.8671 1.00855 21.0003 0.749958 21.0003ZM12.7493 9.00102C7.57448 9.00772 3.06934 12.538 1.8254 17.561C4.24138 14.9839 7.61193 13.5154 11.1444 13.5008H15.7491C16.1633 13.5008 16.4991 13.8365 16.4991 14.2507V16.9401L22.1882 11.2509L16.4991 5.56172V8.25106C16.4991 8.66528 16.1633 9.00102 15.7491 9.00102H12.7493Z" fill="#606EEA"/>
</svg>
