<svg width="55" height="15" viewBox="0 0 55 15" fill="none" xmlns="http://www.w3.org/2000/svg">
<path d="M1.40353 13.5177C1.43058 14.2209 2.02256 14.769 2.72575 14.742L14.185 14.3013C14.8882 14.2742 15.4364 13.6822 15.4093 12.979C15.3823 12.2758 14.7903 11.7277 14.0871 11.7548L3.90107 12.1465L3.5093 1.96051C3.48225 1.25731 2.89027 0.709183 2.18707 0.736229C1.48388 0.763275 0.935745 1.35525 0.962791 2.05845L1.40353 13.5177ZM53.6445 13.4688C54.6145 12.6425 54.6142 12.6421 54.6138 12.6416C54.6136 12.6414 54.6132 12.6409 54.6128 12.6405C54.6121 12.6396 54.6112 12.6386 54.6102 12.6375C54.6082 12.6351 54.6055 12.632 54.6023 12.6283C54.5958 12.6208 54.587 12.6105 54.5758 12.5977C54.5533 12.572 54.5213 12.5357 54.4799 12.4895C54.3972 12.3972 54.2769 12.2654 54.12 12.0998C53.8064 11.7687 53.3461 11.3017 52.7475 10.7443C51.5512 9.63051 49.7966 8.15043 47.5496 6.67071C43.0616 3.71515 36.5551 0.726814 28.5854 0.726814V3.2752C35.906 3.2752 41.9291 6.02073 46.148 8.79905C48.2546 10.1863 49.8978 11.5731 51.011 12.6095C51.5671 13.1272 51.9895 13.5562 52.2698 13.8522C52.4099 14.0001 52.5144 14.1147 52.5822 14.1904C52.6162 14.2282 52.6409 14.2564 52.6563 14.274C52.664 14.2829 52.6694 14.2891 52.6725 14.2926C52.674 14.2944 52.6749 14.2955 52.6753 14.2959C52.6755 14.2961 52.6755 14.2961 52.6754 14.296C52.6753 14.2959 52.6751 14.2957 52.6751 14.2956C52.6748 14.2953 52.6746 14.295 53.6445 13.4688ZM28.5854 0.726814C20.6213 0.726814 13.909 3.71132 9.21964 6.65578C6.87024 8.13099 5.01207 9.60634 3.73794 10.7161C3.10039 11.2714 2.60767 11.7363 2.2714 12.0656C2.10322 12.2303 1.97404 12.3612 1.88533 12.4526C1.84097 12.4983 1.80671 12.5342 1.78274 12.5595C1.77075 12.5722 1.76133 12.5822 1.75451 12.5895C1.75109 12.5931 1.74833 12.5961 1.74622 12.5983C1.74516 12.5995 1.74427 12.6004 1.74353 12.6012C1.74317 12.6016 1.74274 12.6021 1.74256 12.6023C1.74218 12.6027 1.74183 12.6031 2.67678 13.4688C3.61174 14.3344 3.61147 14.3347 3.61125 14.335C3.61123 14.335 3.61105 14.3352 3.611 14.3352C3.61092 14.3353 3.611 14.3352 3.61124 14.335C3.61171 14.3345 3.61282 14.3333 3.61457 14.3314C3.61807 14.3277 3.62411 14.3212 3.63269 14.3122C3.64983 14.2941 3.67706 14.2656 3.7142 14.2273C3.78849 14.1507 3.90238 14.0352 4.05441 13.8864C4.35855 13.5885 4.81484 13.1576 5.41167 12.6378C6.60629 11.5973 8.35834 10.2057 10.5748 8.81398C15.0172 6.02457 21.2591 3.2752 28.5854 3.2752V0.726814Z" fill="#223367"/>
</svg>
