<svg width="39" height="39" viewBox="0 0 39 39" fill="none" xmlns="http://www.w3.org/2000/svg">
<path d="M26.7253 14.4212C26.7253 16.3221 25.9702 18.1452 24.626 19.4893C23.2819 20.8335 21.4589 21.5886 19.558 21.5886C17.6571 21.5886 15.834 20.8335 14.4899 19.4893C13.1458 18.1452 12.3906 16.3221 12.3906 14.4212C12.3906 12.5203 13.1458 10.6973 14.4899 9.35317C15.834 8.00903 17.6571 7.25391 19.558 7.25391C21.4589 7.25391 23.2819 8.00903 24.626 9.35317C25.9702 10.6973 26.7253 12.5203 26.7253 14.4212Z" fill="#C2C2C2"/>
<path fill-rule="evenodd" clip-rule="evenodd" d="M0.445312 19.1988C0.445313 14.1298 2.45899 9.26834 6.04335 5.68398C9.62772 2.09961 14.4892 0.0859375 19.5582 0.0859375C24.6273 0.0859375 29.4887 2.09961 33.0731 5.68398C36.6574 9.26834 38.6711 14.1298 38.6711 19.1988C38.6711 24.2679 36.6574 29.1293 33.0731 32.7137C29.4887 36.2981 24.6273 38.3117 19.5582 38.3117C14.4892 38.3117 9.62772 36.2981 6.04335 32.7137C2.45899 29.1293 0.445313 24.2679 0.445312 19.1988ZM19.5582 2.47505C16.4088 2.47522 13.3235 3.36467 10.6573 5.04102C7.99118 6.71738 5.85255 9.11251 4.48761 11.9507C3.12266 14.789 2.58688 17.9549 2.94193 21.0842C3.29698 24.2135 4.52843 27.179 6.49455 29.6393C8.19082 26.9061 11.925 23.9771 19.5582 23.9771C27.1914 23.9771 30.9232 26.9037 32.6219 29.6393C34.588 27.179 35.8195 24.2135 36.1745 21.0842C36.5296 17.9549 35.9938 14.789 34.6288 11.9507C33.2639 9.11251 31.1253 6.71738 28.4591 5.04102C25.7929 3.36467 22.7076 2.47522 19.5582 2.47505Z" fill="#C2C2C2"/>
</svg>
