<svg width="18" height="20" viewBox="0 0 18 20" fill="none" xmlns="http://www.w3.org/2000/svg">
<path d="M12.2727 3.33333H17.1818C17.3988 3.33333 17.6069 3.42113 17.7604 3.57741C17.9138 3.73369 18 3.94565 18 4.16667C18 4.38768 17.9138 4.59964 17.7604 4.75592C17.6069 4.9122 17.3988 5 17.1818 5H16.2769L15.0464 16.2933C14.9352 17.3126 14.4589 18.2542 13.7087 18.9381C12.9584 19.622 11.9869 20.0001 10.98 20H7.02C6.01314 20.0001 5.04161 19.622 4.29135 18.9381C3.54108 18.2542 3.06479 17.3126 2.95364 16.2933L1.72145 5H0.818182C0.601187 5 0.393079 4.9122 0.23964 4.75592C0.0862012 4.59964 0 4.38768 0 4.16667C0 3.94565 0.0862012 3.73369 0.23964 3.57741C0.393079 3.42113 0.601187 3.33333 0.818182 3.33333H5.72727C5.72727 2.44928 6.07208 1.60143 6.68583 0.976311C7.29959 0.351189 8.13202 0 9 0C9.86798 0 10.7004 0.351189 11.3142 0.976311C11.9279 1.60143 12.2727 2.44928 12.2727 3.33333ZM9 1.66667C8.56601 1.66667 8.14979 1.84226 7.84292 2.15482C7.53604 2.46738 7.36364 2.89131 7.36364 3.33333H10.6364C10.6364 2.89131 10.464 2.46738 10.1571 2.15482C9.85021 1.84226 9.43399 1.66667 9 1.66667ZM6.54545 8.33333V15C6.54545 15.221 6.63166 15.433 6.78509 15.5893C6.93853 15.7455 7.14664 15.8333 7.36364 15.8333C7.58063 15.8333 7.78874 15.7455 7.94218 15.5893C8.09562 15.433 8.18182 15.221 8.18182 15V8.33333C8.18182 8.11232 8.09562 7.90036 7.94218 7.74408C7.78874 7.5878 7.58063 7.5 7.36364 7.5C7.14664 7.5 6.93853 7.5878 6.78509 7.74408C6.63166 7.90036 6.54545 8.11232 6.54545 8.33333ZM10.6364 7.5C10.4194 7.5 10.2113 7.5878 10.0578 7.74408C9.90438 7.90036 9.81818 8.11232 9.81818 8.33333V15C9.81818 15.221 9.90438 15.433 10.0578 15.5893C10.2113 15.7455 10.4194 15.8333 10.6364 15.8333C10.8534 15.8333 11.0615 15.7455 11.2149 15.5893C11.3683 15.433 11.4545 15.221 11.4545 15V8.33333C11.4545 8.11232 11.3683 7.90036 11.2149 7.74408C11.0615 7.5878 10.8534 7.5 10.6364 7.5Z" fill="white"/>
</svg>
