<svg width="24" height="24" viewBox="0 0 24 24" fill="none" xmlns="http://www.w3.org/2000/svg">
<path d="M15.2727 5.33333H20.1818C20.3988 5.33333 20.6069 5.42113 20.7604 5.57741C20.9138 5.73369 21 5.94565 21 6.16667C21 6.38768 20.9138 6.59964 20.7604 6.75592C20.6069 6.9122 20.3988 7 20.1818 7H19.2769L18.0464 18.2933C17.9352 19.3126 17.4589 20.2542 16.7087 20.9381C15.9584 21.622 14.9869 22.0001 13.98 22H10.02C9.01314 22.0001 8.04161 21.622 7.29135 20.9381C6.54108 20.2542 6.06479 19.3126 5.95364 18.2933L4.72145 7H3.81818C3.60119 7 3.39308 6.9122 3.23964 6.75592C3.0862 6.59964 3 6.38768 3 6.16667C3 5.94565 3.0862 5.73369 3.23964 5.57741C3.39308 5.42113 3.60119 5.33333 3.81818 5.33333H8.72727C8.72727 4.44928 9.07208 3.60143 9.68583 2.97631C10.2996 2.35119 11.132 2 12 2C12.868 2 13.7004 2.35119 14.3142 2.97631C14.9279 3.60143 15.2727 4.44928 15.2727 5.33333ZM12 3.66667C11.566 3.66667 11.1498 3.84226 10.8429 4.15482C10.536 4.46738 10.3636 4.89131 10.3636 5.33333H13.6364C13.6364 4.89131 13.464 4.46738 13.1571 4.15482C12.8502 3.84226 12.434 3.66667 12 3.66667ZM9.54545 10.3333V17C9.54545 17.221 9.63166 17.433 9.78509 17.5893C9.93853 17.7455 10.1466 17.8333 10.3636 17.8333C10.5806 17.8333 10.7887 17.7455 10.9422 17.5893C11.0956 17.433 11.1818 17.221 11.1818 17V10.3333C11.1818 10.1123 11.0956 9.90036 10.9422 9.74408C10.7887 9.5878 10.5806 9.5 10.3636 9.5C10.1466 9.5 9.93853 9.5878 9.78509 9.74408C9.63166 9.90036 9.54545 10.1123 9.54545 10.3333ZM13.6364 9.5C13.4194 9.5 13.2113 9.5878 13.0578 9.74408C12.9044 9.90036 12.8182 10.1123 12.8182 10.3333V17C12.8182 17.221 12.9044 17.433 13.0578 17.5893C13.2113 17.7455 13.4194 17.8333 13.6364 17.8333C13.8534 17.8333 14.0615 17.7455 14.2149 17.5893C14.3683 17.433 14.4545 17.221 14.4545 17V10.3333C14.4545 10.1123 14.3683 9.90036 14.2149 9.74408C14.0615 9.5878 13.8534 9.5 13.6364 9.5Z" fill="white"/>
</svg>
