<svg width="20" height="24" viewBox="0 0 20 24" fill="none" xmlns="http://www.w3.org/2000/svg">
<path d="M10.0001 0.75C10.4974 0.75 10.9743 0.947544 11.3259 1.29917C11.6776 1.65081 11.8751 2.12772 11.8751 2.625V17.475L16.8001 12.55C17.1555 12.2188 17.6257 12.0385 18.1114 12.0471C18.5972 12.0556 19.0606 12.2524 19.4042 12.5959C19.7477 12.9395 19.9445 13.4029 19.953 13.8887C19.9616 14.3744 19.7813 14.8446 19.4501 15.2L11.3251 23.325C10.9735 23.6761 10.497 23.8734 10.0001 23.8734C9.50323 23.8734 9.02667 23.6761 8.6751 23.325L0.550105 15.2C0.218905 14.8446 0.0385966 14.3744 0.0471671 13.8887C0.0557377 13.4029 0.252518 12.9395 0.59605 12.5959C0.939583 12.2524 1.40305 12.0556 1.8888 12.0471C2.37455 12.0385 2.84467 12.2188 3.2001 12.55L8.1251 17.475V2.625C8.1251 2.12772 8.32265 1.65081 8.67428 1.29917C9.02591 0.947544 9.50282 0.75 10.0001 0.75Z" fill="white"/>
</svg>
