<svg width="24" height="12" viewBox="0 0 24 12" fill="none" xmlns="http://www.w3.org/2000/svg">
<path d="M23.2504 0.749999C23.2504 0.551087 23.1714 0.360322 23.0308 0.21967C22.8901 0.0790177 22.6994 0 22.5004 0H16.3129C16.114 0 15.9233 0.0790177 15.7826 0.21967C15.642 0.360322 15.5629 0.551087 15.5629 0.749999C15.5629 0.948911 15.642 1.13968 15.7826 1.28033C15.9233 1.42098 16.114 1.5 16.3129 1.5H20.6742L14.4529 7.64999L8.7792 3.6075C8.63359 3.50375 8.45572 3.45543 8.27764 3.47125C8.09956 3.48706 7.93299 3.56597 7.80795 3.69375L0.964196 10.725C0.836339 10.8692 0.768905 11.0571 0.775883 11.2497C0.782861 11.4423 0.863715 11.6248 1.00167 11.7594C1.13963 11.894 1.3241 11.9703 1.51681 11.9725C1.70953 11.9747 1.8957 11.9026 2.0367 11.7712L8.4342 5.20124L14.0967 9.23624C14.2408 9.33891 14.4166 9.38732 14.593 9.37291C14.7693 9.3585 14.9349 9.2822 15.0604 9.15749L21.7504 2.54625V6.93749C21.7504 7.1364 21.8295 7.32717 21.9701 7.46782C22.1108 7.60847 22.3015 7.68749 22.5004 7.68749C22.6994 7.68749 22.8901 7.60847 23.0308 7.46782C23.1714 7.32717 23.2504 7.1364 23.2504 6.93749V0.749999Z" fill="white"/>
</svg>
