<svg width="24" height="24" viewBox="0 0 24 24" fill="none" xmlns="http://www.w3.org/2000/svg">
<path fill-rule="evenodd" clip-rule="evenodd" d="M23.7081 5.24668L12 11.633L0.291797 5.24668C0.664157 4.02153 1.41945 2.94801 2.4468 2.18369C3.47416 1.41937 4.71948 1.00451 5.99996 1H18C19.2804 1.00451 20.5257 1.41937 21.5531 2.18369C22.5805 2.94801 23.3358 4.02153 23.7081 5.24668ZM12 14.1988C12.2008 14.1988 12.3985 14.1484 12.5748 14.0523L24 7.82031V16.5988C23.9981 18.1895 23.3654 19.7146 22.2406 20.8394C21.1158 21.9642 19.5907 22.5969 18 22.5988H6C4.40928 22.5969 2.88424 21.9642 1.75943 20.8394C0.634616 19.7146 0.00187374 18.1895 0 16.5988V7.82031L11.4252 14.0523C11.6015 14.1484 11.7992 14.1988 12 14.1988Z" fill="white"/>
</svg>
