<svg width="50" height="50" viewBox="0 0 50 50" fill="none" xmlns="http://www.w3.org/2000/svg">
<rect width="50" height="50" rx="14" fill="#606EEA" fill-opacity="0.1"/>
<path d="M11.875 17.9688C11.875 16.675 12.925 15.625 14.2188 15.625H32.0312C33.325 15.625 34.375 16.675 34.375 17.9688V28.2812C34.375 29.575 33.325 30.625 32.0312 30.625H14.2188C12.925 30.625 11.875 29.575 11.875 28.2812V17.9688ZM17.5 18.4375V17.5H15.625V18.4375C15.625 18.6861 15.5262 18.9246 15.3504 19.1004C15.1746 19.2762 14.9361 19.375 14.6875 19.375H13.75V21.25H14.6875C15.4334 21.25 16.1488 20.9537 16.6762 20.4262C17.2037 19.8988 17.5 19.1834 17.5 18.4375ZM26.875 23.125C26.875 22.1304 26.4799 21.1766 25.7766 20.4733C25.0734 19.7701 24.1196 19.375 23.125 19.375C22.1304 19.375 21.1766 19.7701 20.4733 20.4733C19.7701 21.1766 19.375 22.1304 19.375 23.125C19.375 24.1196 19.7701 25.0734 20.4733 25.7766C21.1766 26.4799 22.1304 26.875 23.125 26.875C24.1196 26.875 25.0734 26.4799 25.7766 25.7766C26.4799 25.0734 26.875 24.1196 26.875 23.125ZM30.625 17.5H28.75V18.4375C28.75 19.1834 29.0463 19.8988 29.5738 20.4262C30.1012 20.9537 30.8166 21.25 31.5625 21.25H32.5V19.375H31.5625C31.3139 19.375 31.0754 19.2762 30.8996 19.1004C30.7238 18.9246 30.625 18.6861 30.625 18.4375V17.5ZM17.5 27.8125C17.5 27.0666 17.2037 26.3512 16.6762 25.8238C16.1488 25.2963 15.4334 25 14.6875 25H13.75V26.875H14.6875C14.9361 26.875 15.1746 26.9738 15.3504 27.1496C15.5262 27.3254 15.625 27.5639 15.625 27.8125V28.75H17.5V27.8125ZM30.625 28.75V27.8125C30.625 27.5639 30.7238 27.3254 30.8996 27.1496C31.0754 26.9738 31.3139 26.875 31.5625 26.875H32.5V25H31.5625C30.8166 25 30.1012 25.2963 29.5738 25.8238C29.0463 26.3512 28.75 27.0666 28.75 27.8125V28.75H30.625Z" fill="#606EEA"/>
<path d="M18.4373 34.3758C17.8434 34.376 17.2646 34.1882 16.7839 33.8392C16.3033 33.4903 15.9455 32.9981 15.7617 32.4333C16.0223 32.4783 16.2886 32.5008 16.5623 32.5008H32.0311C33.15 32.5008 34.223 32.0563 35.0142 31.2651C35.8054 30.474 36.2498 29.4009 36.2498 28.282V19.5352C36.7984 19.7291 37.2734 20.0884 37.6092 20.5636C37.945 21.0388 38.1251 21.6064 38.1248 22.1883V28.282C38.1248 29.0823 37.9672 29.8747 37.661 30.614C37.3547 31.3533 36.9059 32.0251 36.34 32.591C35.7742 33.1568 35.1024 33.6057 34.3631 33.9119C33.6237 34.2182 32.8313 34.3758 32.0311 34.3758H18.4373Z" fill="#606EEA"/>
</svg>
