<svg width="24" height="24" viewBox="0 0 24 24" fill="none" xmlns="http://www.w3.org/2000/svg">
<path d="M22.4049 7.48866C22.4075 8.47252 22.215 9.44715 21.8384 10.3561C21.4619 11.2651 20.9088 12.0903 20.2111 12.7841L10.7552 22.24C9.74833 23.2455 8.38342 23.8101 6.96048 23.8096C5.53754 23.8091 4.17301 23.2437 3.16684 22.2375C2.16067 21.2313 1.5952 19.8668 1.59473 18.4438C1.59426 17.0209 2.15883 15.656 3.16434 14.6492L12.7381 5.07568C13.0391 4.77235 13.3971 4.53145 13.7914 4.36678C14.1857 4.20212 14.6087 4.11694 15.0361 4.11612C15.4634 4.11531 15.8867 4.19888 16.2817 4.36205C16.6766 4.52521 17.0355 4.76475 17.3377 5.06693C17.6398 5.36911 17.8794 5.72798 18.0425 6.12295C18.2057 6.51792 18.2892 6.94122 18.2884 7.36856C18.2876 7.7959 18.2024 8.21887 18.0377 8.61321C17.873 9.00755 17.6321 9.36549 17.3288 9.6665L10.0751 16.9201C10.0048 16.9904 9.9094 17.0299 9.80995 17.0299C9.71051 17.0299 9.61514 16.9904 9.54481 16.9201L8.48427 15.8595C8.41396 15.7892 8.37446 15.6938 8.37446 15.5944C8.37446 15.4949 8.41396 15.3996 8.48427 15.3292L15.738 8.07568C15.8305 7.98315 15.9039 7.87331 15.954 7.75242C16.0041 7.63152 16.0299 7.50195 16.0299 7.37109C16.0299 7.24024 16.0041 7.11066 15.954 6.98977C15.9039 6.86888 15.8305 6.75903 15.738 6.66651C15.5479 6.48593 15.2956 6.38525 15.0334 6.38525C14.7712 6.38525 14.519 6.48593 14.3288 6.66651L4.75505 16.24C4.17036 16.8247 3.84188 17.6177 3.84189 18.4446C3.84191 19.2715 4.1704 20.0645 4.7551 20.6492C5.33981 21.2339 6.13284 21.5624 6.95973 21.5624C7.78662 21.5624 8.57964 21.2339 9.16434 20.6492L18.6204 11.1934C19.603 10.2109 20.155 8.87824 20.155 7.48872C20.155 6.0992 19.603 4.76659 18.6204 3.78405C17.6379 2.80151 16.3053 2.24953 14.9158 2.24953C13.5262 2.24954 12.1936 2.80153 11.2111 3.78407L7.0751 7.92006C7.00477 7.99037 6.9094 8.02987 6.80995 8.02987C6.71051 8.02987 6.61514 7.99037 6.54481 7.92006L5.48427 6.85952C5.41396 6.78919 5.37446 6.69382 5.37446 6.59437C5.37446 6.49493 5.41396 6.39956 5.48427 6.32923L9.62026 2.19339C10.6676 1.14608 12.002 0.432858 13.4547 0.143902C14.9074 -0.145054 16.4132 0.00323626 17.7816 0.570022C19.15 1.13681 20.3196 2.09663 21.1426 3.32814C21.9655 4.55964 22.4048 6.0075 22.4049 7.48866Z" fill="#606EEA"/>
</svg>
