<svg width="24" height="24" viewBox="0 0 24 24" fill="none" xmlns="http://www.w3.org/2000/svg">
<g clip-path="url(#clip0_129:4)">
<path d="M13.5038 20.9982C7.70695 20.9982 3.00762 16.2989 3.00762 10.502C3.00762 4.70509 7.7069 0.00585938 13.5038 0.00585938C19.3007 0.00585938 24 4.70514 24 10.5021C24 16.299 19.3007 20.9982 13.5038 20.9982ZM13.5038 3.00479C9.36317 3.00479 6.00654 6.36141 6.00654 10.5021C6.00654 14.6427 9.36317 17.9993 13.5038 17.9993C17.6445 17.9993 21.0011 14.6427 21.0011 10.5021C21.0011 6.36141 17.6444 3.00479 13.5038 3.00479Z" fill="#A5A5A5"/>
<path d="M1.50815 23.9971C1.10958 23.9995 0.726507 23.843 0.443546 23.5623C-0.144446 22.9791 -0.148323 22.0297 0.434863 21.4418C0.437757 21.4389 0.440651 21.436 0.443546 21.4331L6.08149 15.7951C6.69015 15.2071 7.66023 15.2239 8.24823 15.8326C8.83622 16.4413 8.81942 17.4114 8.21076 17.9993L2.57276 23.5623C2.2898 23.843 1.90673 23.9995 1.50815 23.9971Z" fill="#A5A5A5"/>
</g>
<defs>
<clipPath id="clip0_129:4">
<rect width="24" height="24" fill="white"/>
</clipPath>
</defs>
</svg>
