<svg width="24" height="24" viewBox="0 0 24 24" fill="none" xmlns="http://www.w3.org/2000/svg">
<path d="M20.6797 2.04996L2.67969 8.04996C2.49694 8.11191 2.3359 8.22521 2.21588 8.37631C2.09585 8.52741 2.02191 8.7099 2.00292 8.90193C1.98393 9.09396 2.02069 9.2874 2.10879 9.45908C2.19689 9.63077 2.33261 9.77342 2.49969 9.86996L8.9997 13.58V21C8.99959 21.2145 9.06864 21.4233 9.19661 21.5955C9.32458 21.7677 9.50464 21.894 9.71009 21.9558C9.91553 22.0175 10.1354 22.0114 10.3371 21.9383C10.5388 21.8652 10.7115 21.729 10.8297 21.55L14.3097 16.33L20.4997 19.87C20.6524 19.9554 20.8247 19.9996 20.9996 19.9982C21.1746 19.9968 21.3461 19.9499 21.4975 19.8622C21.6488 19.7744 21.7747 19.6487 21.8628 19.4976C21.9508 19.3464 21.998 19.1749 21.9997 19V2.99996C21.9986 2.84147 21.9601 2.68548 21.8874 2.54467C21.8146 2.40386 21.7097 2.28221 21.581 2.18963C21.4524 2.09705 21.3037 2.03614 21.1471 2.01187C20.9905 1.9876 20.8303 2.00065 20.6797 2.04996ZM13.1097 14.54L10.9997 17.7V13.51L14.6697 10.89L13.1097 14.54Z" fill="white"/>
</svg>
