<svg width="24" height="24" viewBox="0 0 24 24" fill="none" xmlns="http://www.w3.org/2000/svg">
<g clip-path="url(#clip0_528:1430)">
<path d="M12 0C9.62663 0 7.30655 0.703788 5.33316 2.02236C3.35977 3.34094 1.8217 5.21509 0.913451 7.4078C0.00519938 9.60051 -0.232441 12.0133 0.230582 14.3411C0.693605 16.6689 1.83649 18.8071 3.51472 20.4853C5.19295 22.1635 7.33115 23.3064 9.65892 23.7694C11.9867 24.2324 14.3995 23.9948 16.5922 23.0866C18.7849 22.1783 20.6591 20.6402 21.9776 18.6668C23.2962 16.6935 24 14.3734 24 12C24 8.8174 22.7357 5.76516 20.4853 3.51472C18.2348 1.26428 15.1826 0 12 0V0ZM17.0242 7.37053C17.3287 7.37053 17.6263 7.46081 17.8795 7.62997C18.1327 7.79913 18.33 8.03957 18.4465 8.32087C18.563 8.60217 18.5935 8.91171 18.5341 9.21034C18.4747 9.50897 18.3281 9.78327 18.1128 9.99857C17.8975 10.2139 17.6232 10.3605 17.3246 10.4199C17.0259 10.4793 16.7164 10.4488 16.4351 10.3323C16.1538 10.2158 15.9134 10.0185 15.7442 9.76529C15.575 9.51212 15.4847 9.21448 15.4847 8.91C15.4847 8.50171 15.6469 8.11014 15.9356 7.82143C16.2244 7.53272 16.6159 7.37053 17.0242 7.37053ZM6.9758 7.37053C7.28027 7.37053 7.57792 7.46081 7.83108 7.62997C8.08425 7.79913 8.28156 8.03957 8.39808 8.32087C8.5146 8.60217 8.54509 8.91171 8.48569 9.21034C8.42629 9.50897 8.27967 9.78327 8.06437 9.99857C7.84907 10.2139 7.57476 10.3605 7.27613 10.4199C6.9775 10.4793 6.66797 10.4488 6.38666 10.3323C6.10536 10.2158 5.86493 10.0185 5.69577 9.76529C5.52661 9.51212 5.43632 9.21448 5.43632 8.91C5.43632 8.50171 5.59852 8.11014 5.88722 7.82143C6.17593 7.53272 6.5675 7.37053 6.9758 7.37053ZM18.4737 16.5016C16.4905 18.5542 14.3526 19.59 12.1074 19.59H11.9495C8.96843 19.5253 6.64737 17.6353 5.53422 16.5237C5.4384 16.429 5.36389 16.3149 5.31565 16.1891C5.26741 16.0633 5.24655 15.9287 5.25447 15.7942C5.26239 15.6597 5.29891 15.5285 5.36158 15.4092C5.42425 15.29 5.51163 15.1854 5.6179 15.1026C5.79935 14.9609 6.02621 14.8901 6.25607 14.9035C6.48593 14.9168 6.70305 15.0135 6.86685 15.1753C7.76843 16.0737 9.67579 17.6495 11.9984 17.7016C13.7353 17.7347 15.4579 16.8947 17.1032 15.2005C17.2342 15.0639 17.4031 14.9697 17.5882 14.93C17.7733 14.8903 17.966 14.907 18.1415 14.9778C18.317 15.0487 18.4673 15.1705 18.5729 15.3275C18.6786 15.4846 18.7347 15.6697 18.7342 15.8589C18.7338 16.0988 18.6404 16.3291 18.4737 16.5016Z" fill="#606EEA"/>
</g>
<defs>
<clipPath id="clip0_528:1430">
<rect width="24" height="24" fill="white"/>
</clipPath>
</defs>
</svg>
