<svg width="22" height="22" viewBox="0 0 22 22" fill="none" xmlns="http://www.w3.org/2000/svg">
<path d="M21.9427 7.96705C21.7986 7.52157 21.4035 7.20517 20.9361 7.16304L14.5862 6.58647L12.0754 0.709506C11.8902 0.278801 11.4686 0 11.0001 0C10.5316 0 10.11 0.2788 9.92486 0.710513L7.41398 6.58647L1.06317 7.16304C0.59654 7.20618 0.202426 7.52157 0.0575701 7.96705C-0.0872853 8.41252 0.0464919 8.90114 0.399483 9.20914L5.19918 13.4185L3.78386 19.653C3.6803 20.1114 3.85822 20.5852 4.23857 20.8602C4.44301 21.0079 4.6822 21.0831 4.9234 21.0831C5.13137 21.0831 5.33766 21.027 5.5228 20.9162L11.0001 17.6426L16.4754 20.9162C16.8761 21.1573 17.3811 21.1353 17.7606 20.8602C18.1412 20.5844 18.3189 20.1104 18.2154 19.653L16.8 13.4185L21.5997 9.20998C21.9527 8.90114 22.0875 8.41336 21.9427 7.96705Z" fill="#FFC107"/>
</svg>
