<svg width="24" height="24" viewBox="0 0 24 24" fill="none" xmlns="http://www.w3.org/2000/svg">
<path d="M20 0H4C2.93913 0 1.92172 0.421427 1.17157 1.17157C0.421427 1.92172 0 2.93913 0 4V20C0 21.0609 0.421427 22.0783 1.17157 22.8284C1.92172 23.5786 2.93913 24 4 24H20C21.0609 24 22.0783 23.5786 22.8284 22.8284C23.5786 22.0783 24 21.0609 24 20V4C24 2.93913 23.5786 1.92172 22.8284 1.17157C22.0783 0.421427 21.0609 0 20 0ZM15.6133 13.72C15.7383 13.844 15.8375 13.9914 15.9052 14.1539C15.9729 14.3164 16.0077 14.4907 16.0077 14.6667C16.0077 14.8427 15.9729 15.017 15.9052 15.1794C15.8375 15.3419 15.7383 15.4894 15.6133 15.6133C15.4894 15.7383 15.3419 15.8375 15.1794 15.9052C15.017 15.9729 14.8427 16.0077 14.6667 16.0077C14.4907 16.0077 14.3164 15.9729 14.1539 15.9052C13.9914 15.8375 13.844 15.7383 13.72 15.6133L12 13.88L10.28 15.6133C10.156 15.7383 10.0086 15.8375 9.8461 15.9052C9.68362 15.9729 9.50935 16.0077 9.33333 16.0077C9.15732 16.0077 8.98304 15.9729 8.82056 15.9052C8.65809 15.8375 8.51062 15.7383 8.38667 15.6133C8.2617 15.4894 8.1625 15.3419 8.09481 15.1794C8.02712 15.017 7.99227 14.8427 7.99227 14.6667C7.99227 14.4907 8.02712 14.3164 8.09481 14.1539C8.1625 13.9914 8.2617 13.844 8.38667 13.72L10.12 12L8.38667 10.28C8.1356 10.0289 7.99454 9.6884 7.99454 9.33333C7.99454 8.97826 8.1356 8.63774 8.38667 8.38667C8.63774 8.1356 8.97826 7.99454 9.33333 7.99454C9.6884 7.99454 10.0289 8.1356 10.28 8.38667L12 10.12L13.72 8.38667C13.9711 8.1356 14.3116 7.99454 14.6667 7.99454C15.0217 7.99454 15.3623 8.1356 15.6133 8.38667C15.8644 8.63774 16.0055 8.97826 16.0055 9.33333C16.0055 9.6884 15.8644 10.0289 15.6133 10.28L13.88 12L15.6133 13.72Z" fill="#223367"/>
</svg>
