<svg width="18" height="18" viewBox="0 0 18 18" fill="none" xmlns="http://www.w3.org/2000/svg">
<path d="M17.5835 13.5458L13.0382 8.99957L17.5821 4.45475C18.1375 3.8992 18.1375 2.99083 17.5821 2.43505L15.5601 0.415624C15.0047 -0.138541 14.0965 -0.138541 13.5411 0.415624L8.99705 4.96044L4.45342 0.415624C3.89937 -0.138541 2.98982 -0.138541 2.43417 0.415624L0.41657 2.43505C-0.138857 2.9906 -0.138857 3.89898 0.41657 4.45475L4.96043 8.99961L0.41657 13.5458C-0.138857 14.1014 -0.138857 15.0097 0.41657 15.5652L2.43582 17.5833C2.99124 18.1389 3.90076 18.1389 4.4548 17.5833L8.99866 13.0401L13.5422 17.5833C14.0977 18.1389 15.0058 18.1389 15.5642 17.5833L17.5835 15.5652C18.1388 15.0097 18.1388 14.1013 17.5835 13.5458Z" fill="#A5A5A5"/>
</svg>
