<svg width="24" height="24" viewBox="0 0 24 24" fill="none" xmlns="http://www.w3.org/2000/svg">
<path d="M22.0827 11.3945C21.2588 9.65874 20.2783 8.24312 19.1413 7.14765L17.9488 8.34015C18.9212 9.26944 19.7683 10.4851 20.5007 11.9992C18.5507 16.0351 15.7827 17.9523 11.9999 17.9523C10.8644 17.9523 9.81856 17.7775 8.86231 17.4278L7.5702 18.7199C8.89833 19.3332 10.3749 19.6398 11.9999 19.6398C16.5046 19.6398 19.8655 17.2937 22.0827 12.6016C22.1718 12.4128 22.2181 12.2067 22.2181 11.998C22.2181 11.7893 22.1718 11.5832 22.0827 11.3945ZM20.5928 3.87952L19.5936 2.87921C19.5762 2.86178 19.5555 2.84795 19.5328 2.83851C19.51 2.82908 19.4856 2.82422 19.461 2.82422C19.4363 2.82422 19.4119 2.82908 19.3892 2.83851C19.3664 2.84795 19.3457 2.86178 19.3283 2.87921L16.765 5.4414C15.3517 4.71952 13.7633 4.35858 11.9999 4.35858C7.4952 4.35858 4.13427 6.70468 1.91708 11.3969C1.82796 11.5856 1.78174 11.7917 1.78174 12.0004C1.78174 12.2091 1.82796 12.4152 1.91708 12.6039C2.80286 14.4695 3.86927 15.9649 5.1163 17.0901L2.63614 19.5695C2.601 19.6047 2.58127 19.6524 2.58127 19.7021C2.58127 19.7518 2.601 19.7994 2.63614 19.8346L3.63669 20.8351C3.67185 20.8703 3.71952 20.89 3.76923 20.89C3.81893 20.89 3.86661 20.8703 3.90177 20.8351L20.5928 4.14483C20.6102 4.12742 20.624 4.10674 20.6335 4.08398C20.6429 4.06122 20.6478 4.03682 20.6478 4.01218C20.6478 3.98754 20.6429 3.96314 20.6335 3.94038C20.624 3.91762 20.6102 3.89694 20.5928 3.87952ZM3.49911 11.9992C5.45145 7.96327 8.21942 6.04608 11.9999 6.04608C13.2782 6.04608 14.4404 6.26546 15.4949 6.71148L13.8472 8.35913C13.0669 7.9428 12.1735 7.78828 11.2987 7.91838C10.4238 8.04848 9.61401 8.4563 8.98862 9.08169C8.36324 9.70708 7.95541 10.5169 7.82531 11.3917C7.69521 12.2665 7.84973 13.16 8.26606 13.9403L6.31091 15.8955C5.2288 14.9404 4.29599 13.6464 3.49911 11.9992ZM9.28114 11.9992C9.28155 11.5859 9.37945 11.1786 9.56687 10.8102C9.75429 10.4419 10.026 10.1229 10.3598 9.87931C10.6937 9.63568 11.0803 9.47425 11.4882 9.40811C11.8962 9.34197 12.314 9.37299 12.7077 9.49866L9.40559 12.8008C9.32283 12.5416 9.28084 12.2712 9.28114 11.9992Z" fill="white"/>
<path d="M11.9064 14.6247C11.8253 14.6247 11.7454 14.6209 11.6662 14.6137L10.4282 15.8516C11.1728 16.1368 11.9841 16.2002 12.7639 16.0341C13.5437 15.868 14.2588 15.4796 14.8225 14.9158C15.3863 14.352 15.7747 13.637 15.9408 12.8571C16.1069 12.0773 16.0435 11.2661 15.7584 10.5215L14.5204 11.7595C14.5277 11.8387 14.5314 11.9186 14.5314 11.9997C14.5316 12.3445 14.4638 12.6859 14.332 13.0045C14.2001 13.323 14.0068 13.6125 13.763 13.8563C13.5192 14.1 13.2298 14.2934 12.9112 14.4252C12.5926 14.5571 12.2512 14.6249 11.9064 14.6247Z" fill="white"/>
</svg>
