<svg width="20" height="20" viewBox="0 0 20 20" fill="none" xmlns="http://www.w3.org/2000/svg">
<path d="M18.4028 9.49544C17.7162 8.04895 16.8992 6.86926 15.9517 5.95637L14.9579 6.95012C15.7683 7.72454 16.4741 8.73762 17.0845 9.99934C15.4595 13.3626 13.1528 14.9603 10.0005 14.9603C9.05426 14.9603 8.18271 14.8146 7.38583 14.5232L6.30907 15.5999C7.41584 16.111 8.64631 16.3665 10.0005 16.3665C13.7544 16.3665 16.5552 14.4115 18.4028 10.5013C18.4771 10.344 18.5156 10.1723 18.5156 9.99837C18.5156 9.82445 18.4771 9.65269 18.4028 9.49544ZM17.1612 3.23294L16.3286 2.39934C16.3141 2.38481 16.2969 2.37329 16.2779 2.36543C16.2589 2.35756 16.2386 2.35352 16.2181 2.35352C16.1975 2.35352 16.1772 2.35756 16.1582 2.36543C16.1393 2.37329 16.122 2.38481 16.1075 2.39934L13.9714 4.5345C12.7936 3.93294 11.47 3.63215 10.0005 3.63215C6.24657 3.63215 3.44579 5.58723 1.59814 9.49739C1.52387 9.65465 1.48535 9.8264 1.48535 10.0003C1.48535 10.1742 1.52387 10.346 1.59814 10.5032C2.33629 12.0579 3.22496 13.3041 4.26415 14.2417L2.19735 16.3079C2.16807 16.3372 2.15163 16.377 2.15163 16.4184C2.15163 16.4598 2.16807 16.4995 2.19735 16.5288L3.03114 17.3626C3.06044 17.3919 3.10017 17.4084 3.14159 17.4084C3.18301 17.4084 3.22274 17.3919 3.25204 17.3626L17.1612 3.45403C17.1758 3.43952 17.1873 3.42229 17.1951 3.40332C17.203 3.38435 17.207 3.36402 17.207 3.34348C17.207 3.32295 17.203 3.30262 17.1951 3.28365C17.1873 3.26468 17.1758 3.24745 17.1612 3.23294ZM2.91649 9.99934C4.54345 6.63606 6.85009 5.0384 10.0005 5.0384C11.0657 5.0384 12.0343 5.22122 12.913 5.5929L11.5399 6.96594C10.8897 6.619 10.1451 6.49023 9.41611 6.59865C8.68711 6.70707 8.01224 7.04692 7.49109 7.56808C6.96993 8.08923 6.63008 8.76409 6.52166 9.4931C6.41325 10.2221 6.54201 10.9667 6.88896 11.6169L5.25966 13.2462C4.3579 12.4503 3.58056 11.372 2.91649 9.99934ZM7.73485 9.99934C7.7352 9.65494 7.81677 9.31547 7.97296 9.00852C8.12915 8.70156 8.35554 8.43578 8.63374 8.23276C8.91195 8.02974 9.23412 7.89521 9.57409 7.84009C9.91405 7.78497 10.2622 7.81083 10.5903 7.91555L7.83857 10.6673C7.76959 10.4514 7.73461 10.226 7.73485 9.99934Z" fill="#1F1A3E"/>
<path d="M9.92227 12.1869C9.85469 12.1869 9.78809 12.1838 9.72207 12.1777L8.69043 13.2094C9.31092 13.447 9.98696 13.4998 10.6368 13.3614C11.2867 13.223 11.8825 12.8993 12.3524 12.4295C12.8222 11.9597 13.1459 11.3638 13.2843 10.714C13.4227 10.0641 13.3699 9.38807 13.1322 8.76758L12.1006 9.79922C12.1066 9.86523 12.1098 9.93184 12.1098 9.99941C12.1099 10.2867 12.0534 10.5712 11.9436 10.8367C11.8337 11.1022 11.6726 11.3434 11.4694 11.5466C11.2662 11.7497 11.025 11.9108 10.7596 12.0207C10.4941 12.1306 10.2096 12.1871 9.92227 12.1869Z" fill="#1F1A3E"/>
</svg>
