<svg width="14" height="16" viewBox="0 0 14 16" fill="none" xmlns="http://www.w3.org/2000/svg">
<path fill-rule="evenodd" clip-rule="evenodd" d="M7.00016 16C7.25271 16 7.4949 15.8947 7.67348 15.7071C7.85205 15.5196 7.95237 15.2653 7.95237 15.0001V3.41541L12.0393 7.70893C12.1278 7.80189 12.2329 7.87564 12.3486 7.92595C12.4642 7.97626 12.5882 8.00216 12.7134 8.00216C12.8386 8.00216 12.9626 7.97626 13.0783 7.92595C13.1939 7.87564 13.2991 7.80189 13.3876 7.70893C13.4761 7.61596 13.5463 7.5056 13.5943 7.38413C13.6422 7.26266 13.6668 7.13248 13.6668 7.00101C13.6668 6.86953 13.6422 6.73935 13.5943 6.61788C13.5463 6.49642 13.4761 6.38605 13.3876 6.29308L7.67433 0.293755C7.58588 0.200639 7.4808 0.126761 7.36511 0.0763536C7.24943 0.0259463 7.12541 0 7.00016 0C6.87492 0 6.7509 0.0259463 6.63521 0.0763536C6.51953 0.126761 6.41445 0.200639 6.326 0.293755L0.612744 6.29308C0.433945 6.48084 0.333496 6.73548 0.333496 7.00101C0.333496 7.26653 0.433945 7.52117 0.612744 7.70893C0.791544 7.89668 1.03405 8.00216 1.28691 8.00216C1.53977 8.00216 1.78227 7.89668 1.96107 7.70893L6.04795 3.41541V15.0001C6.04795 15.2653 6.14828 15.5196 6.32685 15.7071C6.50542 15.8947 6.74762 16 7.00016 16Z" fill="white"/>
</svg>
