<svg width="28" height="28" viewBox="0 0 28 28" fill="none" xmlns="http://www.w3.org/2000/svg">
<g clip-path="url(#clip0_1506_3175)">
<path d="M15.7544 24.4969C8.99144 24.4969 3.50889 19.0144 3.50889 12.2514C3.50889 5.48829 8.99138 0.00585938 15.7544 0.00585938C22.5175 0.00585938 28 5.48835 28 12.2514C28 19.0145 22.5175 24.4969 15.7544 24.4969ZM15.7544 3.50461C10.9237 3.50461 7.00763 7.42067 7.00763 12.2514C7.00763 17.0822 10.9237 20.9982 15.7544 20.9982C20.5852 20.9982 24.5013 17.0822 24.5013 12.2514C24.5013 7.42067 20.5851 3.50461 15.7544 3.50461Z" fill="#606EEA"/>
<path d="M1.75951 27.9957C1.29451 27.9984 0.847592 27.8158 0.51747 27.4884C-0.168521 26.808 -0.173043 25.7004 0.50734 25.0144C0.510717 25.011 0.514093 25.0076 0.51747 25.0043L7.09507 18.4267C7.80518 17.7407 8.93694 17.7603 9.62293 18.4704C10.3089 19.1805 10.2893 20.3123 9.57922 20.9983L3.00156 27.4884C2.67143 27.8158 2.22452 27.9984 1.75951 27.9957Z" fill="#606EEA"/>
</g>
<defs>
<clipPath id="clip0_1506_3175">
<rect width="28" height="28" fill="white"/>
</clipPath>
</defs>
</svg>
