<svg width="26" height="23" viewBox="0 0 26 23" fill="none" xmlns="http://www.w3.org/2000/svg">
<path d="M25.94 8.66617C25.94 8.7122 25.9533 8.74673 25.98 8.76975C26.0067 8.79276 26.0067 8.82729 25.98 8.87333V9.56386C25.98 9.79403 25.8866 9.98969 25.6998 10.1508C25.513 10.3119 25.2861 10.3925 25.0192 10.3925H23.1778V21.5791C23.1778 21.8093 23.0978 21.9934 22.9376 22.1315C22.7775 22.2696 22.5507 22.3502 22.2571 22.3732H3.72286C3.45599 22.3732 3.22915 22.2926 3.04234 22.1315C2.85553 21.9704 2.76212 21.7863 2.76212 21.5791V10.3925H0.920708C0.653836 10.3925 0.440339 10.3119 0.280216 10.1508C0.120092 9.98969 0.0266872 9.79403 0 9.56386V8.87333C0 8.78125 0.0133436 8.7122 0.0400308 8.66617L2.40185 1.1739C2.53528 0.80562 2.76212 0.517898 3.08237 0.310739C3.40262 0.10358 3.77624 0 4.20323 0H21.7768C22.2037 0 22.5774 0.10358 22.8976 0.310739C23.2179 0.517898 23.4314 0.80562 23.5381 1.1739L25.94 8.66617ZM20.4157 10.3925H5.56428V14.7774C5.56428 14.8925 5.61765 14.9845 5.7244 15.0536C5.83115 15.1226 5.9379 15.1687 6.04465 15.1917H19.9353C20.0688 15.1917 20.1889 15.1457 20.2956 15.0536C20.4024 14.9615 20.4424 14.8694 20.4157 14.7774V10.3925Z" fill="#606EEA"/>
</svg>
