<svg width="8" height="8" viewBox="0 0 8 8" fill="none" xmlns="http://www.w3.org/2000/svg">
<path d="M4.63487 3.75256L7.32237 1.07131C7.44006 0.953618 7.50618 0.793996 7.50618 0.627557C7.50618 0.461119 7.44006 0.301497 7.32237 0.183807C7.20468 0.0661175 7.04506 0 6.87862 0C6.71218 0 6.55256 0.0661175 6.43487 0.183807L3.75362 2.87131L1.07237 0.183807C0.954684 0.0661175 0.795062 -1.24006e-09 0.628624 0C0.462185 1.24006e-09 0.302564 0.0661175 0.184874 0.183807C0.0671841 0.301497 0.00106663 0.461119 0.00106663 0.627557C0.00106662 0.793996 0.0671841 0.953618 0.184874 1.07131L2.87237 3.75256L0.184874 6.43381C0.126294 6.49191 0.0797974 6.56104 0.048067 6.6372C0.0163365 6.71336 0 6.79505 0 6.87756C0 6.96006 0.0163365 7.04176 0.048067 7.11792C0.0797974 7.19408 0.126294 7.26321 0.184874 7.32131C0.242976 7.37989 0.312101 7.42638 0.388263 7.45812C0.464425 7.48985 0.546116 7.50618 0.628624 7.50618C0.711131 7.50618 0.792822 7.48985 0.868984 7.45812C0.945146 7.42638 1.01427 7.37989 1.07237 7.32131L3.75362 4.63381L6.43487 7.32131C6.49298 7.37989 6.5621 7.42638 6.63826 7.45812C6.71443 7.48985 6.79612 7.50618 6.87862 7.50618C6.96113 7.50618 7.04282 7.48985 7.11898 7.45812C7.19515 7.42638 7.26427 7.37989 7.32237 7.32131C7.38095 7.26321 7.42745 7.19408 7.45918 7.11792C7.49091 7.04176 7.50725 6.96006 7.50725 6.87756C7.50725 6.79505 7.49091 6.71336 7.45918 6.6372C7.42745 6.56104 7.38095 6.49191 7.32237 6.43381L4.63487 3.75256Z" fill="#C4C4C4"/>
</svg>
