<svg width="32" height="30" viewBox="0 0 32 30" fill="none" xmlns="http://www.w3.org/2000/svg">
<g clip-path="url(#clip0_2314_34037)">
<path d="M3.17963 30H0.917201C0.410661 30 0 29.6065 0 29.1211V18.5742C0 18.0888 0.410661 17.6953 0.917201 17.6953H3.17963C3.68617 17.6953 4.09683 18.0888 4.09683 18.5742V29.1211C4.09683 29.6065 3.68617 30 3.17963 30Z" fill="#606EEA"/>
<path d="M30.1611 20.4382C29.454 20.0652 28.5911 20.0906 27.9092 20.5045L24.5535 22.5411C24.4521 23.3708 24.0709 24.1406 23.4498 24.7501C22.695 25.4906 21.6854 25.8984 20.6069 25.8984H16.0468C15.5529 25.8984 15.1279 25.5347 15.1047 25.062C15.0799 24.5573 15.4996 24.1406 16.0208 24.1406H20.6069C21.804 24.1406 22.7749 23.1936 22.7464 22.0403C22.7187 20.9208 21.7353 20.0391 20.5667 20.0391H15.4094L14.8111 19.6091C13.6197 18.7528 12.1434 18.2812 10.654 18.2812C9.39854 18.2812 8.16588 18.6084 7.08927 19.2274L5.93164 19.893V28.8281H21.3483C22.2398 28.8281 23.1119 28.5792 23.858 28.1117L30.3053 24.0722C30.9328 23.6789 31.3075 23.0152 31.3075 22.2966C31.3075 21.5232 30.8682 20.8111 30.1611 20.4382Z" fill="#606EEA"/>
<path d="M12.9637 0C8.74911 0 5.32031 3.28564 5.32031 7.32422C5.32031 11.3628 8.74911 14.6484 12.9637 14.6484C17.1782 14.6484 20.607 11.3628 20.607 7.32422C20.607 3.28564 17.1782 0 12.9637 0ZM13.8809 10.9612V11.1328C13.8809 11.6182 13.4702 12.0117 12.9637 12.0117C12.4571 12.0117 12.0465 11.6182 12.0465 11.1328V10.9604C11.3052 10.6712 10.7333 10.0419 10.5669 9.25693C10.4662 8.78127 10.7868 8.31732 11.2833 8.22064C11.7796 8.1242 12.2639 8.43141 12.3647 8.90707C12.4221 9.17818 12.6741 9.37494 12.9637 9.37494C13.3009 9.37494 13.5752 9.11209 13.5752 8.789C13.5752 8.46592 13.3009 8.20307 12.9637 8.20307C11.6151 8.20307 10.5178 7.15166 10.5178 5.85932C10.5178 4.87775 11.1511 4.03564 12.0465 3.68719V3.51562C12.0465 3.03023 12.4572 2.63672 12.9637 2.63672C13.4703 2.63672 13.8809 3.03023 13.8809 3.51562V3.68801C14.6221 3.97723 15.1941 4.60652 15.3604 5.3915C15.4612 5.86717 15.1405 6.33111 14.6441 6.42779C14.1478 6.52436 13.6635 6.21703 13.5626 5.74137C13.5052 5.4702 13.2532 5.27344 12.9637 5.27344C12.6265 5.27344 12.3522 5.53629 12.3522 5.85938C12.3522 6.18246 12.6265 6.44531 12.9637 6.44531C14.3123 6.44531 15.4095 7.49672 15.4095 8.78906C15.4095 9.77063 14.7762 10.6127 13.8809 10.9612Z" fill="#606EEA"/>
<path d="M31.2198 11.8244C31.0688 11.5156 30.745 11.3183 30.3891 11.3183H29.0541C28.2434 8.25033 26.4158 5.47393 23.8531 3.4402C22.6609 2.49414 21.3328 1.73014 19.9199 1.16406C21.4831 2.78406 22.4401 4.94887 22.4401 7.32408C22.4401 8.05463 22.349 8.76502 22.1782 9.44605C22.6041 10.0309 22.9642 10.6589 23.2474 11.3183H22.4401C22.0842 11.3183 21.7604 11.5156 21.6095 11.8244C21.4585 12.1333 21.5077 12.4979 21.7355 12.7599L25.71 17.3302C25.8843 17.5306 26.1424 17.6464 26.4146 17.6464C26.6868 17.6464 26.945 17.5305 27.1192 17.3302L31.0937 12.7599C31.3216 12.4979 31.3707 12.1332 31.2198 11.8244Z" fill="#606EEA"/>
</g>
<defs>
<clipPath id="clip0_2314_34037">
<rect width="31.3071" height="30" fill="white"/>
</clipPath>
</defs>
</svg>
