<svg width="24" height="24" viewBox="0 0 24 24" fill="none" xmlns="http://www.w3.org/2000/svg">
<path d="M23.25 3.74906H13.5V1.49906C13.5 1.27556 13.401 1.06406 13.2285 0.921558C13.0575 0.779058 12.828 0.717558 12.612 0.762558L0.612 3.01256C0.2565 3.07856 0 3.38756 0 3.74906V20.2491C0 20.6091 0.2565 20.9196 0.612 20.9856L12.612 23.2356C12.657 23.2446 12.7035 23.2491 12.75 23.2491C12.924 23.2491 13.0935 23.1891 13.2285 23.0766C13.401 22.9341 13.5 22.7211 13.5 22.4991V20.2491H23.25C23.664 20.2491 24 19.9131 24 19.4991V4.49906C24 4.08506 23.664 3.74906 23.25 3.74906ZM10.314 14.5056C10.587 14.8161 10.5555 15.2901 10.2435 15.5631C10.101 15.6876 9.9255 15.7491 9.75 15.7491C9.5415 15.7491 9.3345 15.6621 9.186 15.4926L7.005 13.0011L5.0925 15.4611C4.944 15.6501 4.722 15.7491 4.5 15.7491C4.3395 15.7491 4.1775 15.6981 4.0395 15.5916C3.7125 15.3366 3.654 14.8656 3.9075 14.5386L5.9985 11.8506L3.936 9.49256C3.663 9.18206 3.6945 8.70806 4.0065 8.43506C4.317 8.16206 4.7895 8.19206 5.0655 8.50556L6.9375 10.6446L9.159 7.78856C9.414 7.46306 9.885 7.40306 10.212 7.65806C10.539 7.91156 10.5975 8.38256 10.3425 8.71106L7.9425 11.7951L10.314 14.5056ZM22.5 18.7491H13.5V17.2491H15.75C16.164 17.2491 16.5 16.9131 16.5 16.4991C16.5 16.0851 16.164 15.7491 15.75 15.7491H13.5V14.2491H15.75C16.164 14.2491 16.5 13.9131 16.5 13.4991C16.5 13.0851 16.164 12.7491 15.75 12.7491H13.5V11.2491H15.75C16.164 11.2491 16.5 10.9131 16.5 10.4991C16.5 10.0851 16.164 9.74906 15.75 9.74906H13.5V8.24906H15.75C16.164 8.24906 16.5 7.91306 16.5 7.49906C16.5 7.08506 16.164 6.74906 15.75 6.74906H13.5V5.24906H22.5V18.7491Z" fill="white"/>
<path d="M20.25 6.75H18.75C18.336 6.75 18 7.086 18 7.5C18 7.914 18.336 8.25 18.75 8.25H20.25C20.664 8.25 21 7.914 21 7.5C21 7.086 20.664 6.75 20.25 6.75Z" fill="white"/>
<path d="M20.25 9.75H18.75C18.336 9.75 18 10.086 18 10.5C18 10.914 18.336 11.25 18.75 11.25H20.25C20.664 11.25 21 10.914 21 10.5C21 10.086 20.664 9.75 20.25 9.75Z" fill="white"/>
<path d="M20.25 12.75H18.75C18.336 12.75 18 13.086 18 13.5C18 13.914 18.336 14.25 18.75 14.25H20.25C20.664 14.25 21 13.914 21 13.5C21 13.086 20.664 12.75 20.25 12.75Z" fill="white"/>
<path d="M20.25 15.75H18.75C18.336 15.75 18 16.086 18 16.5C18 16.914 18.336 17.25 18.75 17.25H20.25C20.664 17.25 21 16.914 21 16.5C21 16.086 20.664 15.75 20.25 15.75Z" fill="white"/>
</svg>
