<svg width="32" height="30" viewBox="0 0 32 30" fill="none" xmlns="http://www.w3.org/2000/svg">
<g clip-path="url(#clip0_2314_34042)">
<path d="M7.31604 6.08341L19.7967 2.81895L19.1357 1.53877C18.7033 0.706658 17.6486 0.363031 16.7802 0.777405L5.60742 6.08341H7.31604Z" fill="#45D654"/>
<path d="M23.6709 2.9137C23.5162 2.9137 23.3615 2.93391 23.2068 2.97434L20.2748 3.74244L11.3203 6.08382H21.4841H25.9139L25.3654 4.15682C25.1545 3.40555 24.4443 2.9137 23.6709 2.9137Z" fill="#45D654"/>
<path d="M27.7457 7.26331H27.3449H26.8H26.2551H22.096H6.81338H4.80945H3.12192H2.80903H1.76135C1.20588 7.26331 0.710167 7.50924 0.386725 7.89666C0.239066 8.07521 0.126564 8.28071 0.0632822 8.50643C0.0246097 8.64792 0 8.79615 0 8.94775V9.14989V11.0702V27.7159C0 28.6457 0.787512 29.4003 1.75784 29.4003H27.7422C28.7126 29.4003 29.5001 28.6457 29.5001 27.7159V23.0163H19.069C17.4202 23.0163 16.0807 21.7327 16.0807 20.1527V18.6097V18.0876V17.5654V16.4065C16.0807 15.6316 16.4041 14.9276 16.928 14.4121C17.3921 13.9539 18.0143 13.644 18.7104 13.5665C18.8265 13.5531 18.946 13.5463 19.0655 13.5463H28.0375H28.5825H29.1274H29.5001V8.94775C29.5036 8.01794 28.7161 7.26331 27.7457 7.26331Z" fill="#45D654"/>
<path d="M30.7353 15.1565C30.5595 15.0015 30.3521 14.8836 30.1201 14.8061C29.9408 14.7489 29.7509 14.7152 29.5506 14.7152H29.5048H29.4697H28.9248H26.9595H19.0703C18.1 14.7152 17.3125 15.4698 17.3125 16.3997V17.2385V17.7607V18.2828V20.1492C17.3125 21.079 18.1 21.8336 19.0703 21.8336H29.5048H29.5506C29.7509 21.8336 29.9408 21.8 30.1201 21.7427C30.3521 21.6686 30.5595 21.5473 30.7353 21.3923C31.0869 21.0858 31.3084 20.6411 31.3084 20.1492V16.3997C31.3084 15.9078 31.0869 15.463 30.7353 15.1565ZM22.7407 18.6096C22.7407 19.0745 22.3469 19.4518 21.8618 19.4518H21.2782C20.793 19.4518 20.3993 19.0745 20.3993 18.6096V18.0504C20.3993 17.7809 20.5293 17.5416 20.7368 17.39C20.8879 17.2789 21.0743 17.2082 21.2782 17.2082H21.4258H21.8618C22.3469 17.2082 22.7407 17.5854 22.7407 18.0504V18.6096Z" fill="#45D654"/>
</g>
<defs>
<clipPath id="clip0_2314_34042">
<rect width="31.3071" height="30" fill="white"/>
</clipPath>
</defs>
</svg>
