<svg width="32" height="30" viewBox="0 0 32 30" fill="none" xmlns="http://www.w3.org/2000/svg">
<g clip-path="url(#clip0)">
<path d="M7.31799 6.08341L19.7986 2.81895L19.1377 1.53877C18.7053 0.706658 17.6506 0.363031 16.7822 0.777405L5.60938 6.08341H7.31799Z" fill="#45D654"/>
<path d="M23.6709 2.91406C23.5162 2.91406 23.3615 2.93428 23.2068 2.9747L20.2748 3.74281L11.3203 6.08418H21.4841H25.9139L25.3654 4.15718C25.1545 3.40592 24.4443 2.91406 23.6709 2.91406Z" fill="#45D654"/>
<path d="M27.7457 7.26367H27.3449H26.8H26.2551H22.096H6.81338H4.80945H3.12192H2.80903H1.76135C1.20588 7.26367 0.710167 7.5096 0.386725 7.89702C0.239066 8.07558 0.126564 8.28108 0.0632822 8.50679C0.0246097 8.64829 0 8.79652 0 8.94812V9.15025V11.0705V27.7162C0 28.6461 0.787512 29.4007 1.75784 29.4007H27.7422C28.7126 29.4007 29.5001 28.6461 29.5001 27.7162V23.0166H19.069C17.4202 23.0166 16.0807 21.7331 16.0807 20.1531V18.6101V18.0879V17.5657V16.4068C16.0807 15.632 16.4041 14.9279 16.928 14.4125C17.3921 13.9543 18.0143 13.6444 18.7104 13.5669C18.8265 13.5534 18.946 13.5467 19.0655 13.5467H28.0375H28.5825H29.1274H29.5001V8.94812C29.5036 8.0183 28.7161 7.26367 27.7457 7.26367Z" fill="#45D654"/>
<path d="M30.7353 15.1561C30.5595 15.0012 30.3521 14.8833 30.1201 14.8058C29.9408 14.7485 29.7509 14.7148 29.5506 14.7148H29.5048H29.4697H28.9248H26.9595H19.0703C18.1 14.7148 17.3125 15.4694 17.3125 16.3993V17.2381V17.7603V18.2825V20.1488C17.3125 21.0787 18.1 21.8333 19.0703 21.8333H29.5048H29.5506C29.7509 21.8333 29.9408 21.7996 30.1201 21.7423C30.3521 21.6682 30.5595 21.5469 30.7353 21.392C31.0869 21.0854 31.3084 20.6407 31.3084 20.1489V16.3993C31.3084 15.9074 31.0869 15.4627 30.7353 15.1561ZM22.7407 18.6093C22.7407 19.0742 22.3469 19.4515 21.8618 19.4515H21.2782C20.793 19.4515 20.3993 19.0742 20.3993 18.6093V18.05C20.3993 17.7805 20.5293 17.5413 20.7368 17.3897C20.8879 17.2785 21.0743 17.2078 21.2782 17.2078H21.4258H21.8618C22.3469 17.2078 22.7407 17.5851 22.7407 18.05V18.6093Z" fill="#45D654"/>
</g>
<defs>
<clipPath id="clip0">
<rect width="31.3071" height="30" fill="white"/>
</clipPath>
</defs>
</svg>
