<svg width="24" height="24" viewBox="0 0 24 24" fill="none" xmlns="http://www.w3.org/2000/svg">
<path d="M19.5 0.75H4.5C3.50544 0.75 2.55161 1.14509 1.84835 1.84835C1.14509 2.55161 0.75 3.50544 0.75 4.5V19.5C0.75 20.4946 1.14509 21.4484 1.84835 22.1517C2.55161 22.8549 3.50544 23.25 4.5 23.25H19.5C20.4946 23.25 21.4484 22.8549 22.1517 22.1517C22.8549 21.4484 23.25 20.4946 23.25 19.5V4.5C23.25 3.50544 22.8549 2.55161 22.1517 1.84835C21.4484 1.14509 20.4946 0.75 19.5 0.75ZM15.75 13.25H13.25V15.75C13.25 16.0815 13.1183 16.3995 12.8839 16.6339C12.6495 16.8683 12.3315 17 12 17C11.6685 17 11.3505 16.8683 11.1161 16.6339C10.8817 16.3995 10.75 16.0815 10.75 15.75V13.25H8.25C7.91848 13.25 7.60054 13.1183 7.36612 12.8839C7.1317 12.6495 7 12.3315 7 12C7 11.6685 7.1317 11.3505 7.36612 11.1161C7.60054 10.8817 7.91848 10.75 8.25 10.75H10.75V8.25C10.75 7.91848 10.8817 7.60054 11.1161 7.36612C11.3505 7.1317 11.6685 7 12 7C12.3315 7 12.6495 7.1317 12.8839 7.36612C13.1183 7.60054 13.25 7.91848 13.25 8.25V10.75H15.75C16.0815 10.75 16.3995 10.8817 16.6339 11.1161C16.8683 11.3505 17 11.6685 17 12C17 12.3315 16.8683 12.6495 16.6339 12.8839C16.3995 13.1183 16.0815 13.25 15.75 13.25Z" fill="#606EEA"/>
</svg>
