<svg width="16" height="16" viewBox="0 0 16 16" fill="none" xmlns="http://www.w3.org/2000/svg">
<path d="M13.3333 0H2.66667C1.95942 0 1.28115 0.280952 0.781049 0.781049C0.280952 1.28115 0 1.95942 0 2.66667V13.3333C0 14.0406 0.280952 14.7189 0.781049 15.219C1.28115 15.719 1.95942 16 2.66667 16H13.3333C14.0406 16 14.7189 15.719 15.219 15.219C15.719 14.7189 16 14.0406 16 13.3333V2.66667C16 1.95942 15.719 1.28115 15.219 0.781049C14.7189 0.280952 14.0406 0 13.3333 0ZM10.6667 8.88889H8.88889V10.6667C8.88889 10.9024 8.79524 11.1285 8.62854 11.2952C8.46184 11.4619 8.23575 11.5556 8 11.5556C7.76425 11.5556 7.53816 11.4619 7.37146 11.2952C7.20476 11.1285 7.11111 10.9024 7.11111 10.6667V8.88889H5.33333C5.09759 8.88889 4.87149 8.79524 4.70479 8.62854C4.53809 8.46184 4.44444 8.23575 4.44444 8C4.44444 7.76425 4.53809 7.53816 4.70479 7.37146C4.87149 7.20476 5.09759 7.11111 5.33333 7.11111H7.11111V5.33333C7.11111 5.09759 7.20476 4.87149 7.37146 4.70479C7.53816 4.53809 7.76425 4.44444 8 4.44444C8.23575 4.44444 8.46184 4.53809 8.62854 4.70479C8.79524 4.87149 8.88889 5.09759 8.88889 5.33333V7.11111H10.6667C10.9024 7.11111 11.1285 7.20476 11.2952 7.37146C11.4619 7.53816 11.5556 7.76425 11.5556 8C11.5556 8.23575 11.4619 8.46184 11.2952 8.62854C11.1285 8.79524 10.9024 8.88889 10.6667 8.88889Z" fill="#606EEA"/>
</svg>
