<svg width="14" height="14" viewBox="0 0 14 14" fill="none" xmlns="http://www.w3.org/2000/svg">
<path d="M13.1946 6.79996C13.1946 3.27444 10.3265 0.40625 6.80093 0.40625C3.27541 0.40625 0.407227 3.27444 0.407227 6.79996C0.407227 10.3255 3.27541 13.1937 6.80093 13.1937C10.3265 13.1937 13.1946 10.3255 13.1946 6.79996ZM5.53149 6.49284V3.25907C5.53149 2.70562 5.98018 2.25693 6.53363 2.25693C7.08708 2.25693 7.53577 2.70562 7.53577 3.25907V5.79782H9.87409C10.4275 5.79782 10.8762 6.24651 10.8762 6.79996C10.8762 7.3534 10.4275 7.80209 9.87409 7.80209H6.86654C6.11794 7.80209 5.53149 7.227 5.53149 6.49284Z" fill="white"/>
</svg>
