<svg width="24" height="24" viewBox="0 0 24 24" fill="none" xmlns="http://www.w3.org/2000/svg">
<path d="M12.8108 0.810547C9.18862 0.810547 5.77401 2.57685 3.67673 5.53549C3.35665 5.98699 3.46321 6.61252 3.91477 6.93261C4.36627 7.25256 4.9918 7.14606 5.31189 6.69457C7.03403 4.26518 9.83734 2.81482 12.8108 2.81482C17.8754 2.81482 21.9958 6.93515 21.9958 11.9998C21.9958 17.0644 17.8754 21.1847 12.8108 21.1847C8.53617 21.1847 4.8322 18.1972 3.86934 14.1094L3.94758 14.209C4.28937 14.6443 4.91938 14.7201 5.35471 14.3782C5.79004 14.0364 5.86574 13.4064 5.52394 12.9711L3.6458 10.5797C3.38511 10.2477 2.9888 10.0684 2.58627 10.0996C2.18355 10.131 1.82004 10.3695 1.6138 10.7377L0.127962 13.3907C-0.142482 13.8735 0.0297524 14.4843 0.512649 14.7547C0.66758 14.8415 0.835605 14.8827 1.00143 14.8826C1.35117 14.8826 1.6907 14.6991 1.87482 14.3731C2.3791 16.7029 3.62275 18.8235 5.43281 20.4121C7.4731 22.2028 10.0933 23.189 12.8108 23.189C18.9806 23.189 24.0001 18.1695 24.0001 11.9998C24.0001 5.82999 18.9805 0.810547 12.8108 0.810547Z" fill="white"/>
</svg>
