<svg width="14" height="14" viewBox="0 0 14 14" fill="none" xmlns="http://www.w3.org/2000/svg">
<path d="M13.1956 6.79996C13.1956 3.27444 10.3274 0.40625 6.80191 0.40625C3.27639 0.40625 0.408203 3.27444 0.408203 6.79996C0.408203 10.3255 3.27639 13.1937 6.80191 13.1937C10.3274 13.1937 13.1956 10.3255 13.1956 6.79996ZM5.53247 6.49284V3.25907C5.53247 2.70562 5.98116 2.25693 6.53461 2.25693C7.08805 2.25693 7.53675 2.70562 7.53675 3.25907V5.79782H9.87507C10.4285 5.79782 10.8772 6.24651 10.8772 6.79996C10.8772 7.3534 10.4285 7.80209 9.87507 7.80209H6.86752C6.11892 7.80209 5.53247 7.227 5.53247 6.49284Z" fill="white"/>
</svg>
