<svg width="20" height="19" viewBox="0 0 20 19" fill="none" xmlns="http://www.w3.org/2000/svg">
<path fill-rule="evenodd" clip-rule="evenodd" d="M19.7567 4.37227L9.99993 9.69417L0.243131 4.37227C0.553431 3.35131 1.18284 2.45671 2.03897 1.81978C2.8951 1.18285 3.93286 0.837129 4.99993 0.833374H14.9999C16.067 0.837129 17.1048 1.18285 17.9609 1.81978C18.817 2.45671 19.4464 3.35131 19.7567 4.37227ZM10 11.8323C10.1674 11.8323 10.3321 11.7904 10.479 11.7103L20 6.51697V13.8324C19.9984 15.158 19.4712 16.4288 18.5338 17.3662C17.5965 18.3035 16.3256 18.8308 15 18.8324H5C3.6744 18.8308 2.40353 18.3035 1.46619 17.3662C0.528847 16.4288 0.00156145 15.158 0 13.8324V6.51697L9.521 11.7103C9.66795 11.7904 9.83264 11.8323 10 11.8323Z" fill="white"/>
</svg>
