<svg width="24" height="24" viewBox="0 0 24 24" fill="none" xmlns="http://www.w3.org/2000/svg">
<path d="M21 0H3C1.34325 0 0 1.34325 0 3V21C0 22.6567 1.34325 24 3 24H21C22.6567 24 24 22.6567 24 21V3C24 1.34325 22.6567 0 21 0ZM9 18C9.414 18 9.75 18.336 9.75 18.75C9.75 19.164 9.414 19.5 9 19.5H5.27102C5.06102 19.5 4.87275 19.413 4.73702 19.2742C4.59153 19.1512 4.50004 18.972 4.50004 18.75V15C4.50004 14.586 4.83604 14.25 5.25004 14.25C5.66404 14.25 6 14.586 6 15L5.98349 16.9245L9.56698 13.341L10.6275 14.4015L7.02898 18H9ZM9.56698 10.6598L5.98349 7.07553L6 9C6 9.414 5.664 9.75 5.25 9.75C4.836 9.75 4.5 9.414 4.5 9V5.25C4.5 5.028 4.59149 4.84875 4.73698 4.72498C4.87271 4.58698 5.06173 4.5 5.27098 4.5H9C9.414 4.5 9.75 4.836 9.75 5.25C9.75 5.664 9.414 6 9 6H7.02898L10.6282 9.59926L9.56698 10.6598ZM19.5 18.75C19.5 18.972 19.4085 19.1512 19.263 19.275C19.1273 19.4138 18.9383 19.5 18.729 19.5H15C14.586 19.5 14.25 19.164 14.25 18.75C14.25 18.336 14.586 18 15 18H16.971L13.3718 14.4007L14.4323 13.3403L18.0158 16.9238L18 15C18 14.586 18.336 14.25 18.75 14.25C19.164 14.25 19.5 14.586 19.5 15V18.75ZM19.5 9C19.5 9.414 19.164 9.75 18.75 9.75C18.336 9.75 18 9.414 18 9L18.0165 7.07549L14.433 10.659L13.3725 9.59847L16.971 6H15C14.586 6 14.25 5.664 14.25 5.25C14.25 4.836 14.586 4.5 15 4.5H18.729C18.9383 4.5 19.1273 4.58702 19.263 4.72577C19.4085 4.84875 19.5 5.028 19.5 5.25V9Z" fill="white"/>
</svg>
