<svg width="36" height="34" viewBox="0 0 36 34" fill="none" xmlns="http://www.w3.org/2000/svg">
<path fill-rule="evenodd" clip-rule="evenodd" d="M13.0863 2.93335C15.2283 -0.977785 20.7717 -0.977785 22.9156 2.93335L35.2843 25.5255C37.3664 29.3283 34.6565 34 30.3706 34H5.62944C1.3435 34 -1.36637 29.3283 0.715696 25.5255L13.0844 2.93335H13.0863ZM18 9.28206C18.497 9.28206 18.9737 9.48239 19.3251 9.83896C19.6766 10.1955 19.874 10.6792 19.874 11.1834V18.789C19.874 19.2932 19.6766 19.7769 19.3251 20.1334C18.9737 20.49 18.497 20.6903 18 20.6903C17.503 20.6903 17.0263 20.49 16.6749 20.1334C16.3234 19.7769 16.126 19.2932 16.126 18.789V11.1834C16.126 10.6792 16.3234 10.1955 16.6749 9.83896C17.0263 9.48239 17.503 9.28206 18 9.28206ZM19.874 26.3945C19.874 26.8988 19.6766 27.3824 19.3251 27.739C18.9737 28.0955 18.497 28.2959 18 28.2959C17.503 28.2959 17.0263 28.0955 16.6749 27.739C16.3234 27.3824 16.126 26.8988 16.126 26.3945C16.126 25.8902 16.3234 25.4066 16.6749 25.05C17.0263 24.6934 17.503 24.4931 18 24.4931C18.497 24.4931 18.9737 24.6934 19.3251 25.05C19.6766 25.4066 19.874 25.8902 19.874 26.3945Z" fill="#606EEA"/>
</svg>
