<svg width="45" height="45" viewBox="0 0 45 45" fill="none" xmlns="http://www.w3.org/2000/svg">
<path d="M43.2422 20.7422H24.2578V1.75781C24.2578 0.786973 23.4708 0 22.5 0C21.5292 0 20.7422 0.786973 20.7422 1.75781V20.7422H1.75781C0.786973 20.7422 0 21.5292 0 22.5C0 23.4708 0.786973 24.2578 1.75781 24.2578H20.7422V43.2422C20.7422 44.213 21.5292 45 22.5 45C23.4708 45 24.2578 44.213 24.2578 43.2422V24.2578H43.2422C44.213 24.2578 45 23.4708 45 22.5C45 21.5292 44.213 20.7422 43.2422 20.7422Z" fill="#606EEA"/>
</svg>
